%FSLAX45Y45*%
G04 Gerber Fmt 4.5, Leading zero omitted, Abs format (unit mm)*
G04 Created by KiCad (PCBNEW (5.0.1)-rc2) date 2018-10-24 13:35:08*
%MOMM*%
%LPD*%
G01*
G04 APERTURE LIST*
%ADD10C,0.381000*%
%ADD11C,0.200000*%
%ADD12C,0.300000*%
G04 APERTURE END LIST*
D10*
X12722000Y-15291000D02*
X4902200Y-18935700D01*
X19634200Y-15113000D02*
X19469100Y-15290800D01*
X19634200Y-3467100D02*
X19392900Y-3225800D01*
X12722000Y-15290800D02*
X19469100Y-15290800D01*
X19634200Y-15113000D02*
X19634200Y-3467100D01*
X19392900Y-3225800D02*
X14340840Y-3225800D01*
X14340840Y-3225800D02*
X14340840Y-3048000D01*
X14340840Y-3048000D02*
X13190220Y-3048000D01*
X13190220Y-3048000D02*
X13190220Y-3225800D01*
X13190220Y-3225800D02*
X9504680Y-3225800D01*
X9504680Y-3225800D02*
X9504680Y-3048000D01*
X9504680Y-3048000D02*
X8870950Y-3048000D01*
X8870950Y-3048000D02*
X8870950Y-3175000D01*
X8870950Y-3175000D02*
X8421370Y-3175000D01*
X8421370Y-3175000D02*
X8421370Y-3048000D01*
X8421370Y-3048000D02*
X7787640Y-3048000D01*
X7787640Y-3048000D02*
X7787640Y-3225800D01*
X7787640Y-3225800D02*
X6581140Y-3225800D01*
X6581140Y-3225800D02*
X6261100Y-3543300D01*
X6261100Y-3543300D02*
X6261100Y-11938000D01*
X6261100Y-11938000D02*
X2461768Y-13709650D01*
X2461768Y-13709650D02*
X2308098Y-14131544D01*
X2308098Y-14131544D02*
X4476496Y-18781776D01*
X4476496Y-18781776D02*
X4898390Y-18935192D01*
D11*
X8581390Y-3288030D02*
X8680450Y-3387090D01*
X8680450Y-3288030D02*
X8581390Y-3387090D01*
X8581390Y-3788410D02*
X8680450Y-3887470D01*
X8680450Y-3788410D02*
X8581390Y-3887470D01*
X18455410Y-4633000D02*
G75*
G03X18455410Y-4633000I-54610J0D01*
G01*
X19217410Y-4633000D02*
G75*
G03X19217410Y-4633000I-54610J0D01*
G01*
X6992708Y-14367397D02*
X6992708Y-14672197D01*
X6840308Y-14519797D02*
X7145108Y-14519797D01*
X8001752Y-16531297D02*
X8001752Y-16836097D01*
X7849352Y-16683697D02*
X8154152Y-16683697D01*
X12166674Y-3926674D02*
X12166674Y-3693326D01*
X11933326Y-3693326D01*
X11933326Y-3926674D01*
X12166674Y-3926674D01*
X4239874Y-17301074D02*
X4239874Y-17067726D01*
X4006526Y-17067726D01*
X4006526Y-17301074D01*
X4239874Y-17301074D01*
X7516674Y-3926674D02*
X7516674Y-3693326D01*
X7283326Y-3693326D01*
X7283326Y-3926674D01*
X7516674Y-3926674D01*
X18669000Y-10709656D02*
X18868390Y-10510266D01*
X18669000Y-10310876D01*
X18469610Y-10510266D01*
X18669000Y-10709656D01*
X14859000Y-14202156D02*
X15058390Y-14002766D01*
X14859000Y-13803376D01*
X14659610Y-14002766D01*
X14859000Y-14202156D01*
X6403848Y-16311118D02*
X6603238Y-16111728D01*
X6403848Y-15912338D01*
X6204458Y-16111728D01*
X6403848Y-16311118D01*
X5080000Y-17979390D02*
X5279390Y-17780000D01*
X5080000Y-17580610D01*
X4880610Y-17780000D01*
X5080000Y-17979390D01*
X8130286Y-15505938D02*
X8329676Y-15306548D01*
X8130286Y-15107158D01*
X7930896Y-15306548D01*
X8130286Y-15505938D01*
X8533130Y-16369284D02*
X8732520Y-16169894D01*
X8533130Y-15970504D01*
X8333740Y-16169894D01*
X8533130Y-16369284D01*
X16764000Y-8804656D02*
X16963390Y-8605266D01*
X16764000Y-8405876D01*
X16564610Y-8605266D01*
X16764000Y-8804656D01*
X11049000Y-6582156D02*
X11248390Y-6382766D01*
X11049000Y-6183376D01*
X10849610Y-6382766D01*
X11049000Y-6582156D01*
X7230649Y-12427455D02*
X7430039Y-12228065D01*
X7230649Y-12028675D01*
X7031259Y-12228065D01*
X7230649Y-12427455D01*
X11049000Y-14202156D02*
X11248390Y-14002766D01*
X11049000Y-13803376D01*
X10849610Y-14002766D01*
X11049000Y-14202156D01*
X11049000Y-10392156D02*
X11248390Y-10192766D01*
X11049000Y-9993376D01*
X10849610Y-10192766D01*
X11049000Y-10392156D01*
X11049000Y-8487156D02*
X11248390Y-8287766D01*
X11049000Y-8088376D01*
X10849610Y-8287766D01*
X11049000Y-8487156D01*
X4274820Y-16252698D02*
X4474210Y-16053308D01*
X4274820Y-15853918D01*
X4075430Y-16053308D01*
X4274820Y-16252698D01*
X5196332Y-13721334D02*
X5395722Y-13521944D01*
X5196332Y-13322554D01*
X4996942Y-13521944D01*
X5196332Y-13721334D01*
X12954000Y-8327390D02*
X13153390Y-8128000D01*
X12954000Y-7928610D01*
X12754610Y-8128000D01*
X12954000Y-8327390D01*
X9144000Y-6709410D02*
X9343390Y-6510020D01*
X9144000Y-6310630D01*
X8944610Y-6510020D01*
X9144000Y-6709410D01*
X7239254Y-8615680D02*
X7438644Y-8416290D01*
X7239254Y-8216900D01*
X7039864Y-8416290D01*
X7239254Y-8615680D01*
X16764000Y-10709656D02*
X16963390Y-10510266D01*
X16764000Y-10310876D01*
X16564610Y-10510266D01*
X16764000Y-10709656D01*
X12954000Y-14042390D02*
X13153390Y-13843000D01*
X12954000Y-13643610D01*
X12754610Y-13843000D01*
X12954000Y-14042390D01*
X9144000Y-8614156D02*
X9343390Y-8414766D01*
X9144000Y-8215376D01*
X8944610Y-8414766D01*
X9144000Y-8614156D01*
X6001512Y-15447772D02*
X6200902Y-15248382D01*
X6001512Y-15048992D01*
X5802122Y-15248382D01*
X6001512Y-15447772D01*
X7239000Y-6709410D02*
X7438390Y-6510020D01*
X7239000Y-6310630D01*
X7039610Y-6510020D01*
X7239000Y-6709410D01*
X18669000Y-8804656D02*
X18868390Y-8605266D01*
X18669000Y-8405876D01*
X18469610Y-8605266D01*
X18669000Y-8804656D01*
X9144000Y-12424156D02*
X9343390Y-12224766D01*
X9144000Y-12025376D01*
X8944610Y-12224766D01*
X9144000Y-12424156D01*
X14859000Y-10392156D02*
X15058390Y-10192766D01*
X14859000Y-9993376D01*
X14659610Y-10192766D01*
X14859000Y-10392156D01*
X9144000Y-10519156D02*
X9343390Y-10319766D01*
X9144000Y-10120376D01*
X8944610Y-10319766D01*
X9144000Y-10519156D01*
X3469894Y-14526260D02*
X3669284Y-14326870D01*
X3469894Y-14127480D01*
X3270504Y-14326870D01*
X3469894Y-14526260D01*
X14859000Y-8487156D02*
X15058390Y-8287766D01*
X14859000Y-8088376D01*
X14659610Y-8287766D01*
X14859000Y-8487156D01*
X18669000Y-6899910D02*
X18868390Y-6700520D01*
X18669000Y-6501130D01*
X18469610Y-6700520D01*
X18669000Y-6899910D01*
X7239254Y-10520680D02*
X7438644Y-10321290D01*
X7239254Y-10121900D01*
X7039864Y-10321290D01*
X7239254Y-10520680D01*
X12954000Y-10232390D02*
X13153390Y-10033000D01*
X12954000Y-9833610D01*
X12754610Y-10033000D01*
X12954000Y-10232390D01*
X12954000Y-12137390D02*
X13153390Y-11938000D01*
X12954000Y-11738610D01*
X12754610Y-11938000D01*
X12954000Y-12137390D01*
X18669000Y-14519656D02*
X18868390Y-14320266D01*
X18669000Y-14120876D01*
X18469610Y-14320266D01*
X18669000Y-14519656D01*
X16764000Y-12614656D02*
X16963390Y-12415266D01*
X16764000Y-12215876D01*
X16564610Y-12415266D01*
X16764000Y-12614656D01*
X8373921Y-14075116D02*
X8573311Y-13875726D01*
X8373921Y-13676336D01*
X8174531Y-13875726D01*
X8373921Y-14075116D01*
X9382965Y-16239017D02*
X9582355Y-16039627D01*
X9382965Y-15840237D01*
X9183575Y-16039627D01*
X9382965Y-16239017D01*
X7727950Y-14642592D02*
X7927340Y-14443202D01*
X7727950Y-14243812D01*
X7528560Y-14443202D01*
X7727950Y-14642592D01*
X16764000Y-6899910D02*
X16963390Y-6700520D01*
X16764000Y-6501130D01*
X16564610Y-6700520D01*
X16764000Y-6899910D01*
X18669000Y-12614656D02*
X18868390Y-12415266D01*
X18669000Y-12215876D01*
X18469610Y-12415266D01*
X18669000Y-12614656D01*
X11049000Y-12297156D02*
X11248390Y-12097766D01*
X11049000Y-11898376D01*
X10849610Y-12097766D01*
X11049000Y-12297156D01*
X14859000Y-12297156D02*
X15058390Y-12097766D01*
X14859000Y-11898376D01*
X14659610Y-12097766D01*
X14859000Y-12297156D01*
X16764000Y-14519656D02*
X16963390Y-14320266D01*
X16764000Y-14120876D01*
X16564610Y-14320266D01*
X16764000Y-14519656D01*
X6806438Y-17174210D02*
X7005828Y-16974820D01*
X6806438Y-16775430D01*
X6607048Y-16974820D01*
X6806438Y-17174210D01*
X12954000Y-6422390D02*
X13153390Y-6223000D01*
X12954000Y-6023610D01*
X12754610Y-6223000D01*
X12954000Y-6422390D01*
X14859000Y-6582156D02*
X15058390Y-6382766D01*
X14859000Y-6183376D01*
X14659610Y-6382766D01*
X14859000Y-6582156D01*
D12*
X2575476Y-19420464D02*
X2575476Y-19120464D01*
X2646905Y-19120464D01*
X2689762Y-19134750D01*
X2718334Y-19163322D01*
X2732619Y-19191893D01*
X2746905Y-19249036D01*
X2746905Y-19291893D01*
X2732619Y-19349036D01*
X2718334Y-19377607D01*
X2689762Y-19406179D01*
X2646905Y-19420464D01*
X2575476Y-19420464D01*
X2875476Y-19420464D02*
X2875476Y-19220464D01*
X2875476Y-19277607D02*
X2889762Y-19249036D01*
X2904048Y-19234750D01*
X2932619Y-19220464D01*
X2961191Y-19220464D01*
X3061191Y-19420464D02*
X3061191Y-19220464D01*
X3061191Y-19120464D02*
X3046905Y-19134750D01*
X3061191Y-19149036D01*
X3075476Y-19134750D01*
X3061191Y-19120464D01*
X3061191Y-19149036D01*
X3246905Y-19420464D02*
X3218334Y-19406179D01*
X3204048Y-19377607D01*
X3204048Y-19120464D01*
X3404048Y-19420464D02*
X3375476Y-19406179D01*
X3361191Y-19377607D01*
X3361191Y-19120464D01*
X3746905Y-19420464D02*
X3746905Y-19120464D01*
X3846905Y-19334750D01*
X3946905Y-19120464D01*
X3946905Y-19420464D01*
X4218334Y-19420464D02*
X4218334Y-19263322D01*
X4204048Y-19234750D01*
X4175476Y-19220464D01*
X4118334Y-19220464D01*
X4089762Y-19234750D01*
X4218334Y-19406179D02*
X4189762Y-19420464D01*
X4118334Y-19420464D01*
X4089762Y-19406179D01*
X4075476Y-19377607D01*
X4075476Y-19349036D01*
X4089762Y-19320464D01*
X4118334Y-19306179D01*
X4189762Y-19306179D01*
X4218334Y-19291893D01*
X4361191Y-19220464D02*
X4361191Y-19520464D01*
X4361191Y-19234750D02*
X4389762Y-19220464D01*
X4446905Y-19220464D01*
X4475476Y-19234750D01*
X4489762Y-19249036D01*
X4504048Y-19277607D01*
X4504048Y-19363322D01*
X4489762Y-19391893D01*
X4475476Y-19406179D01*
X4446905Y-19420464D01*
X4389762Y-19420464D01*
X4361191Y-19406179D01*
X4632619Y-19391893D02*
X4646905Y-19406179D01*
X4632619Y-19420464D01*
X4618334Y-19406179D01*
X4632619Y-19391893D01*
X4632619Y-19420464D01*
X4632619Y-19234750D02*
X4646905Y-19249036D01*
X4632619Y-19263322D01*
X4618334Y-19249036D01*
X4632619Y-19234750D01*
X4632619Y-19263322D01*
X2189988Y-19865220D02*
X2289048Y-19964280D01*
X2289048Y-19865220D02*
X2189988Y-19964280D01*
X2632619Y-19750464D02*
X2661191Y-19750464D01*
X2689762Y-19764750D01*
X2704048Y-19779036D01*
X2718334Y-19807607D01*
X2732619Y-19864750D01*
X2732619Y-19936179D01*
X2718334Y-19993322D01*
X2704048Y-20021893D01*
X2689762Y-20036179D01*
X2661191Y-20050464D01*
X2632619Y-20050464D01*
X2604048Y-20036179D01*
X2589762Y-20021893D01*
X2575476Y-19993322D01*
X2561191Y-19936179D01*
X2561191Y-19864750D01*
X2575476Y-19807607D01*
X2589762Y-19779036D01*
X2604048Y-19764750D01*
X2632619Y-19750464D01*
X2861191Y-20021893D02*
X2875476Y-20036179D01*
X2861191Y-20050464D01*
X2846905Y-20036179D01*
X2861191Y-20021893D01*
X2861191Y-20050464D01*
X3018334Y-20050464D02*
X3075476Y-20050464D01*
X3104048Y-20036179D01*
X3118334Y-20021893D01*
X3146905Y-19979036D01*
X3161191Y-19921893D01*
X3161191Y-19807607D01*
X3146905Y-19779036D01*
X3132619Y-19764750D01*
X3104048Y-19750464D01*
X3046905Y-19750464D01*
X3018334Y-19764750D01*
X3004048Y-19779036D01*
X2989762Y-19807607D01*
X2989762Y-19879036D01*
X3004048Y-19907607D01*
X3018334Y-19921893D01*
X3046905Y-19936179D01*
X3104048Y-19936179D01*
X3132619Y-19921893D01*
X3146905Y-19907607D01*
X3161191Y-19879036D01*
X3304048Y-20050464D02*
X3361191Y-20050464D01*
X3389762Y-20036179D01*
X3404048Y-20021893D01*
X3432619Y-19979036D01*
X3446905Y-19921893D01*
X3446905Y-19807607D01*
X3432619Y-19779036D01*
X3418334Y-19764750D01*
X3389762Y-19750464D01*
X3332619Y-19750464D01*
X3304048Y-19764750D01*
X3289762Y-19779036D01*
X3275476Y-19807607D01*
X3275476Y-19879036D01*
X3289762Y-19907607D01*
X3304048Y-19921893D01*
X3332619Y-19936179D01*
X3389762Y-19936179D01*
X3418334Y-19921893D01*
X3432619Y-19907607D01*
X3446905Y-19879036D01*
X3575476Y-20050464D02*
X3575476Y-19850464D01*
X3575476Y-19879036D02*
X3589762Y-19864750D01*
X3618334Y-19850464D01*
X3661191Y-19850464D01*
X3689762Y-19864750D01*
X3704048Y-19893322D01*
X3704048Y-20050464D01*
X3704048Y-19893322D02*
X3718334Y-19864750D01*
X3746905Y-19850464D01*
X3789762Y-19850464D01*
X3818334Y-19864750D01*
X3832619Y-19893322D01*
X3832619Y-20050464D01*
X3975476Y-20050464D02*
X3975476Y-19850464D01*
X3975476Y-19879036D02*
X3989762Y-19864750D01*
X4018334Y-19850464D01*
X4061191Y-19850464D01*
X4089762Y-19864750D01*
X4104048Y-19893322D01*
X4104048Y-20050464D01*
X4104048Y-19893322D02*
X4118334Y-19864750D01*
X4146905Y-19850464D01*
X4189762Y-19850464D01*
X4218334Y-19864750D01*
X4232619Y-19893322D01*
X4232619Y-20050464D01*
X4818334Y-19736179D02*
X4561191Y-20121893D01*
X5204048Y-19750464D02*
X5232619Y-19750464D01*
X5261191Y-19764750D01*
X5275476Y-19779036D01*
X5289762Y-19807607D01*
X5304048Y-19864750D01*
X5304048Y-19936179D01*
X5289762Y-19993322D01*
X5275476Y-20021893D01*
X5261191Y-20036179D01*
X5232619Y-20050464D01*
X5204048Y-20050464D01*
X5175476Y-20036179D01*
X5161191Y-20021893D01*
X5146905Y-19993322D01*
X5132619Y-19936179D01*
X5132619Y-19864750D01*
X5146905Y-19807607D01*
X5161191Y-19779036D01*
X5175476Y-19764750D01*
X5204048Y-19750464D01*
X5432619Y-20021893D02*
X5446905Y-20036179D01*
X5432619Y-20050464D01*
X5418334Y-20036179D01*
X5432619Y-20021893D01*
X5432619Y-20050464D01*
X5632619Y-19750464D02*
X5661191Y-19750464D01*
X5689762Y-19764750D01*
X5704048Y-19779036D01*
X5718334Y-19807607D01*
X5732619Y-19864750D01*
X5732619Y-19936179D01*
X5718334Y-19993322D01*
X5704048Y-20021893D01*
X5689762Y-20036179D01*
X5661191Y-20050464D01*
X5632619Y-20050464D01*
X5604048Y-20036179D01*
X5589762Y-20021893D01*
X5575476Y-19993322D01*
X5561191Y-19936179D01*
X5561191Y-19864750D01*
X5575476Y-19807607D01*
X5589762Y-19779036D01*
X5604048Y-19764750D01*
X5632619Y-19750464D01*
X5832619Y-19750464D02*
X6018334Y-19750464D01*
X5918334Y-19864750D01*
X5961191Y-19864750D01*
X5989762Y-19879036D01*
X6004048Y-19893322D01*
X6018334Y-19921893D01*
X6018334Y-19993322D01*
X6004048Y-20021893D01*
X5989762Y-20036179D01*
X5961191Y-20050464D01*
X5875476Y-20050464D01*
X5846905Y-20036179D01*
X5832619Y-20021893D01*
X6161191Y-20050464D02*
X6218334Y-20050464D01*
X6246905Y-20036179D01*
X6261191Y-20021893D01*
X6289762Y-19979036D01*
X6304048Y-19921893D01*
X6304048Y-19807607D01*
X6289762Y-19779036D01*
X6275476Y-19764750D01*
X6246905Y-19750464D01*
X6189762Y-19750464D01*
X6161191Y-19764750D01*
X6146905Y-19779036D01*
X6132619Y-19807607D01*
X6132619Y-19879036D01*
X6146905Y-19907607D01*
X6161191Y-19921893D01*
X6189762Y-19936179D01*
X6246905Y-19936179D01*
X6275476Y-19921893D01*
X6289762Y-19907607D01*
X6304048Y-19879036D01*
X6418334Y-19750464D02*
X6418334Y-19807607D01*
X6532619Y-19750464D02*
X6532619Y-19807607D01*
X6975476Y-20164750D02*
X6961191Y-20150464D01*
X6932619Y-20107607D01*
X6918334Y-20079036D01*
X6904048Y-20036179D01*
X6889762Y-19964750D01*
X6889762Y-19907607D01*
X6904048Y-19836179D01*
X6918334Y-19793322D01*
X6932619Y-19764750D01*
X6961191Y-19721893D01*
X6975476Y-19707607D01*
X7075476Y-19779036D02*
X7089762Y-19764750D01*
X7118334Y-19750464D01*
X7189762Y-19750464D01*
X7218334Y-19764750D01*
X7232619Y-19779036D01*
X7246905Y-19807607D01*
X7246905Y-19836179D01*
X7232619Y-19879036D01*
X7061191Y-20050464D01*
X7246905Y-20050464D01*
X7604048Y-20050464D02*
X7604048Y-19750464D01*
X7732619Y-20050464D02*
X7732619Y-19893322D01*
X7718334Y-19864750D01*
X7689762Y-19850464D01*
X7646905Y-19850464D01*
X7618334Y-19864750D01*
X7604048Y-19879036D01*
X7918334Y-20050464D02*
X7889762Y-20036179D01*
X7875476Y-20021893D01*
X7861191Y-19993322D01*
X7861191Y-19907607D01*
X7875476Y-19879036D01*
X7889762Y-19864750D01*
X7918334Y-19850464D01*
X7961191Y-19850464D01*
X7989762Y-19864750D01*
X8004048Y-19879036D01*
X8018334Y-19907607D01*
X8018334Y-19993322D01*
X8004048Y-20021893D01*
X7989762Y-20036179D01*
X7961191Y-20050464D01*
X7918334Y-20050464D01*
X8189762Y-20050464D02*
X8161191Y-20036179D01*
X8146905Y-20007607D01*
X8146905Y-19750464D01*
X8418334Y-20036179D02*
X8389762Y-20050464D01*
X8332619Y-20050464D01*
X8304048Y-20036179D01*
X8289762Y-20007607D01*
X8289762Y-19893322D01*
X8304048Y-19864750D01*
X8332619Y-19850464D01*
X8389762Y-19850464D01*
X8418334Y-19864750D01*
X8432619Y-19893322D01*
X8432619Y-19921893D01*
X8289762Y-19950464D01*
X8546905Y-20036179D02*
X8575476Y-20050464D01*
X8632619Y-20050464D01*
X8661191Y-20036179D01*
X8675476Y-20007607D01*
X8675476Y-19993322D01*
X8661191Y-19964750D01*
X8632619Y-19950464D01*
X8589762Y-19950464D01*
X8561191Y-19936179D01*
X8546905Y-19907607D01*
X8546905Y-19893322D01*
X8561191Y-19864750D01*
X8589762Y-19850464D01*
X8632619Y-19850464D01*
X8661191Y-19864750D01*
X8775476Y-20164750D02*
X8789762Y-20150464D01*
X8818334Y-20107607D01*
X8832619Y-20079036D01*
X8846905Y-20036179D01*
X8861191Y-19964750D01*
X8861191Y-19907607D01*
X8846905Y-19836179D01*
X8832619Y-19793322D01*
X8818334Y-19764750D01*
X8789762Y-19721893D01*
X8775476Y-19707607D01*
X9318334Y-20164750D02*
X9304048Y-20150464D01*
X9275476Y-20107607D01*
X9261191Y-20079036D01*
X9246905Y-20036179D01*
X9232619Y-19964750D01*
X9232619Y-19907607D01*
X9246905Y-19836179D01*
X9261191Y-19793322D01*
X9275476Y-19764750D01*
X9304048Y-19721893D01*
X9318334Y-19707607D01*
X9432619Y-19850464D02*
X9432619Y-20050464D01*
X9432619Y-19879036D02*
X9446905Y-19864750D01*
X9475476Y-19850464D01*
X9518334Y-19850464D01*
X9546905Y-19864750D01*
X9561191Y-19893322D01*
X9561191Y-20050464D01*
X9746905Y-20050464D02*
X9718334Y-20036179D01*
X9704048Y-20021893D01*
X9689762Y-19993322D01*
X9689762Y-19907607D01*
X9704048Y-19879036D01*
X9718334Y-19864750D01*
X9746905Y-19850464D01*
X9789762Y-19850464D01*
X9818334Y-19864750D01*
X9832619Y-19879036D01*
X9846905Y-19907607D01*
X9846905Y-19993322D01*
X9832619Y-20021893D01*
X9818334Y-20036179D01*
X9789762Y-20050464D01*
X9746905Y-20050464D01*
X9932619Y-19850464D02*
X10046905Y-19850464D01*
X9975476Y-19750464D02*
X9975476Y-20007607D01*
X9989762Y-20036179D01*
X10018334Y-20050464D01*
X10046905Y-20050464D01*
X10375476Y-19850464D02*
X10375476Y-20150464D01*
X10375476Y-19864750D02*
X10404048Y-19850464D01*
X10461191Y-19850464D01*
X10489762Y-19864750D01*
X10504048Y-19879036D01*
X10518334Y-19907607D01*
X10518334Y-19993322D01*
X10504048Y-20021893D01*
X10489762Y-20036179D01*
X10461191Y-20050464D01*
X10404048Y-20050464D01*
X10375476Y-20036179D01*
X10689762Y-20050464D02*
X10661191Y-20036179D01*
X10646905Y-20007607D01*
X10646905Y-19750464D01*
X10932619Y-20050464D02*
X10932619Y-19893322D01*
X10918334Y-19864750D01*
X10889762Y-19850464D01*
X10832619Y-19850464D01*
X10804048Y-19864750D01*
X10932619Y-20036179D02*
X10904048Y-20050464D01*
X10832619Y-20050464D01*
X10804048Y-20036179D01*
X10789762Y-20007607D01*
X10789762Y-19979036D01*
X10804048Y-19950464D01*
X10832619Y-19936179D01*
X10904048Y-19936179D01*
X10932619Y-19921893D01*
X11032619Y-19850464D02*
X11146905Y-19850464D01*
X11075476Y-19750464D02*
X11075476Y-20007607D01*
X11089762Y-20036179D01*
X11118334Y-20050464D01*
X11146905Y-20050464D01*
X11361191Y-20036179D02*
X11332619Y-20050464D01*
X11275476Y-20050464D01*
X11246905Y-20036179D01*
X11232619Y-20007607D01*
X11232619Y-19893322D01*
X11246905Y-19864750D01*
X11275476Y-19850464D01*
X11332619Y-19850464D01*
X11361191Y-19864750D01*
X11375476Y-19893322D01*
X11375476Y-19921893D01*
X11232619Y-19950464D01*
X11632619Y-20050464D02*
X11632619Y-19750464D01*
X11632619Y-20036179D02*
X11604048Y-20050464D01*
X11546905Y-20050464D01*
X11518334Y-20036179D01*
X11504048Y-20021893D01*
X11489762Y-19993322D01*
X11489762Y-19907607D01*
X11504048Y-19879036D01*
X11518334Y-19864750D01*
X11546905Y-19850464D01*
X11604048Y-19850464D01*
X11632619Y-19864750D01*
X11746905Y-20164750D02*
X11761191Y-20150464D01*
X11789762Y-20107607D01*
X11804048Y-20079036D01*
X11818334Y-20036179D01*
X11832619Y-19964750D01*
X11832619Y-19907607D01*
X11818334Y-19836179D01*
X11804048Y-19793322D01*
X11789762Y-19764750D01*
X11761191Y-19721893D01*
X11746905Y-19707607D01*
X2289048Y-20310750D02*
G75*
G03X2289048Y-20310750I-54610J0D01*
G01*
X2732619Y-20446464D02*
X2561191Y-20446464D01*
X2646905Y-20446464D02*
X2646905Y-20146464D01*
X2618334Y-20189322D01*
X2589762Y-20217893D01*
X2561191Y-20232179D01*
X2861191Y-20417893D02*
X2875476Y-20432179D01*
X2861191Y-20446464D01*
X2846905Y-20432179D01*
X2861191Y-20417893D01*
X2861191Y-20446464D01*
X3061191Y-20146464D02*
X3089762Y-20146464D01*
X3118334Y-20160750D01*
X3132619Y-20175036D01*
X3146905Y-20203607D01*
X3161191Y-20260750D01*
X3161191Y-20332179D01*
X3146905Y-20389322D01*
X3132619Y-20417893D01*
X3118334Y-20432179D01*
X3089762Y-20446464D01*
X3061191Y-20446464D01*
X3032619Y-20432179D01*
X3018334Y-20417893D01*
X3004048Y-20389322D01*
X2989762Y-20332179D01*
X2989762Y-20260750D01*
X3004048Y-20203607D01*
X3018334Y-20175036D01*
X3032619Y-20160750D01*
X3061191Y-20146464D01*
X3304048Y-20446464D02*
X3361191Y-20446464D01*
X3389762Y-20432179D01*
X3404048Y-20417893D01*
X3432619Y-20375036D01*
X3446905Y-20317893D01*
X3446905Y-20203607D01*
X3432619Y-20175036D01*
X3418334Y-20160750D01*
X3389762Y-20146464D01*
X3332619Y-20146464D01*
X3304048Y-20160750D01*
X3289762Y-20175036D01*
X3275476Y-20203607D01*
X3275476Y-20275036D01*
X3289762Y-20303607D01*
X3304048Y-20317893D01*
X3332619Y-20332179D01*
X3389762Y-20332179D01*
X3418334Y-20317893D01*
X3432619Y-20303607D01*
X3446905Y-20275036D01*
X3575476Y-20446464D02*
X3575476Y-20246464D01*
X3575476Y-20275036D02*
X3589762Y-20260750D01*
X3618334Y-20246464D01*
X3661191Y-20246464D01*
X3689762Y-20260750D01*
X3704048Y-20289322D01*
X3704048Y-20446464D01*
X3704048Y-20289322D02*
X3718334Y-20260750D01*
X3746905Y-20246464D01*
X3789762Y-20246464D01*
X3818334Y-20260750D01*
X3832619Y-20289322D01*
X3832619Y-20446464D01*
X3975476Y-20446464D02*
X3975476Y-20246464D01*
X3975476Y-20275036D02*
X3989762Y-20260750D01*
X4018334Y-20246464D01*
X4061191Y-20246464D01*
X4089762Y-20260750D01*
X4104048Y-20289322D01*
X4104048Y-20446464D01*
X4104048Y-20289322D02*
X4118334Y-20260750D01*
X4146905Y-20246464D01*
X4189762Y-20246464D01*
X4218334Y-20260750D01*
X4232619Y-20289322D01*
X4232619Y-20446464D01*
X4818334Y-20132179D02*
X4561191Y-20517893D01*
X5204048Y-20146464D02*
X5232619Y-20146464D01*
X5261191Y-20160750D01*
X5275476Y-20175036D01*
X5289762Y-20203607D01*
X5304048Y-20260750D01*
X5304048Y-20332179D01*
X5289762Y-20389322D01*
X5275476Y-20417893D01*
X5261191Y-20432179D01*
X5232619Y-20446464D01*
X5204048Y-20446464D01*
X5175476Y-20432179D01*
X5161191Y-20417893D01*
X5146905Y-20389322D01*
X5132619Y-20332179D01*
X5132619Y-20260750D01*
X5146905Y-20203607D01*
X5161191Y-20175036D01*
X5175476Y-20160750D01*
X5204048Y-20146464D01*
X5432619Y-20417893D02*
X5446905Y-20432179D01*
X5432619Y-20446464D01*
X5418334Y-20432179D01*
X5432619Y-20417893D01*
X5432619Y-20446464D01*
X5632619Y-20146464D02*
X5661191Y-20146464D01*
X5689762Y-20160750D01*
X5704048Y-20175036D01*
X5718334Y-20203607D01*
X5732619Y-20260750D01*
X5732619Y-20332179D01*
X5718334Y-20389322D01*
X5704048Y-20417893D01*
X5689762Y-20432179D01*
X5661191Y-20446464D01*
X5632619Y-20446464D01*
X5604048Y-20432179D01*
X5589762Y-20417893D01*
X5575476Y-20389322D01*
X5561191Y-20332179D01*
X5561191Y-20260750D01*
X5575476Y-20203607D01*
X5589762Y-20175036D01*
X5604048Y-20160750D01*
X5632619Y-20146464D01*
X5989762Y-20246464D02*
X5989762Y-20446464D01*
X5918334Y-20132179D02*
X5846905Y-20346464D01*
X6032619Y-20346464D01*
X6118334Y-20146464D02*
X6304048Y-20146464D01*
X6204048Y-20260750D01*
X6246905Y-20260750D01*
X6275476Y-20275036D01*
X6289762Y-20289322D01*
X6304048Y-20317893D01*
X6304048Y-20389322D01*
X6289762Y-20417893D01*
X6275476Y-20432179D01*
X6246905Y-20446464D01*
X6161191Y-20446464D01*
X6132619Y-20432179D01*
X6118334Y-20417893D01*
X6418334Y-20146464D02*
X6418334Y-20203607D01*
X6532619Y-20146464D02*
X6532619Y-20203607D01*
X6975476Y-20560750D02*
X6961191Y-20546464D01*
X6932619Y-20503607D01*
X6918334Y-20475036D01*
X6904048Y-20432179D01*
X6889762Y-20360750D01*
X6889762Y-20303607D01*
X6904048Y-20232179D01*
X6918334Y-20189322D01*
X6932619Y-20160750D01*
X6961191Y-20117893D01*
X6975476Y-20103607D01*
X7075476Y-20175036D02*
X7089762Y-20160750D01*
X7118334Y-20146464D01*
X7189762Y-20146464D01*
X7218334Y-20160750D01*
X7232619Y-20175036D01*
X7246905Y-20203607D01*
X7246905Y-20232179D01*
X7232619Y-20275036D01*
X7061191Y-20446464D01*
X7246905Y-20446464D01*
X7604048Y-20446464D02*
X7604048Y-20146464D01*
X7732619Y-20446464D02*
X7732619Y-20289322D01*
X7718334Y-20260750D01*
X7689762Y-20246464D01*
X7646905Y-20246464D01*
X7618334Y-20260750D01*
X7604048Y-20275036D01*
X7918334Y-20446464D02*
X7889762Y-20432179D01*
X7875476Y-20417893D01*
X7861191Y-20389322D01*
X7861191Y-20303607D01*
X7875476Y-20275036D01*
X7889762Y-20260750D01*
X7918334Y-20246464D01*
X7961191Y-20246464D01*
X7989762Y-20260750D01*
X8004048Y-20275036D01*
X8018334Y-20303607D01*
X8018334Y-20389322D01*
X8004048Y-20417893D01*
X7989762Y-20432179D01*
X7961191Y-20446464D01*
X7918334Y-20446464D01*
X8189762Y-20446464D02*
X8161191Y-20432179D01*
X8146905Y-20403607D01*
X8146905Y-20146464D01*
X8418334Y-20432179D02*
X8389762Y-20446464D01*
X8332619Y-20446464D01*
X8304048Y-20432179D01*
X8289762Y-20403607D01*
X8289762Y-20289322D01*
X8304048Y-20260750D01*
X8332619Y-20246464D01*
X8389762Y-20246464D01*
X8418334Y-20260750D01*
X8432619Y-20289322D01*
X8432619Y-20317893D01*
X8289762Y-20346464D01*
X8546905Y-20432179D02*
X8575476Y-20446464D01*
X8632619Y-20446464D01*
X8661191Y-20432179D01*
X8675476Y-20403607D01*
X8675476Y-20389322D01*
X8661191Y-20360750D01*
X8632619Y-20346464D01*
X8589762Y-20346464D01*
X8561191Y-20332179D01*
X8546905Y-20303607D01*
X8546905Y-20289322D01*
X8561191Y-20260750D01*
X8589762Y-20246464D01*
X8632619Y-20246464D01*
X8661191Y-20260750D01*
X8775476Y-20560750D02*
X8789762Y-20546464D01*
X8818334Y-20503607D01*
X8832619Y-20475036D01*
X8846905Y-20432179D01*
X8861191Y-20360750D01*
X8861191Y-20303607D01*
X8846905Y-20232179D01*
X8832619Y-20189322D01*
X8818334Y-20160750D01*
X8789762Y-20117893D01*
X8775476Y-20103607D01*
X9318334Y-20560750D02*
X9304048Y-20546464D01*
X9275476Y-20503607D01*
X9261191Y-20475036D01*
X9246905Y-20432179D01*
X9232619Y-20360750D01*
X9232619Y-20303607D01*
X9246905Y-20232179D01*
X9261191Y-20189322D01*
X9275476Y-20160750D01*
X9304048Y-20117893D01*
X9318334Y-20103607D01*
X9432619Y-20246464D02*
X9432619Y-20446464D01*
X9432619Y-20275036D02*
X9446905Y-20260750D01*
X9475476Y-20246464D01*
X9518334Y-20246464D01*
X9546905Y-20260750D01*
X9561191Y-20289322D01*
X9561191Y-20446464D01*
X9746905Y-20446464D02*
X9718334Y-20432179D01*
X9704048Y-20417893D01*
X9689762Y-20389322D01*
X9689762Y-20303607D01*
X9704048Y-20275036D01*
X9718334Y-20260750D01*
X9746905Y-20246464D01*
X9789762Y-20246464D01*
X9818334Y-20260750D01*
X9832619Y-20275036D01*
X9846905Y-20303607D01*
X9846905Y-20389322D01*
X9832619Y-20417893D01*
X9818334Y-20432179D01*
X9789762Y-20446464D01*
X9746905Y-20446464D01*
X9932619Y-20246464D02*
X10046905Y-20246464D01*
X9975476Y-20146464D02*
X9975476Y-20403607D01*
X9989762Y-20432179D01*
X10018334Y-20446464D01*
X10046905Y-20446464D01*
X10375476Y-20246464D02*
X10375476Y-20546464D01*
X10375476Y-20260750D02*
X10404048Y-20246464D01*
X10461191Y-20246464D01*
X10489762Y-20260750D01*
X10504048Y-20275036D01*
X10518334Y-20303607D01*
X10518334Y-20389322D01*
X10504048Y-20417893D01*
X10489762Y-20432179D01*
X10461191Y-20446464D01*
X10404048Y-20446464D01*
X10375476Y-20432179D01*
X10689762Y-20446464D02*
X10661191Y-20432179D01*
X10646905Y-20403607D01*
X10646905Y-20146464D01*
X10932619Y-20446464D02*
X10932619Y-20289322D01*
X10918334Y-20260750D01*
X10889762Y-20246464D01*
X10832619Y-20246464D01*
X10804048Y-20260750D01*
X10932619Y-20432179D02*
X10904048Y-20446464D01*
X10832619Y-20446464D01*
X10804048Y-20432179D01*
X10789762Y-20403607D01*
X10789762Y-20375036D01*
X10804048Y-20346464D01*
X10832619Y-20332179D01*
X10904048Y-20332179D01*
X10932619Y-20317893D01*
X11032619Y-20246464D02*
X11146905Y-20246464D01*
X11075476Y-20146464D02*
X11075476Y-20403607D01*
X11089762Y-20432179D01*
X11118334Y-20446464D01*
X11146905Y-20446464D01*
X11361191Y-20432179D02*
X11332619Y-20446464D01*
X11275476Y-20446464D01*
X11246905Y-20432179D01*
X11232619Y-20403607D01*
X11232619Y-20289322D01*
X11246905Y-20260750D01*
X11275476Y-20246464D01*
X11332619Y-20246464D01*
X11361191Y-20260750D01*
X11375476Y-20289322D01*
X11375476Y-20317893D01*
X11232619Y-20346464D01*
X11632619Y-20446464D02*
X11632619Y-20146464D01*
X11632619Y-20432179D02*
X11604048Y-20446464D01*
X11546905Y-20446464D01*
X11518334Y-20432179D01*
X11504048Y-20417893D01*
X11489762Y-20389322D01*
X11489762Y-20303607D01*
X11504048Y-20275036D01*
X11518334Y-20260750D01*
X11546905Y-20246464D01*
X11604048Y-20246464D01*
X11632619Y-20260750D01*
X11746905Y-20560750D02*
X11761191Y-20546464D01*
X11789762Y-20503607D01*
X11804048Y-20475036D01*
X11818334Y-20432179D01*
X11832619Y-20360750D01*
X11832619Y-20303607D01*
X11818334Y-20232179D01*
X11804048Y-20189322D01*
X11789762Y-20160750D01*
X11761191Y-20117893D01*
X11746905Y-20103607D01*
X2136648Y-20554350D02*
X2136648Y-20859150D01*
X1984248Y-20706750D02*
X2289048Y-20706750D01*
X2546905Y-20542464D02*
X2732619Y-20542464D01*
X2632619Y-20656750D01*
X2675476Y-20656750D01*
X2704048Y-20671036D01*
X2718334Y-20685322D01*
X2732619Y-20713893D01*
X2732619Y-20785322D01*
X2718334Y-20813893D01*
X2704048Y-20828179D01*
X2675476Y-20842464D01*
X2589762Y-20842464D01*
X2561191Y-20828179D01*
X2546905Y-20813893D01*
X2861191Y-20813893D02*
X2875476Y-20828179D01*
X2861191Y-20842464D01*
X2846905Y-20828179D01*
X2861191Y-20813893D01*
X2861191Y-20842464D01*
X3061191Y-20542464D02*
X3089762Y-20542464D01*
X3118334Y-20556750D01*
X3132619Y-20571036D01*
X3146905Y-20599607D01*
X3161191Y-20656750D01*
X3161191Y-20728179D01*
X3146905Y-20785322D01*
X3132619Y-20813893D01*
X3118334Y-20828179D01*
X3089762Y-20842464D01*
X3061191Y-20842464D01*
X3032619Y-20828179D01*
X3018334Y-20813893D01*
X3004048Y-20785322D01*
X2989762Y-20728179D01*
X2989762Y-20656750D01*
X3004048Y-20599607D01*
X3018334Y-20571036D01*
X3032619Y-20556750D01*
X3061191Y-20542464D01*
X3432619Y-20542464D02*
X3289762Y-20542464D01*
X3275476Y-20685322D01*
X3289762Y-20671036D01*
X3318334Y-20656750D01*
X3389762Y-20656750D01*
X3418334Y-20671036D01*
X3432619Y-20685322D01*
X3446905Y-20713893D01*
X3446905Y-20785322D01*
X3432619Y-20813893D01*
X3418334Y-20828179D01*
X3389762Y-20842464D01*
X3318334Y-20842464D01*
X3289762Y-20828179D01*
X3275476Y-20813893D01*
X3575476Y-20842464D02*
X3575476Y-20642464D01*
X3575476Y-20671036D02*
X3589762Y-20656750D01*
X3618334Y-20642464D01*
X3661191Y-20642464D01*
X3689762Y-20656750D01*
X3704048Y-20685322D01*
X3704048Y-20842464D01*
X3704048Y-20685322D02*
X3718334Y-20656750D01*
X3746905Y-20642464D01*
X3789762Y-20642464D01*
X3818334Y-20656750D01*
X3832619Y-20685322D01*
X3832619Y-20842464D01*
X3975476Y-20842464D02*
X3975476Y-20642464D01*
X3975476Y-20671036D02*
X3989762Y-20656750D01*
X4018334Y-20642464D01*
X4061191Y-20642464D01*
X4089762Y-20656750D01*
X4104048Y-20685322D01*
X4104048Y-20842464D01*
X4104048Y-20685322D02*
X4118334Y-20656750D01*
X4146905Y-20642464D01*
X4189762Y-20642464D01*
X4218334Y-20656750D01*
X4232619Y-20685322D01*
X4232619Y-20842464D01*
X4818334Y-20528179D02*
X4561191Y-20913893D01*
X5204048Y-20542464D02*
X5232619Y-20542464D01*
X5261191Y-20556750D01*
X5275476Y-20571036D01*
X5289762Y-20599607D01*
X5304048Y-20656750D01*
X5304048Y-20728179D01*
X5289762Y-20785322D01*
X5275476Y-20813893D01*
X5261191Y-20828179D01*
X5232619Y-20842464D01*
X5204048Y-20842464D01*
X5175476Y-20828179D01*
X5161191Y-20813893D01*
X5146905Y-20785322D01*
X5132619Y-20728179D01*
X5132619Y-20656750D01*
X5146905Y-20599607D01*
X5161191Y-20571036D01*
X5175476Y-20556750D01*
X5204048Y-20542464D01*
X5432619Y-20813893D02*
X5446905Y-20828179D01*
X5432619Y-20842464D01*
X5418334Y-20828179D01*
X5432619Y-20813893D01*
X5432619Y-20842464D01*
X5732619Y-20842464D02*
X5561191Y-20842464D01*
X5646905Y-20842464D02*
X5646905Y-20542464D01*
X5618334Y-20585322D01*
X5589762Y-20613893D01*
X5561191Y-20628179D01*
X5846905Y-20571036D02*
X5861191Y-20556750D01*
X5889762Y-20542464D01*
X5961191Y-20542464D01*
X5989762Y-20556750D01*
X6004048Y-20571036D01*
X6018334Y-20599607D01*
X6018334Y-20628179D01*
X6004048Y-20671036D01*
X5832619Y-20842464D01*
X6018334Y-20842464D01*
X6204048Y-20542464D02*
X6232619Y-20542464D01*
X6261191Y-20556750D01*
X6275476Y-20571036D01*
X6289762Y-20599607D01*
X6304048Y-20656750D01*
X6304048Y-20728179D01*
X6289762Y-20785322D01*
X6275476Y-20813893D01*
X6261191Y-20828179D01*
X6232619Y-20842464D01*
X6204048Y-20842464D01*
X6175476Y-20828179D01*
X6161191Y-20813893D01*
X6146905Y-20785322D01*
X6132619Y-20728179D01*
X6132619Y-20656750D01*
X6146905Y-20599607D01*
X6161191Y-20571036D01*
X6175476Y-20556750D01*
X6204048Y-20542464D01*
X6418334Y-20542464D02*
X6418334Y-20599607D01*
X6532619Y-20542464D02*
X6532619Y-20599607D01*
X6975476Y-20956750D02*
X6961191Y-20942464D01*
X6932619Y-20899607D01*
X6918334Y-20871036D01*
X6904048Y-20828179D01*
X6889762Y-20756750D01*
X6889762Y-20699607D01*
X6904048Y-20628179D01*
X6918334Y-20585322D01*
X6932619Y-20556750D01*
X6961191Y-20513893D01*
X6975476Y-20499607D01*
X7075476Y-20571036D02*
X7089762Y-20556750D01*
X7118334Y-20542464D01*
X7189762Y-20542464D01*
X7218334Y-20556750D01*
X7232619Y-20571036D01*
X7246905Y-20599607D01*
X7246905Y-20628179D01*
X7232619Y-20671036D01*
X7061191Y-20842464D01*
X7246905Y-20842464D01*
X7604048Y-20842464D02*
X7604048Y-20542464D01*
X7732619Y-20842464D02*
X7732619Y-20685322D01*
X7718334Y-20656750D01*
X7689762Y-20642464D01*
X7646905Y-20642464D01*
X7618334Y-20656750D01*
X7604048Y-20671036D01*
X7918334Y-20842464D02*
X7889762Y-20828179D01*
X7875476Y-20813893D01*
X7861191Y-20785322D01*
X7861191Y-20699607D01*
X7875476Y-20671036D01*
X7889762Y-20656750D01*
X7918334Y-20642464D01*
X7961191Y-20642464D01*
X7989762Y-20656750D01*
X8004048Y-20671036D01*
X8018334Y-20699607D01*
X8018334Y-20785322D01*
X8004048Y-20813893D01*
X7989762Y-20828179D01*
X7961191Y-20842464D01*
X7918334Y-20842464D01*
X8189762Y-20842464D02*
X8161191Y-20828179D01*
X8146905Y-20799607D01*
X8146905Y-20542464D01*
X8418334Y-20828179D02*
X8389762Y-20842464D01*
X8332619Y-20842464D01*
X8304048Y-20828179D01*
X8289762Y-20799607D01*
X8289762Y-20685322D01*
X8304048Y-20656750D01*
X8332619Y-20642464D01*
X8389762Y-20642464D01*
X8418334Y-20656750D01*
X8432619Y-20685322D01*
X8432619Y-20713893D01*
X8289762Y-20742464D01*
X8546905Y-20828179D02*
X8575476Y-20842464D01*
X8632619Y-20842464D01*
X8661191Y-20828179D01*
X8675476Y-20799607D01*
X8675476Y-20785322D01*
X8661191Y-20756750D01*
X8632619Y-20742464D01*
X8589762Y-20742464D01*
X8561191Y-20728179D01*
X8546905Y-20699607D01*
X8546905Y-20685322D01*
X8561191Y-20656750D01*
X8589762Y-20642464D01*
X8632619Y-20642464D01*
X8661191Y-20656750D01*
X8775476Y-20956750D02*
X8789762Y-20942464D01*
X8818334Y-20899607D01*
X8832619Y-20871036D01*
X8846905Y-20828179D01*
X8861191Y-20756750D01*
X8861191Y-20699607D01*
X8846905Y-20628179D01*
X8832619Y-20585322D01*
X8818334Y-20556750D01*
X8789762Y-20513893D01*
X8775476Y-20499607D01*
X9318334Y-20956750D02*
X9304048Y-20942464D01*
X9275476Y-20899607D01*
X9261191Y-20871036D01*
X9246905Y-20828179D01*
X9232619Y-20756750D01*
X9232619Y-20699607D01*
X9246905Y-20628179D01*
X9261191Y-20585322D01*
X9275476Y-20556750D01*
X9304048Y-20513893D01*
X9318334Y-20499607D01*
X9432619Y-20642464D02*
X9432619Y-20842464D01*
X9432619Y-20671036D02*
X9446905Y-20656750D01*
X9475476Y-20642464D01*
X9518334Y-20642464D01*
X9546905Y-20656750D01*
X9561191Y-20685322D01*
X9561191Y-20842464D01*
X9746905Y-20842464D02*
X9718334Y-20828179D01*
X9704048Y-20813893D01*
X9689762Y-20785322D01*
X9689762Y-20699607D01*
X9704048Y-20671036D01*
X9718334Y-20656750D01*
X9746905Y-20642464D01*
X9789762Y-20642464D01*
X9818334Y-20656750D01*
X9832619Y-20671036D01*
X9846905Y-20699607D01*
X9846905Y-20785322D01*
X9832619Y-20813893D01*
X9818334Y-20828179D01*
X9789762Y-20842464D01*
X9746905Y-20842464D01*
X9932619Y-20642464D02*
X10046905Y-20642464D01*
X9975476Y-20542464D02*
X9975476Y-20799607D01*
X9989762Y-20828179D01*
X10018334Y-20842464D01*
X10046905Y-20842464D01*
X10375476Y-20642464D02*
X10375476Y-20942464D01*
X10375476Y-20656750D02*
X10404048Y-20642464D01*
X10461191Y-20642464D01*
X10489762Y-20656750D01*
X10504048Y-20671036D01*
X10518334Y-20699607D01*
X10518334Y-20785322D01*
X10504048Y-20813893D01*
X10489762Y-20828179D01*
X10461191Y-20842464D01*
X10404048Y-20842464D01*
X10375476Y-20828179D01*
X10689762Y-20842464D02*
X10661191Y-20828179D01*
X10646905Y-20799607D01*
X10646905Y-20542464D01*
X10932619Y-20842464D02*
X10932619Y-20685322D01*
X10918334Y-20656750D01*
X10889762Y-20642464D01*
X10832619Y-20642464D01*
X10804048Y-20656750D01*
X10932619Y-20828179D02*
X10904048Y-20842464D01*
X10832619Y-20842464D01*
X10804048Y-20828179D01*
X10789762Y-20799607D01*
X10789762Y-20771036D01*
X10804048Y-20742464D01*
X10832619Y-20728179D01*
X10904048Y-20728179D01*
X10932619Y-20713893D01*
X11032619Y-20642464D02*
X11146905Y-20642464D01*
X11075476Y-20542464D02*
X11075476Y-20799607D01*
X11089762Y-20828179D01*
X11118334Y-20842464D01*
X11146905Y-20842464D01*
X11361191Y-20828179D02*
X11332619Y-20842464D01*
X11275476Y-20842464D01*
X11246905Y-20828179D01*
X11232619Y-20799607D01*
X11232619Y-20685322D01*
X11246905Y-20656750D01*
X11275476Y-20642464D01*
X11332619Y-20642464D01*
X11361191Y-20656750D01*
X11375476Y-20685322D01*
X11375476Y-20713893D01*
X11232619Y-20742464D01*
X11632619Y-20842464D02*
X11632619Y-20542464D01*
X11632619Y-20828179D02*
X11604048Y-20842464D01*
X11546905Y-20842464D01*
X11518334Y-20828179D01*
X11504048Y-20813893D01*
X11489762Y-20785322D01*
X11489762Y-20699607D01*
X11504048Y-20671036D01*
X11518334Y-20656750D01*
X11546905Y-20642464D01*
X11604048Y-20642464D01*
X11632619Y-20656750D01*
X11746905Y-20956750D02*
X11761191Y-20942464D01*
X11789762Y-20899607D01*
X11804048Y-20871036D01*
X11818334Y-20828179D01*
X11832619Y-20756750D01*
X11832619Y-20699607D01*
X11818334Y-20628179D01*
X11804048Y-20585322D01*
X11789762Y-20556750D01*
X11761191Y-20513893D01*
X11746905Y-20499607D01*
X2240722Y-21258224D02*
X2240722Y-21024876D01*
X2007374Y-21024876D01*
X2007374Y-21258224D01*
X2240722Y-21258224D01*
X2546905Y-20977264D02*
X2732619Y-20977264D01*
X2632619Y-21091550D01*
X2675476Y-21091550D01*
X2704048Y-21105836D01*
X2718334Y-21120122D01*
X2732619Y-21148693D01*
X2732619Y-21220122D01*
X2718334Y-21248693D01*
X2704048Y-21262979D01*
X2675476Y-21277264D01*
X2589762Y-21277264D01*
X2561191Y-21262979D01*
X2546905Y-21248693D01*
X2861191Y-21248693D02*
X2875476Y-21262979D01*
X2861191Y-21277264D01*
X2846905Y-21262979D01*
X2861191Y-21248693D01*
X2861191Y-21277264D01*
X2975476Y-20977264D02*
X3161191Y-20977264D01*
X3061191Y-21091550D01*
X3104048Y-21091550D01*
X3132619Y-21105836D01*
X3146905Y-21120122D01*
X3161191Y-21148693D01*
X3161191Y-21220122D01*
X3146905Y-21248693D01*
X3132619Y-21262979D01*
X3104048Y-21277264D01*
X3018334Y-21277264D01*
X2989762Y-21262979D01*
X2975476Y-21248693D01*
X3346905Y-20977264D02*
X3375476Y-20977264D01*
X3404048Y-20991550D01*
X3418334Y-21005836D01*
X3432619Y-21034407D01*
X3446905Y-21091550D01*
X3446905Y-21162979D01*
X3432619Y-21220122D01*
X3418334Y-21248693D01*
X3404048Y-21262979D01*
X3375476Y-21277264D01*
X3346905Y-21277264D01*
X3318334Y-21262979D01*
X3304048Y-21248693D01*
X3289762Y-21220122D01*
X3275476Y-21162979D01*
X3275476Y-21091550D01*
X3289762Y-21034407D01*
X3304048Y-21005836D01*
X3318334Y-20991550D01*
X3346905Y-20977264D01*
X3575476Y-21277264D02*
X3575476Y-21077264D01*
X3575476Y-21105836D02*
X3589762Y-21091550D01*
X3618334Y-21077264D01*
X3661191Y-21077264D01*
X3689762Y-21091550D01*
X3704048Y-21120122D01*
X3704048Y-21277264D01*
X3704048Y-21120122D02*
X3718334Y-21091550D01*
X3746905Y-21077264D01*
X3789762Y-21077264D01*
X3818334Y-21091550D01*
X3832619Y-21120122D01*
X3832619Y-21277264D01*
X3975476Y-21277264D02*
X3975476Y-21077264D01*
X3975476Y-21105836D02*
X3989762Y-21091550D01*
X4018334Y-21077264D01*
X4061191Y-21077264D01*
X4089762Y-21091550D01*
X4104048Y-21120122D01*
X4104048Y-21277264D01*
X4104048Y-21120122D02*
X4118334Y-21091550D01*
X4146905Y-21077264D01*
X4189762Y-21077264D01*
X4218334Y-21091550D01*
X4232619Y-21120122D01*
X4232619Y-21277264D01*
X4818334Y-20962979D02*
X4561191Y-21348693D01*
X5204048Y-20977264D02*
X5232619Y-20977264D01*
X5261191Y-20991550D01*
X5275476Y-21005836D01*
X5289762Y-21034407D01*
X5304048Y-21091550D01*
X5304048Y-21162979D01*
X5289762Y-21220122D01*
X5275476Y-21248693D01*
X5261191Y-21262979D01*
X5232619Y-21277264D01*
X5204048Y-21277264D01*
X5175476Y-21262979D01*
X5161191Y-21248693D01*
X5146905Y-21220122D01*
X5132619Y-21162979D01*
X5132619Y-21091550D01*
X5146905Y-21034407D01*
X5161191Y-21005836D01*
X5175476Y-20991550D01*
X5204048Y-20977264D01*
X5432619Y-21248693D02*
X5446905Y-21262979D01*
X5432619Y-21277264D01*
X5418334Y-21262979D01*
X5432619Y-21248693D01*
X5432619Y-21277264D01*
X5732619Y-21277264D02*
X5561191Y-21277264D01*
X5646905Y-21277264D02*
X5646905Y-20977264D01*
X5618334Y-21020122D01*
X5589762Y-21048693D01*
X5561191Y-21062979D01*
X5832619Y-20977264D02*
X6018334Y-20977264D01*
X5918334Y-21091550D01*
X5961191Y-21091550D01*
X5989762Y-21105836D01*
X6004048Y-21120122D01*
X6018334Y-21148693D01*
X6018334Y-21220122D01*
X6004048Y-21248693D01*
X5989762Y-21262979D01*
X5961191Y-21277264D01*
X5875476Y-21277264D01*
X5846905Y-21262979D01*
X5832619Y-21248693D01*
X6204048Y-20977264D02*
X6232619Y-20977264D01*
X6261191Y-20991550D01*
X6275476Y-21005836D01*
X6289762Y-21034407D01*
X6304048Y-21091550D01*
X6304048Y-21162979D01*
X6289762Y-21220122D01*
X6275476Y-21248693D01*
X6261191Y-21262979D01*
X6232619Y-21277264D01*
X6204048Y-21277264D01*
X6175476Y-21262979D01*
X6161191Y-21248693D01*
X6146905Y-21220122D01*
X6132619Y-21162979D01*
X6132619Y-21091550D01*
X6146905Y-21034407D01*
X6161191Y-21005836D01*
X6175476Y-20991550D01*
X6204048Y-20977264D01*
X6418334Y-20977264D02*
X6418334Y-21034407D01*
X6532619Y-20977264D02*
X6532619Y-21034407D01*
X6975476Y-21391550D02*
X6961191Y-21377264D01*
X6932619Y-21334407D01*
X6918334Y-21305836D01*
X6904048Y-21262979D01*
X6889762Y-21191550D01*
X6889762Y-21134407D01*
X6904048Y-21062979D01*
X6918334Y-21020122D01*
X6932619Y-20991550D01*
X6961191Y-20948693D01*
X6975476Y-20934407D01*
X7061191Y-20977264D02*
X7246905Y-20977264D01*
X7146905Y-21091550D01*
X7189762Y-21091550D01*
X7218334Y-21105836D01*
X7232619Y-21120122D01*
X7246905Y-21148693D01*
X7246905Y-21220122D01*
X7232619Y-21248693D01*
X7218334Y-21262979D01*
X7189762Y-21277264D01*
X7104048Y-21277264D01*
X7075476Y-21262979D01*
X7061191Y-21248693D01*
X7604048Y-21277264D02*
X7604048Y-20977264D01*
X7732619Y-21277264D02*
X7732619Y-21120122D01*
X7718334Y-21091550D01*
X7689762Y-21077264D01*
X7646905Y-21077264D01*
X7618334Y-21091550D01*
X7604048Y-21105836D01*
X7918334Y-21277264D02*
X7889762Y-21262979D01*
X7875476Y-21248693D01*
X7861191Y-21220122D01*
X7861191Y-21134407D01*
X7875476Y-21105836D01*
X7889762Y-21091550D01*
X7918334Y-21077264D01*
X7961191Y-21077264D01*
X7989762Y-21091550D01*
X8004048Y-21105836D01*
X8018334Y-21134407D01*
X8018334Y-21220122D01*
X8004048Y-21248693D01*
X7989762Y-21262979D01*
X7961191Y-21277264D01*
X7918334Y-21277264D01*
X8189762Y-21277264D02*
X8161191Y-21262979D01*
X8146905Y-21234407D01*
X8146905Y-20977264D01*
X8418334Y-21262979D02*
X8389762Y-21277264D01*
X8332619Y-21277264D01*
X8304048Y-21262979D01*
X8289762Y-21234407D01*
X8289762Y-21120122D01*
X8304048Y-21091550D01*
X8332619Y-21077264D01*
X8389762Y-21077264D01*
X8418334Y-21091550D01*
X8432619Y-21120122D01*
X8432619Y-21148693D01*
X8289762Y-21177264D01*
X8546905Y-21262979D02*
X8575476Y-21277264D01*
X8632619Y-21277264D01*
X8661191Y-21262979D01*
X8675476Y-21234407D01*
X8675476Y-21220122D01*
X8661191Y-21191550D01*
X8632619Y-21177264D01*
X8589762Y-21177264D01*
X8561191Y-21162979D01*
X8546905Y-21134407D01*
X8546905Y-21120122D01*
X8561191Y-21091550D01*
X8589762Y-21077264D01*
X8632619Y-21077264D01*
X8661191Y-21091550D01*
X8775476Y-21391550D02*
X8789762Y-21377264D01*
X8818334Y-21334407D01*
X8832619Y-21305836D01*
X8846905Y-21262979D01*
X8861191Y-21191550D01*
X8861191Y-21134407D01*
X8846905Y-21062979D01*
X8832619Y-21020122D01*
X8818334Y-20991550D01*
X8789762Y-20948693D01*
X8775476Y-20934407D01*
X9318334Y-21391550D02*
X9304048Y-21377264D01*
X9275476Y-21334407D01*
X9261191Y-21305836D01*
X9246905Y-21262979D01*
X9232619Y-21191550D01*
X9232619Y-21134407D01*
X9246905Y-21062979D01*
X9261191Y-21020122D01*
X9275476Y-20991550D01*
X9304048Y-20948693D01*
X9318334Y-20934407D01*
X9432619Y-21077264D02*
X9432619Y-21277264D01*
X9432619Y-21105836D02*
X9446905Y-21091550D01*
X9475476Y-21077264D01*
X9518334Y-21077264D01*
X9546905Y-21091550D01*
X9561191Y-21120122D01*
X9561191Y-21277264D01*
X9746905Y-21277264D02*
X9718334Y-21262979D01*
X9704048Y-21248693D01*
X9689762Y-21220122D01*
X9689762Y-21134407D01*
X9704048Y-21105836D01*
X9718334Y-21091550D01*
X9746905Y-21077264D01*
X9789762Y-21077264D01*
X9818334Y-21091550D01*
X9832619Y-21105836D01*
X9846905Y-21134407D01*
X9846905Y-21220122D01*
X9832619Y-21248693D01*
X9818334Y-21262979D01*
X9789762Y-21277264D01*
X9746905Y-21277264D01*
X9932619Y-21077264D02*
X10046905Y-21077264D01*
X9975476Y-20977264D02*
X9975476Y-21234407D01*
X9989762Y-21262979D01*
X10018334Y-21277264D01*
X10046905Y-21277264D01*
X10375476Y-21077264D02*
X10375476Y-21377264D01*
X10375476Y-21091550D02*
X10404048Y-21077264D01*
X10461191Y-21077264D01*
X10489762Y-21091550D01*
X10504048Y-21105836D01*
X10518334Y-21134407D01*
X10518334Y-21220122D01*
X10504048Y-21248693D01*
X10489762Y-21262979D01*
X10461191Y-21277264D01*
X10404048Y-21277264D01*
X10375476Y-21262979D01*
X10689762Y-21277264D02*
X10661191Y-21262979D01*
X10646905Y-21234407D01*
X10646905Y-20977264D01*
X10932619Y-21277264D02*
X10932619Y-21120122D01*
X10918334Y-21091550D01*
X10889762Y-21077264D01*
X10832619Y-21077264D01*
X10804048Y-21091550D01*
X10932619Y-21262979D02*
X10904048Y-21277264D01*
X10832619Y-21277264D01*
X10804048Y-21262979D01*
X10789762Y-21234407D01*
X10789762Y-21205836D01*
X10804048Y-21177264D01*
X10832619Y-21162979D01*
X10904048Y-21162979D01*
X10932619Y-21148693D01*
X11032619Y-21077264D02*
X11146905Y-21077264D01*
X11075476Y-20977264D02*
X11075476Y-21234407D01*
X11089762Y-21262979D01*
X11118334Y-21277264D01*
X11146905Y-21277264D01*
X11361191Y-21262979D02*
X11332619Y-21277264D01*
X11275476Y-21277264D01*
X11246905Y-21262979D01*
X11232619Y-21234407D01*
X11232619Y-21120122D01*
X11246905Y-21091550D01*
X11275476Y-21077264D01*
X11332619Y-21077264D01*
X11361191Y-21091550D01*
X11375476Y-21120122D01*
X11375476Y-21148693D01*
X11232619Y-21177264D01*
X11632619Y-21277264D02*
X11632619Y-20977264D01*
X11632619Y-21262979D02*
X11604048Y-21277264D01*
X11546905Y-21277264D01*
X11518334Y-21262979D01*
X11504048Y-21248693D01*
X11489762Y-21220122D01*
X11489762Y-21134407D01*
X11504048Y-21105836D01*
X11518334Y-21091550D01*
X11546905Y-21077264D01*
X11604048Y-21077264D01*
X11632619Y-21091550D01*
X11746905Y-21391550D02*
X11761191Y-21377264D01*
X11789762Y-21334407D01*
X11804048Y-21305836D01*
X11818334Y-21262979D01*
X11832619Y-21191550D01*
X11832619Y-21134407D01*
X11818334Y-21062979D01*
X11804048Y-21020122D01*
X11789762Y-20991550D01*
X11761191Y-20948693D01*
X11746905Y-20934407D01*
X2089658Y-21800940D02*
X2289048Y-21601550D01*
X2089658Y-21402160D01*
X1890268Y-21601550D01*
X2089658Y-21800940D01*
X2546905Y-21437264D02*
X2732619Y-21437264D01*
X2632619Y-21551550D01*
X2675476Y-21551550D01*
X2704048Y-21565836D01*
X2718334Y-21580122D01*
X2732619Y-21608693D01*
X2732619Y-21680122D01*
X2718334Y-21708693D01*
X2704048Y-21722979D01*
X2675476Y-21737264D01*
X2589762Y-21737264D01*
X2561191Y-21722979D01*
X2546905Y-21708693D01*
X2861191Y-21708693D02*
X2875476Y-21722979D01*
X2861191Y-21737264D01*
X2846905Y-21722979D01*
X2861191Y-21708693D01*
X2861191Y-21737264D01*
X3018334Y-21737264D02*
X3075476Y-21737264D01*
X3104048Y-21722979D01*
X3118334Y-21708693D01*
X3146905Y-21665836D01*
X3161191Y-21608693D01*
X3161191Y-21494407D01*
X3146905Y-21465836D01*
X3132619Y-21451550D01*
X3104048Y-21437264D01*
X3046905Y-21437264D01*
X3018334Y-21451550D01*
X3004048Y-21465836D01*
X2989762Y-21494407D01*
X2989762Y-21565836D01*
X3004048Y-21594407D01*
X3018334Y-21608693D01*
X3046905Y-21622979D01*
X3104048Y-21622979D01*
X3132619Y-21608693D01*
X3146905Y-21594407D01*
X3161191Y-21565836D01*
X3304048Y-21737264D02*
X3361191Y-21737264D01*
X3389762Y-21722979D01*
X3404048Y-21708693D01*
X3432619Y-21665836D01*
X3446905Y-21608693D01*
X3446905Y-21494407D01*
X3432619Y-21465836D01*
X3418334Y-21451550D01*
X3389762Y-21437264D01*
X3332619Y-21437264D01*
X3304048Y-21451550D01*
X3289762Y-21465836D01*
X3275476Y-21494407D01*
X3275476Y-21565836D01*
X3289762Y-21594407D01*
X3304048Y-21608693D01*
X3332619Y-21622979D01*
X3389762Y-21622979D01*
X3418334Y-21608693D01*
X3432619Y-21594407D01*
X3446905Y-21565836D01*
X3575476Y-21737264D02*
X3575476Y-21537264D01*
X3575476Y-21565836D02*
X3589762Y-21551550D01*
X3618334Y-21537264D01*
X3661191Y-21537264D01*
X3689762Y-21551550D01*
X3704048Y-21580122D01*
X3704048Y-21737264D01*
X3704048Y-21580122D02*
X3718334Y-21551550D01*
X3746905Y-21537264D01*
X3789762Y-21537264D01*
X3818334Y-21551550D01*
X3832619Y-21580122D01*
X3832619Y-21737264D01*
X3975476Y-21737264D02*
X3975476Y-21537264D01*
X3975476Y-21565836D02*
X3989762Y-21551550D01*
X4018334Y-21537264D01*
X4061191Y-21537264D01*
X4089762Y-21551550D01*
X4104048Y-21580122D01*
X4104048Y-21737264D01*
X4104048Y-21580122D02*
X4118334Y-21551550D01*
X4146905Y-21537264D01*
X4189762Y-21537264D01*
X4218334Y-21551550D01*
X4232619Y-21580122D01*
X4232619Y-21737264D01*
X4818334Y-21422979D02*
X4561191Y-21808693D01*
X5204048Y-21437264D02*
X5232619Y-21437264D01*
X5261191Y-21451550D01*
X5275476Y-21465836D01*
X5289762Y-21494407D01*
X5304048Y-21551550D01*
X5304048Y-21622979D01*
X5289762Y-21680122D01*
X5275476Y-21708693D01*
X5261191Y-21722979D01*
X5232619Y-21737264D01*
X5204048Y-21737264D01*
X5175476Y-21722979D01*
X5161191Y-21708693D01*
X5146905Y-21680122D01*
X5132619Y-21622979D01*
X5132619Y-21551550D01*
X5146905Y-21494407D01*
X5161191Y-21465836D01*
X5175476Y-21451550D01*
X5204048Y-21437264D01*
X5432619Y-21708693D02*
X5446905Y-21722979D01*
X5432619Y-21737264D01*
X5418334Y-21722979D01*
X5432619Y-21708693D01*
X5432619Y-21737264D01*
X5732619Y-21737264D02*
X5561191Y-21737264D01*
X5646905Y-21737264D02*
X5646905Y-21437264D01*
X5618334Y-21480122D01*
X5589762Y-21508693D01*
X5561191Y-21522979D01*
X6004048Y-21437264D02*
X5861191Y-21437264D01*
X5846905Y-21580122D01*
X5861191Y-21565836D01*
X5889762Y-21551550D01*
X5961191Y-21551550D01*
X5989762Y-21565836D01*
X6004048Y-21580122D01*
X6018334Y-21608693D01*
X6018334Y-21680122D01*
X6004048Y-21708693D01*
X5989762Y-21722979D01*
X5961191Y-21737264D01*
X5889762Y-21737264D01*
X5861191Y-21722979D01*
X5846905Y-21708693D01*
X6118334Y-21437264D02*
X6318334Y-21437264D01*
X6189762Y-21737264D01*
X6418334Y-21437264D02*
X6418334Y-21494407D01*
X6532619Y-21437264D02*
X6532619Y-21494407D01*
X6975476Y-21851550D02*
X6961191Y-21837264D01*
X6932619Y-21794407D01*
X6918334Y-21765836D01*
X6904048Y-21722979D01*
X6889762Y-21651550D01*
X6889762Y-21594407D01*
X6904048Y-21522979D01*
X6918334Y-21480122D01*
X6932619Y-21451550D01*
X6961191Y-21408693D01*
X6975476Y-21394407D01*
X7218334Y-21537264D02*
X7218334Y-21737264D01*
X7146905Y-21422979D02*
X7075476Y-21637264D01*
X7261191Y-21637264D01*
X7518334Y-21437264D02*
X7375476Y-21437264D01*
X7361191Y-21580122D01*
X7375476Y-21565836D01*
X7404048Y-21551550D01*
X7475476Y-21551550D01*
X7504048Y-21565836D01*
X7518334Y-21580122D01*
X7532619Y-21608693D01*
X7532619Y-21680122D01*
X7518334Y-21708693D01*
X7504048Y-21722979D01*
X7475476Y-21737264D01*
X7404048Y-21737264D01*
X7375476Y-21722979D01*
X7361191Y-21708693D01*
X7889762Y-21737264D02*
X7889762Y-21437264D01*
X8018334Y-21737264D02*
X8018334Y-21580122D01*
X8004048Y-21551550D01*
X7975476Y-21537264D01*
X7932619Y-21537264D01*
X7904048Y-21551550D01*
X7889762Y-21565836D01*
X8204048Y-21737264D02*
X8175476Y-21722979D01*
X8161191Y-21708693D01*
X8146905Y-21680122D01*
X8146905Y-21594407D01*
X8161191Y-21565836D01*
X8175476Y-21551550D01*
X8204048Y-21537264D01*
X8246905Y-21537264D01*
X8275476Y-21551550D01*
X8289762Y-21565836D01*
X8304048Y-21594407D01*
X8304048Y-21680122D01*
X8289762Y-21708693D01*
X8275476Y-21722979D01*
X8246905Y-21737264D01*
X8204048Y-21737264D01*
X8475476Y-21737264D02*
X8446905Y-21722979D01*
X8432619Y-21694407D01*
X8432619Y-21437264D01*
X8704048Y-21722979D02*
X8675476Y-21737264D01*
X8618334Y-21737264D01*
X8589762Y-21722979D01*
X8575476Y-21694407D01*
X8575476Y-21580122D01*
X8589762Y-21551550D01*
X8618334Y-21537264D01*
X8675476Y-21537264D01*
X8704048Y-21551550D01*
X8718334Y-21580122D01*
X8718334Y-21608693D01*
X8575476Y-21637264D01*
X8832619Y-21722979D02*
X8861191Y-21737264D01*
X8918334Y-21737264D01*
X8946905Y-21722979D01*
X8961191Y-21694407D01*
X8961191Y-21680122D01*
X8946905Y-21651550D01*
X8918334Y-21637264D01*
X8875476Y-21637264D01*
X8846905Y-21622979D01*
X8832619Y-21594407D01*
X8832619Y-21580122D01*
X8846905Y-21551550D01*
X8875476Y-21537264D01*
X8918334Y-21537264D01*
X8946905Y-21551550D01*
X9061191Y-21851550D02*
X9075476Y-21837264D01*
X9104048Y-21794407D01*
X9118334Y-21765836D01*
X9132619Y-21722979D01*
X9146905Y-21651550D01*
X9146905Y-21594407D01*
X9132619Y-21522979D01*
X9118334Y-21480122D01*
X9104048Y-21451550D01*
X9075476Y-21408693D01*
X9061191Y-21394407D01*
X9604048Y-21851550D02*
X9589762Y-21837264D01*
X9561191Y-21794407D01*
X9546905Y-21765836D01*
X9532619Y-21722979D01*
X9518334Y-21651550D01*
X9518334Y-21594407D01*
X9532619Y-21522979D01*
X9546905Y-21480122D01*
X9561191Y-21451550D01*
X9589762Y-21408693D01*
X9604048Y-21394407D01*
X9718334Y-21537264D02*
X9718334Y-21737264D01*
X9718334Y-21565836D02*
X9732619Y-21551550D01*
X9761191Y-21537264D01*
X9804048Y-21537264D01*
X9832619Y-21551550D01*
X9846905Y-21580122D01*
X9846905Y-21737264D01*
X10032619Y-21737264D02*
X10004048Y-21722979D01*
X9989762Y-21708693D01*
X9975476Y-21680122D01*
X9975476Y-21594407D01*
X9989762Y-21565836D01*
X10004048Y-21551550D01*
X10032619Y-21537264D01*
X10075476Y-21537264D01*
X10104048Y-21551550D01*
X10118334Y-21565836D01*
X10132619Y-21594407D01*
X10132619Y-21680122D01*
X10118334Y-21708693D01*
X10104048Y-21722979D01*
X10075476Y-21737264D01*
X10032619Y-21737264D01*
X10218334Y-21537264D02*
X10332619Y-21537264D01*
X10261191Y-21437264D02*
X10261191Y-21694407D01*
X10275476Y-21722979D01*
X10304048Y-21737264D01*
X10332619Y-21737264D01*
X10661191Y-21537264D02*
X10661191Y-21837264D01*
X10661191Y-21551550D02*
X10689762Y-21537264D01*
X10746905Y-21537264D01*
X10775476Y-21551550D01*
X10789762Y-21565836D01*
X10804048Y-21594407D01*
X10804048Y-21680122D01*
X10789762Y-21708693D01*
X10775476Y-21722979D01*
X10746905Y-21737264D01*
X10689762Y-21737264D01*
X10661191Y-21722979D01*
X10975476Y-21737264D02*
X10946905Y-21722979D01*
X10932619Y-21694407D01*
X10932619Y-21437264D01*
X11218334Y-21737264D02*
X11218334Y-21580122D01*
X11204048Y-21551550D01*
X11175476Y-21537264D01*
X11118334Y-21537264D01*
X11089762Y-21551550D01*
X11218334Y-21722979D02*
X11189762Y-21737264D01*
X11118334Y-21737264D01*
X11089762Y-21722979D01*
X11075476Y-21694407D01*
X11075476Y-21665836D01*
X11089762Y-21637264D01*
X11118334Y-21622979D01*
X11189762Y-21622979D01*
X11218334Y-21608693D01*
X11318334Y-21537264D02*
X11432619Y-21537264D01*
X11361191Y-21437264D02*
X11361191Y-21694407D01*
X11375476Y-21722979D01*
X11404048Y-21737264D01*
X11432619Y-21737264D01*
X11646905Y-21722979D02*
X11618334Y-21737264D01*
X11561191Y-21737264D01*
X11532619Y-21722979D01*
X11518334Y-21694407D01*
X11518334Y-21580122D01*
X11532619Y-21551550D01*
X11561191Y-21537264D01*
X11618334Y-21537264D01*
X11646905Y-21551550D01*
X11661191Y-21580122D01*
X11661191Y-21608693D01*
X11518334Y-21637264D01*
X11918334Y-21737264D02*
X11918334Y-21437264D01*
X11918334Y-21722979D02*
X11889762Y-21737264D01*
X11832619Y-21737264D01*
X11804048Y-21722979D01*
X11789762Y-21708693D01*
X11775476Y-21680122D01*
X11775476Y-21594407D01*
X11789762Y-21565836D01*
X11804048Y-21551550D01*
X11832619Y-21537264D01*
X11889762Y-21537264D01*
X11918334Y-21551550D01*
X12032619Y-21851550D02*
X12046905Y-21837264D01*
X12075476Y-21794407D01*
X12089762Y-21765836D01*
X12104048Y-21722979D01*
X12118334Y-21651550D01*
X12118334Y-21594407D01*
X12104048Y-21522979D01*
X12089762Y-21480122D01*
X12075476Y-21451550D01*
X12046905Y-21408693D01*
X12032619Y-21394407D01*
M02*
