  0
SECTION
  2
HEADER
  9
$ANGBASE
  50
0.0
  9
$ANGDIR
  70
  1
  9
$MEASUREMENT
  70
0
  0
ENDSEC
  0
SECTION
  2
TABLES
  0
TABLE
  2
LTYPE
  70
4
  0
LTYPE
  5
40F
  2
CONTINUOUS
  70
0
  3
Solid line
  72
65
  73
0
  40
0.0
  0
LTYPE
  5
410
  2
DASHDOT
 70
0
  3
Dash Dot ____ _ ____ _
 72
65
 73
4
 40
2.0
 49
1.25
 49
-0.25
 49
0.25
 49
-0.25
  0
LTYPE
  5
411
  2
DASHED
 70
0
  3
Dashed __ __ __ __ __
 72
65
 73
2
 40
0.75
 49
0.5
 49
-0.25
  0
LTYPE
  5
43B
  2
DOTTED
 70
0
  3
Dotted .  .  .  .
 72
65
 73
2
 40
0.2
 49
0.0
 49
-0.2
  0
ENDTAB
  0
TABLE
  2
STYLE
  70
4
  0
STYLE
  2
KICAD
  70
0
  40
0
  41
1
  42
1
  50
0
  71
0
  3
isocp.shx
  0
STYLE
  2
KICADB
  70
0
  40
0
  41
1
  42
1
  50
0
  71
0
  3
isocp.shx
  0
STYLE
  2
KICADI
  70
0
  40
0
  41
1
  42
1
  50
15
  71
0
  3
isocp.shx
  0
STYLE
  2
KICADBI
  70
0
  40
0
  41
1
  42
1
  50
15
  71
0
  3
isocp.shx
  0
ENDTAB
  0
TABLE
  2
LAYER
  70
30
  0
LAYER
  2
BLACK
  70
0
  62
7
  6
CONTINUOUS
  0
LAYER
  2
GRAY1
  70
0
  62
251
  6
CONTINUOUS
  0
LAYER
  2
GRAY2
  70
0
  62
8
  6
CONTINUOUS
  0
LAYER
  2
GRAY3
  70
0
  62
9
  6
CONTINUOUS
  0
LAYER
  2
WHITE
  70
0
  62
7
  6
CONTINUOUS
  0
LAYER
  2
LYELLOW
  70
0
  62
51
  6
CONTINUOUS
  0
LAYER
  2
BLUE1
  70
0
  62
178
  6
CONTINUOUS
  0
LAYER
  2
GREEN1
  70
0
  62
98
  6
CONTINUOUS
  0
LAYER
  2
CYAN1
  70
0
  62
138
  6
CONTINUOUS
  0
LAYER
  2
RED1
  70
0
  62
18
  6
CONTINUOUS
  0
LAYER
  2
MAGENTA1
  70
0
  62
228
  6
CONTINUOUS
  0
LAYER
  2
BROWN1
  70
0
  62
58
  6
CONTINUOUS
  0
LAYER
  2
BLUE2
  70
0
  62
5
  6
CONTINUOUS
  0
LAYER
  2
GREEN2
  70
0
  62
3
  6
CONTINUOUS
  0
LAYER
  2
CYAN2
  70
0
  62
4
  6
CONTINUOUS
  0
LAYER
  2
RED2
  70
0
  62
1
  6
CONTINUOUS
  0
LAYER
  2
MAGENTA2
  70
0
  62
6
  6
CONTINUOUS
  0
LAYER
  2
BROWN2
  70
0
  62
54
  6
CONTINUOUS
  0
LAYER
  2
BLUE3
  70
0
  62
171
  6
CONTINUOUS
  0
LAYER
  2
GREEN3
  70
0
  62
91
  6
CONTINUOUS
  0
LAYER
  2
CYAN3
  70
0
  62
131
  6
CONTINUOUS
  0
LAYER
  2
RED3
  70
0
  62
11
  6
CONTINUOUS
  0
LAYER
  2
MAGENTA3
  70
0
  62
221
  6
CONTINUOUS
  0
LAYER
  2
YELLOW3
  70
0
  62
2
  6
CONTINUOUS
  0
LAYER
  2
BLUE4
  70
0
  62
5
  6
CONTINUOUS
  0
LAYER
  2
GREEN4
  70
0
  62
3
  6
CONTINUOUS
  0
LAYER
  2
CYAN4
  70
0
  62
4
  6
CONTINUOUS
  0
LAYER
  2
RED4
  70
0
  62
1
  6
CONTINUOUS
  0
LAYER
  2
MAGENTA4
  70
0
  62
6
  6
CONTINUOUS
  0
LAYER
  2
YELLOW4
  70
0
  62
2
  6
CONTINUOUS
  0
ENDTAB
  0
ENDSEC
  0
SECTION
  2
ENTITIES
0
LINE
8
BLACK
6
CONTINUOUS
10
53.4068
20
-185.882
11
52.5005
21
-186.304
0
LINE
8
BLACK
6
CONTINUOUS
10
52.5005
20
-186.304
11
51.8243
21
-184.854
0
LINE
8
BLACK
6
CONTINUOUS
10
51.8243
20
-184.854
11
52.7306
21
-184.432
0
LINE
8
BLACK
6
CONTINUOUS
10
52.7306
20
-184.432
11
53.4068
21
-185.882
0
LINE
8
BLACK
6
CONTINUOUS
10
56.1257
20
-184.614
11
55.2194
21
-185.037
0
LINE
8
BLACK
6
CONTINUOUS
10
55.2194
20
-185.037
11
54.5432
21
-183.587
0
LINE
8
BLACK
6
CONTINUOUS
10
54.5432
20
-183.587
11
55.4495
21
-183.164
0
LINE
8
BLACK
6
CONTINUOUS
10
55.4495
20
-183.164
11
56.1257
21
-184.614
0
LINE
8
BLACK
6
CONTINUOUS
10
45.3804
20
-168.661
11
44.4741
21
-169.083
0
LINE
8
BLACK
6
CONTINUOUS
10
44.4741
20
-169.083
11
43.7979
21
-167.633
0
LINE
8
BLACK
6
CONTINUOUS
10
43.7979
20
-167.633
11
44.7042
21
-167.211
0
LINE
8
BLACK
6
CONTINUOUS
10
44.7042
20
-167.211
11
45.3804
21
-168.661
0
LINE
8
BLACK
6
CONTINUOUS
10
48.0993
20
-167.393
11
47.193
21
-167.815
0
LINE
8
BLACK
6
CONTINUOUS
10
47.193
20
-167.815
11
46.5168
21
-166.365
0
LINE
8
BLACK
6
CONTINUOUS
10
46.5168
20
-166.365
11
47.4231
21
-165.943
0
LINE
8
BLACK
6
CONTINUOUS
10
47.4231
20
-165.943
11
48.0993
21
-167.393
0
LINE
8
BLACK
6
CONTINUOUS
10
72.5125
20
-159.437
11
71.0624
21
-160.113
0
LINE
8
BLACK
6
CONTINUOUS
10
71.0624
20
-160.113
11
70.6398
21
-159.207
0
LINE
8
BLACK
6
CONTINUOUS
10
70.6398
20
-159.207
11
72.0899
21
-158.531
0
LINE
8
BLACK
6
CONTINUOUS
10
72.0899
20
-158.531
11
72.5125
21
-159.437
0
LINE
8
BLACK
6
CONTINUOUS
10
71.2446
20
-156.718
11
69.7945
21
-157.394
0
LINE
8
BLACK
6
CONTINUOUS
10
69.7945
20
-157.394
11
69.3719
21
-156.488
0
LINE
8
BLACK
6
CONTINUOUS
10
69.3719
20
-156.488
11
70.822
21
-155.812
0
LINE
8
BLACK
6
CONTINUOUS
10
70.822
20
-155.812
11
71.2446
21
-156.718
0
LINE
8
BLACK
6
CONTINUOUS
10
89.7845
20
-151.411
11
88.3344
21
-152.087
0
LINE
8
BLACK
6
CONTINUOUS
10
88.3344
20
-152.087
11
87.9118
21
-151.181
0
LINE
8
BLACK
6
CONTINUOUS
10
87.9118
20
-151.181
11
89.3619
21
-150.504
0
LINE
8
BLACK
6
CONTINUOUS
10
89.3619
20
-150.504
11
89.7845
21
-151.411
0
LINE
8
BLACK
6
CONTINUOUS
10
37.4048
20
-151.389
11
36.4985
21
-151.811
0
LINE
8
BLACK
6
CONTINUOUS
10
36.4985
20
-151.811
11
35.8223
21
-150.361
0
LINE
8
BLACK
6
CONTINUOUS
10
35.8223
20
-150.361
11
36.7286
21
-149.939
0
LINE
8
BLACK
6
CONTINUOUS
10
36.7286
20
-149.939
11
37.4048
21
-151.389
0
LINE
8
BLACK
6
CONTINUOUS
10
169.615
20
-151.6
11
168.615
21
-151.6
0
LINE
8
BLACK
6
CONTINUOUS
10
168.615
20
-151.6
11
168.615
21
-150
0
LINE
8
BLACK
6
CONTINUOUS
10
168.615
20
-150
11
169.615
21
-150
0
LINE
8
BLACK
6
CONTINUOUS
10
169.615
20
-150
11
169.615
21
-151.6
0
LINE
8
BLACK
6
CONTINUOUS
10
166.615
20
-151.6
11
165.615
21
-151.6
0
LINE
8
BLACK
6
CONTINUOUS
10
165.615
20
-151.6
11
165.615
21
-150
0
LINE
8
BLACK
6
CONTINUOUS
10
165.615
20
-150
11
166.615
21
-150
0
LINE
8
BLACK
6
CONTINUOUS
10
166.615
20
-150
11
166.615
21
-151.6
0
LINE
8
BLACK
6
CONTINUOUS
10
185.665
20
-151.6
11
184.665
21
-151.6
0
LINE
8
BLACK
6
CONTINUOUS
10
184.665
20
-151.6
11
184.665
21
-150
0
LINE
8
BLACK
6
CONTINUOUS
10
184.665
20
-150
11
185.665
21
-150
0
LINE
8
BLACK
6
CONTINUOUS
10
185.665
20
-150
11
185.665
21
-151.6
0
LINE
8
BLACK
6
CONTINUOUS
10
188.665
20
-151.6
11
187.665
21
-151.6
0
LINE
8
BLACK
6
CONTINUOUS
10
187.665
20
-151.6
11
187.665
21
-150
0
LINE
8
BLACK
6
CONTINUOUS
10
187.665
20
-150
11
188.665
21
-150
0
LINE
8
BLACK
6
CONTINUOUS
10
188.665
20
-150
11
188.665
21
-151.6
0
LINE
8
BLACK
6
CONTINUOUS
10
40.1237
20
-150.121
11
39.2174
21
-150.543
0
LINE
8
BLACK
6
CONTINUOUS
10
39.2174
20
-150.543
11
38.5412
21
-149.093
0
LINE
8
BLACK
6
CONTINUOUS
10
38.5412
20
-149.093
11
39.4475
21
-148.671
0
LINE
8
BLACK
6
CONTINUOUS
10
39.4475
20
-148.671
11
40.1237
21
-150.121
0
LINE
8
BLACK
6
CONTINUOUS
10
88.5166
20
-148.692
11
87.0665
21
-149.368
0
LINE
8
BLACK
6
CONTINUOUS
10
87.0665
20
-149.368
11
86.6439
21
-148.462
0
LINE
8
BLACK
6
CONTINUOUS
10
86.6439
20
-148.462
11
88.094
21
-147.785
0
LINE
8
BLACK
6
CONTINUOUS
10
88.094
20
-147.785
11
88.5166
21
-148.692
0
LINE
8
BLACK
6
CONTINUOUS
10
109.414
20
-148.45
11
108.414
21
-148.45
0
LINE
8
BLACK
6
CONTINUOUS
10
108.414
20
-148.45
11
108.414
21
-146.85
0
LINE
8
BLACK
6
CONTINUOUS
10
108.414
20
-146.85
11
109.414
21
-146.85
0
LINE
8
BLACK
6
CONTINUOUS
10
109.414
20
-146.85
11
109.414
21
-148.45
0
LINE
8
BLACK
6
CONTINUOUS
10
150.565
20
-148.45
11
149.565
21
-148.45
0
LINE
8
BLACK
6
CONTINUOUS
10
149.565
20
-148.45
11
149.565
21
-146.85
0
LINE
8
BLACK
6
CONTINUOUS
10
149.565
20
-146.85
11
150.565
21
-146.85
0
LINE
8
BLACK
6
CONTINUOUS
10
150.565
20
-146.85
11
150.565
21
-148.45
0
LINE
8
BLACK
6
CONTINUOUS
10
147.565
20
-148.45
11
146.565
21
-148.45
0
LINE
8
BLACK
6
CONTINUOUS
10
146.565
20
-148.45
11
146.565
21
-146.85
0
LINE
8
BLACK
6
CONTINUOUS
10
146.565
20
-146.85
11
147.565
21
-146.85
0
LINE
8
BLACK
6
CONTINUOUS
10
147.565
20
-146.85
11
147.565
21
-148.45
0
LINE
8
BLACK
6
CONTINUOUS
10
112.414
20
-148.45
11
111.414
21
-148.45
0
LINE
8
BLACK
6
CONTINUOUS
10
111.414
20
-148.45
11
111.414
21
-146.85
0
LINE
8
BLACK
6
CONTINUOUS
10
111.414
20
-146.85
11
112.414
21
-146.85
0
LINE
8
BLACK
6
CONTINUOUS
10
112.414
20
-146.85
11
112.414
21
-148.45
0
LINE
8
BLACK
6
CONTINUOUS
10
56.0992
20
-146.512
11
55.1929
21
-146.934
0
LINE
8
BLACK
6
CONTINUOUS
10
55.1929
20
-146.934
11
54.5167
21
-145.484
0
LINE
8
BLACK
6
CONTINUOUS
10
54.5167
20
-145.484
11
55.423
21
-145.062
0
LINE
8
BLACK
6
CONTINUOUS
10
55.423
20
-145.062
11
56.0992
21
-146.512
0
LINE
8
BLACK
6
CONTINUOUS
10
131.464
20
-146.875
11
130.464
21
-146.875
0
LINE
8
BLACK
6
CONTINUOUS
10
130.464
20
-146.875
11
130.464
21
-145.275
0
LINE
8
BLACK
6
CONTINUOUS
10
130.464
20
-145.275
11
131.464
21
-145.275
0
LINE
8
BLACK
6
CONTINUOUS
10
131.464
20
-145.275
11
131.464
21
-146.875
0
LINE
8
BLACK
6
CONTINUOUS
10
128.464
20
-146.875
11
127.464
21
-146.875
0
LINE
8
BLACK
6
CONTINUOUS
10
127.464
20
-146.875
11
127.464
21
-145.275
0
LINE
8
BLACK
6
CONTINUOUS
10
127.464
20
-145.275
11
128.464
21
-145.275
0
LINE
8
BLACK
6
CONTINUOUS
10
128.464
20
-145.275
11
128.464
21
-146.875
0
LINE
8
BLACK
6
CONTINUOUS
10
58.8181
20
-145.244
11
57.9118
21
-145.667
0
LINE
8
BLACK
6
CONTINUOUS
10
57.9118
20
-145.667
11
57.2356
21
-144.217
0
LINE
8
BLACK
6
CONTINUOUS
10
57.2356
20
-144.217
11
58.1419
21
-143.794
0
LINE
8
BLACK
6
CONTINUOUS
10
58.1419
20
-143.794
11
58.8181
21
-145.244
0
LINE
8
BLACK
6
CONTINUOUS
10
54.5752
20
-143.261
11
53.6689
21
-143.683
0
LINE
8
BLACK
6
CONTINUOUS
10
53.6689
20
-143.683
11
52.9927
21
-142.233
0
LINE
8
BLACK
6
CONTINUOUS
10
52.9927
20
-142.233
11
53.899
21
-141.811
0
LINE
8
BLACK
6
CONTINUOUS
10
53.899
20
-141.811
11
54.5752
21
-143.261
0
LINE
8
BLACK
6
CONTINUOUS
10
57.2941
20
-141.993
11
56.3878
21
-142.415
0
LINE
8
BLACK
6
CONTINUOUS
10
56.3878
20
-142.415
11
55.7116
21
-140.965
0
LINE
8
BLACK
6
CONTINUOUS
10
55.7116
20
-140.965
11
56.6179
21
-140.543
0
LINE
8
BLACK
6
CONTINUOUS
10
56.6179
20
-140.543
11
57.2941
21
-141.993
0
LINE
8
BLACK
6
CONTINUOUS
10
73.3712
20
-138.536
11
72.4649
21
-138.959
0
LINE
8
BLACK
6
CONTINUOUS
10
72.4649
20
-138.959
11
71.7887
21
-137.509
0
LINE
8
BLACK
6
CONTINUOUS
10
71.7887
20
-137.509
11
72.695
21
-137.086
0
LINE
8
BLACK
6
CONTINUOUS
10
72.695
20
-137.086
11
73.3712
21
-138.536
0
LINE
8
BLACK
6
CONTINUOUS
10
76.0901
20
-137.268
11
75.1838
21
-137.691
0
LINE
8
BLACK
6
CONTINUOUS
10
75.1838
20
-137.691
11
74.5076
21
-136.241
0
LINE
8
BLACK
6
CONTINUOUS
10
74.5076
20
-136.241
11
75.4139
21
-135.818
0
LINE
8
BLACK
6
CONTINUOUS
10
75.4139
20
-135.818
11
76.0901
21
-137.268
0
LINE
8
BLACK
6
CONTINUOUS
10
185.69
20
-132.626
11
184.69
21
-132.626
0
LINE
8
BLACK
6
CONTINUOUS
10
184.69
20
-132.626
11
184.69
21
-131.026
0
LINE
8
BLACK
6
CONTINUOUS
10
184.69
20
-131.026
11
185.69
21
-131.026
0
LINE
8
BLACK
6
CONTINUOUS
10
185.69
20
-131.026
11
185.69
21
-132.626
0
LINE
8
BLACK
6
CONTINUOUS
10
188.69
20
-132.626
11
187.69
21
-132.626
0
LINE
8
BLACK
6
CONTINUOUS
10
187.69
20
-132.626
11
187.69
21
-131.026
0
LINE
8
BLACK
6
CONTINUOUS
10
187.69
20
-131.026
11
188.69
21
-131.026
0
LINE
8
BLACK
6
CONTINUOUS
10
188.69
20
-131.026
11
188.69
21
-132.626
0
LINE
8
BLACK
6
CONTINUOUS
10
169.615
20
-132.601
11
168.615
21
-132.601
0
LINE
8
BLACK
6
CONTINUOUS
10
168.615
20
-132.601
11
168.615
21
-131.001
0
LINE
8
BLACK
6
CONTINUOUS
10
168.615
20
-131.001
11
169.615
21
-131.001
0
LINE
8
BLACK
6
CONTINUOUS
10
169.615
20
-131.001
11
169.615
21
-132.601
0
LINE
8
BLACK
6
CONTINUOUS
10
166.615
20
-132.601
11
165.615
21
-132.601
0
LINE
8
BLACK
6
CONTINUOUS
10
165.615
20
-132.601
11
165.615
21
-131.001
0
LINE
8
BLACK
6
CONTINUOUS
10
165.615
20
-131.001
11
166.615
21
-131.001
0
LINE
8
BLACK
6
CONTINUOUS
10
166.615
20
-131.001
11
166.615
21
-132.601
0
LINE
8
BLACK
6
CONTINUOUS
10
74.2659
20
-130.726
11
73.2659
21
-130.726
0
LINE
8
BLACK
6
CONTINUOUS
10
73.2659
20
-130.726
11
73.2659
21
-129.126
0
LINE
8
BLACK
6
CONTINUOUS
10
73.2659
20
-129.126
11
74.2659
21
-129.126
0
LINE
8
BLACK
6
CONTINUOUS
10
74.2659
20
-129.126
11
74.2659
21
-130.726
0
LINE
8
BLACK
6
CONTINUOUS
10
71.2659
20
-130.726
11
70.2659
21
-130.726
0
LINE
8
BLACK
6
CONTINUOUS
10
70.2659
20
-130.726
11
70.2659
21
-129.126
0
LINE
8
BLACK
6
CONTINUOUS
10
70.2659
20
-129.126
11
71.2659
21
-129.126
0
LINE
8
BLACK
6
CONTINUOUS
10
71.2659
20
-129.126
11
71.2659
21
-130.726
0
LINE
8
BLACK
6
CONTINUOUS
10
93.3638
20
-130.67
11
92.3638
21
-130.67
0
LINE
8
BLACK
6
CONTINUOUS
10
92.3638
20
-130.67
11
92.3638
21
-129.07
0
LINE
8
BLACK
6
CONTINUOUS
10
92.3638
20
-129.07
11
93.3638
21
-129.07
0
LINE
8
BLACK
6
CONTINUOUS
10
93.3638
20
-129.07
11
93.3638
21
-130.67
0
LINE
8
BLACK
6
CONTINUOUS
10
90.3638
20
-130.67
11
89.3638
21
-130.67
0
LINE
8
BLACK
6
CONTINUOUS
10
89.3638
20
-130.67
11
89.3638
21
-129.07
0
LINE
8
BLACK
6
CONTINUOUS
10
89.3638
20
-129.07
11
90.3638
21
-129.07
0
LINE
8
BLACK
6
CONTINUOUS
10
90.3638
20
-129.07
11
90.3638
21
-130.67
0
LINE
8
BLACK
6
CONTINUOUS
10
147.565
20
-129.4
11
146.565
21
-129.4
0
LINE
8
BLACK
6
CONTINUOUS
10
146.565
20
-129.4
11
146.565
21
-127.8
0
LINE
8
BLACK
6
CONTINUOUS
10
146.565
20
-127.8
11
147.565
21
-127.8
0
LINE
8
BLACK
6
CONTINUOUS
10
147.565
20
-127.8
11
147.565
21
-129.4
0
LINE
8
BLACK
6
CONTINUOUS
10
150.565
20
-129.4
11
149.565
21
-129.4
0
LINE
8
BLACK
6
CONTINUOUS
10
149.565
20
-129.4
11
149.565
21
-127.8
0
LINE
8
BLACK
6
CONTINUOUS
10
149.565
20
-127.8
11
150.565
21
-127.8
0
LINE
8
BLACK
6
CONTINUOUS
10
150.565
20
-127.8
11
150.565
21
-129.4
0
LINE
8
BLACK
6
CONTINUOUS
10
112.414
20
-129.4
11
111.414
21
-129.4
0
LINE
8
BLACK
6
CONTINUOUS
10
111.414
20
-129.4
11
111.414
21
-127.8
0
LINE
8
BLACK
6
CONTINUOUS
10
111.414
20
-127.8
11
112.414
21
-127.8
0
LINE
8
BLACK
6
CONTINUOUS
10
112.414
20
-127.8
11
112.414
21
-129.4
0
LINE
8
BLACK
6
CONTINUOUS
10
109.414
20
-129.4
11
108.414
21
-129.4
0
LINE
8
BLACK
6
CONTINUOUS
10
108.414
20
-129.4
11
108.414
21
-127.8
0
LINE
8
BLACK
6
CONTINUOUS
10
108.414
20
-127.8
11
109.414
21
-127.8
0
LINE
8
BLACK
6
CONTINUOUS
10
109.414
20
-127.8
11
109.414
21
-129.4
0
LINE
8
BLACK
6
CONTINUOUS
10
128.565
20
-127.775
11
127.565
21
-127.775
0
LINE
8
BLACK
6
CONTINUOUS
10
127.565
20
-127.775
11
127.565
21
-126.175
0
LINE
8
BLACK
6
CONTINUOUS
10
127.565
20
-126.175
11
128.565
21
-126.175
0
LINE
8
BLACK
6
CONTINUOUS
10
128.565
20
-126.175
11
128.565
21
-127.775
0
LINE
8
BLACK
6
CONTINUOUS
10
131.565
20
-127.775
11
130.565
21
-127.775
0
LINE
8
BLACK
6
CONTINUOUS
10
130.565
20
-127.775
11
130.565
21
-126.175
0
LINE
8
BLACK
6
CONTINUOUS
10
130.565
20
-126.175
11
131.565
21
-126.175
0
LINE
8
BLACK
6
CONTINUOUS
10
131.565
20
-126.175
11
131.565
21
-127.775
0
LINE
8
BLACK
6
CONTINUOUS
10
185.69
20
-113.576
11
184.69
21
-113.576
0
LINE
8
BLACK
6
CONTINUOUS
10
184.69
20
-113.576
11
184.69
21
-111.976
0
LINE
8
BLACK
6
CONTINUOUS
10
184.69
20
-111.976
11
185.69
21
-111.976
0
LINE
8
BLACK
6
CONTINUOUS
10
185.69
20
-111.976
11
185.69
21
-113.576
0
LINE
8
BLACK
6
CONTINUOUS
10
188.69
20
-113.576
11
187.69
21
-113.576
0
LINE
8
BLACK
6
CONTINUOUS
10
187.69
20
-113.576
11
187.69
21
-111.976
0
LINE
8
BLACK
6
CONTINUOUS
10
187.69
20
-111.976
11
188.69
21
-111.976
0
LINE
8
BLACK
6
CONTINUOUS
10
188.69
20
-111.976
11
188.69
21
-113.576
0
LINE
8
BLACK
6
CONTINUOUS
10
166.564
20
-113.551
11
165.564
21
-113.551
0
LINE
8
BLACK
6
CONTINUOUS
10
165.564
20
-113.551
11
165.564
21
-111.951
0
LINE
8
BLACK
6
CONTINUOUS
10
165.564
20
-111.951
11
166.564
21
-111.951
0
LINE
8
BLACK
6
CONTINUOUS
10
166.564
20
-111.951
11
166.564
21
-113.551
0
LINE
8
BLACK
6
CONTINUOUS
10
169.564
20
-113.551
11
168.564
21
-113.551
0
LINE
8
BLACK
6
CONTINUOUS
10
168.564
20
-113.551
11
168.564
21
-111.951
0
LINE
8
BLACK
6
CONTINUOUS
10
168.564
20
-111.951
11
169.564
21
-111.951
0
LINE
8
BLACK
6
CONTINUOUS
10
169.564
20
-111.951
11
169.564
21
-113.551
0
LINE
8
BLACK
6
CONTINUOUS
10
93.4146
20
-111.671
11
92.4146
21
-111.671
0
LINE
8
BLACK
6
CONTINUOUS
10
92.4146
20
-111.671
11
92.4146
21
-110.071
0
LINE
8
BLACK
6
CONTINUOUS
10
92.4146
20
-110.071
11
93.4146
21
-110.071
0
LINE
8
BLACK
6
CONTINUOUS
10
93.4146
20
-110.071
11
93.4146
21
-111.671
0
LINE
8
BLACK
6
CONTINUOUS
10
90.4146
20
-111.671
11
89.4146
21
-111.671
0
LINE
8
BLACK
6
CONTINUOUS
10
89.4146
20
-111.671
11
89.4146
21
-110.071
0
LINE
8
BLACK
6
CONTINUOUS
10
89.4146
20
-110.071
11
90.4146
21
-110.071
0
LINE
8
BLACK
6
CONTINUOUS
10
90.4146
20
-110.071
11
90.4146
21
-111.671
0
LINE
8
BLACK
6
CONTINUOUS
10
71.451
20
-111.544
11
70.451
21
-111.544
0
LINE
8
BLACK
6
CONTINUOUS
10
70.451
20
-111.544
11
70.451
21
-109.944
0
LINE
8
BLACK
6
CONTINUOUS
10
70.451
20
-109.944
11
71.451
21
-109.944
0
LINE
8
BLACK
6
CONTINUOUS
10
71.451
20
-109.944
11
71.451
21
-111.544
0
LINE
8
BLACK
6
CONTINUOUS
10
74.451
20
-111.544
11
73.451
21
-111.544
0
LINE
8
BLACK
6
CONTINUOUS
10
73.451
20
-111.544
11
73.451
21
-109.944
0
LINE
8
BLACK
6
CONTINUOUS
10
73.451
20
-109.944
11
74.451
21
-109.944
0
LINE
8
BLACK
6
CONTINUOUS
10
74.451
20
-109.944
11
74.451
21
-111.544
0
LINE
8
BLACK
6
CONTINUOUS
10
147.565
20
-110.35
11
146.565
21
-110.35
0
LINE
8
BLACK
6
CONTINUOUS
10
146.565
20
-110.35
11
146.565
21
-108.75
0
LINE
8
BLACK
6
CONTINUOUS
10
146.565
20
-108.75
11
147.565
21
-108.75
0
LINE
8
BLACK
6
CONTINUOUS
10
147.565
20
-108.75
11
147.565
21
-110.35
0
LINE
8
BLACK
6
CONTINUOUS
10
150.565
20
-110.35
11
149.565
21
-110.35
0
LINE
8
BLACK
6
CONTINUOUS
10
149.565
20
-110.35
11
149.565
21
-108.75
0
LINE
8
BLACK
6
CONTINUOUS
10
149.565
20
-108.75
11
150.565
21
-108.75
0
LINE
8
BLACK
6
CONTINUOUS
10
150.565
20
-108.75
11
150.565
21
-110.35
0
LINE
8
BLACK
6
CONTINUOUS
10
109.465
20
-110.35
11
108.465
21
-110.35
0
LINE
8
BLACK
6
CONTINUOUS
10
108.465
20
-110.35
11
108.465
21
-108.75
0
LINE
8
BLACK
6
CONTINUOUS
10
108.465
20
-108.75
11
109.465
21
-108.75
0
LINE
8
BLACK
6
CONTINUOUS
10
109.465
20
-108.75
11
109.465
21
-110.35
0
LINE
8
BLACK
6
CONTINUOUS
10
112.465
20
-110.35
11
111.465
21
-110.35
0
LINE
8
BLACK
6
CONTINUOUS
10
111.465
20
-110.35
11
111.465
21
-108.75
0
LINE
8
BLACK
6
CONTINUOUS
10
111.465
20
-108.75
11
112.465
21
-108.75
0
LINE
8
BLACK
6
CONTINUOUS
10
112.465
20
-108.75
11
112.465
21
-110.35
0
LINE
8
BLACK
6
CONTINUOUS
10
131.464
20
-108.775
11
130.464
21
-108.775
0
LINE
8
BLACK
6
CONTINUOUS
10
130.464
20
-108.775
11
130.464
21
-107.175
0
LINE
8
BLACK
6
CONTINUOUS
10
130.464
20
-107.175
11
131.464
21
-107.175
0
LINE
8
BLACK
6
CONTINUOUS
10
131.464
20
-107.175
11
131.464
21
-108.775
0
LINE
8
BLACK
6
CONTINUOUS
10
128.464
20
-108.775
11
127.464
21
-108.775
0
LINE
8
BLACK
6
CONTINUOUS
10
127.464
20
-108.775
11
127.464
21
-107.175
0
LINE
8
BLACK
6
CONTINUOUS
10
127.464
20
-107.175
11
128.464
21
-107.175
0
LINE
8
BLACK
6
CONTINUOUS
10
128.464
20
-107.175
11
128.464
21
-108.775
0
LINE
8
BLACK
6
CONTINUOUS
10
188.69
20
-94.526
11
187.69
21
-94.526
0
LINE
8
BLACK
6
CONTINUOUS
10
187.69
20
-94.526
11
187.69
21
-92.926
0
LINE
8
BLACK
6
CONTINUOUS
10
187.69
20
-92.926
11
188.69
21
-92.926
0
LINE
8
BLACK
6
CONTINUOUS
10
188.69
20
-92.926
11
188.69
21
-94.526
0
LINE
8
BLACK
6
CONTINUOUS
10
185.69
20
-94.526
11
184.69
21
-94.526
0
LINE
8
BLACK
6
CONTINUOUS
10
184.69
20
-94.526
11
184.69
21
-92.926
0
LINE
8
BLACK
6
CONTINUOUS
10
184.69
20
-92.926
11
185.69
21
-92.926
0
LINE
8
BLACK
6
CONTINUOUS
10
185.69
20
-92.926
11
185.69
21
-94.526
0
LINE
8
BLACK
6
CONTINUOUS
10
166.615
20
-94.4498
11
165.615
21
-94.4498
0
LINE
8
BLACK
6
CONTINUOUS
10
165.615
20
-94.4498
11
165.615
21
-92.8498
0
LINE
8
BLACK
6
CONTINUOUS
10
165.615
20
-92.8498
11
166.615
21
-92.8498
0
LINE
8
BLACK
6
CONTINUOUS
10
166.615
20
-92.8498
11
166.615
21
-94.4498
0
LINE
8
BLACK
6
CONTINUOUS
10
169.615
20
-94.4498
11
168.615
21
-94.4498
0
LINE
8
BLACK
6
CONTINUOUS
10
168.615
20
-94.4498
11
168.615
21
-92.8498
0
LINE
8
BLACK
6
CONTINUOUS
10
168.615
20
-92.8498
11
169.615
21
-92.8498
0
LINE
8
BLACK
6
CONTINUOUS
10
169.615
20
-92.8498
11
169.615
21
-94.4498
0
LINE
8
BLACK
6
CONTINUOUS
10
71.4281
20
-92.6083
11
70.4281
21
-92.6083
0
LINE
8
BLACK
6
CONTINUOUS
10
70.4281
20
-92.6083
11
70.4281
21
-91.0083
0
LINE
8
BLACK
6
CONTINUOUS
10
70.4281
20
-91.0083
11
71.4281
21
-91.0083
0
LINE
8
BLACK
6
CONTINUOUS
10
71.4281
20
-91.0083
11
71.4281
21
-92.6083
0
LINE
8
BLACK
6
CONTINUOUS
10
74.4281
20
-92.6083
11
73.4281
21
-92.6083
0
LINE
8
BLACK
6
CONTINUOUS
10
73.4281
20
-92.6083
11
73.4281
21
-91.0083
0
LINE
8
BLACK
6
CONTINUOUS
10
73.4281
20
-91.0083
11
74.4281
21
-91.0083
0
LINE
8
BLACK
6
CONTINUOUS
10
74.4281
20
-91.0083
11
74.4281
21
-92.6083
0
LINE
8
BLACK
6
CONTINUOUS
10
90.4146
20
-92.5702
11
89.4146
21
-92.5702
0
LINE
8
BLACK
6
CONTINUOUS
10
89.4146
20
-92.5702
11
89.4146
21
-90.9702
0
LINE
8
BLACK
6
CONTINUOUS
10
89.4146
20
-90.9702
11
90.4146
21
-90.9702
0
LINE
8
BLACK
6
CONTINUOUS
10
90.4146
20
-90.9702
11
90.4146
21
-92.5702
0
LINE
8
BLACK
6
CONTINUOUS
10
93.4146
20
-92.5702
11
92.4146
21
-92.5702
0
LINE
8
BLACK
6
CONTINUOUS
10
92.4146
20
-92.5702
11
92.4146
21
-90.9702
0
LINE
8
BLACK
6
CONTINUOUS
10
92.4146
20
-90.9702
11
93.4146
21
-90.9702
0
LINE
8
BLACK
6
CONTINUOUS
10
93.4146
20
-90.9702
11
93.4146
21
-92.5702
0
LINE
8
BLACK
6
CONTINUOUS
10
150.463
20
-91.3002
11
149.463
21
-91.3002
0
LINE
8
BLACK
6
CONTINUOUS
10
149.463
20
-91.3002
11
149.463
21
-89.7002
0
LINE
8
BLACK
6
CONTINUOUS
10
149.463
20
-89.7002
11
150.463
21
-89.7002
0
LINE
8
BLACK
6
CONTINUOUS
10
150.463
20
-89.7002
11
150.463
21
-91.3002
0
LINE
8
BLACK
6
CONTINUOUS
10
147.463
20
-91.3002
11
146.463
21
-91.3002
0
LINE
8
BLACK
6
CONTINUOUS
10
146.463
20
-91.3002
11
146.463
21
-89.7002
0
LINE
8
BLACK
6
CONTINUOUS
10
146.463
20
-89.7002
11
147.463
21
-89.7002
0
LINE
8
BLACK
6
CONTINUOUS
10
147.463
20
-89.7002
11
147.463
21
-91.3002
0
LINE
8
BLACK
6
CONTINUOUS
10
112.465
20
-91.2494
11
111.465
21
-91.2494
0
LINE
8
BLACK
6
CONTINUOUS
10
111.465
20
-91.2494
11
111.465
21
-89.6494
0
LINE
8
BLACK
6
CONTINUOUS
10
111.465
20
-89.6494
11
112.465
21
-89.6494
0
LINE
8
BLACK
6
CONTINUOUS
10
112.465
20
-89.6494
11
112.465
21
-91.2494
0
LINE
8
BLACK
6
CONTINUOUS
10
109.465
20
-91.2494
11
108.465
21
-91.2494
0
LINE
8
BLACK
6
CONTINUOUS
10
108.465
20
-91.2494
11
108.465
21
-89.6494
0
LINE
8
BLACK
6
CONTINUOUS
10
108.465
20
-89.6494
11
109.465
21
-89.6494
0
LINE
8
BLACK
6
CONTINUOUS
10
109.465
20
-89.6494
11
109.465
21
-91.2494
0
LINE
8
BLACK
6
CONTINUOUS
10
128.515
20
-89.7254
11
127.515
21
-89.7254
0
LINE
8
BLACK
6
CONTINUOUS
10
127.515
20
-89.7254
11
127.515
21
-88.1254
0
LINE
8
BLACK
6
CONTINUOUS
10
127.515
20
-88.1254
11
128.515
21
-88.1254
0
LINE
8
BLACK
6
CONTINUOUS
10
128.515
20
-88.1254
11
128.515
21
-89.7254
0
LINE
8
BLACK
6
CONTINUOUS
10
131.515
20
-89.7254
11
130.515
21
-89.7254
0
LINE
8
BLACK
6
CONTINUOUS
10
130.515
20
-89.7254
11
130.515
21
-88.1254
0
LINE
8
BLACK
6
CONTINUOUS
10
130.515
20
-88.1254
11
131.515
21
-88.1254
0
LINE
8
BLACK
6
CONTINUOUS
10
131.515
20
-88.1254
11
131.515
21
-89.7254
0
LINE
8
BLACK
6
CONTINUOUS
10
185.69
20
-75.476
11
184.69
21
-75.476
0
LINE
8
BLACK
6
CONTINUOUS
10
184.69
20
-75.476
11
184.69
21
-73.876
0
LINE
8
BLACK
6
CONTINUOUS
10
184.69
20
-73.876
11
185.69
21
-73.876
0
LINE
8
BLACK
6
CONTINUOUS
10
185.69
20
-73.876
11
185.69
21
-75.476
0
LINE
8
BLACK
6
CONTINUOUS
10
188.69
20
-75.476
11
187.69
21
-75.476
0
LINE
8
BLACK
6
CONTINUOUS
10
187.69
20
-75.476
11
187.69
21
-73.876
0
LINE
8
BLACK
6
CONTINUOUS
10
187.69
20
-73.876
11
188.69
21
-73.876
0
LINE
8
BLACK
6
CONTINUOUS
10
188.69
20
-73.876
11
188.69
21
-75.476
0
LINE
8
BLACK
6
CONTINUOUS
10
169.564
20
-75.4506
11
168.564
21
-75.4506
0
LINE
8
BLACK
6
CONTINUOUS
10
168.564
20
-75.4506
11
168.564
21
-73.8506
0
LINE
8
BLACK
6
CONTINUOUS
10
168.564
20
-73.8506
11
169.564
21
-73.8506
0
LINE
8
BLACK
6
CONTINUOUS
10
169.564
20
-73.8506
11
169.564
21
-75.4506
0
LINE
8
BLACK
6
CONTINUOUS
10
166.564
20
-75.4506
11
165.564
21
-75.4506
0
LINE
8
BLACK
6
CONTINUOUS
10
165.564
20
-75.4506
11
165.564
21
-73.8506
0
LINE
8
BLACK
6
CONTINUOUS
10
165.564
20
-73.8506
11
166.564
21
-73.8506
0
LINE
8
BLACK
6
CONTINUOUS
10
166.564
20
-73.8506
11
166.564
21
-75.4506
0
LINE
8
BLACK
6
CONTINUOUS
10
71.3646
20
-73.4694
11
70.3646
21
-73.4694
0
LINE
8
BLACK
6
CONTINUOUS
10
70.3646
20
-73.4694
11
70.3646
21
-71.8694
0
LINE
8
BLACK
6
CONTINUOUS
10
70.3646
20
-71.8694
11
71.3646
21
-71.8694
0
LINE
8
BLACK
6
CONTINUOUS
10
71.3646
20
-71.8694
11
71.3646
21
-73.4694
0
LINE
8
BLACK
6
CONTINUOUS
10
74.3646
20
-73.4694
11
73.3646
21
-73.4694
0
LINE
8
BLACK
6
CONTINUOUS
10
73.3646
20
-73.4694
11
73.3646
21
-71.8694
0
LINE
8
BLACK
6
CONTINUOUS
10
73.3646
20
-71.8694
11
74.3646
21
-71.8694
0
LINE
8
BLACK
6
CONTINUOUS
10
74.3646
20
-71.8694
11
74.3646
21
-73.4694
0
LINE
8
BLACK
6
CONTINUOUS
10
90.4146
20
-73.4694
11
89.4146
21
-73.4694
0
LINE
8
BLACK
6
CONTINUOUS
10
89.4146
20
-73.4694
11
89.4146
21
-71.8694
0
LINE
8
BLACK
6
CONTINUOUS
10
89.4146
20
-71.8694
11
90.4146
21
-71.8694
0
LINE
8
BLACK
6
CONTINUOUS
10
90.4146
20
-71.8694
11
90.4146
21
-73.4694
0
LINE
8
BLACK
6
CONTINUOUS
10
93.4146
20
-73.4694
11
92.4146
21
-73.4694
0
LINE
8
BLACK
6
CONTINUOUS
10
92.4146
20
-73.4694
11
92.4146
21
-71.8694
0
LINE
8
BLACK
6
CONTINUOUS
10
92.4146
20
-71.8694
11
93.4146
21
-71.8694
0
LINE
8
BLACK
6
CONTINUOUS
10
93.4146
20
-71.8694
11
93.4146
21
-73.4694
0
LINE
8
BLACK
6
CONTINUOUS
10
147.514
20
-72.2502
11
146.514
21
-72.2502
0
LINE
8
BLACK
6
CONTINUOUS
10
146.514
20
-72.2502
11
146.514
21
-70.6502
0
LINE
8
BLACK
6
CONTINUOUS
10
146.514
20
-70.6502
11
147.514
21
-70.6502
0
LINE
8
BLACK
6
CONTINUOUS
10
147.514
20
-70.6502
11
147.514
21
-72.2502
0
LINE
8
BLACK
6
CONTINUOUS
10
109.465
20
-72.2502
11
108.465
21
-72.2502
0
LINE
8
BLACK
6
CONTINUOUS
10
108.465
20
-72.2502
11
108.465
21
-70.6502
0
LINE
8
BLACK
6
CONTINUOUS
10
108.465
20
-70.6502
11
109.465
21
-70.6502
0
LINE
8
BLACK
6
CONTINUOUS
10
109.465
20
-70.6502
11
109.465
21
-72.2502
0
LINE
8
BLACK
6
CONTINUOUS
10
150.514
20
-72.2502
11
149.514
21
-72.2502
0
LINE
8
BLACK
6
CONTINUOUS
10
149.514
20
-72.2502
11
149.514
21
-70.6502
0
LINE
8
BLACK
6
CONTINUOUS
10
149.514
20
-70.6502
11
150.514
21
-70.6502
0
LINE
8
BLACK
6
CONTINUOUS
10
150.514
20
-70.6502
11
150.514
21
-72.2502
0
LINE
8
BLACK
6
CONTINUOUS
10
112.465
20
-72.2502
11
111.465
21
-72.2502
0
LINE
8
BLACK
6
CONTINUOUS
10
111.465
20
-72.2502
11
111.465
21
-70.6502
0
LINE
8
BLACK
6
CONTINUOUS
10
111.465
20
-70.6502
11
112.465
21
-70.6502
0
LINE
8
BLACK
6
CONTINUOUS
10
112.465
20
-70.6502
11
112.465
21
-72.2502
0
LINE
8
BLACK
6
CONTINUOUS
10
131.464
20
-70.6246
11
130.464
21
-70.6246
0
LINE
8
BLACK
6
CONTINUOUS
10
130.464
20
-70.6246
11
130.464
21
-69.0246
0
LINE
8
BLACK
6
CONTINUOUS
10
130.464
20
-69.0246
11
131.464
21
-69.0246
0
LINE
8
BLACK
6
CONTINUOUS
10
131.464
20
-69.0246
11
131.464
21
-70.6246
0
LINE
8
BLACK
6
CONTINUOUS
10
128.464
20
-70.6246
11
127.464
21
-70.6246
0
LINE
8
BLACK
6
CONTINUOUS
10
127.464
20
-70.6246
11
127.464
21
-69.0246
0
LINE
8
BLACK
6
CONTINUOUS
10
127.464
20
-69.0246
11
128.464
21
-69.0246
0
LINE
8
BLACK
6
CONTINUOUS
10
128.464
20
-69.0246
11
128.464
21
-70.6246
  0
ENDSEC
  0
EOF
