M48
;DRILL file {KiCad (5.0.1)-rc2} date 2018-10-18 10:59:51
;FORMAT={-:-/ absolute / inch / decimal}
FMAT,2
INCH,TZ
T1C0.0200
T2C0.0300
T3C0.0354
T4C0.0390
T5C0.0394
T6C0.0429
T7C0.0430
T8C0.0590
T9C0.0670
%
G90
G05
M72
T1
X3.0892Y-1.7663
X3.1725Y-1.952
X5.125Y-1.66
X5.85Y-1.725
X5.895Y-1.84
X5.921Y-2.042
X5.931Y-2.092
X5.935Y-2.1375
X5.941Y-2.182
X6.003Y-2.185
X6.247Y-5.785
X6.439Y-2.137
X6.791Y-2.292
X6.931Y-3.101
X6.975Y-3.851
X7.023Y-4.601
X7.025Y-1.615
X7.273Y-1.463
X7.661Y-2.222
T2
X5.356Y-1.4677
X5.3875Y-1.4205
X5.419Y-1.4677
X5.4505Y-1.4205
X5.482Y-1.4677
T3
X7.4341Y-2.062
X7.631Y-2.062
T4
X7.2Y-3.5879
X7.2Y-3.6879
X7.5Y-3.5879
X7.5Y-3.6879
X6.45Y-5.8379
X6.45Y-5.9379
X6.75Y-5.8379
X6.75Y-5.9379
X7.2Y-5.0879
X7.2Y-5.1879
X7.5Y-5.0879
X7.5Y-5.1879
X4.95Y-4.9
X4.95Y-5.
X5.25Y-4.9
X5.25Y-5.
X5.7Y-2.7129
X5.7Y-2.8129
X6.Y-2.7129
X6.Y-2.8129
X5.7Y-3.4629
X5.7Y-3.5629
X6.Y-3.4629
X6.Y-3.5629
X5.7Y-4.2129
X5.7Y-4.3129
X6.Y-4.2129
X6.Y-4.3129
X2.0951Y-5.7864
X2.3669Y-5.6596
X7.2Y-4.3379
X7.2Y-4.4379
X7.5Y-4.3379
X7.5Y-4.4379
X2.6391Y-6.1227
X2.7297Y-6.0805
X2.7659Y-6.3946
X2.8565Y-6.3524
X1.3147Y-5.8852
X1.3569Y-5.9758
X1.5866Y-5.7584
X1.6288Y-5.849
X3.45Y-5.0129
X3.45Y-5.1129
X3.75Y-5.0129
X3.75Y-5.1129
X4.2Y-2.7129
X4.2Y-2.8129
X4.5Y-2.7129
X4.5Y-2.8129
X1.9944Y-5.5683
X2.0366Y-5.6589
X2.2663Y-5.4415
X2.3085Y-5.5321
X3.45Y-3.5129
X3.45Y-3.6129
X3.75Y-3.5129
X3.75Y-3.6129
X6.45Y-5.0879
X6.45Y-5.1879
X6.75Y-5.0879
X6.75Y-5.1879
X3.3188Y-5.8057
X3.4094Y-5.7635
X3.4456Y-6.0776
X3.5362Y-6.0354
X4.2Y-4.9629
X4.2Y-5.0629
X4.5Y-4.9629
X4.5Y-5.0629
X4.95Y-3.4
X4.95Y-3.5
X5.25Y-3.4
X5.25Y-3.5
X7.2Y-2.838
X7.2Y-2.938
X7.5Y-2.838
X7.5Y-2.938
X4.2Y-3.4629
X4.2Y-3.5629
X4.5Y-3.4629
X4.5Y-3.5629
X3.45Y-2.763
X3.45Y-2.863
X3.75Y-2.763
X3.75Y-2.863
X1.6316Y-6.5649
X1.6738Y-6.6555
X1.9035Y-6.4381
X1.9457Y-6.5287
X7.2Y-5.8379
X7.2Y-5.9379
X7.5Y-5.8379
X7.5Y-5.9379
X3.9797Y-1.4356
X4.3797Y-1.4356
X6.45Y-4.3379
X6.45Y-4.4379
X6.75Y-4.3379
X6.75Y-4.4379
X3.7Y-1.375
X3.7Y-1.475
X3.7Y-1.575
X6.45Y-3.5879
X6.45Y-3.6879
X6.75Y-3.5879
X6.75Y-3.6879
X6.45Y-2.838
X6.45Y-2.938
X6.75Y-2.838
X6.75Y-2.938
X2.7751Y-5.4724
X3.0469Y-5.3456
X3.98Y-1.565
X4.38Y-1.565
X4.2Y-5.7129
X4.2Y-5.8129
X4.5Y-5.7129
X4.5Y-5.8129
X5.7Y-5.7129
X5.7Y-5.8129
X6.Y-5.7129
X6.Y-5.8129
X3.1Y-1.375
X3.1Y-1.475
X3.1Y-1.575
X4.95Y-2.65
X4.95Y-2.75
X5.25Y-2.65
X5.25Y-2.75
X2.6967Y-5.0142
X2.6967Y-5.1142
X2.9967Y-5.0142
X2.9967Y-5.1142
X4.95Y-4.15
X4.95Y-4.25
X5.25Y-4.15
X5.25Y-4.25
X3.0459Y-1.653
X3.0459Y-2.053
X1.9486Y-7.2447
X1.9908Y-7.3353
X2.2205Y-7.1179
X2.2627Y-7.2085
X2.7821Y-1.653
X2.7821Y-2.053
X5.229Y-1.585
X5.324Y-1.585
X5.419Y-1.585
X5.514Y-1.585
X5.609Y-1.585
X2.7Y-2.763
X2.7Y-2.863
X3.Y-2.763
X3.Y-2.863
X2.7001Y-3.5135
X2.7001Y-3.6135
X3.0001Y-3.5135
X3.0001Y-3.6135
X3.45Y-4.2629
X3.45Y-4.3629
X3.75Y-4.2629
X3.75Y-4.3629
X2.912Y-1.653
X2.912Y-2.053
X4.95Y-5.65
X4.95Y-5.75
X5.25Y-5.65
X5.25Y-5.75
X2.7001Y-4.2635
X2.7001Y-4.3635
X3.0001Y-4.2635
X3.0001Y-4.3635
X4.2Y-4.2129
X4.2Y-4.3129
X4.5Y-4.2129
X4.5Y-4.3129
X5.7Y-4.9629
X5.7Y-5.0629
X6.Y-4.9629
X6.Y-5.0629
T5
X2.6167Y-1.875
X2.6167Y-1.975
X2.6167Y-1.375
X2.6167Y-1.475
X2.6167Y-1.623
X2.6167Y-1.723
T6
X7.345Y-1.975
T7
X6.245Y-1.375
X6.245Y-1.975
X6.345Y-1.375
X6.345Y-1.975
X6.445Y-1.375
X6.445Y-1.975
X6.545Y-1.375
X6.545Y-1.975
X6.645Y-1.375
X6.645Y-1.975
X6.745Y-1.375
X6.745Y-1.975
X6.845Y-1.375
X6.845Y-1.975
X6.945Y-1.375
X6.945Y-1.975
X7.045Y-1.375
X7.045Y-1.975
X7.145Y-1.375
X7.145Y-1.975
X7.245Y-1.375
X7.245Y-1.975
X7.345Y-1.375
X6.2444Y-1.524
X6.2444Y-1.824
X6.3444Y-1.524
X6.3444Y-1.824
X6.4444Y-1.524
X6.4444Y-1.824
X6.5444Y-1.524
X6.5444Y-1.824
X6.6444Y-1.524
X6.6444Y-1.824
X6.7444Y-1.524
X6.7444Y-1.824
X6.8444Y-1.524
X6.8444Y-1.824
X6.9444Y-1.524
X6.9444Y-1.824
X7.0444Y-1.524
X7.0444Y-1.824
X7.1444Y-1.524
X7.1444Y-1.824
X7.2444Y-1.524
X7.3444Y-1.524
X7.3444Y-1.824
X7.4444Y-1.524
X7.4444Y-1.824
X7.5444Y-1.524
X3.256Y-1.511
X3.335Y-1.633
X3.461Y-1.633
X3.54Y-1.511
T8
X4.2Y-5.4129
X4.25Y-5.3129
X4.45Y-5.3129
X4.5Y-5.4129
X5.7Y-5.4129
X5.75Y-5.3129
X5.95Y-5.3129
X6.Y-5.4129
X4.95Y-2.35
X5.Y-2.25
X5.2Y-2.25
X5.25Y-2.35
X2.6967Y-4.7142
X2.7467Y-4.6142
X2.9467Y-4.6142
X2.9967Y-4.7142
X4.95Y-3.85
X5.Y-3.75
X5.2Y-3.75
X5.25Y-3.85
X1.8218Y-6.9728
X1.8248Y-6.861
X2.0061Y-6.7765
X2.0937Y-6.846
X2.7Y-2.463
X2.75Y-2.363
X2.95Y-2.363
X3.Y-2.463
X2.7001Y-3.2135
X2.7501Y-3.1135
X2.9501Y-3.1135
X3.0001Y-3.2135
X3.45Y-3.9629
X3.5Y-3.8629
X3.7Y-3.8629
X3.75Y-3.9629
X4.95Y-5.35
X5.Y-5.25
X5.2Y-5.25
X5.25Y-5.35
X2.7001Y-3.9635
X2.7501Y-3.8635
X2.9501Y-3.8635
X3.0001Y-3.9635
X4.2Y-3.9129
X4.25Y-3.8129
X4.45Y-3.8129
X4.5Y-3.9129
X5.7Y-4.6629
X5.75Y-4.5629
X5.95Y-4.5629
X6.Y-4.6629
X7.2Y-3.2879
X7.25Y-3.1879
X7.45Y-3.1879
X7.5Y-3.2879
X6.45Y-5.5379
X6.5Y-5.4379
X6.7Y-5.4379
X6.75Y-5.5379
X7.2Y-4.7879
X7.25Y-4.6879
X7.45Y-4.6879
X7.5Y-4.7879
X4.95Y-4.6
X5.Y-4.5
X5.2Y-4.5
X5.25Y-4.6
X5.7Y-2.4129
X5.75Y-2.3129
X5.95Y-2.3129
X6.Y-2.4129
X5.7Y-3.1629
X5.75Y-3.0629
X5.95Y-3.0629
X6.Y-3.1629
X2.8643Y-5.6591
X2.8673Y-5.5473
X3.0486Y-5.4628
X3.1362Y-5.5323
X5.7Y-3.9129
X5.75Y-3.8129
X5.95Y-3.8129
X6.Y-3.9129
X7.2Y-4.0379
X7.25Y-3.9379
X7.45Y-3.9379
X7.5Y-4.0379
X2.2977Y-6.3371
X2.3672Y-6.2495
X2.3822Y-6.5184
X2.494Y-6.5214
X1.1879Y-5.6133
X1.1909Y-5.5015
X1.3722Y-5.417
X1.4598Y-5.4865
X3.45Y-4.7129
X3.5Y-4.6129
X3.7Y-4.6129
X3.75Y-4.7129
X4.2Y-2.4129
X4.25Y-2.3129
X4.45Y-2.3129
X4.5Y-2.4129
X1.8676Y-5.2964
X1.8706Y-5.1846
X2.0519Y-5.1001
X2.1395Y-5.1696
X3.45Y-3.2129
X3.5Y-3.1129
X3.7Y-3.1129
X3.75Y-3.2129
X2.1846Y-5.9761
X2.1876Y-5.8643
X2.3689Y-5.7798
X2.4565Y-5.8493
X6.45Y-4.7879
X6.5Y-4.6879
X6.7Y-4.6879
X6.75Y-4.7879
X2.9774Y-6.0201
X3.0469Y-5.9325
X3.0619Y-6.2014
X3.1737Y-6.2044
X4.2Y-4.6629
X4.25Y-4.5629
X4.45Y-4.5629
X4.5Y-4.6629
X4.95Y-3.1
X5.Y-3.
X5.2Y-3.
X5.25Y-3.1
X7.2Y-2.538
X7.25Y-2.438
X7.45Y-2.438
X7.5Y-2.538
X4.2Y-3.1629
X4.25Y-3.0629
X4.45Y-3.0629
X4.5Y-3.1629
X2.586Y-6.837
X2.6736Y-6.9065
X2.8549Y-6.822
X2.8579Y-6.7102
X3.45Y-2.463
X3.5Y-2.363
X3.7Y-2.363
X3.75Y-2.463
X3.2658Y-6.5201
X3.3534Y-6.5896
X3.5347Y-6.5051
X3.5377Y-6.3933
X1.5048Y-6.293
X1.5078Y-6.1812
X1.6891Y-6.0967
X1.7767Y-6.1662
X7.2Y-5.5379
X7.25Y-5.4379
X7.45Y-5.4379
X7.5Y-5.5379
X6.45Y-4.0379
X6.5Y-3.9379
X6.7Y-3.9379
X6.75Y-4.0379
X6.45Y-3.2879
X6.5Y-3.1879
X6.7Y-3.1879
X6.75Y-3.2879
X6.45Y-2.538
X6.5Y-2.438
X6.7Y-2.438
X6.75Y-2.538
T9
X7.15Y-4.1379
X7.55Y-4.1379
X2.4367Y-6.1619
X2.6057Y-6.5245
X1.1848Y-5.725
X1.5474Y-5.556
X3.4Y-4.8129
X3.8Y-4.8129
X4.15Y-2.5129
X4.55Y-2.5129
X1.8645Y-5.4081
X2.2271Y-5.2391
X3.4Y-3.3129
X3.8Y-3.3129
X2.1815Y-6.0878
X2.5441Y-5.9188
X6.4Y-4.8879
X6.8Y-4.8879
X3.1164Y-5.8449
X3.2854Y-6.2075
X4.15Y-4.7629
X4.55Y-4.7629
X4.9Y-3.2
X5.3Y-3.2
X7.15Y-2.638
X7.55Y-2.638
X4.15Y-3.2629
X4.55Y-3.2629
X2.4984Y-6.7675
X2.861Y-6.5985
X3.4Y-2.563
X3.8Y-2.563
X3.1782Y-6.4506
X3.5408Y-6.2816
X1.5017Y-6.4047
X1.8643Y-6.2357
X7.15Y-5.6379
X7.55Y-5.6379
X6.4Y-4.1379
X6.8Y-4.1379
X6.4Y-3.3879
X6.8Y-3.3879
X6.4Y-2.638
X6.8Y-2.638
X4.15Y-5.5129
X4.55Y-5.5129
X5.65Y-5.5129
X6.05Y-5.5129
X4.9Y-2.45
X5.3Y-2.45
X2.6467Y-4.8142
X3.0467Y-4.8142
X4.9Y-3.95
X5.3Y-3.95
X1.8187Y-7.0845
X2.1813Y-6.9155
X2.65Y-2.563
X3.05Y-2.563
X2.6501Y-3.3135
X3.0501Y-3.3135
X3.4Y-4.0629
X3.8Y-4.0629
X4.9Y-5.45
X5.3Y-5.45
X2.6501Y-4.0635
X3.0501Y-4.0635
X4.15Y-4.0129
X4.55Y-4.0129
X5.65Y-4.7629
X6.05Y-4.7629
X7.15Y-3.3879
X7.55Y-3.3879
X6.4Y-5.6379
X6.8Y-5.6379
X7.15Y-4.8879
X7.55Y-4.8879
X4.9Y-4.7
X5.3Y-4.7
X5.65Y-2.5129
X6.05Y-2.5129
X5.65Y-3.2629
X6.05Y-3.2629
X2.8612Y-5.7708
X3.2238Y-5.6018
X5.65Y-4.0129
X6.05Y-4.0129
T2
X5.2754Y-1.2464G85X5.2754Y-1.2914
G05
X5.5626Y-1.2464G85X5.5626Y-1.2914
G05
T7
X3.221Y-1.314G85X3.209Y-1.314
G05
X3.587Y-1.314G85X3.575Y-1.314
G05
T0
M30
