G04 #@! TF.GenerationSoftware,KiCad,Pcbnew,(5.0.1)-rc2*
G04 #@! TF.CreationDate,2018-10-24T13:34:51+02:00*
G04 #@! TF.ProjectId,ErgoDone,4572676F446F6E652E6B696361645F70,rev?*
G04 #@! TF.SameCoordinates,Original*
G04 #@! TF.FileFunction,Profile,NP*
%FSLAX46Y46*%
G04 Gerber Fmt 4.6, Leading zero omitted, Abs format (unit mm)*
G04 Created by KiCad (PCBNEW (5.0.1)-rc2) date 2018-10-24 13:34:51*
%MOMM*%
%LPD*%
G01*
G04 APERTURE LIST*
%ADD10C,0.381000*%
G04 APERTURE END LIST*
D10*
X127220000Y-152910000D02*
X49022000Y-189357000D01*
X196342000Y-151130000D02*
X194691000Y-152908000D01*
X196342000Y-34671000D02*
X193929000Y-32258000D01*
X127220000Y-152908000D02*
X194691000Y-152908000D01*
X196342000Y-151130000D02*
X196342000Y-34671000D01*
X193929000Y-32258000D02*
X143408400Y-32258000D01*
X143408400Y-32258000D02*
X143408400Y-30480000D01*
X143408400Y-30480000D02*
X131902200Y-30480000D01*
X131902200Y-30480000D02*
X131902200Y-32258000D01*
X131902200Y-32258000D02*
X95046800Y-32258000D01*
X95046800Y-32258000D02*
X95046800Y-30480000D01*
X95046800Y-30480000D02*
X88709500Y-30480000D01*
X88709500Y-30480000D02*
X88709500Y-31750000D01*
X88709500Y-31750000D02*
X84213700Y-31750000D01*
X84213700Y-31750000D02*
X84213700Y-30480000D01*
X84213700Y-30480000D02*
X77876400Y-30480000D01*
X77876400Y-30480000D02*
X77876400Y-32258000D01*
X77876400Y-32258000D02*
X65811400Y-32258000D01*
X65811400Y-32258000D02*
X62611000Y-35433000D01*
X62611000Y-35433000D02*
X62611000Y-119380000D01*
X62611000Y-119380000D02*
X24617680Y-137096500D01*
X24617680Y-137096500D02*
X23080980Y-141315440D01*
X23080980Y-141315440D02*
X44764960Y-187817760D01*
X44764960Y-187817760D02*
X48983900Y-189351920D01*
M02*
