  0
SECTION
  2
HEADER
  9
$ANGBASE
  50
0.0
  9
$ANGDIR
  70
  1
  9
$MEASUREMENT
  70
0
  0
ENDSEC
  0
SECTION
  2
TABLES
  0
TABLE
  2
LTYPE
  70
4
  0
LTYPE
  5
40F
  2
CONTINUOUS
  70
0
  3
Solid line
  72
65
  73
0
  40
0.0
  0
LTYPE
  5
410
  2
DASHDOT
 70
0
  3
Dash Dot ____ _ ____ _
 72
65
 73
4
 40
2.0
 49
1.25
 49
-0.25
 49
0.25
 49
-0.25
  0
LTYPE
  5
411
  2
DASHED
 70
0
  3
Dashed __ __ __ __ __
 72
65
 73
2
 40
0.75
 49
0.5
 49
-0.25
  0
LTYPE
  5
43B
  2
DOTTED
 70
0
  3
Dotted .  .  .  .
 72
65
 73
2
 40
0.2
 49
0.0
 49
-0.2
  0
ENDTAB
  0
TABLE
  2
STYLE
  70
4
  0
STYLE
  2
KICAD
  70
0
  40
0
  41
1
  42
1
  50
0
  71
0
  3
isocp.shx
  0
STYLE
  2
KICADB
  70
0
  40
0
  41
1
  42
1
  50
0
  71
0
  3
isocp.shx
  0
STYLE
  2
KICADI
  70
0
  40
0
  41
1
  42
1
  50
15
  71
0
  3
isocp.shx
  0
STYLE
  2
KICADBI
  70
0
  40
0
  41
1
  42
1
  50
15
  71
0
  3
isocp.shx
  0
ENDTAB
  0
TABLE
  2
LAYER
  70
30
  0
LAYER
  2
BLACK
  70
0
  62
7
  6
CONTINUOUS
  0
LAYER
  2
GRAY1
  70
0
  62
251
  6
CONTINUOUS
  0
LAYER
  2
GRAY2
  70
0
  62
8
  6
CONTINUOUS
  0
LAYER
  2
GRAY3
  70
0
  62
9
  6
CONTINUOUS
  0
LAYER
  2
WHITE
  70
0
  62
7
  6
CONTINUOUS
  0
LAYER
  2
LYELLOW
  70
0
  62
51
  6
CONTINUOUS
  0
LAYER
  2
BLUE1
  70
0
  62
178
  6
CONTINUOUS
  0
LAYER
  2
GREEN1
  70
0
  62
98
  6
CONTINUOUS
  0
LAYER
  2
CYAN1
  70
0
  62
138
  6
CONTINUOUS
  0
LAYER
  2
RED1
  70
0
  62
18
  6
CONTINUOUS
  0
LAYER
  2
MAGENTA1
  70
0
  62
228
  6
CONTINUOUS
  0
LAYER
  2
BROWN1
  70
0
  62
58
  6
CONTINUOUS
  0
LAYER
  2
BLUE2
  70
0
  62
5
  6
CONTINUOUS
  0
LAYER
  2
GREEN2
  70
0
  62
3
  6
CONTINUOUS
  0
LAYER
  2
CYAN2
  70
0
  62
4
  6
CONTINUOUS
  0
LAYER
  2
RED2
  70
0
  62
1
  6
CONTINUOUS
  0
LAYER
  2
MAGENTA2
  70
0
  62
6
  6
CONTINUOUS
  0
LAYER
  2
BROWN2
  70
0
  62
54
  6
CONTINUOUS
  0
LAYER
  2
BLUE3
  70
0
  62
171
  6
CONTINUOUS
  0
LAYER
  2
GREEN3
  70
0
  62
91
  6
CONTINUOUS
  0
LAYER
  2
CYAN3
  70
0
  62
131
  6
CONTINUOUS
  0
LAYER
  2
RED3
  70
0
  62
11
  6
CONTINUOUS
  0
LAYER
  2
MAGENTA3
  70
0
  62
221
  6
CONTINUOUS
  0
LAYER
  2
YELLOW3
  70
0
  62
2
  6
CONTINUOUS
  0
LAYER
  2
BLUE4
  70
0
  62
5
  6
CONTINUOUS
  0
LAYER
  2
GREEN4
  70
0
  62
3
  6
CONTINUOUS
  0
LAYER
  2
CYAN4
  70
0
  62
4
  6
CONTINUOUS
  0
LAYER
  2
RED4
  70
0
  62
1
  6
CONTINUOUS
  0
LAYER
  2
MAGENTA4
  70
0
  62
6
  6
CONTINUOUS
  0
LAYER
  2
YELLOW4
  70
0
  62
2
  6
CONTINUOUS
  0
ENDTAB
  0
ENDSEC
  0
SECTION
  2
ENTITIES
0
LINE
8
BLACK
6
CONTINUOUS
10
127.22
20
-152.91
11
49.022
21
-189.357
0
LINE
8
BLACK
6
CONTINUOUS
10
196.342
20
-151.13
11
194.691
21
-152.908
0
LINE
8
BLACK
6
CONTINUOUS
10
196.342
20
-34.671
11
193.929
21
-32.258
0
LINE
8
BLACK
6
CONTINUOUS
10
127.22
20
-152.908
11
194.691
21
-152.908
0
LINE
8
BLACK
6
CONTINUOUS
10
196.342
20
-151.13
11
196.342
21
-34.671
0
LINE
8
BLACK
6
CONTINUOUS
10
193.929
20
-32.258
11
143.408
21
-32.258
0
LINE
8
BLACK
6
CONTINUOUS
10
143.408
20
-32.258
11
143.408
21
-30.48
0
LINE
8
BLACK
6
CONTINUOUS
10
143.408
20
-30.48
11
131.902
21
-30.48
0
LINE
8
BLACK
6
CONTINUOUS
10
131.902
20
-30.48
11
131.902
21
-32.258
0
LINE
8
BLACK
6
CONTINUOUS
10
131.902
20
-32.258
11
95.0468
21
-32.258
0
LINE
8
BLACK
6
CONTINUOUS
10
95.0468
20
-32.258
11
95.0468
21
-30.48
0
LINE
8
BLACK
6
CONTINUOUS
10
95.0468
20
-30.48
11
88.7095
21
-30.48
0
LINE
8
BLACK
6
CONTINUOUS
10
88.7095
20
-30.48
11
88.7095
21
-31.75
0
LINE
8
BLACK
6
CONTINUOUS
10
88.7095
20
-31.75
11
84.2137
21
-31.75
0
LINE
8
BLACK
6
CONTINUOUS
10
84.2137
20
-31.75
11
84.2137
21
-30.48
0
LINE
8
BLACK
6
CONTINUOUS
10
84.2137
20
-30.48
11
77.8764
21
-30.48
0
LINE
8
BLACK
6
CONTINUOUS
10
77.8764
20
-30.48
11
77.8764
21
-32.258
0
LINE
8
BLACK
6
CONTINUOUS
10
77.8764
20
-32.258
11
65.8114
21
-32.258
0
LINE
8
BLACK
6
CONTINUOUS
10
65.8114
20
-32.258
11
62.611
21
-35.433
0
LINE
8
BLACK
6
CONTINUOUS
10
62.611
20
-35.433
11
62.611
21
-119.38
0
LINE
8
BLACK
6
CONTINUOUS
10
62.611
20
-119.38
11
24.6177
21
-137.096
0
LINE
8
BLACK
6
CONTINUOUS
10
24.6177
20
-137.096
11
23.081
21
-141.315
0
LINE
8
BLACK
6
CONTINUOUS
10
23.081
20
-141.315
11
44.765
21
-187.818
0
LINE
8
BLACK
6
CONTINUOUS
10
44.765
20
-187.818
11
48.9839
21
-189.352
0
LINE
8
BLACK
6
CONTINUOUS
10
85.8139
20
-32.8803
11
86.8045
21
-33.8709
0
LINE
8
BLACK
6
CONTINUOUS
10
86.8045
20
-32.8803
11
85.8139
21
-33.8709
0
LINE
8
BLACK
6
CONTINUOUS
10
85.8139
20
-37.8841
11
86.8045
21
-38.8747
0
LINE
8
BLACK
6
CONTINUOUS
10
86.8045
20
-37.8841
11
85.8139
21
-38.8747
0
CIRCLE
8
BLACK
10
184.008
20
-46.33
40
0.5461
0
CIRCLE
8
BLACK
10
191.628
20
-46.33
40
0.5461
0
LINE
8
BLACK
6
CONTINUOUS
10
69.9271
20
-143.674
11
69.9271
21
-146.722
0
LINE
8
BLACK
6
CONTINUOUS
10
68.4031
20
-145.198
11
71.4511
21
-145.198
0
LINE
8
BLACK
6
CONTINUOUS
10
80.0175
20
-165.313
11
80.0175
21
-168.361
0
LINE
8
BLACK
6
CONTINUOUS
10
78.4935
20
-166.837
11
81.5415
21
-166.837
0
LINE
8
BLACK
6
CONTINUOUS
10
121.667
20
-39.2667
11
121.667
21
-36.9333
0
LINE
8
BLACK
6
CONTINUOUS
10
121.667
20
-36.9333
11
119.333
21
-36.9333
0
LINE
8
BLACK
6
CONTINUOUS
10
119.333
20
-36.9333
11
119.333
21
-39.2667
0
LINE
8
BLACK
6
CONTINUOUS
10
119.333
20
-39.2667
11
121.667
21
-39.2667
0
LINE
8
BLACK
6
CONTINUOUS
10
42.3987
20
-173.011
11
42.3987
21
-170.677
0
LINE
8
BLACK
6
CONTINUOUS
10
42.3987
20
-170.677
11
40.0653
21
-170.677
0
LINE
8
BLACK
6
CONTINUOUS
10
40.0653
20
-170.677
11
40.0653
21
-173.011
0
LINE
8
BLACK
6
CONTINUOUS
10
40.0653
20
-173.011
11
42.3987
21
-173.011
0
LINE
8
BLACK
6
CONTINUOUS
10
75.1667
20
-39.2667
11
75.1667
21
-36.9333
0
LINE
8
BLACK
6
CONTINUOUS
10
75.1667
20
-36.9333
11
72.8333
21
-36.9333
0
LINE
8
BLACK
6
CONTINUOUS
10
72.8333
20
-36.9333
11
72.8333
21
-39.2667
0
LINE
8
BLACK
6
CONTINUOUS
10
72.8333
20
-39.2667
11
75.1667
21
-39.2667
0
LINE
8
BLACK
6
CONTINUOUS
10
186.69
20
-107.097
11
188.684
21
-105.103
0
LINE
8
BLACK
6
CONTINUOUS
10
188.684
20
-105.103
11
186.69
21
-103.109
0
LINE
8
BLACK
6
CONTINUOUS
10
186.69
20
-103.109
11
184.696
21
-105.103
0
LINE
8
BLACK
6
CONTINUOUS
10
184.696
20
-105.103
11
186.69
21
-107.097
0
LINE
8
BLACK
6
CONTINUOUS
10
148.59
20
-142.022
11
150.584
21
-140.028
0
LINE
8
BLACK
6
CONTINUOUS
10
150.584
20
-140.028
11
148.59
21
-138.034
0
LINE
8
BLACK
6
CONTINUOUS
10
148.59
20
-138.034
11
146.596
21
-140.028
0
LINE
8
BLACK
6
CONTINUOUS
10
146.596
20
-140.028
11
148.59
21
-142.022
0
LINE
8
BLACK
6
CONTINUOUS
10
64.0385
20
-163.111
11
66.0324
21
-161.117
0
LINE
8
BLACK
6
CONTINUOUS
10
66.0324
20
-161.117
11
64.0385
21
-159.123
0
LINE
8
BLACK
6
CONTINUOUS
10
64.0385
20
-159.123
11
62.0446
21
-161.117
0
LINE
8
BLACK
6
CONTINUOUS
10
62.0446
20
-161.117
11
64.0385
21
-163.111
0
LINE
8
BLACK
6
CONTINUOUS
10
50.8
20
-179.794
11
52.7939
21
-177.8
0
LINE
8
BLACK
6
CONTINUOUS
10
52.7939
20
-177.8
11
50.8
21
-175.806
0
LINE
8
BLACK
6
CONTINUOUS
10
50.8
20
-175.806
11
48.8061
21
-177.8
0
LINE
8
BLACK
6
CONTINUOUS
10
48.8061
20
-177.8
11
50.8
21
-179.794
0
LINE
8
BLACK
6
CONTINUOUS
10
81.3029
20
-155.059
11
83.2968
21
-153.065
0
LINE
8
BLACK
6
CONTINUOUS
10
83.2968
20
-153.065
11
81.3029
21
-151.072
0
LINE
8
BLACK
6
CONTINUOUS
10
81.3029
20
-151.072
11
79.309
21
-153.065
0
LINE
8
BLACK
6
CONTINUOUS
10
79.309
20
-153.065
11
81.3029
21
-155.059
0
LINE
8
BLACK
6
CONTINUOUS
10
85.3313
20
-163.693
11
87.3252
21
-161.699
0
LINE
8
BLACK
6
CONTINUOUS
10
87.3252
20
-161.699
11
85.3313
21
-159.705
0
LINE
8
BLACK
6
CONTINUOUS
10
85.3313
20
-159.705
11
83.3374
21
-161.699
0
LINE
8
BLACK
6
CONTINUOUS
10
83.3374
20
-161.699
11
85.3313
21
-163.693
0
LINE
8
BLACK
6
CONTINUOUS
10
167.64
20
-88.0466
11
169.634
21
-86.0527
0
LINE
8
BLACK
6
CONTINUOUS
10
169.634
20
-86.0527
11
167.64
21
-84.0588
0
LINE
8
BLACK
6
CONTINUOUS
10
167.64
20
-84.0588
11
165.646
21
-86.0527
0
LINE
8
BLACK
6
CONTINUOUS
10
165.646
20
-86.0527
11
167.64
21
-88.0466
0
LINE
8
BLACK
6
CONTINUOUS
10
110.49
20
-65.8216
11
112.484
21
-63.8277
0
LINE
8
BLACK
6
CONTINUOUS
10
112.484
20
-63.8277
11
110.49
21
-61.8338
0
LINE
8
BLACK
6
CONTINUOUS
10
110.49
20
-61.8338
11
108.496
21
-63.8277
0
LINE
8
BLACK
6
CONTINUOUS
10
108.496
20
-63.8277
11
110.49
21
-65.8216
0
LINE
8
BLACK
6
CONTINUOUS
10
72.3065
20
-124.275
11
74.3004
21
-122.281
0
LINE
8
BLACK
6
CONTINUOUS
10
74.3004
20
-122.281
11
72.3065
21
-120.287
0
LINE
8
BLACK
6
CONTINUOUS
10
72.3065
20
-120.287
11
70.3126
21
-122.281
0
LINE
8
BLACK
6
CONTINUOUS
10
70.3126
20
-122.281
11
72.3065
21
-124.275
0
LINE
8
BLACK
6
CONTINUOUS
10
110.49
20
-142.022
11
112.484
21
-140.028
0
LINE
8
BLACK
6
CONTINUOUS
10
112.484
20
-140.028
11
110.49
21
-138.034
0
LINE
8
BLACK
6
CONTINUOUS
10
110.49
20
-138.034
11
108.496
21
-140.028
0
LINE
8
BLACK
6
CONTINUOUS
10
108.496
20
-140.028
11
110.49
21
-142.022
0
LINE
8
BLACK
6
CONTINUOUS
10
110.49
20
-103.922
11
112.484
21
-101.928
0
LINE
8
BLACK
6
CONTINUOUS
10
112.484
20
-101.928
11
110.49
21
-99.9338
0
LINE
8
BLACK
6
CONTINUOUS
10
110.49
20
-99.9338
11
108.496
21
-101.928
0
LINE
8
BLACK
6
CONTINUOUS
10
108.496
20
-101.928
11
110.49
21
-103.922
0
LINE
8
BLACK
6
CONTINUOUS
10
110.49
20
-84.8716
11
112.484
21
-82.8777
0
LINE
8
BLACK
6
CONTINUOUS
10
112.484
20
-82.8777
11
110.49
21
-80.8838
0
LINE
8
BLACK
6
CONTINUOUS
10
110.49
20
-80.8838
11
108.496
21
-82.8777
0
LINE
8
BLACK
6
CONTINUOUS
10
108.496
20
-82.8777
11
110.49
21
-84.8716
0
LINE
8
BLACK
6
CONTINUOUS
10
42.7482
20
-162.527
11
44.7421
21
-160.533
0
LINE
8
BLACK
6
CONTINUOUS
10
44.7421
20
-160.533
11
42.7482
21
-158.539
0
LINE
8
BLACK
6
CONTINUOUS
10
42.7482
20
-158.539
11
40.7543
21
-160.533
0
LINE
8
BLACK
6
CONTINUOUS
10
40.7543
20
-160.533
11
42.7482
21
-162.527
0
LINE
8
BLACK
6
CONTINUOUS
10
51.9633
20
-137.213
11
53.9572
21
-135.219
0
LINE
8
BLACK
6
CONTINUOUS
10
53.9572
20
-135.219
11
51.9633
21
-133.226
0
LINE
8
BLACK
6
CONTINUOUS
10
51.9633
20
-133.226
11
49.9694
21
-135.219
0
LINE
8
BLACK
6
CONTINUOUS
10
49.9694
20
-135.219
11
51.9633
21
-137.213
0
LINE
8
BLACK
6
CONTINUOUS
10
129.54
20
-83.2739
11
131.534
21
-81.28
0
LINE
8
BLACK
6
CONTINUOUS
10
131.534
20
-81.28
11
129.54
21
-79.2861
0
LINE
8
BLACK
6
CONTINUOUS
10
129.54
20
-79.2861
11
127.546
21
-81.28
0
LINE
8
BLACK
6
CONTINUOUS
10
127.546
20
-81.28
11
129.54
21
-83.2739
0
LINE
8
BLACK
6
CONTINUOUS
10
91.44
20
-67.0941
11
93.4339
21
-65.1002
0
LINE
8
BLACK
6
CONTINUOUS
10
93.4339
20
-65.1002
11
91.44
21
-63.1063
0
LINE
8
BLACK
6
CONTINUOUS
10
91.44
20
-63.1063
11
89.4461
21
-65.1002
0
LINE
8
BLACK
6
CONTINUOUS
10
89.4461
20
-65.1002
11
91.44
21
-67.0941
0
LINE
8
BLACK
6
CONTINUOUS
10
72.3925
20
-86.1568
11
74.3864
21
-84.1629
0
LINE
8
BLACK
6
CONTINUOUS
10
74.3864
20
-84.1629
11
72.3925
21
-82.169
0
LINE
8
BLACK
6
CONTINUOUS
10
72.3925
20
-82.169
11
70.3986
21
-84.1629
0
LINE
8
BLACK
6
CONTINUOUS
10
70.3986
20
-84.1629
11
72.3925
21
-86.1568
0
LINE
8
BLACK
6
CONTINUOUS
10
167.64
20
-107.097
11
169.634
21
-105.103
0
LINE
8
BLACK
6
CONTINUOUS
10
169.634
20
-105.103
11
167.64
21
-103.109
0
LINE
8
BLACK
6
CONTINUOUS
10
167.64
20
-103.109
11
165.646
21
-105.103
0
LINE
8
BLACK
6
CONTINUOUS
10
165.646
20
-105.103
11
167.64
21
-107.097
0
LINE
8
BLACK
6
CONTINUOUS
10
129.54
20
-140.424
11
131.534
21
-138.43
0
LINE
8
BLACK
6
CONTINUOUS
10
131.534
20
-138.43
11
129.54
21
-136.436
0
LINE
8
BLACK
6
CONTINUOUS
10
129.54
20
-136.436
11
127.546
21
-138.43
0
LINE
8
BLACK
6
CONTINUOUS
10
127.546
20
-138.43
11
129.54
21
-140.424
0
LINE
8
BLACK
6
CONTINUOUS
10
91.44
20
-86.1416
11
93.4339
21
-84.1477
0
LINE
8
BLACK
6
CONTINUOUS
10
93.4339
20
-84.1477
11
91.44
21
-82.1538
0
LINE
8
BLACK
6
CONTINUOUS
10
91.44
20
-82.1538
11
89.4461
21
-84.1477
0
LINE
8
BLACK
6
CONTINUOUS
10
89.4461
20
-84.1477
11
91.44
21
-86.1416
0
LINE
8
BLACK
6
CONTINUOUS
10
60.0151
20
-154.478
11
62.009
21
-152.484
0
LINE
8
BLACK
6
CONTINUOUS
10
62.009
20
-152.484
11
60.0151
21
-150.49
0
LINE
8
BLACK
6
CONTINUOUS
10
60.0151
20
-150.49
11
58.0212
21
-152.484
0
LINE
8
BLACK
6
CONTINUOUS
10
58.0212
20
-152.484
11
60.0151
21
-154.478
0
LINE
8
BLACK
6
CONTINUOUS
10
72.39
20
-67.0941
11
74.3839
21
-65.1002
0
LINE
8
BLACK
6
CONTINUOUS
10
74.3839
20
-65.1002
11
72.39
21
-63.1063
0
LINE
8
BLACK
6
CONTINUOUS
10
72.39
20
-63.1063
11
70.3961
21
-65.1002
0
LINE
8
BLACK
6
CONTINUOUS
10
70.3961
20
-65.1002
11
72.39
21
-67.0941
0
LINE
8
BLACK
6
CONTINUOUS
10
186.69
20
-88.0466
11
188.684
21
-86.0527
0
LINE
8
BLACK
6
CONTINUOUS
10
188.684
20
-86.0527
11
186.69
21
-84.0588
0
LINE
8
BLACK
6
CONTINUOUS
10
186.69
20
-84.0588
11
184.696
21
-86.0527
0
LINE
8
BLACK
6
CONTINUOUS
10
184.696
20
-86.0527
11
186.69
21
-88.0466
0
LINE
8
BLACK
6
CONTINUOUS
10
91.44
20
-124.242
11
93.4339
21
-122.248
0
LINE
8
BLACK
6
CONTINUOUS
10
93.4339
20
-122.248
11
91.44
21
-120.254
0
LINE
8
BLACK
6
CONTINUOUS
10
91.44
20
-120.254
11
89.4461
21
-122.248
0
LINE
8
BLACK
6
CONTINUOUS
10
89.4461
20
-122.248
11
91.44
21
-124.242
0
LINE
8
BLACK
6
CONTINUOUS
10
148.59
20
-103.922
11
150.584
21
-101.928
0
LINE
8
BLACK
6
CONTINUOUS
10
150.584
20
-101.928
11
148.59
21
-99.9338
0
LINE
8
BLACK
6
CONTINUOUS
10
148.59
20
-99.9338
11
146.596
21
-101.928
0
LINE
8
BLACK
6
CONTINUOUS
10
146.596
20
-101.928
11
148.59
21
-103.922
0
LINE
8
BLACK
6
CONTINUOUS
10
91.44
20
-105.192
11
93.4339
21
-103.198
0
LINE
8
BLACK
6
CONTINUOUS
10
93.4339
20
-103.198
11
91.44
21
-101.204
0
LINE
8
BLACK
6
CONTINUOUS
10
91.44
20
-101.204
11
89.4461
21
-103.198
0
LINE
8
BLACK
6
CONTINUOUS
10
89.4461
20
-103.198
11
91.44
21
-105.192
0
LINE
8
BLACK
6
CONTINUOUS
10
34.6989
20
-145.263
11
36.6928
21
-143.269
0
LINE
8
BLACK
6
CONTINUOUS
10
36.6928
20
-143.269
11
34.6989
21
-141.275
0
LINE
8
BLACK
6
CONTINUOUS
10
34.6989
20
-141.275
11
32.705
21
-143.269
0
LINE
8
BLACK
6
CONTINUOUS
10
32.705
20
-143.269
11
34.6989
21
-145.263
0
LINE
8
BLACK
6
CONTINUOUS
10
148.59
20
-84.8716
11
150.584
21
-82.8777
0
LINE
8
BLACK
6
CONTINUOUS
10
150.584
20
-82.8777
11
148.59
21
-80.8838
0
LINE
8
BLACK
6
CONTINUOUS
10
148.59
20
-80.8838
11
146.596
21
-82.8777
0
LINE
8
BLACK
6
CONTINUOUS
10
146.596
20
-82.8777
11
148.59
21
-84.8716
0
LINE
8
BLACK
6
CONTINUOUS
10
186.69
20
-68.9991
11
188.684
21
-67.0052
0
LINE
8
BLACK
6
CONTINUOUS
10
188.684
20
-67.0052
11
186.69
21
-65.0113
0
LINE
8
BLACK
6
CONTINUOUS
10
186.69
20
-65.0113
11
184.696
21
-67.0052
0
LINE
8
BLACK
6
CONTINUOUS
10
184.696
20
-67.0052
11
186.69
21
-68.9991
0
LINE
8
BLACK
6
CONTINUOUS
10
72.3925
20
-105.207
11
74.3864
21
-103.213
0
LINE
8
BLACK
6
CONTINUOUS
10
74.3864
20
-103.213
11
72.3925
21
-101.219
0
LINE
8
BLACK
6
CONTINUOUS
10
72.3925
20
-101.219
11
70.3986
21
-103.213
0
LINE
8
BLACK
6
CONTINUOUS
10
70.3986
20
-103.213
11
72.3925
21
-105.207
0
LINE
8
BLACK
6
CONTINUOUS
10
129.54
20
-102.324
11
131.534
21
-100.33
0
LINE
8
BLACK
6
CONTINUOUS
10
131.534
20
-100.33
11
129.54
21
-98.3361
0
LINE
8
BLACK
6
CONTINUOUS
10
129.54
20
-98.3361
11
127.546
21
-100.33
0
LINE
8
BLACK
6
CONTINUOUS
10
127.546
20
-100.33
11
129.54
21
-102.324
0
LINE
8
BLACK
6
CONTINUOUS
10
129.54
20
-121.374
11
131.534
21
-119.38
0
LINE
8
BLACK
6
CONTINUOUS
10
131.534
20
-119.38
11
129.54
21
-117.386
0
LINE
8
BLACK
6
CONTINUOUS
10
129.54
20
-117.386
11
127.546
21
-119.38
0
LINE
8
BLACK
6
CONTINUOUS
10
127.546
20
-119.38
11
129.54
21
-121.374
0
LINE
8
BLACK
6
CONTINUOUS
10
186.69
20
-145.197
11
188.684
21
-143.203
0
LINE
8
BLACK
6
CONTINUOUS
10
188.684
20
-143.203
11
186.69
21
-141.209
0
LINE
8
BLACK
6
CONTINUOUS
10
186.69
20
-141.209
11
184.696
21
-143.203
0
LINE
8
BLACK
6
CONTINUOUS
10
184.696
20
-143.203
11
186.69
21
-145.197
0
LINE
8
BLACK
6
CONTINUOUS
10
167.64
20
-126.147
11
169.634
21
-124.153
0
LINE
8
BLACK
6
CONTINUOUS
10
169.634
20
-124.153
11
167.64
21
-122.159
0
LINE
8
BLACK
6
CONTINUOUS
10
167.64
20
-122.159
11
165.646
21
-124.153
0
LINE
8
BLACK
6
CONTINUOUS
10
165.646
20
-124.153
11
167.64
21
-126.147
0
LINE
8
BLACK
6
CONTINUOUS
10
83.7392
20
-140.751
11
85.7331
21
-138.757
0
LINE
8
BLACK
6
CONTINUOUS
10
85.7331
20
-138.757
11
83.7392
21
-136.763
0
LINE
8
BLACK
6
CONTINUOUS
10
83.7392
20
-136.763
11
81.7453
21
-138.757
0
LINE
8
BLACK
6
CONTINUOUS
10
81.7453
20
-138.757
11
83.7392
21
-140.751
0
LINE
8
BLACK
6
CONTINUOUS
10
93.8296
20
-162.39
11
95.8235
21
-160.396
0
LINE
8
BLACK
6
CONTINUOUS
10
95.8235
20
-160.396
11
93.8296
21
-158.402
0
LINE
8
BLACK
6
CONTINUOUS
10
93.8296
20
-158.402
11
91.8357
21
-160.396
0
LINE
8
BLACK
6
CONTINUOUS
10
91.8357
20
-160.396
11
93.8296
21
-162.39
0
LINE
8
BLACK
6
CONTINUOUS
10
77.2795
20
-146.426
11
79.2734
21
-144.432
0
LINE
8
BLACK
6
CONTINUOUS
10
79.2734
20
-144.432
11
77.2795
21
-142.438
0
LINE
8
BLACK
6
CONTINUOUS
10
77.2795
20
-142.438
11
75.2856
21
-144.432
0
LINE
8
BLACK
6
CONTINUOUS
10
75.2856
20
-144.432
11
77.2795
21
-146.426
0
LINE
8
BLACK
6
CONTINUOUS
10
167.64
20
-68.9991
11
169.634
21
-67.0052
0
LINE
8
BLACK
6
CONTINUOUS
10
169.634
20
-67.0052
11
167.64
21
-65.0113
0
LINE
8
BLACK
6
CONTINUOUS
10
167.64
20
-65.0113
11
165.646
21
-67.0052
0
LINE
8
BLACK
6
CONTINUOUS
10
165.646
20
-67.0052
11
167.64
21
-68.9991
0
LINE
8
BLACK
6
CONTINUOUS
10
186.69
20
-126.147
11
188.684
21
-124.153
0
LINE
8
BLACK
6
CONTINUOUS
10
188.684
20
-124.153
11
186.69
21
-122.159
0
LINE
8
BLACK
6
CONTINUOUS
10
186.69
20
-122.159
11
184.696
21
-124.153
0
LINE
8
BLACK
6
CONTINUOUS
10
184.696
20
-124.153
11
186.69
21
-126.147
0
LINE
8
BLACK
6
CONTINUOUS
10
110.49
20
-122.972
11
112.484
21
-120.978
0
LINE
8
BLACK
6
CONTINUOUS
10
112.484
20
-120.978
11
110.49
21
-118.984
0
LINE
8
BLACK
6
CONTINUOUS
10
110.49
20
-118.984
11
108.496
21
-120.978
0
LINE
8
BLACK
6
CONTINUOUS
10
108.496
20
-120.978
11
110.49
21
-122.972
0
LINE
8
BLACK
6
CONTINUOUS
10
148.59
20
-122.972
11
150.584
21
-120.978
0
LINE
8
BLACK
6
CONTINUOUS
10
150.584
20
-120.978
11
148.59
21
-118.984
0
LINE
8
BLACK
6
CONTINUOUS
10
148.59
20
-118.984
11
146.596
21
-120.978
0
LINE
8
BLACK
6
CONTINUOUS
10
146.596
20
-120.978
11
148.59
21
-122.972
0
LINE
8
BLACK
6
CONTINUOUS
10
167.64
20
-145.197
11
169.634
21
-143.203
0
LINE
8
BLACK
6
CONTINUOUS
10
169.634
20
-143.203
11
167.64
21
-141.209
0
LINE
8
BLACK
6
CONTINUOUS
10
167.64
20
-141.209
11
165.646
21
-143.203
0
LINE
8
BLACK
6
CONTINUOUS
10
165.646
20
-143.203
11
167.64
21
-145.197
0
LINE
8
BLACK
6
CONTINUOUS
10
68.0644
20
-171.742
11
70.0583
21
-169.748
0
LINE
8
BLACK
6
CONTINUOUS
10
70.0583
20
-169.748
11
68.0644
21
-167.754
0
LINE
8
BLACK
6
CONTINUOUS
10
68.0644
20
-167.754
11
66.0705
21
-169.748
0
LINE
8
BLACK
6
CONTINUOUS
10
66.0705
20
-169.748
11
68.0644
21
-171.742
0
LINE
8
BLACK
6
CONTINUOUS
10
129.54
20
-64.2239
11
131.534
21
-62.23
0
LINE
8
BLACK
6
CONTINUOUS
10
131.534
20
-62.23
11
129.54
21
-60.2361
0
LINE
8
BLACK
6
CONTINUOUS
10
129.54
20
-60.2361
11
127.546
21
-62.23
0
LINE
8
BLACK
6
CONTINUOUS
10
127.546
20
-62.23
11
129.54
21
-64.2239
0
LINE
8
BLACK
6
CONTINUOUS
10
148.59
20
-65.8216
11
150.584
21
-63.8277
0
LINE
8
BLACK
6
CONTINUOUS
10
150.584
20
-63.8277
11
148.59
21
-61.8338
0
LINE
8
BLACK
6
CONTINUOUS
10
148.59
20
-61.8338
11
146.596
21
-63.8277
0
LINE
8
BLACK
6
CONTINUOUS
10
146.596
20
-63.8277
11
148.59
21
-65.8216
0
LINE
8
BLACK
6
CONTINUOUS
10
25.7548
20
-194.205
11
25.7548
21
-191.205
0
LINE
8
BLACK
6
CONTINUOUS
10
25.7548
20
-191.205
11
26.469
21
-191.205
0
LINE
8
BLACK
6
CONTINUOUS
10
26.469
20
-191.205
11
26.8976
21
-191.348
0
LINE
8
BLACK
6
CONTINUOUS
10
26.8976
20
-191.348
11
27.1833
21
-191.633
0
LINE
8
BLACK
6
CONTINUOUS
10
27.1833
20
-191.633
11
27.3262
21
-191.919
0
LINE
8
BLACK
6
CONTINUOUS
10
27.3262
20
-191.919
11
27.469
21
-192.49
0
LINE
8
BLACK
6
CONTINUOUS
10
27.469
20
-192.49
11
27.469
21
-192.919
0
LINE
8
BLACK
6
CONTINUOUS
10
27.469
20
-192.919
11
27.3262
21
-193.49
0
LINE
8
BLACK
6
CONTINUOUS
10
27.3262
20
-193.49
11
27.1833
21
-193.776
0
LINE
8
BLACK
6
CONTINUOUS
10
27.1833
20
-193.776
11
26.8976
21
-194.062
0
LINE
8
BLACK
6
CONTINUOUS
10
26.8976
20
-194.062
11
26.469
21
-194.205
0
LINE
8
BLACK
6
CONTINUOUS
10
26.469
20
-194.205
11
25.7548
21
-194.205
0
LINE
8
BLACK
6
CONTINUOUS
10
28.7548
20
-194.205
11
28.7548
21
-192.205
0
LINE
8
BLACK
6
CONTINUOUS
10
28.7548
20
-192.776
11
28.8976
21
-192.49
0
LINE
8
BLACK
6
CONTINUOUS
10
28.8976
20
-192.49
11
29.0405
21
-192.348
0
LINE
8
BLACK
6
CONTINUOUS
10
29.0405
20
-192.348
11
29.3262
21
-192.205
0
LINE
8
BLACK
6
CONTINUOUS
10
29.3262
20
-192.205
11
29.6119
21
-192.205
0
LINE
8
BLACK
6
CONTINUOUS
10
30.6119
20
-194.205
11
30.6119
21
-192.205
0
LINE
8
BLACK
6
CONTINUOUS
10
30.6119
20
-191.205
11
30.469
21
-191.348
0
LINE
8
BLACK
6
CONTINUOUS
10
30.469
20
-191.348
11
30.6119
21
-191.49
0
LINE
8
BLACK
6
CONTINUOUS
10
30.6119
20
-191.49
11
30.7548
21
-191.348
0
LINE
8
BLACK
6
CONTINUOUS
10
30.7548
20
-191.348
11
30.6119
21
-191.205
0
LINE
8
BLACK
6
CONTINUOUS
10
30.6119
20
-191.205
11
30.6119
21
-191.49
0
LINE
8
BLACK
6
CONTINUOUS
10
32.469
20
-194.205
11
32.1833
21
-194.062
0
LINE
8
BLACK
6
CONTINUOUS
10
32.1833
20
-194.062
11
32.0405
21
-193.776
0
LINE
8
BLACK
6
CONTINUOUS
10
32.0405
20
-193.776
11
32.0405
21
-191.205
0
LINE
8
BLACK
6
CONTINUOUS
10
34.0405
20
-194.205
11
33.7548
21
-194.062
0
LINE
8
BLACK
6
CONTINUOUS
10
33.7548
20
-194.062
11
33.6119
21
-193.776
0
LINE
8
BLACK
6
CONTINUOUS
10
33.6119
20
-193.776
11
33.6119
21
-191.205
0
LINE
8
BLACK
6
CONTINUOUS
10
37.469
20
-194.205
11
37.469
21
-191.205
0
LINE
8
BLACK
6
CONTINUOUS
10
37.469
20
-191.205
11
38.469
21
-193.348
0
LINE
8
BLACK
6
CONTINUOUS
10
38.469
20
-193.348
11
39.469
21
-191.205
0
LINE
8
BLACK
6
CONTINUOUS
10
39.469
20
-191.205
11
39.469
21
-194.205
0
LINE
8
BLACK
6
CONTINUOUS
10
42.1833
20
-194.205
11
42.1833
21
-192.633
0
LINE
8
BLACK
6
CONTINUOUS
10
42.1833
20
-192.633
11
42.0405
21
-192.348
0
LINE
8
BLACK
6
CONTINUOUS
10
42.0405
20
-192.348
11
41.7548
21
-192.205
0
LINE
8
BLACK
6
CONTINUOUS
10
41.7548
20
-192.205
11
41.1833
21
-192.205
0
LINE
8
BLACK
6
CONTINUOUS
10
41.1833
20
-192.205
11
40.8976
21
-192.348
0
LINE
8
BLACK
6
CONTINUOUS
10
42.1833
20
-194.062
11
41.8976
21
-194.205
0
LINE
8
BLACK
6
CONTINUOUS
10
41.8976
20
-194.205
11
41.1833
21
-194.205
0
LINE
8
BLACK
6
CONTINUOUS
10
41.1833
20
-194.205
11
40.8976
21
-194.062
0
LINE
8
BLACK
6
CONTINUOUS
10
40.8976
20
-194.062
11
40.7548
21
-193.776
0
LINE
8
BLACK
6
CONTINUOUS
10
40.7548
20
-193.776
11
40.7548
21
-193.49
0
LINE
8
BLACK
6
CONTINUOUS
10
40.7548
20
-193.49
11
40.8976
21
-193.205
0
LINE
8
BLACK
6
CONTINUOUS
10
40.8976
20
-193.205
11
41.1833
21
-193.062
0
LINE
8
BLACK
6
CONTINUOUS
10
41.1833
20
-193.062
11
41.8976
21
-193.062
0
LINE
8
BLACK
6
CONTINUOUS
10
41.8976
20
-193.062
11
42.1833
21
-192.919
0
LINE
8
BLACK
6
CONTINUOUS
10
43.6119
20
-192.205
11
43.6119
21
-195.205
0
LINE
8
BLACK
6
CONTINUOUS
10
43.6119
20
-192.348
11
43.8976
21
-192.205
0
LINE
8
BLACK
6
CONTINUOUS
10
43.8976
20
-192.205
11
44.469
21
-192.205
0
LINE
8
BLACK
6
CONTINUOUS
10
44.469
20
-192.205
11
44.7548
21
-192.348
0
LINE
8
BLACK
6
CONTINUOUS
10
44.7548
20
-192.348
11
44.8976
21
-192.49
0
LINE
8
BLACK
6
CONTINUOUS
10
44.8976
20
-192.49
11
45.0405
21
-192.776
0
LINE
8
BLACK
6
CONTINUOUS
10
45.0405
20
-192.776
11
45.0405
21
-193.633
0
LINE
8
BLACK
6
CONTINUOUS
10
45.0405
20
-193.633
11
44.8976
21
-193.919
0
LINE
8
BLACK
6
CONTINUOUS
10
44.8976
20
-193.919
11
44.7548
21
-194.062
0
LINE
8
BLACK
6
CONTINUOUS
10
44.7548
20
-194.062
11
44.469
21
-194.205
0
LINE
8
BLACK
6
CONTINUOUS
10
44.469
20
-194.205
11
43.8976
21
-194.205
0
LINE
8
BLACK
6
CONTINUOUS
10
43.8976
20
-194.205
11
43.6119
21
-194.062
0
LINE
8
BLACK
6
CONTINUOUS
10
46.3262
20
-193.919
11
46.469
21
-194.062
0
LINE
8
BLACK
6
CONTINUOUS
10
46.469
20
-194.062
11
46.3262
21
-194.205
0
LINE
8
BLACK
6
CONTINUOUS
10
46.3262
20
-194.205
11
46.1833
21
-194.062
0
LINE
8
BLACK
6
CONTINUOUS
10
46.1833
20
-194.062
11
46.3262
21
-193.919
0
LINE
8
BLACK
6
CONTINUOUS
10
46.3262
20
-193.919
11
46.3262
21
-194.205
0
LINE
8
BLACK
6
CONTINUOUS
10
46.3262
20
-192.348
11
46.469
21
-192.49
0
LINE
8
BLACK
6
CONTINUOUS
10
46.469
20
-192.49
11
46.3262
21
-192.633
0
LINE
8
BLACK
6
CONTINUOUS
10
46.3262
20
-192.633
11
46.1833
21
-192.49
0
LINE
8
BLACK
6
CONTINUOUS
10
46.1833
20
-192.49
11
46.3262
21
-192.348
0
LINE
8
BLACK
6
CONTINUOUS
10
46.3262
20
-192.348
11
46.3262
21
-192.633
0
LINE
8
BLACK
6
CONTINUOUS
10
21.8999
20
-198.652
11
22.8905
21
-199.643
0
LINE
8
BLACK
6
CONTINUOUS
10
22.8905
20
-198.652
11
21.8999
21
-199.643
0
LINE
8
BLACK
6
CONTINUOUS
10
26.3262
20
-197.505
11
26.6119
21
-197.505
0
LINE
8
BLACK
6
CONTINUOUS
10
26.6119
20
-197.505
11
26.8976
21
-197.648
0
LINE
8
BLACK
6
CONTINUOUS
10
26.8976
20
-197.648
11
27.0405
21
-197.79
0
LINE
8
BLACK
6
CONTINUOUS
10
27.0405
20
-197.79
11
27.1833
21
-198.076
0
LINE
8
BLACK
6
CONTINUOUS
10
27.1833
20
-198.076
11
27.3262
21
-198.648
0
LINE
8
BLACK
6
CONTINUOUS
10
27.3262
20
-198.648
11
27.3262
21
-199.362
0
LINE
8
BLACK
6
CONTINUOUS
10
27.3262
20
-199.362
11
27.1833
21
-199.933
0
LINE
8
BLACK
6
CONTINUOUS
10
27.1833
20
-199.933
11
27.0405
21
-200.219
0
LINE
8
BLACK
6
CONTINUOUS
10
27.0405
20
-200.219
11
26.8976
21
-200.362
0
LINE
8
BLACK
6
CONTINUOUS
10
26.8976
20
-200.362
11
26.6119
21
-200.505
0
LINE
8
BLACK
6
CONTINUOUS
10
26.6119
20
-200.505
11
26.3262
21
-200.505
0
LINE
8
BLACK
6
CONTINUOUS
10
26.3262
20
-200.505
11
26.0405
21
-200.362
0
LINE
8
BLACK
6
CONTINUOUS
10
26.0405
20
-200.362
11
25.8976
21
-200.219
0
LINE
8
BLACK
6
CONTINUOUS
10
25.8976
20
-200.219
11
25.7548
21
-199.933
0
LINE
8
BLACK
6
CONTINUOUS
10
25.7548
20
-199.933
11
25.6119
21
-199.362
0
LINE
8
BLACK
6
CONTINUOUS
10
25.6119
20
-199.362
11
25.6119
21
-198.648
0
LINE
8
BLACK
6
CONTINUOUS
10
25.6119
20
-198.648
11
25.7548
21
-198.076
0
LINE
8
BLACK
6
CONTINUOUS
10
25.7548
20
-198.076
11
25.8976
21
-197.79
0
LINE
8
BLACK
6
CONTINUOUS
10
25.8976
20
-197.79
11
26.0405
21
-197.648
0
LINE
8
BLACK
6
CONTINUOUS
10
26.0405
20
-197.648
11
26.3262
21
-197.505
0
LINE
8
BLACK
6
CONTINUOUS
10
28.6119
20
-200.219
11
28.7548
21
-200.362
0
LINE
8
BLACK
6
CONTINUOUS
10
28.7548
20
-200.362
11
28.6119
21
-200.505
0
LINE
8
BLACK
6
CONTINUOUS
10
28.6119
20
-200.505
11
28.469
21
-200.362
0
LINE
8
BLACK
6
CONTINUOUS
10
28.469
20
-200.362
11
28.6119
21
-200.219
0
LINE
8
BLACK
6
CONTINUOUS
10
28.6119
20
-200.219
11
28.6119
21
-200.505
0
LINE
8
BLACK
6
CONTINUOUS
10
30.1833
20
-200.505
11
30.7548
21
-200.505
0
LINE
8
BLACK
6
CONTINUOUS
10
30.7548
20
-200.505
11
31.0405
21
-200.362
0
LINE
8
BLACK
6
CONTINUOUS
10
31.0405
20
-200.362
11
31.1833
21
-200.219
0
LINE
8
BLACK
6
CONTINUOUS
10
31.1833
20
-200.219
11
31.469
21
-199.79
0
LINE
8
BLACK
6
CONTINUOUS
10
31.469
20
-199.79
11
31.6119
21
-199.219
0
LINE
8
BLACK
6
CONTINUOUS
10
31.6119
20
-199.219
11
31.6119
21
-198.076
0
LINE
8
BLACK
6
CONTINUOUS
10
31.6119
20
-198.076
11
31.469
21
-197.79
0
LINE
8
BLACK
6
CONTINUOUS
10
31.469
20
-197.79
11
31.3262
21
-197.648
0
LINE
8
BLACK
6
CONTINUOUS
10
31.3262
20
-197.648
11
31.0405
21
-197.505
0
LINE
8
BLACK
6
CONTINUOUS
10
31.0405
20
-197.505
11
30.469
21
-197.505
0
LINE
8
BLACK
6
CONTINUOUS
10
30.469
20
-197.505
11
30.1833
21
-197.648
0
LINE
8
BLACK
6
CONTINUOUS
10
30.1833
20
-197.648
11
30.0405
21
-197.79
0
LINE
8
BLACK
6
CONTINUOUS
10
30.0405
20
-197.79
11
29.8976
21
-198.076
0
LINE
8
BLACK
6
CONTINUOUS
10
29.8976
20
-198.076
11
29.8976
21
-198.79
0
LINE
8
BLACK
6
CONTINUOUS
10
29.8976
20
-198.79
11
30.0405
21
-199.076
0
LINE
8
BLACK
6
CONTINUOUS
10
30.0405
20
-199.076
11
30.1833
21
-199.219
0
LINE
8
BLACK
6
CONTINUOUS
10
30.1833
20
-199.219
11
30.469
21
-199.362
0
LINE
8
BLACK
6
CONTINUOUS
10
30.469
20
-199.362
11
31.0405
21
-199.362
0
LINE
8
BLACK
6
CONTINUOUS
10
31.0405
20
-199.362
11
31.3262
21
-199.219
0
LINE
8
BLACK
6
CONTINUOUS
10
31.3262
20
-199.219
11
31.469
21
-199.076
0
LINE
8
BLACK
6
CONTINUOUS
10
31.469
20
-199.076
11
31.6119
21
-198.79
0
LINE
8
BLACK
6
CONTINUOUS
10
33.0405
20
-200.505
11
33.6119
21
-200.505
0
LINE
8
BLACK
6
CONTINUOUS
10
33.6119
20
-200.505
11
33.8976
21
-200.362
0
LINE
8
BLACK
6
CONTINUOUS
10
33.8976
20
-200.362
11
34.0405
21
-200.219
0
LINE
8
BLACK
6
CONTINUOUS
10
34.0405
20
-200.219
11
34.3262
21
-199.79
0
LINE
8
BLACK
6
CONTINUOUS
10
34.3262
20
-199.79
11
34.469
21
-199.219
0
LINE
8
BLACK
6
CONTINUOUS
10
34.469
20
-199.219
11
34.469
21
-198.076
0
LINE
8
BLACK
6
CONTINUOUS
10
34.469
20
-198.076
11
34.3262
21
-197.79
0
LINE
8
BLACK
6
CONTINUOUS
10
34.3262
20
-197.79
11
34.1833
21
-197.648
0
LINE
8
BLACK
6
CONTINUOUS
10
34.1833
20
-197.648
11
33.8976
21
-197.505
0
LINE
8
BLACK
6
CONTINUOUS
10
33.8976
20
-197.505
11
33.3262
21
-197.505
0
LINE
8
BLACK
6
CONTINUOUS
10
33.3262
20
-197.505
11
33.0405
21
-197.648
0
LINE
8
BLACK
6
CONTINUOUS
10
33.0405
20
-197.648
11
32.8976
21
-197.79
0
LINE
8
BLACK
6
CONTINUOUS
10
32.8976
20
-197.79
11
32.7548
21
-198.076
0
LINE
8
BLACK
6
CONTINUOUS
10
32.7548
20
-198.076
11
32.7548
21
-198.79
0
LINE
8
BLACK
6
CONTINUOUS
10
32.7548
20
-198.79
11
32.8976
21
-199.076
0
LINE
8
BLACK
6
CONTINUOUS
10
32.8976
20
-199.076
11
33.0405
21
-199.219
0
LINE
8
BLACK
6
CONTINUOUS
10
33.0405
20
-199.219
11
33.3262
21
-199.362
0
LINE
8
BLACK
6
CONTINUOUS
10
33.3262
20
-199.362
11
33.8976
21
-199.362
0
LINE
8
BLACK
6
CONTINUOUS
10
33.8976
20
-199.362
11
34.1833
21
-199.219
0
LINE
8
BLACK
6
CONTINUOUS
10
34.1833
20
-199.219
11
34.3262
21
-199.076
0
LINE
8
BLACK
6
CONTINUOUS
10
34.3262
20
-199.076
11
34.469
21
-198.79
0
LINE
8
BLACK
6
CONTINUOUS
10
35.7548
20
-200.505
11
35.7548
21
-198.505
0
LINE
8
BLACK
6
CONTINUOUS
10
35.7548
20
-198.79
11
35.8976
21
-198.648
0
LINE
8
BLACK
6
CONTINUOUS
10
35.8976
20
-198.648
11
36.1833
21
-198.505
0
LINE
8
BLACK
6
CONTINUOUS
10
36.1833
20
-198.505
11
36.6119
21
-198.505
0
LINE
8
BLACK
6
CONTINUOUS
10
36.6119
20
-198.505
11
36.8976
21
-198.648
0
LINE
8
BLACK
6
CONTINUOUS
10
36.8976
20
-198.648
11
37.0405
21
-198.933
0
LINE
8
BLACK
6
CONTINUOUS
10
37.0405
20
-198.933
11
37.0405
21
-200.505
0
LINE
8
BLACK
6
CONTINUOUS
10
37.0405
20
-198.933
11
37.1833
21
-198.648
0
LINE
8
BLACK
6
CONTINUOUS
10
37.1833
20
-198.648
11
37.469
21
-198.505
0
LINE
8
BLACK
6
CONTINUOUS
10
37.469
20
-198.505
11
37.8976
21
-198.505
0
LINE
8
BLACK
6
CONTINUOUS
10
37.8976
20
-198.505
11
38.1833
21
-198.648
0
LINE
8
BLACK
6
CONTINUOUS
10
38.1833
20
-198.648
11
38.3262
21
-198.933
0
LINE
8
BLACK
6
CONTINUOUS
10
38.3262
20
-198.933
11
38.3262
21
-200.505
0
LINE
8
BLACK
6
CONTINUOUS
10
39.7548
20
-200.505
11
39.7548
21
-198.505
0
LINE
8
BLACK
6
CONTINUOUS
10
39.7548
20
-198.79
11
39.8976
21
-198.648
0
LINE
8
BLACK
6
CONTINUOUS
10
39.8976
20
-198.648
11
40.1833
21
-198.505
0
LINE
8
BLACK
6
CONTINUOUS
10
40.1833
20
-198.505
11
40.6119
21
-198.505
0
LINE
8
BLACK
6
CONTINUOUS
10
40.6119
20
-198.505
11
40.8976
21
-198.648
0
LINE
8
BLACK
6
CONTINUOUS
10
40.8976
20
-198.648
11
41.0405
21
-198.933
0
LINE
8
BLACK
6
CONTINUOUS
10
41.0405
20
-198.933
11
41.0405
21
-200.505
0
LINE
8
BLACK
6
CONTINUOUS
10
41.0405
20
-198.933
11
41.1833
21
-198.648
0
LINE
8
BLACK
6
CONTINUOUS
10
41.1833
20
-198.648
11
41.469
21
-198.505
0
LINE
8
BLACK
6
CONTINUOUS
10
41.469
20
-198.505
11
41.8976
21
-198.505
0
LINE
8
BLACK
6
CONTINUOUS
10
41.8976
20
-198.505
11
42.1833
21
-198.648
0
LINE
8
BLACK
6
CONTINUOUS
10
42.1833
20
-198.648
11
42.3262
21
-198.933
0
LINE
8
BLACK
6
CONTINUOUS
10
42.3262
20
-198.933
11
42.3262
21
-200.505
0
LINE
8
BLACK
6
CONTINUOUS
10
48.1833
20
-197.362
11
45.6119
21
-201.219
0
LINE
8
BLACK
6
CONTINUOUS
10
52.0405
20
-197.505
11
52.3262
21
-197.505
0
LINE
8
BLACK
6
CONTINUOUS
10
52.3262
20
-197.505
11
52.6119
21
-197.648
0
LINE
8
BLACK
6
CONTINUOUS
10
52.6119
20
-197.648
11
52.7548
21
-197.79
0
LINE
8
BLACK
6
CONTINUOUS
10
52.7548
20
-197.79
11
52.8976
21
-198.076
0
LINE
8
BLACK
6
CONTINUOUS
10
52.8976
20
-198.076
11
53.0405
21
-198.648
0
LINE
8
BLACK
6
CONTINUOUS
10
53.0405
20
-198.648
11
53.0405
21
-199.362
0
LINE
8
BLACK
6
CONTINUOUS
10
53.0405
20
-199.362
11
52.8976
21
-199.933
0
LINE
8
BLACK
6
CONTINUOUS
10
52.8976
20
-199.933
11
52.7548
21
-200.219
0
LINE
8
BLACK
6
CONTINUOUS
10
52.7548
20
-200.219
11
52.6119
21
-200.362
0
LINE
8
BLACK
6
CONTINUOUS
10
52.6119
20
-200.362
11
52.3262
21
-200.505
0
LINE
8
BLACK
6
CONTINUOUS
10
52.3262
20
-200.505
11
52.0405
21
-200.505
0
LINE
8
BLACK
6
CONTINUOUS
10
52.0405
20
-200.505
11
51.7548
21
-200.362
0
LINE
8
BLACK
6
CONTINUOUS
10
51.7548
20
-200.362
11
51.6119
21
-200.219
0
LINE
8
BLACK
6
CONTINUOUS
10
51.6119
20
-200.219
11
51.469
21
-199.933
0
LINE
8
BLACK
6
CONTINUOUS
10
51.469
20
-199.933
11
51.3262
21
-199.362
0
LINE
8
BLACK
6
CONTINUOUS
10
51.3262
20
-199.362
11
51.3262
21
-198.648
0
LINE
8
BLACK
6
CONTINUOUS
10
51.3262
20
-198.648
11
51.469
21
-198.076
0
LINE
8
BLACK
6
CONTINUOUS
10
51.469
20
-198.076
11
51.6119
21
-197.79
0
LINE
8
BLACK
6
CONTINUOUS
10
51.6119
20
-197.79
11
51.7548
21
-197.648
0
LINE
8
BLACK
6
CONTINUOUS
10
51.7548
20
-197.648
11
52.0405
21
-197.505
0
LINE
8
BLACK
6
CONTINUOUS
10
54.3262
20
-200.219
11
54.469
21
-200.362
0
LINE
8
BLACK
6
CONTINUOUS
10
54.469
20
-200.362
11
54.3262
21
-200.505
0
LINE
8
BLACK
6
CONTINUOUS
10
54.3262
20
-200.505
11
54.1833
21
-200.362
0
LINE
8
BLACK
6
CONTINUOUS
10
54.1833
20
-200.362
11
54.3262
21
-200.219
0
LINE
8
BLACK
6
CONTINUOUS
10
54.3262
20
-200.219
11
54.3262
21
-200.505
0
LINE
8
BLACK
6
CONTINUOUS
10
56.3262
20
-197.505
11
56.6119
21
-197.505
0
LINE
8
BLACK
6
CONTINUOUS
10
56.6119
20
-197.505
11
56.8976
21
-197.648
0
LINE
8
BLACK
6
CONTINUOUS
10
56.8976
20
-197.648
11
57.0405
21
-197.79
0
LINE
8
BLACK
6
CONTINUOUS
10
57.0405
20
-197.79
11
57.1833
21
-198.076
0
LINE
8
BLACK
6
CONTINUOUS
10
57.1833
20
-198.076
11
57.3262
21
-198.648
0
LINE
8
BLACK
6
CONTINUOUS
10
57.3262
20
-198.648
11
57.3262
21
-199.362
0
LINE
8
BLACK
6
CONTINUOUS
10
57.3262
20
-199.362
11
57.1833
21
-199.933
0
LINE
8
BLACK
6
CONTINUOUS
10
57.1833
20
-199.933
11
57.0405
21
-200.219
0
LINE
8
BLACK
6
CONTINUOUS
10
57.0405
20
-200.219
11
56.8976
21
-200.362
0
LINE
8
BLACK
6
CONTINUOUS
10
56.8976
20
-200.362
11
56.6119
21
-200.505
0
LINE
8
BLACK
6
CONTINUOUS
10
56.6119
20
-200.505
11
56.3262
21
-200.505
0
LINE
8
BLACK
6
CONTINUOUS
10
56.3262
20
-200.505
11
56.0405
21
-200.362
0
LINE
8
BLACK
6
CONTINUOUS
10
56.0405
20
-200.362
11
55.8976
21
-200.219
0
LINE
8
BLACK
6
CONTINUOUS
10
55.8976
20
-200.219
11
55.7548
21
-199.933
0
LINE
8
BLACK
6
CONTINUOUS
10
55.7548
20
-199.933
11
55.6119
21
-199.362
0
LINE
8
BLACK
6
CONTINUOUS
10
55.6119
20
-199.362
11
55.6119
21
-198.648
0
LINE
8
BLACK
6
CONTINUOUS
10
55.6119
20
-198.648
11
55.7548
21
-198.076
0
LINE
8
BLACK
6
CONTINUOUS
10
55.7548
20
-198.076
11
55.8976
21
-197.79
0
LINE
8
BLACK
6
CONTINUOUS
10
55.8976
20
-197.79
11
56.0405
21
-197.648
0
LINE
8
BLACK
6
CONTINUOUS
10
56.0405
20
-197.648
11
56.3262
21
-197.505
0
LINE
8
BLACK
6
CONTINUOUS
10
58.3262
20
-197.505
11
60.1833
21
-197.505
0
LINE
8
BLACK
6
CONTINUOUS
10
60.1833
20
-197.505
11
59.1833
21
-198.648
0
LINE
8
BLACK
6
CONTINUOUS
10
59.1833
20
-198.648
11
59.6119
21
-198.648
0
LINE
8
BLACK
6
CONTINUOUS
10
59.6119
20
-198.648
11
59.8976
21
-198.79
0
LINE
8
BLACK
6
CONTINUOUS
10
59.8976
20
-198.79
11
60.0405
21
-198.933
0
LINE
8
BLACK
6
CONTINUOUS
10
60.0405
20
-198.933
11
60.1833
21
-199.219
0
LINE
8
BLACK
6
CONTINUOUS
10
60.1833
20
-199.219
11
60.1833
21
-199.933
0
LINE
8
BLACK
6
CONTINUOUS
10
60.1833
20
-199.933
11
60.0405
21
-200.219
0
LINE
8
BLACK
6
CONTINUOUS
10
60.0405
20
-200.219
11
59.8976
21
-200.362
0
LINE
8
BLACK
6
CONTINUOUS
10
59.8976
20
-200.362
11
59.6119
21
-200.505
0
LINE
8
BLACK
6
CONTINUOUS
10
59.6119
20
-200.505
11
58.7548
21
-200.505
0
LINE
8
BLACK
6
CONTINUOUS
10
58.7548
20
-200.505
11
58.469
21
-200.362
0
LINE
8
BLACK
6
CONTINUOUS
10
58.469
20
-200.362
11
58.3262
21
-200.219
0
LINE
8
BLACK
6
CONTINUOUS
10
61.6119
20
-200.505
11
62.1833
21
-200.505
0
LINE
8
BLACK
6
CONTINUOUS
10
62.1833
20
-200.505
11
62.469
21
-200.362
0
LINE
8
BLACK
6
CONTINUOUS
10
62.469
20
-200.362
11
62.6119
21
-200.219
0
LINE
8
BLACK
6
CONTINUOUS
10
62.6119
20
-200.219
11
62.8976
21
-199.79
0
LINE
8
BLACK
6
CONTINUOUS
10
62.8976
20
-199.79
11
63.0405
21
-199.219
0
LINE
8
BLACK
6
CONTINUOUS
10
63.0405
20
-199.219
11
63.0405
21
-198.076
0
LINE
8
BLACK
6
CONTINUOUS
10
63.0405
20
-198.076
11
62.8976
21
-197.79
0
LINE
8
BLACK
6
CONTINUOUS
10
62.8976
20
-197.79
11
62.7548
21
-197.648
0
LINE
8
BLACK
6
CONTINUOUS
10
62.7548
20
-197.648
11
62.469
21
-197.505
0
LINE
8
BLACK
6
CONTINUOUS
10
62.469
20
-197.505
11
61.8976
21
-197.505
0
LINE
8
BLACK
6
CONTINUOUS
10
61.8976
20
-197.505
11
61.6119
21
-197.648
0
LINE
8
BLACK
6
CONTINUOUS
10
61.6119
20
-197.648
11
61.469
21
-197.79
0
LINE
8
BLACK
6
CONTINUOUS
10
61.469
20
-197.79
11
61.3262
21
-198.076
0
LINE
8
BLACK
6
CONTINUOUS
10
61.3262
20
-198.076
11
61.3262
21
-198.79
0
LINE
8
BLACK
6
CONTINUOUS
10
61.3262
20
-198.79
11
61.469
21
-199.076
0
LINE
8
BLACK
6
CONTINUOUS
10
61.469
20
-199.076
11
61.6119
21
-199.219
0
LINE
8
BLACK
6
CONTINUOUS
10
61.6119
20
-199.219
11
61.8976
21
-199.362
0
LINE
8
BLACK
6
CONTINUOUS
10
61.8976
20
-199.362
11
62.469
21
-199.362
0
LINE
8
BLACK
6
CONTINUOUS
10
62.469
20
-199.362
11
62.7548
21
-199.219
0
LINE
8
BLACK
6
CONTINUOUS
10
62.7548
20
-199.219
11
62.8976
21
-199.076
0
LINE
8
BLACK
6
CONTINUOUS
10
62.8976
20
-199.076
11
63.0405
21
-198.79
0
LINE
8
BLACK
6
CONTINUOUS
10
64.1833
20
-197.505
11
64.1833
21
-198.076
0
LINE
8
BLACK
6
CONTINUOUS
10
65.3262
20
-197.505
11
65.3262
21
-198.076
0
LINE
8
BLACK
6
CONTINUOUS
10
69.7548
20
-201.648
11
69.6119
21
-201.505
0
LINE
8
BLACK
6
CONTINUOUS
10
69.6119
20
-201.505
11
69.3262
21
-201.076
0
LINE
8
BLACK
6
CONTINUOUS
10
69.3262
20
-201.076
11
69.1833
21
-200.79
0
LINE
8
BLACK
6
CONTINUOUS
10
69.1833
20
-200.79
11
69.0405
21
-200.362
0
LINE
8
BLACK
6
CONTINUOUS
10
69.0405
20
-200.362
11
68.8976
21
-199.648
0
LINE
8
BLACK
6
CONTINUOUS
10
68.8976
20
-199.648
11
68.8976
21
-199.076
0
LINE
8
BLACK
6
CONTINUOUS
10
68.8976
20
-199.076
11
69.0405
21
-198.362
0
LINE
8
BLACK
6
CONTINUOUS
10
69.0405
20
-198.362
11
69.1833
21
-197.933
0
LINE
8
BLACK
6
CONTINUOUS
10
69.1833
20
-197.933
11
69.3262
21
-197.648
0
LINE
8
BLACK
6
CONTINUOUS
10
69.3262
20
-197.648
11
69.6119
21
-197.219
0
LINE
8
BLACK
6
CONTINUOUS
10
69.6119
20
-197.219
11
69.7548
21
-197.076
0
LINE
8
BLACK
6
CONTINUOUS
10
70.7548
20
-197.79
11
70.8976
21
-197.648
0
LINE
8
BLACK
6
CONTINUOUS
10
70.8976
20
-197.648
11
71.1833
21
-197.505
0
LINE
8
BLACK
6
CONTINUOUS
10
71.1833
20
-197.505
11
71.8976
21
-197.505
0
LINE
8
BLACK
6
CONTINUOUS
10
71.8976
20
-197.505
11
72.1833
21
-197.648
0
LINE
8
BLACK
6
CONTINUOUS
10
72.1833
20
-197.648
11
72.3262
21
-197.79
0
LINE
8
BLACK
6
CONTINUOUS
10
72.3262
20
-197.79
11
72.469
21
-198.076
0
LINE
8
BLACK
6
CONTINUOUS
10
72.469
20
-198.076
11
72.469
21
-198.362
0
LINE
8
BLACK
6
CONTINUOUS
10
72.469
20
-198.362
11
72.3262
21
-198.79
0
LINE
8
BLACK
6
CONTINUOUS
10
72.3262
20
-198.79
11
70.6119
21
-200.505
0
LINE
8
BLACK
6
CONTINUOUS
10
70.6119
20
-200.505
11
72.469
21
-200.505
0
LINE
8
BLACK
6
CONTINUOUS
10
76.0405
20
-200.505
11
76.0405
21
-197.505
0
LINE
8
BLACK
6
CONTINUOUS
10
77.3262
20
-200.505
11
77.3262
21
-198.933
0
LINE
8
BLACK
6
CONTINUOUS
10
77.3262
20
-198.933
11
77.1833
21
-198.648
0
LINE
8
BLACK
6
CONTINUOUS
10
77.1833
20
-198.648
11
76.8976
21
-198.505
0
LINE
8
BLACK
6
CONTINUOUS
10
76.8976
20
-198.505
11
76.469
21
-198.505
0
LINE
8
BLACK
6
CONTINUOUS
10
76.469
20
-198.505
11
76.1833
21
-198.648
0
LINE
8
BLACK
6
CONTINUOUS
10
76.1833
20
-198.648
11
76.0405
21
-198.79
0
LINE
8
BLACK
6
CONTINUOUS
10
79.1833
20
-200.505
11
78.8976
21
-200.362
0
LINE
8
BLACK
6
CONTINUOUS
10
78.8976
20
-200.362
11
78.7548
21
-200.219
0
LINE
8
BLACK
6
CONTINUOUS
10
78.7548
20
-200.219
11
78.6119
21
-199.933
0
LINE
8
BLACK
6
CONTINUOUS
10
78.6119
20
-199.933
11
78.6119
21
-199.076
0
LINE
8
BLACK
6
CONTINUOUS
10
78.6119
20
-199.076
11
78.7548
21
-198.79
0
LINE
8
BLACK
6
CONTINUOUS
10
78.7548
20
-198.79
11
78.8976
21
-198.648
0
LINE
8
BLACK
6
CONTINUOUS
10
78.8976
20
-198.648
11
79.1833
21
-198.505
0
LINE
8
BLACK
6
CONTINUOUS
10
79.1833
20
-198.505
11
79.6119
21
-198.505
0
LINE
8
BLACK
6
CONTINUOUS
10
79.6119
20
-198.505
11
79.8976
21
-198.648
0
LINE
8
BLACK
6
CONTINUOUS
10
79.8976
20
-198.648
11
80.0405
21
-198.79
0
LINE
8
BLACK
6
CONTINUOUS
10
80.0405
20
-198.79
11
80.1833
21
-199.076
0
LINE
8
BLACK
6
CONTINUOUS
10
80.1833
20
-199.076
11
80.1833
21
-199.933
0
LINE
8
BLACK
6
CONTINUOUS
10
80.1833
20
-199.933
11
80.0405
21
-200.219
0
LINE
8
BLACK
6
CONTINUOUS
10
80.0405
20
-200.219
11
79.8976
21
-200.362
0
LINE
8
BLACK
6
CONTINUOUS
10
79.8976
20
-200.362
11
79.6119
21
-200.505
0
LINE
8
BLACK
6
CONTINUOUS
10
79.6119
20
-200.505
11
79.1833
21
-200.505
0
LINE
8
BLACK
6
CONTINUOUS
10
81.8976
20
-200.505
11
81.6119
21
-200.362
0
LINE
8
BLACK
6
CONTINUOUS
10
81.6119
20
-200.362
11
81.469
21
-200.076
0
LINE
8
BLACK
6
CONTINUOUS
10
81.469
20
-200.076
11
81.469
21
-197.505
0
LINE
8
BLACK
6
CONTINUOUS
10
84.1833
20
-200.362
11
83.8976
21
-200.505
0
LINE
8
BLACK
6
CONTINUOUS
10
83.8976
20
-200.505
11
83.3262
21
-200.505
0
LINE
8
BLACK
6
CONTINUOUS
10
83.3262
20
-200.505
11
83.0405
21
-200.362
0
LINE
8
BLACK
6
CONTINUOUS
10
83.0405
20
-200.362
11
82.8976
21
-200.076
0
LINE
8
BLACK
6
CONTINUOUS
10
82.8976
20
-200.076
11
82.8976
21
-198.933
0
LINE
8
BLACK
6
CONTINUOUS
10
82.8976
20
-198.933
11
83.0405
21
-198.648
0
LINE
8
BLACK
6
CONTINUOUS
10
83.0405
20
-198.648
11
83.3262
21
-198.505
0
LINE
8
BLACK
6
CONTINUOUS
10
83.3262
20
-198.505
11
83.8976
21
-198.505
0
LINE
8
BLACK
6
CONTINUOUS
10
83.8976
20
-198.505
11
84.1833
21
-198.648
0
LINE
8
BLACK
6
CONTINUOUS
10
84.1833
20
-198.648
11
84.3262
21
-198.933
0
LINE
8
BLACK
6
CONTINUOUS
10
84.3262
20
-198.933
11
84.3262
21
-199.219
0
LINE
8
BLACK
6
CONTINUOUS
10
84.3262
20
-199.219
11
82.8976
21
-199.505
0
LINE
8
BLACK
6
CONTINUOUS
10
85.469
20
-200.362
11
85.7548
21
-200.505
0
LINE
8
BLACK
6
CONTINUOUS
10
85.7548
20
-200.505
11
86.3262
21
-200.505
0
LINE
8
BLACK
6
CONTINUOUS
10
86.3262
20
-200.505
11
86.6119
21
-200.362
0
LINE
8
BLACK
6
CONTINUOUS
10
86.6119
20
-200.362
11
86.7548
21
-200.076
0
LINE
8
BLACK
6
CONTINUOUS
10
86.7548
20
-200.076
11
86.7548
21
-199.933
0
LINE
8
BLACK
6
CONTINUOUS
10
86.7548
20
-199.933
11
86.6119
21
-199.648
0
LINE
8
BLACK
6
CONTINUOUS
10
86.6119
20
-199.648
11
86.3262
21
-199.505
0
LINE
8
BLACK
6
CONTINUOUS
10
86.3262
20
-199.505
11
85.8976
21
-199.505
0
LINE
8
BLACK
6
CONTINUOUS
10
85.8976
20
-199.505
11
85.6119
21
-199.362
0
LINE
8
BLACK
6
CONTINUOUS
10
85.6119
20
-199.362
11
85.469
21
-199.076
0
LINE
8
BLACK
6
CONTINUOUS
10
85.469
20
-199.076
11
85.469
21
-198.933
0
LINE
8
BLACK
6
CONTINUOUS
10
85.469
20
-198.933
11
85.6119
21
-198.648
0
LINE
8
BLACK
6
CONTINUOUS
10
85.6119
20
-198.648
11
85.8976
21
-198.505
0
LINE
8
BLACK
6
CONTINUOUS
10
85.8976
20
-198.505
11
86.3262
21
-198.505
0
LINE
8
BLACK
6
CONTINUOUS
10
86.3262
20
-198.505
11
86.6119
21
-198.648
0
LINE
8
BLACK
6
CONTINUOUS
10
87.7548
20
-201.648
11
87.8976
21
-201.505
0
LINE
8
BLACK
6
CONTINUOUS
10
87.8976
20
-201.505
11
88.1833
21
-201.076
0
LINE
8
BLACK
6
CONTINUOUS
10
88.1833
20
-201.076
11
88.3262
21
-200.79
0
LINE
8
BLACK
6
CONTINUOUS
10
88.3262
20
-200.79
11
88.469
21
-200.362
0
LINE
8
BLACK
6
CONTINUOUS
10
88.469
20
-200.362
11
88.6119
21
-199.648
0
LINE
8
BLACK
6
CONTINUOUS
10
88.6119
20
-199.648
11
88.6119
21
-199.076
0
LINE
8
BLACK
6
CONTINUOUS
10
88.6119
20
-199.076
11
88.469
21
-198.362
0
LINE
8
BLACK
6
CONTINUOUS
10
88.469
20
-198.362
11
88.3262
21
-197.933
0
LINE
8
BLACK
6
CONTINUOUS
10
88.3262
20
-197.933
11
88.1833
21
-197.648
0
LINE
8
BLACK
6
CONTINUOUS
10
88.1833
20
-197.648
11
87.8976
21
-197.219
0
LINE
8
BLACK
6
CONTINUOUS
10
87.8976
20
-197.219
11
87.7548
21
-197.076
0
LINE
8
BLACK
6
CONTINUOUS
10
93.1833
20
-201.648
11
93.0405
21
-201.505
0
LINE
8
BLACK
6
CONTINUOUS
10
93.0405
20
-201.505
11
92.7548
21
-201.076
0
LINE
8
BLACK
6
CONTINUOUS
10
92.7548
20
-201.076
11
92.6119
21
-200.79
0
LINE
8
BLACK
6
CONTINUOUS
10
92.6119
20
-200.79
11
92.469
21
-200.362
0
LINE
8
BLACK
6
CONTINUOUS
10
92.469
20
-200.362
11
92.3262
21
-199.648
0
LINE
8
BLACK
6
CONTINUOUS
10
92.3262
20
-199.648
11
92.3262
21
-199.076
0
LINE
8
BLACK
6
CONTINUOUS
10
92.3262
20
-199.076
11
92.469
21
-198.362
0
LINE
8
BLACK
6
CONTINUOUS
10
92.469
20
-198.362
11
92.6119
21
-197.933
0
LINE
8
BLACK
6
CONTINUOUS
10
92.6119
20
-197.933
11
92.7548
21
-197.648
0
LINE
8
BLACK
6
CONTINUOUS
10
92.7548
20
-197.648
11
93.0405
21
-197.219
0
LINE
8
BLACK
6
CONTINUOUS
10
93.0405
20
-197.219
11
93.1833
21
-197.076
0
LINE
8
BLACK
6
CONTINUOUS
10
94.3262
20
-198.505
11
94.3262
21
-200.505
0
LINE
8
BLACK
6
CONTINUOUS
10
94.3262
20
-198.79
11
94.469
21
-198.648
0
LINE
8
BLACK
6
CONTINUOUS
10
94.469
20
-198.648
11
94.7548
21
-198.505
0
LINE
8
BLACK
6
CONTINUOUS
10
94.7548
20
-198.505
11
95.1833
21
-198.505
0
LINE
8
BLACK
6
CONTINUOUS
10
95.1833
20
-198.505
11
95.469
21
-198.648
0
LINE
8
BLACK
6
CONTINUOUS
10
95.469
20
-198.648
11
95.6119
21
-198.933
0
LINE
8
BLACK
6
CONTINUOUS
10
95.6119
20
-198.933
11
95.6119
21
-200.505
0
LINE
8
BLACK
6
CONTINUOUS
10
97.469
20
-200.505
11
97.1833
21
-200.362
0
LINE
8
BLACK
6
CONTINUOUS
10
97.1833
20
-200.362
11
97.0405
21
-200.219
0
LINE
8
BLACK
6
CONTINUOUS
10
97.0405
20
-200.219
11
96.8976
21
-199.933
0
LINE
8
BLACK
6
CONTINUOUS
10
96.8976
20
-199.933
11
96.8976
21
-199.076
0
LINE
8
BLACK
6
CONTINUOUS
10
96.8976
20
-199.076
11
97.0405
21
-198.79
0
LINE
8
BLACK
6
CONTINUOUS
10
97.0405
20
-198.79
11
97.1833
21
-198.648
0
LINE
8
BLACK
6
CONTINUOUS
10
97.1833
20
-198.648
11
97.469
21
-198.505
0
LINE
8
BLACK
6
CONTINUOUS
10
97.469
20
-198.505
11
97.8976
21
-198.505
0
LINE
8
BLACK
6
CONTINUOUS
10
97.8976
20
-198.505
11
98.1833
21
-198.648
0
LINE
8
BLACK
6
CONTINUOUS
10
98.1833
20
-198.648
11
98.3262
21
-198.79
0
LINE
8
BLACK
6
CONTINUOUS
10
98.3262
20
-198.79
11
98.469
21
-199.076
0
LINE
8
BLACK
6
CONTINUOUS
10
98.469
20
-199.076
11
98.469
21
-199.933
0
LINE
8
BLACK
6
CONTINUOUS
10
98.469
20
-199.933
11
98.3262
21
-200.219
0
LINE
8
BLACK
6
CONTINUOUS
10
98.3262
20
-200.219
11
98.1833
21
-200.362
0
LINE
8
BLACK
6
CONTINUOUS
10
98.1833
20
-200.362
11
97.8976
21
-200.505
0
LINE
8
BLACK
6
CONTINUOUS
10
97.8976
20
-200.505
11
97.469
21
-200.505
0
LINE
8
BLACK
6
CONTINUOUS
10
99.3262
20
-198.505
11
100.469
21
-198.505
0
LINE
8
BLACK
6
CONTINUOUS
10
99.7548
20
-197.505
11
99.7548
21
-200.076
0
LINE
8
BLACK
6
CONTINUOUS
10
99.7548
20
-200.076
11
99.8976
21
-200.362
0
LINE
8
BLACK
6
CONTINUOUS
10
99.8976
20
-200.362
11
100.183
21
-200.505
0
LINE
8
BLACK
6
CONTINUOUS
10
100.183
20
-200.505
11
100.469
21
-200.505
0
LINE
8
BLACK
6
CONTINUOUS
10
103.755
20
-198.505
11
103.755
21
-201.505
0
LINE
8
BLACK
6
CONTINUOUS
10
103.755
20
-198.648
11
104.04
21
-198.505
0
LINE
8
BLACK
6
CONTINUOUS
10
104.04
20
-198.505
11
104.612
21
-198.505
0
LINE
8
BLACK
6
CONTINUOUS
10
104.612
20
-198.505
11
104.898
21
-198.648
0
LINE
8
BLACK
6
CONTINUOUS
10
104.898
20
-198.648
11
105.04
21
-198.79
0
LINE
8
BLACK
6
CONTINUOUS
10
105.04
20
-198.79
11
105.183
21
-199.076
0
LINE
8
BLACK
6
CONTINUOUS
10
105.183
20
-199.076
11
105.183
21
-199.933
0
LINE
8
BLACK
6
CONTINUOUS
10
105.183
20
-199.933
11
105.04
21
-200.219
0
LINE
8
BLACK
6
CONTINUOUS
10
105.04
20
-200.219
11
104.898
21
-200.362
0
LINE
8
BLACK
6
CONTINUOUS
10
104.898
20
-200.362
11
104.612
21
-200.505
0
LINE
8
BLACK
6
CONTINUOUS
10
104.612
20
-200.505
11
104.04
21
-200.505
0
LINE
8
BLACK
6
CONTINUOUS
10
104.04
20
-200.505
11
103.755
21
-200.362
0
LINE
8
BLACK
6
CONTINUOUS
10
106.898
20
-200.505
11
106.612
21
-200.362
0
LINE
8
BLACK
6
CONTINUOUS
10
106.612
20
-200.362
11
106.469
21
-200.076
0
LINE
8
BLACK
6
CONTINUOUS
10
106.469
20
-200.076
11
106.469
21
-197.505
0
LINE
8
BLACK
6
CONTINUOUS
10
109.326
20
-200.505
11
109.326
21
-198.933
0
LINE
8
BLACK
6
CONTINUOUS
10
109.326
20
-198.933
11
109.183
21
-198.648
0
LINE
8
BLACK
6
CONTINUOUS
10
109.183
20
-198.648
11
108.898
21
-198.505
0
LINE
8
BLACK
6
CONTINUOUS
10
108.898
20
-198.505
11
108.326
21
-198.505
0
LINE
8
BLACK
6
CONTINUOUS
10
108.326
20
-198.505
11
108.04
21
-198.648
0
LINE
8
BLACK
6
CONTINUOUS
10
109.326
20
-200.362
11
109.04
21
-200.505
0
LINE
8
BLACK
6
CONTINUOUS
10
109.04
20
-200.505
11
108.326
21
-200.505
0
LINE
8
BLACK
6
CONTINUOUS
10
108.326
20
-200.505
11
108.04
21
-200.362
0
LINE
8
BLACK
6
CONTINUOUS
10
108.04
20
-200.362
11
107.898
21
-200.076
0
LINE
8
BLACK
6
CONTINUOUS
10
107.898
20
-200.076
11
107.898
21
-199.79
0
LINE
8
BLACK
6
CONTINUOUS
10
107.898
20
-199.79
11
108.04
21
-199.505
0
LINE
8
BLACK
6
CONTINUOUS
10
108.04
20
-199.505
11
108.326
21
-199.362
0
LINE
8
BLACK
6
CONTINUOUS
10
108.326
20
-199.362
11
109.04
21
-199.362
0
LINE
8
BLACK
6
CONTINUOUS
10
109.04
20
-199.362
11
109.326
21
-199.219
0
LINE
8
BLACK
6
CONTINUOUS
10
110.326
20
-198.505
11
111.469
21
-198.505
0
LINE
8
BLACK
6
CONTINUOUS
10
110.755
20
-197.505
11
110.755
21
-200.076
0
LINE
8
BLACK
6
CONTINUOUS
10
110.755
20
-200.076
11
110.898
21
-200.362
0
LINE
8
BLACK
6
CONTINUOUS
10
110.898
20
-200.362
11
111.183
21
-200.505
0
LINE
8
BLACK
6
CONTINUOUS
10
111.183
20
-200.505
11
111.469
21
-200.505
0
LINE
8
BLACK
6
CONTINUOUS
10
113.612
20
-200.362
11
113.326
21
-200.505
0
LINE
8
BLACK
6
CONTINUOUS
10
113.326
20
-200.505
11
112.755
21
-200.505
0
LINE
8
BLACK
6
CONTINUOUS
10
112.755
20
-200.505
11
112.469
21
-200.362
0
LINE
8
BLACK
6
CONTINUOUS
10
112.469
20
-200.362
11
112.326
21
-200.076
0
LINE
8
BLACK
6
CONTINUOUS
10
112.326
20
-200.076
11
112.326
21
-198.933
0
LINE
8
BLACK
6
CONTINUOUS
10
112.326
20
-198.933
11
112.469
21
-198.648
0
LINE
8
BLACK
6
CONTINUOUS
10
112.469
20
-198.648
11
112.755
21
-198.505
0
LINE
8
BLACK
6
CONTINUOUS
10
112.755
20
-198.505
11
113.326
21
-198.505
0
LINE
8
BLACK
6
CONTINUOUS
10
113.326
20
-198.505
11
113.612
21
-198.648
0
LINE
8
BLACK
6
CONTINUOUS
10
113.612
20
-198.648
11
113.755
21
-198.933
0
LINE
8
BLACK
6
CONTINUOUS
10
113.755
20
-198.933
11
113.755
21
-199.219
0
LINE
8
BLACK
6
CONTINUOUS
10
113.755
20
-199.219
11
112.326
21
-199.505
0
LINE
8
BLACK
6
CONTINUOUS
10
116.326
20
-200.505
11
116.326
21
-197.505
0
LINE
8
BLACK
6
CONTINUOUS
10
116.326
20
-200.362
11
116.04
21
-200.505
0
LINE
8
BLACK
6
CONTINUOUS
10
116.04
20
-200.505
11
115.469
21
-200.505
0
LINE
8
BLACK
6
CONTINUOUS
10
115.469
20
-200.505
11
115.183
21
-200.362
0
LINE
8
BLACK
6
CONTINUOUS
10
115.183
20
-200.362
11
115.04
21
-200.219
0
LINE
8
BLACK
6
CONTINUOUS
10
115.04
20
-200.219
11
114.898
21
-199.933
0
LINE
8
BLACK
6
CONTINUOUS
10
114.898
20
-199.933
11
114.898
21
-199.076
0
LINE
8
BLACK
6
CONTINUOUS
10
114.898
20
-199.076
11
115.04
21
-198.79
0
LINE
8
BLACK
6
CONTINUOUS
10
115.04
20
-198.79
11
115.183
21
-198.648
0
LINE
8
BLACK
6
CONTINUOUS
10
115.183
20
-198.648
11
115.469
21
-198.505
0
LINE
8
BLACK
6
CONTINUOUS
10
115.469
20
-198.505
11
116.04
21
-198.505
0
LINE
8
BLACK
6
CONTINUOUS
10
116.04
20
-198.505
11
116.326
21
-198.648
0
LINE
8
BLACK
6
CONTINUOUS
10
117.469
20
-201.648
11
117.612
21
-201.505
0
LINE
8
BLACK
6
CONTINUOUS
10
117.612
20
-201.505
11
117.898
21
-201.076
0
LINE
8
BLACK
6
CONTINUOUS
10
117.898
20
-201.076
11
118.04
21
-200.79
0
LINE
8
BLACK
6
CONTINUOUS
10
118.04
20
-200.79
11
118.183
21
-200.362
0
LINE
8
BLACK
6
CONTINUOUS
10
118.183
20
-200.362
11
118.326
21
-199.648
0
LINE
8
BLACK
6
CONTINUOUS
10
118.326
20
-199.648
11
118.326
21
-199.076
0
LINE
8
BLACK
6
CONTINUOUS
10
118.326
20
-199.076
11
118.183
21
-198.362
0
LINE
8
BLACK
6
CONTINUOUS
10
118.183
20
-198.362
11
118.04
21
-197.933
0
LINE
8
BLACK
6
CONTINUOUS
10
118.04
20
-197.933
11
117.898
21
-197.648
0
LINE
8
BLACK
6
CONTINUOUS
10
117.898
20
-197.648
11
117.612
21
-197.219
0
LINE
8
BLACK
6
CONTINUOUS
10
117.612
20
-197.219
11
117.469
21
-197.076
0
CIRCLE
8
BLACK
10
22.3444
20
-203.108
40
0.5461
0
LINE
8
BLACK
6
CONTINUOUS
10
27.3262
20
-204.465
11
25.6119
21
-204.465
0
LINE
8
BLACK
6
CONTINUOUS
10
26.469
20
-204.465
11
26.469
21
-201.465
0
LINE
8
BLACK
6
CONTINUOUS
10
26.469
20
-201.465
11
26.1833
21
-201.893
0
LINE
8
BLACK
6
CONTINUOUS
10
26.1833
20
-201.893
11
25.8976
21
-202.179
0
LINE
8
BLACK
6
CONTINUOUS
10
25.8976
20
-202.179
11
25.6119
21
-202.322
0
LINE
8
BLACK
6
CONTINUOUS
10
28.6119
20
-204.179
11
28.7548
21
-204.322
0
LINE
8
BLACK
6
CONTINUOUS
10
28.7548
20
-204.322
11
28.6119
21
-204.465
0
LINE
8
BLACK
6
CONTINUOUS
10
28.6119
20
-204.465
11
28.469
21
-204.322
0
LINE
8
BLACK
6
CONTINUOUS
10
28.469
20
-204.322
11
28.6119
21
-204.179
0
LINE
8
BLACK
6
CONTINUOUS
10
28.6119
20
-204.179
11
28.6119
21
-204.465
0
LINE
8
BLACK
6
CONTINUOUS
10
30.6119
20
-201.465
11
30.8976
21
-201.465
0
LINE
8
BLACK
6
CONTINUOUS
10
30.8976
20
-201.465
11
31.1833
21
-201.608
0
LINE
8
BLACK
6
CONTINUOUS
10
31.1833
20
-201.608
11
31.3262
21
-201.75
0
LINE
8
BLACK
6
CONTINUOUS
10
31.3262
20
-201.75
11
31.469
21
-202.036
0
LINE
8
BLACK
6
CONTINUOUS
10
31.469
20
-202.036
11
31.6119
21
-202.608
0
LINE
8
BLACK
6
CONTINUOUS
10
31.6119
20
-202.608
11
31.6119
21
-203.322
0
LINE
8
BLACK
6
CONTINUOUS
10
31.6119
20
-203.322
11
31.469
21
-203.893
0
LINE
8
BLACK
6
CONTINUOUS
10
31.469
20
-203.893
11
31.3262
21
-204.179
0
LINE
8
BLACK
6
CONTINUOUS
10
31.3262
20
-204.179
11
31.1833
21
-204.322
0
LINE
8
BLACK
6
CONTINUOUS
10
31.1833
20
-204.322
11
30.8976
21
-204.465
0
LINE
8
BLACK
6
CONTINUOUS
10
30.8976
20
-204.465
11
30.6119
21
-204.465
0
LINE
8
BLACK
6
CONTINUOUS
10
30.6119
20
-204.465
11
30.3262
21
-204.322
0
LINE
8
BLACK
6
CONTINUOUS
10
30.3262
20
-204.322
11
30.1833
21
-204.179
0
LINE
8
BLACK
6
CONTINUOUS
10
30.1833
20
-204.179
11
30.0405
21
-203.893
0
LINE
8
BLACK
6
CONTINUOUS
10
30.0405
20
-203.893
11
29.8976
21
-203.322
0
LINE
8
BLACK
6
CONTINUOUS
10
29.8976
20
-203.322
11
29.8976
21
-202.608
0
LINE
8
BLACK
6
CONTINUOUS
10
29.8976
20
-202.608
11
30.0405
21
-202.036
0
LINE
8
BLACK
6
CONTINUOUS
10
30.0405
20
-202.036
11
30.1833
21
-201.75
0
LINE
8
BLACK
6
CONTINUOUS
10
30.1833
20
-201.75
11
30.3262
21
-201.608
0
LINE
8
BLACK
6
CONTINUOUS
10
30.3262
20
-201.608
11
30.6119
21
-201.465
0
LINE
8
BLACK
6
CONTINUOUS
10
33.0405
20
-204.465
11
33.6119
21
-204.465
0
LINE
8
BLACK
6
CONTINUOUS
10
33.6119
20
-204.465
11
33.8976
21
-204.322
0
LINE
8
BLACK
6
CONTINUOUS
10
33.8976
20
-204.322
11
34.0405
21
-204.179
0
LINE
8
BLACK
6
CONTINUOUS
10
34.0405
20
-204.179
11
34.3262
21
-203.75
0
LINE
8
BLACK
6
CONTINUOUS
10
34.3262
20
-203.75
11
34.469
21
-203.179
0
LINE
8
BLACK
6
CONTINUOUS
10
34.469
20
-203.179
11
34.469
21
-202.036
0
LINE
8
BLACK
6
CONTINUOUS
10
34.469
20
-202.036
11
34.3262
21
-201.75
0
LINE
8
BLACK
6
CONTINUOUS
10
34.3262
20
-201.75
11
34.1833
21
-201.608
0
LINE
8
BLACK
6
CONTINUOUS
10
34.1833
20
-201.608
11
33.8976
21
-201.465
0
LINE
8
BLACK
6
CONTINUOUS
10
33.8976
20
-201.465
11
33.3262
21
-201.465
0
LINE
8
BLACK
6
CONTINUOUS
10
33.3262
20
-201.465
11
33.0405
21
-201.608
0
LINE
8
BLACK
6
CONTINUOUS
10
33.0405
20
-201.608
11
32.8976
21
-201.75
0
LINE
8
BLACK
6
CONTINUOUS
10
32.8976
20
-201.75
11
32.7548
21
-202.036
0
LINE
8
BLACK
6
CONTINUOUS
10
32.7548
20
-202.036
11
32.7548
21
-202.75
0
LINE
8
BLACK
6
CONTINUOUS
10
32.7548
20
-202.75
11
32.8976
21
-203.036
0
LINE
8
BLACK
6
CONTINUOUS
10
32.8976
20
-203.036
11
33.0405
21
-203.179
0
LINE
8
BLACK
6
CONTINUOUS
10
33.0405
20
-203.179
11
33.3262
21
-203.322
0
LINE
8
BLACK
6
CONTINUOUS
10
33.3262
20
-203.322
11
33.8976
21
-203.322
0
LINE
8
BLACK
6
CONTINUOUS
10
33.8976
20
-203.322
11
34.1833
21
-203.179
0
LINE
8
BLACK
6
CONTINUOUS
10
34.1833
20
-203.179
11
34.3262
21
-203.036
0
LINE
8
BLACK
6
CONTINUOUS
10
34.3262
20
-203.036
11
34.469
21
-202.75
0
LINE
8
BLACK
6
CONTINUOUS
10
35.7548
20
-204.465
11
35.7548
21
-202.465
0
LINE
8
BLACK
6
CONTINUOUS
10
35.7548
20
-202.75
11
35.8976
21
-202.608
0
LINE
8
BLACK
6
CONTINUOUS
10
35.8976
20
-202.608
11
36.1833
21
-202.465
0
LINE
8
BLACK
6
CONTINUOUS
10
36.1833
20
-202.465
11
36.6119
21
-202.465
0
LINE
8
BLACK
6
CONTINUOUS
10
36.6119
20
-202.465
11
36.8976
21
-202.608
0
LINE
8
BLACK
6
CONTINUOUS
10
36.8976
20
-202.608
11
37.0405
21
-202.893
0
LINE
8
BLACK
6
CONTINUOUS
10
37.0405
20
-202.893
11
37.0405
21
-204.465
0
LINE
8
BLACK
6
CONTINUOUS
10
37.0405
20
-202.893
11
37.1833
21
-202.608
0
LINE
8
BLACK
6
CONTINUOUS
10
37.1833
20
-202.608
11
37.469
21
-202.465
0
LINE
8
BLACK
6
CONTINUOUS
10
37.469
20
-202.465
11
37.8976
21
-202.465
0
LINE
8
BLACK
6
CONTINUOUS
10
37.8976
20
-202.465
11
38.1833
21
-202.608
0
LINE
8
BLACK
6
CONTINUOUS
10
38.1833
20
-202.608
11
38.3262
21
-202.893
0
LINE
8
BLACK
6
CONTINUOUS
10
38.3262
20
-202.893
11
38.3262
21
-204.465
0
LINE
8
BLACK
6
CONTINUOUS
10
39.7548
20
-204.465
11
39.7548
21
-202.465
0
LINE
8
BLACK
6
CONTINUOUS
10
39.7548
20
-202.75
11
39.8976
21
-202.608
0
LINE
8
BLACK
6
CONTINUOUS
10
39.8976
20
-202.608
11
40.1833
21
-202.465
0
LINE
8
BLACK
6
CONTINUOUS
10
40.1833
20
-202.465
11
40.6119
21
-202.465
0
LINE
8
BLACK
6
CONTINUOUS
10
40.6119
20
-202.465
11
40.8976
21
-202.608
0
LINE
8
BLACK
6
CONTINUOUS
10
40.8976
20
-202.608
11
41.0405
21
-202.893
0
LINE
8
BLACK
6
CONTINUOUS
10
41.0405
20
-202.893
11
41.0405
21
-204.465
0
LINE
8
BLACK
6
CONTINUOUS
10
41.0405
20
-202.893
11
41.1833
21
-202.608
0
LINE
8
BLACK
6
CONTINUOUS
10
41.1833
20
-202.608
11
41.469
21
-202.465
0
LINE
8
BLACK
6
CONTINUOUS
10
41.469
20
-202.465
11
41.8976
21
-202.465
0
LINE
8
BLACK
6
CONTINUOUS
10
41.8976
20
-202.465
11
42.1833
21
-202.608
0
LINE
8
BLACK
6
CONTINUOUS
10
42.1833
20
-202.608
11
42.3262
21
-202.893
0
LINE
8
BLACK
6
CONTINUOUS
10
42.3262
20
-202.893
11
42.3262
21
-204.465
0
LINE
8
BLACK
6
CONTINUOUS
10
48.1833
20
-201.322
11
45.6119
21
-205.179
0
LINE
8
BLACK
6
CONTINUOUS
10
52.0405
20
-201.465
11
52.3262
21
-201.465
0
LINE
8
BLACK
6
CONTINUOUS
10
52.3262
20
-201.465
11
52.6119
21
-201.608
0
LINE
8
BLACK
6
CONTINUOUS
10
52.6119
20
-201.608
11
52.7548
21
-201.75
0
LINE
8
BLACK
6
CONTINUOUS
10
52.7548
20
-201.75
11
52.8976
21
-202.036
0
LINE
8
BLACK
6
CONTINUOUS
10
52.8976
20
-202.036
11
53.0405
21
-202.608
0
LINE
8
BLACK
6
CONTINUOUS
10
53.0405
20
-202.608
11
53.0405
21
-203.322
0
LINE
8
BLACK
6
CONTINUOUS
10
53.0405
20
-203.322
11
52.8976
21
-203.893
0
LINE
8
BLACK
6
CONTINUOUS
10
52.8976
20
-203.893
11
52.7548
21
-204.179
0
LINE
8
BLACK
6
CONTINUOUS
10
52.7548
20
-204.179
11
52.6119
21
-204.322
0
LINE
8
BLACK
6
CONTINUOUS
10
52.6119
20
-204.322
11
52.3262
21
-204.465
0
LINE
8
BLACK
6
CONTINUOUS
10
52.3262
20
-204.465
11
52.0405
21
-204.465
0
LINE
8
BLACK
6
CONTINUOUS
10
52.0405
20
-204.465
11
51.7548
21
-204.322
0
LINE
8
BLACK
6
CONTINUOUS
10
51.7548
20
-204.322
11
51.6119
21
-204.179
0
LINE
8
BLACK
6
CONTINUOUS
10
51.6119
20
-204.179
11
51.469
21
-203.893
0
LINE
8
BLACK
6
CONTINUOUS
10
51.469
20
-203.893
11
51.3262
21
-203.322
0
LINE
8
BLACK
6
CONTINUOUS
10
51.3262
20
-203.322
11
51.3262
21
-202.608
0
LINE
8
BLACK
6
CONTINUOUS
10
51.3262
20
-202.608
11
51.469
21
-202.036
0
LINE
8
BLACK
6
CONTINUOUS
10
51.469
20
-202.036
11
51.6119
21
-201.75
0
LINE
8
BLACK
6
CONTINUOUS
10
51.6119
20
-201.75
11
51.7548
21
-201.608
0
LINE
8
BLACK
6
CONTINUOUS
10
51.7548
20
-201.608
11
52.0405
21
-201.465
0
LINE
8
BLACK
6
CONTINUOUS
10
54.3262
20
-204.179
11
54.469
21
-204.322
0
LINE
8
BLACK
6
CONTINUOUS
10
54.469
20
-204.322
11
54.3262
21
-204.465
0
LINE
8
BLACK
6
CONTINUOUS
10
54.3262
20
-204.465
11
54.1833
21
-204.322
0
LINE
8
BLACK
6
CONTINUOUS
10
54.1833
20
-204.322
11
54.3262
21
-204.179
0
LINE
8
BLACK
6
CONTINUOUS
10
54.3262
20
-204.179
11
54.3262
21
-204.465
0
LINE
8
BLACK
6
CONTINUOUS
10
56.3262
20
-201.465
11
56.6119
21
-201.465
0
LINE
8
BLACK
6
CONTINUOUS
10
56.6119
20
-201.465
11
56.8976
21
-201.608
0
LINE
8
BLACK
6
CONTINUOUS
10
56.8976
20
-201.608
11
57.0405
21
-201.75
0
LINE
8
BLACK
6
CONTINUOUS
10
57.0405
20
-201.75
11
57.1833
21
-202.036
0
LINE
8
BLACK
6
CONTINUOUS
10
57.1833
20
-202.036
11
57.3262
21
-202.608
0
LINE
8
BLACK
6
CONTINUOUS
10
57.3262
20
-202.608
11
57.3262
21
-203.322
0
LINE
8
BLACK
6
CONTINUOUS
10
57.3262
20
-203.322
11
57.1833
21
-203.893
0
LINE
8
BLACK
6
CONTINUOUS
10
57.1833
20
-203.893
11
57.0405
21
-204.179
0
LINE
8
BLACK
6
CONTINUOUS
10
57.0405
20
-204.179
11
56.8976
21
-204.322
0
LINE
8
BLACK
6
CONTINUOUS
10
56.8976
20
-204.322
11
56.6119
21
-204.465
0
LINE
8
BLACK
6
CONTINUOUS
10
56.6119
20
-204.465
11
56.3262
21
-204.465
0
LINE
8
BLACK
6
CONTINUOUS
10
56.3262
20
-204.465
11
56.0405
21
-204.322
0
LINE
8
BLACK
6
CONTINUOUS
10
56.0405
20
-204.322
11
55.8976
21
-204.179
0
LINE
8
BLACK
6
CONTINUOUS
10
55.8976
20
-204.179
11
55.7548
21
-203.893
0
LINE
8
BLACK
6
CONTINUOUS
10
55.7548
20
-203.893
11
55.6119
21
-203.322
0
LINE
8
BLACK
6
CONTINUOUS
10
55.6119
20
-203.322
11
55.6119
21
-202.608
0
LINE
8
BLACK
6
CONTINUOUS
10
55.6119
20
-202.608
11
55.7548
21
-202.036
0
LINE
8
BLACK
6
CONTINUOUS
10
55.7548
20
-202.036
11
55.8976
21
-201.75
0
LINE
8
BLACK
6
CONTINUOUS
10
55.8976
20
-201.75
11
56.0405
21
-201.608
0
LINE
8
BLACK
6
CONTINUOUS
10
56.0405
20
-201.608
11
56.3262
21
-201.465
0
LINE
8
BLACK
6
CONTINUOUS
10
59.8976
20
-202.465
11
59.8976
21
-204.465
0
LINE
8
BLACK
6
CONTINUOUS
10
59.1833
20
-201.322
11
58.469
21
-203.465
0
LINE
8
BLACK
6
CONTINUOUS
10
58.469
20
-203.465
11
60.3262
21
-203.465
0
LINE
8
BLACK
6
CONTINUOUS
10
61.1833
20
-201.465
11
63.0405
21
-201.465
0
LINE
8
BLACK
6
CONTINUOUS
10
63.0405
20
-201.465
11
62.0405
21
-202.608
0
LINE
8
BLACK
6
CONTINUOUS
10
62.0405
20
-202.608
11
62.469
21
-202.608
0
LINE
8
BLACK
6
CONTINUOUS
10
62.469
20
-202.608
11
62.7548
21
-202.75
0
LINE
8
BLACK
6
CONTINUOUS
10
62.7548
20
-202.75
11
62.8976
21
-202.893
0
LINE
8
BLACK
6
CONTINUOUS
10
62.8976
20
-202.893
11
63.0405
21
-203.179
0
LINE
8
BLACK
6
CONTINUOUS
10
63.0405
20
-203.179
11
63.0405
21
-203.893
0
LINE
8
BLACK
6
CONTINUOUS
10
63.0405
20
-203.893
11
62.8976
21
-204.179
0
LINE
8
BLACK
6
CONTINUOUS
10
62.8976
20
-204.179
11
62.7548
21
-204.322
0
LINE
8
BLACK
6
CONTINUOUS
10
62.7548
20
-204.322
11
62.469
21
-204.465
0
LINE
8
BLACK
6
CONTINUOUS
10
62.469
20
-204.465
11
61.6119
21
-204.465
0
LINE
8
BLACK
6
CONTINUOUS
10
61.6119
20
-204.465
11
61.3262
21
-204.322
0
LINE
8
BLACK
6
CONTINUOUS
10
61.3262
20
-204.322
11
61.1833
21
-204.179
0
LINE
8
BLACK
6
CONTINUOUS
10
64.1833
20
-201.465
11
64.1833
21
-202.036
0
LINE
8
BLACK
6
CONTINUOUS
10
65.3262
20
-201.465
11
65.3262
21
-202.036
0
LINE
8
BLACK
6
CONTINUOUS
10
69.7548
20
-205.608
11
69.6119
21
-205.465
0
LINE
8
BLACK
6
CONTINUOUS
10
69.6119
20
-205.465
11
69.3262
21
-205.036
0
LINE
8
BLACK
6
CONTINUOUS
10
69.3262
20
-205.036
11
69.1833
21
-204.75
0
LINE
8
BLACK
6
CONTINUOUS
10
69.1833
20
-204.75
11
69.0405
21
-204.322
0
LINE
8
BLACK
6
CONTINUOUS
10
69.0405
20
-204.322
11
68.8976
21
-203.608
0
LINE
8
BLACK
6
CONTINUOUS
10
68.8976
20
-203.608
11
68.8976
21
-203.036
0
LINE
8
BLACK
6
CONTINUOUS
10
68.8976
20
-203.036
11
69.0405
21
-202.322
0
LINE
8
BLACK
6
CONTINUOUS
10
69.0405
20
-202.322
11
69.1833
21
-201.893
0
LINE
8
BLACK
6
CONTINUOUS
10
69.1833
20
-201.893
11
69.3262
21
-201.608
0
LINE
8
BLACK
6
CONTINUOUS
10
69.3262
20
-201.608
11
69.6119
21
-201.179
0
LINE
8
BLACK
6
CONTINUOUS
10
69.6119
20
-201.179
11
69.7548
21
-201.036
0
LINE
8
BLACK
6
CONTINUOUS
10
70.7548
20
-201.75
11
70.8976
21
-201.608
0
LINE
8
BLACK
6
CONTINUOUS
10
70.8976
20
-201.608
11
71.1833
21
-201.465
0
LINE
8
BLACK
6
CONTINUOUS
10
71.1833
20
-201.465
11
71.8976
21
-201.465
0
LINE
8
BLACK
6
CONTINUOUS
10
71.8976
20
-201.465
11
72.1833
21
-201.608
0
LINE
8
BLACK
6
CONTINUOUS
10
72.1833
20
-201.608
11
72.3262
21
-201.75
0
LINE
8
BLACK
6
CONTINUOUS
10
72.3262
20
-201.75
11
72.469
21
-202.036
0
LINE
8
BLACK
6
CONTINUOUS
10
72.469
20
-202.036
11
72.469
21
-202.322
0
LINE
8
BLACK
6
CONTINUOUS
10
72.469
20
-202.322
11
72.3262
21
-202.75
0
LINE
8
BLACK
6
CONTINUOUS
10
72.3262
20
-202.75
11
70.6119
21
-204.465
0
LINE
8
BLACK
6
CONTINUOUS
10
70.6119
20
-204.465
11
72.469
21
-204.465
0
LINE
8
BLACK
6
CONTINUOUS
10
76.0405
20
-204.465
11
76.0405
21
-201.465
0
LINE
8
BLACK
6
CONTINUOUS
10
77.3262
20
-204.465
11
77.3262
21
-202.893
0
LINE
8
BLACK
6
CONTINUOUS
10
77.3262
20
-202.893
11
77.1833
21
-202.608
0
LINE
8
BLACK
6
CONTINUOUS
10
77.1833
20
-202.608
11
76.8976
21
-202.465
0
LINE
8
BLACK
6
CONTINUOUS
10
76.8976
20
-202.465
11
76.469
21
-202.465
0
LINE
8
BLACK
6
CONTINUOUS
10
76.469
20
-202.465
11
76.1833
21
-202.608
0
LINE
8
BLACK
6
CONTINUOUS
10
76.1833
20
-202.608
11
76.0405
21
-202.75
0
LINE
8
BLACK
6
CONTINUOUS
10
79.1833
20
-204.465
11
78.8976
21
-204.322
0
LINE
8
BLACK
6
CONTINUOUS
10
78.8976
20
-204.322
11
78.7548
21
-204.179
0
LINE
8
BLACK
6
CONTINUOUS
10
78.7548
20
-204.179
11
78.6119
21
-203.893
0
LINE
8
BLACK
6
CONTINUOUS
10
78.6119
20
-203.893
11
78.6119
21
-203.036
0
LINE
8
BLACK
6
CONTINUOUS
10
78.6119
20
-203.036
11
78.7548
21
-202.75
0
LINE
8
BLACK
6
CONTINUOUS
10
78.7548
20
-202.75
11
78.8976
21
-202.608
0
LINE
8
BLACK
6
CONTINUOUS
10
78.8976
20
-202.608
11
79.1833
21
-202.465
0
LINE
8
BLACK
6
CONTINUOUS
10
79.1833
20
-202.465
11
79.6119
21
-202.465
0
LINE
8
BLACK
6
CONTINUOUS
10
79.6119
20
-202.465
11
79.8976
21
-202.608
0
LINE
8
BLACK
6
CONTINUOUS
10
79.8976
20
-202.608
11
80.0405
21
-202.75
0
LINE
8
BLACK
6
CONTINUOUS
10
80.0405
20
-202.75
11
80.1833
21
-203.036
0
LINE
8
BLACK
6
CONTINUOUS
10
80.1833
20
-203.036
11
80.1833
21
-203.893
0
LINE
8
BLACK
6
CONTINUOUS
10
80.1833
20
-203.893
11
80.0405
21
-204.179
0
LINE
8
BLACK
6
CONTINUOUS
10
80.0405
20
-204.179
11
79.8976
21
-204.322
0
LINE
8
BLACK
6
CONTINUOUS
10
79.8976
20
-204.322
11
79.6119
21
-204.465
0
LINE
8
BLACK
6
CONTINUOUS
10
79.6119
20
-204.465
11
79.1833
21
-204.465
0
LINE
8
BLACK
6
CONTINUOUS
10
81.8976
20
-204.465
11
81.6119
21
-204.322
0
LINE
8
BLACK
6
CONTINUOUS
10
81.6119
20
-204.322
11
81.469
21
-204.036
0
LINE
8
BLACK
6
CONTINUOUS
10
81.469
20
-204.036
11
81.469
21
-201.465
0
LINE
8
BLACK
6
CONTINUOUS
10
84.1833
20
-204.322
11
83.8976
21
-204.465
0
LINE
8
BLACK
6
CONTINUOUS
10
83.8976
20
-204.465
11
83.3262
21
-204.465
0
LINE
8
BLACK
6
CONTINUOUS
10
83.3262
20
-204.465
11
83.0405
21
-204.322
0
LINE
8
BLACK
6
CONTINUOUS
10
83.0405
20
-204.322
11
82.8976
21
-204.036
0
LINE
8
BLACK
6
CONTINUOUS
10
82.8976
20
-204.036
11
82.8976
21
-202.893
0
LINE
8
BLACK
6
CONTINUOUS
10
82.8976
20
-202.893
11
83.0405
21
-202.608
0
LINE
8
BLACK
6
CONTINUOUS
10
83.0405
20
-202.608
11
83.3262
21
-202.465
0
LINE
8
BLACK
6
CONTINUOUS
10
83.3262
20
-202.465
11
83.8976
21
-202.465
0
LINE
8
BLACK
6
CONTINUOUS
10
83.8976
20
-202.465
11
84.1833
21
-202.608
0
LINE
8
BLACK
6
CONTINUOUS
10
84.1833
20
-202.608
11
84.3262
21
-202.893
0
LINE
8
BLACK
6
CONTINUOUS
10
84.3262
20
-202.893
11
84.3262
21
-203.179
0
LINE
8
BLACK
6
CONTINUOUS
10
84.3262
20
-203.179
11
82.8976
21
-203.465
0
LINE
8
BLACK
6
CONTINUOUS
10
85.469
20
-204.322
11
85.7548
21
-204.465
0
LINE
8
BLACK
6
CONTINUOUS
10
85.7548
20
-204.465
11
86.3262
21
-204.465
0
LINE
8
BLACK
6
CONTINUOUS
10
86.3262
20
-204.465
11
86.6119
21
-204.322
0
LINE
8
BLACK
6
CONTINUOUS
10
86.6119
20
-204.322
11
86.7548
21
-204.036
0
LINE
8
BLACK
6
CONTINUOUS
10
86.7548
20
-204.036
11
86.7548
21
-203.893
0
LINE
8
BLACK
6
CONTINUOUS
10
86.7548
20
-203.893
11
86.6119
21
-203.608
0
LINE
8
BLACK
6
CONTINUOUS
10
86.6119
20
-203.608
11
86.3262
21
-203.465
0
LINE
8
BLACK
6
CONTINUOUS
10
86.3262
20
-203.465
11
85.8976
21
-203.465
0
LINE
8
BLACK
6
CONTINUOUS
10
85.8976
20
-203.465
11
85.6119
21
-203.322
0
LINE
8
BLACK
6
CONTINUOUS
10
85.6119
20
-203.322
11
85.469
21
-203.036
0
LINE
8
BLACK
6
CONTINUOUS
10
85.469
20
-203.036
11
85.469
21
-202.893
0
LINE
8
BLACK
6
CONTINUOUS
10
85.469
20
-202.893
11
85.6119
21
-202.608
0
LINE
8
BLACK
6
CONTINUOUS
10
85.6119
20
-202.608
11
85.8976
21
-202.465
0
LINE
8
BLACK
6
CONTINUOUS
10
85.8976
20
-202.465
11
86.3262
21
-202.465
0
LINE
8
BLACK
6
CONTINUOUS
10
86.3262
20
-202.465
11
86.6119
21
-202.608
0
LINE
8
BLACK
6
CONTINUOUS
10
87.7548
20
-205.608
11
87.8976
21
-205.465
0
LINE
8
BLACK
6
CONTINUOUS
10
87.8976
20
-205.465
11
88.1833
21
-205.036
0
LINE
8
BLACK
6
CONTINUOUS
10
88.1833
20
-205.036
11
88.3262
21
-204.75
0
LINE
8
BLACK
6
CONTINUOUS
10
88.3262
20
-204.75
11
88.469
21
-204.322
0
LINE
8
BLACK
6
CONTINUOUS
10
88.469
20
-204.322
11
88.6119
21
-203.608
0
LINE
8
BLACK
6
CONTINUOUS
10
88.6119
20
-203.608
11
88.6119
21
-203.036
0
LINE
8
BLACK
6
CONTINUOUS
10
88.6119
20
-203.036
11
88.469
21
-202.322
0
LINE
8
BLACK
6
CONTINUOUS
10
88.469
20
-202.322
11
88.3262
21
-201.893
0
LINE
8
BLACK
6
CONTINUOUS
10
88.3262
20
-201.893
11
88.1833
21
-201.608
0
LINE
8
BLACK
6
CONTINUOUS
10
88.1833
20
-201.608
11
87.8976
21
-201.179
0
LINE
8
BLACK
6
CONTINUOUS
10
87.8976
20
-201.179
11
87.7548
21
-201.036
0
LINE
8
BLACK
6
CONTINUOUS
10
93.1833
20
-205.608
11
93.0405
21
-205.465
0
LINE
8
BLACK
6
CONTINUOUS
10
93.0405
20
-205.465
11
92.7548
21
-205.036
0
LINE
8
BLACK
6
CONTINUOUS
10
92.7548
20
-205.036
11
92.6119
21
-204.75
0
LINE
8
BLACK
6
CONTINUOUS
10
92.6119
20
-204.75
11
92.469
21
-204.322
0
LINE
8
BLACK
6
CONTINUOUS
10
92.469
20
-204.322
11
92.3262
21
-203.608
0
LINE
8
BLACK
6
CONTINUOUS
10
92.3262
20
-203.608
11
92.3262
21
-203.036
0
LINE
8
BLACK
6
CONTINUOUS
10
92.3262
20
-203.036
11
92.469
21
-202.322
0
LINE
8
BLACK
6
CONTINUOUS
10
92.469
20
-202.322
11
92.6119
21
-201.893
0
LINE
8
BLACK
6
CONTINUOUS
10
92.6119
20
-201.893
11
92.7548
21
-201.608
0
LINE
8
BLACK
6
CONTINUOUS
10
92.7548
20
-201.608
11
93.0405
21
-201.179
0
LINE
8
BLACK
6
CONTINUOUS
10
93.0405
20
-201.179
11
93.1833
21
-201.036
0
LINE
8
BLACK
6
CONTINUOUS
10
94.3262
20
-202.465
11
94.3262
21
-204.465
0
LINE
8
BLACK
6
CONTINUOUS
10
94.3262
20
-202.75
11
94.469
21
-202.608
0
LINE
8
BLACK
6
CONTINUOUS
10
94.469
20
-202.608
11
94.7548
21
-202.465
0
LINE
8
BLACK
6
CONTINUOUS
10
94.7548
20
-202.465
11
95.1833
21
-202.465
0
LINE
8
BLACK
6
CONTINUOUS
10
95.1833
20
-202.465
11
95.469
21
-202.608
0
LINE
8
BLACK
6
CONTINUOUS
10
95.469
20
-202.608
11
95.6119
21
-202.893
0
LINE
8
BLACK
6
CONTINUOUS
10
95.6119
20
-202.893
11
95.6119
21
-204.465
0
LINE
8
BLACK
6
CONTINUOUS
10
97.469
20
-204.465
11
97.1833
21
-204.322
0
LINE
8
BLACK
6
CONTINUOUS
10
97.1833
20
-204.322
11
97.0405
21
-204.179
0
LINE
8
BLACK
6
CONTINUOUS
10
97.0405
20
-204.179
11
96.8976
21
-203.893
0
LINE
8
BLACK
6
CONTINUOUS
10
96.8976
20
-203.893
11
96.8976
21
-203.036
0
LINE
8
BLACK
6
CONTINUOUS
10
96.8976
20
-203.036
11
97.0405
21
-202.75
0
LINE
8
BLACK
6
CONTINUOUS
10
97.0405
20
-202.75
11
97.1833
21
-202.608
0
LINE
8
BLACK
6
CONTINUOUS
10
97.1833
20
-202.608
11
97.469
21
-202.465
0
LINE
8
BLACK
6
CONTINUOUS
10
97.469
20
-202.465
11
97.8976
21
-202.465
0
LINE
8
BLACK
6
CONTINUOUS
10
97.8976
20
-202.465
11
98.1833
21
-202.608
0
LINE
8
BLACK
6
CONTINUOUS
10
98.1833
20
-202.608
11
98.3262
21
-202.75
0
LINE
8
BLACK
6
CONTINUOUS
10
98.3262
20
-202.75
11
98.469
21
-203.036
0
LINE
8
BLACK
6
CONTINUOUS
10
98.469
20
-203.036
11
98.469
21
-203.893
0
LINE
8
BLACK
6
CONTINUOUS
10
98.469
20
-203.893
11
98.3262
21
-204.179
0
LINE
8
BLACK
6
CONTINUOUS
10
98.3262
20
-204.179
11
98.1833
21
-204.322
0
LINE
8
BLACK
6
CONTINUOUS
10
98.1833
20
-204.322
11
97.8976
21
-204.465
0
LINE
8
BLACK
6
CONTINUOUS
10
97.8976
20
-204.465
11
97.469
21
-204.465
0
LINE
8
BLACK
6
CONTINUOUS
10
99.3262
20
-202.465
11
100.469
21
-202.465
0
LINE
8
BLACK
6
CONTINUOUS
10
99.7548
20
-201.465
11
99.7548
21
-204.036
0
LINE
8
BLACK
6
CONTINUOUS
10
99.7548
20
-204.036
11
99.8976
21
-204.322
0
LINE
8
BLACK
6
CONTINUOUS
10
99.8976
20
-204.322
11
100.183
21
-204.465
0
LINE
8
BLACK
6
CONTINUOUS
10
100.183
20
-204.465
11
100.469
21
-204.465
0
LINE
8
BLACK
6
CONTINUOUS
10
103.755
20
-202.465
11
103.755
21
-205.465
0
LINE
8
BLACK
6
CONTINUOUS
10
103.755
20
-202.608
11
104.04
21
-202.465
0
LINE
8
BLACK
6
CONTINUOUS
10
104.04
20
-202.465
11
104.612
21
-202.465
0
LINE
8
BLACK
6
CONTINUOUS
10
104.612
20
-202.465
11
104.898
21
-202.608
0
LINE
8
BLACK
6
CONTINUOUS
10
104.898
20
-202.608
11
105.04
21
-202.75
0
LINE
8
BLACK
6
CONTINUOUS
10
105.04
20
-202.75
11
105.183
21
-203.036
0
LINE
8
BLACK
6
CONTINUOUS
10
105.183
20
-203.036
11
105.183
21
-203.893
0
LINE
8
BLACK
6
CONTINUOUS
10
105.183
20
-203.893
11
105.04
21
-204.179
0
LINE
8
BLACK
6
CONTINUOUS
10
105.04
20
-204.179
11
104.898
21
-204.322
0
LINE
8
BLACK
6
CONTINUOUS
10
104.898
20
-204.322
11
104.612
21
-204.465
0
LINE
8
BLACK
6
CONTINUOUS
10
104.612
20
-204.465
11
104.04
21
-204.465
0
LINE
8
BLACK
6
CONTINUOUS
10
104.04
20
-204.465
11
103.755
21
-204.322
0
LINE
8
BLACK
6
CONTINUOUS
10
106.898
20
-204.465
11
106.612
21
-204.322
0
LINE
8
BLACK
6
CONTINUOUS
10
106.612
20
-204.322
11
106.469
21
-204.036
0
LINE
8
BLACK
6
CONTINUOUS
10
106.469
20
-204.036
11
106.469
21
-201.465
0
LINE
8
BLACK
6
CONTINUOUS
10
109.326
20
-204.465
11
109.326
21
-202.893
0
LINE
8
BLACK
6
CONTINUOUS
10
109.326
20
-202.893
11
109.183
21
-202.608
0
LINE
8
BLACK
6
CONTINUOUS
10
109.183
20
-202.608
11
108.898
21
-202.465
0
LINE
8
BLACK
6
CONTINUOUS
10
108.898
20
-202.465
11
108.326
21
-202.465
0
LINE
8
BLACK
6
CONTINUOUS
10
108.326
20
-202.465
11
108.04
21
-202.608
0
LINE
8
BLACK
6
CONTINUOUS
10
109.326
20
-204.322
11
109.04
21
-204.465
0
LINE
8
BLACK
6
CONTINUOUS
10
109.04
20
-204.465
11
108.326
21
-204.465
0
LINE
8
BLACK
6
CONTINUOUS
10
108.326
20
-204.465
11
108.04
21
-204.322
0
LINE
8
BLACK
6
CONTINUOUS
10
108.04
20
-204.322
11
107.898
21
-204.036
0
LINE
8
BLACK
6
CONTINUOUS
10
107.898
20
-204.036
11
107.898
21
-203.75
0
LINE
8
BLACK
6
CONTINUOUS
10
107.898
20
-203.75
11
108.04
21
-203.465
0
LINE
8
BLACK
6
CONTINUOUS
10
108.04
20
-203.465
11
108.326
21
-203.322
0
LINE
8
BLACK
6
CONTINUOUS
10
108.326
20
-203.322
11
109.04
21
-203.322
0
LINE
8
BLACK
6
CONTINUOUS
10
109.04
20
-203.322
11
109.326
21
-203.179
0
LINE
8
BLACK
6
CONTINUOUS
10
110.326
20
-202.465
11
111.469
21
-202.465
0
LINE
8
BLACK
6
CONTINUOUS
10
110.755
20
-201.465
11
110.755
21
-204.036
0
LINE
8
BLACK
6
CONTINUOUS
10
110.755
20
-204.036
11
110.898
21
-204.322
0
LINE
8
BLACK
6
CONTINUOUS
10
110.898
20
-204.322
11
111.183
21
-204.465
0
LINE
8
BLACK
6
CONTINUOUS
10
111.183
20
-204.465
11
111.469
21
-204.465
0
LINE
8
BLACK
6
CONTINUOUS
10
113.612
20
-204.322
11
113.326
21
-204.465
0
LINE
8
BLACK
6
CONTINUOUS
10
113.326
20
-204.465
11
112.755
21
-204.465
0
LINE
8
BLACK
6
CONTINUOUS
10
112.755
20
-204.465
11
112.469
21
-204.322
0
LINE
8
BLACK
6
CONTINUOUS
10
112.469
20
-204.322
11
112.326
21
-204.036
0
LINE
8
BLACK
6
CONTINUOUS
10
112.326
20
-204.036
11
112.326
21
-202.893
0
LINE
8
BLACK
6
CONTINUOUS
10
112.326
20
-202.893
11
112.469
21
-202.608
0
LINE
8
BLACK
6
CONTINUOUS
10
112.469
20
-202.608
11
112.755
21
-202.465
0
LINE
8
BLACK
6
CONTINUOUS
10
112.755
20
-202.465
11
113.326
21
-202.465
0
LINE
8
BLACK
6
CONTINUOUS
10
113.326
20
-202.465
11
113.612
21
-202.608
0
LINE
8
BLACK
6
CONTINUOUS
10
113.612
20
-202.608
11
113.755
21
-202.893
0
LINE
8
BLACK
6
CONTINUOUS
10
113.755
20
-202.893
11
113.755
21
-203.179
0
LINE
8
BLACK
6
CONTINUOUS
10
113.755
20
-203.179
11
112.326
21
-203.465
0
LINE
8
BLACK
6
CONTINUOUS
10
116.326
20
-204.465
11
116.326
21
-201.465
0
LINE
8
BLACK
6
CONTINUOUS
10
116.326
20
-204.322
11
116.04
21
-204.465
0
LINE
8
BLACK
6
CONTINUOUS
10
116.04
20
-204.465
11
115.469
21
-204.465
0
LINE
8
BLACK
6
CONTINUOUS
10
115.469
20
-204.465
11
115.183
21
-204.322
0
LINE
8
BLACK
6
CONTINUOUS
10
115.183
20
-204.322
11
115.04
21
-204.179
0
LINE
8
BLACK
6
CONTINUOUS
10
115.04
20
-204.179
11
114.898
21
-203.893
0
LINE
8
BLACK
6
CONTINUOUS
10
114.898
20
-203.893
11
114.898
21
-203.036
0
LINE
8
BLACK
6
CONTINUOUS
10
114.898
20
-203.036
11
115.04
21
-202.75
0
LINE
8
BLACK
6
CONTINUOUS
10
115.04
20
-202.75
11
115.183
21
-202.608
0
LINE
8
BLACK
6
CONTINUOUS
10
115.183
20
-202.608
11
115.469
21
-202.465
0
LINE
8
BLACK
6
CONTINUOUS
10
115.469
20
-202.465
11
116.04
21
-202.465
0
LINE
8
BLACK
6
CONTINUOUS
10
116.04
20
-202.465
11
116.326
21
-202.608
0
LINE
8
BLACK
6
CONTINUOUS
10
117.469
20
-205.608
11
117.612
21
-205.465
0
LINE
8
BLACK
6
CONTINUOUS
10
117.612
20
-205.465
11
117.898
21
-205.036
0
LINE
8
BLACK
6
CONTINUOUS
10
117.898
20
-205.036
11
118.04
21
-204.75
0
LINE
8
BLACK
6
CONTINUOUS
10
118.04
20
-204.75
11
118.183
21
-204.322
0
LINE
8
BLACK
6
CONTINUOUS
10
118.183
20
-204.322
11
118.326
21
-203.608
0
LINE
8
BLACK
6
CONTINUOUS
10
118.326
20
-203.608
11
118.326
21
-203.036
0
LINE
8
BLACK
6
CONTINUOUS
10
118.326
20
-203.036
11
118.183
21
-202.322
0
LINE
8
BLACK
6
CONTINUOUS
10
118.183
20
-202.322
11
118.04
21
-201.893
0
LINE
8
BLACK
6
CONTINUOUS
10
118.04
20
-201.893
11
117.898
21
-201.608
0
LINE
8
BLACK
6
CONTINUOUS
10
117.898
20
-201.608
11
117.612
21
-201.179
0
LINE
8
BLACK
6
CONTINUOUS
10
117.612
20
-201.179
11
117.469
21
-201.036
0
LINE
8
BLACK
6
CONTINUOUS
10
21.3665
20
-205.544
11
21.3665
21
-208.592
0
LINE
8
BLACK
6
CONTINUOUS
10
19.8425
20
-207.068
11
22.8905
21
-207.068
0
LINE
8
BLACK
6
CONTINUOUS
10
25.469
20
-205.425
11
27.3262
21
-205.425
0
LINE
8
BLACK
6
CONTINUOUS
10
27.3262
20
-205.425
11
26.3262
21
-206.568
0
LINE
8
BLACK
6
CONTINUOUS
10
26.3262
20
-206.568
11
26.7548
21
-206.568
0
LINE
8
BLACK
6
CONTINUOUS
10
26.7548
20
-206.568
11
27.0405
21
-206.71
0
LINE
8
BLACK
6
CONTINUOUS
10
27.0405
20
-206.71
11
27.1833
21
-206.853
0
LINE
8
BLACK
6
CONTINUOUS
10
27.1833
20
-206.853
11
27.3262
21
-207.139
0
LINE
8
BLACK
6
CONTINUOUS
10
27.3262
20
-207.139
11
27.3262
21
-207.853
0
LINE
8
BLACK
6
CONTINUOUS
10
27.3262
20
-207.853
11
27.1833
21
-208.139
0
LINE
8
BLACK
6
CONTINUOUS
10
27.1833
20
-208.139
11
27.0405
21
-208.282
0
LINE
8
BLACK
6
CONTINUOUS
10
27.0405
20
-208.282
11
26.7548
21
-208.425
0
LINE
8
BLACK
6
CONTINUOUS
10
26.7548
20
-208.425
11
25.8976
21
-208.425
0
LINE
8
BLACK
6
CONTINUOUS
10
25.8976
20
-208.425
11
25.6119
21
-208.282
0
LINE
8
BLACK
6
CONTINUOUS
10
25.6119
20
-208.282
11
25.469
21
-208.139
0
LINE
8
BLACK
6
CONTINUOUS
10
28.6119
20
-208.139
11
28.7548
21
-208.282
0
LINE
8
BLACK
6
CONTINUOUS
10
28.7548
20
-208.282
11
28.6119
21
-208.425
0
LINE
8
BLACK
6
CONTINUOUS
10
28.6119
20
-208.425
11
28.469
21
-208.282
0
LINE
8
BLACK
6
CONTINUOUS
10
28.469
20
-208.282
11
28.6119
21
-208.139
0
LINE
8
BLACK
6
CONTINUOUS
10
28.6119
20
-208.139
11
28.6119
21
-208.425
0
LINE
8
BLACK
6
CONTINUOUS
10
30.6119
20
-205.425
11
30.8976
21
-205.425
0
LINE
8
BLACK
6
CONTINUOUS
10
30.8976
20
-205.425
11
31.1833
21
-205.568
0
LINE
8
BLACK
6
CONTINUOUS
10
31.1833
20
-205.568
11
31.3262
21
-205.71
0
LINE
8
BLACK
6
CONTINUOUS
10
31.3262
20
-205.71
11
31.469
21
-205.996
0
LINE
8
BLACK
6
CONTINUOUS
10
31.469
20
-205.996
11
31.6119
21
-206.568
0
LINE
8
BLACK
6
CONTINUOUS
10
31.6119
20
-206.568
11
31.6119
21
-207.282
0
LINE
8
BLACK
6
CONTINUOUS
10
31.6119
20
-207.282
11
31.469
21
-207.853
0
LINE
8
BLACK
6
CONTINUOUS
10
31.469
20
-207.853
11
31.3262
21
-208.139
0
LINE
8
BLACK
6
CONTINUOUS
10
31.3262
20
-208.139
11
31.1833
21
-208.282
0
LINE
8
BLACK
6
CONTINUOUS
10
31.1833
20
-208.282
11
30.8976
21
-208.425
0
LINE
8
BLACK
6
CONTINUOUS
10
30.8976
20
-208.425
11
30.6119
21
-208.425
0
LINE
8
BLACK
6
CONTINUOUS
10
30.6119
20
-208.425
11
30.3262
21
-208.282
0
LINE
8
BLACK
6
CONTINUOUS
10
30.3262
20
-208.282
11
30.1833
21
-208.139
0
LINE
8
BLACK
6
CONTINUOUS
10
30.1833
20
-208.139
11
30.0405
21
-207.853
0
LINE
8
BLACK
6
CONTINUOUS
10
30.0405
20
-207.853
11
29.8976
21
-207.282
0
LINE
8
BLACK
6
CONTINUOUS
10
29.8976
20
-207.282
11
29.8976
21
-206.568
0
LINE
8
BLACK
6
CONTINUOUS
10
29.8976
20
-206.568
11
30.0405
21
-205.996
0
LINE
8
BLACK
6
CONTINUOUS
10
30.0405
20
-205.996
11
30.1833
21
-205.71
0
LINE
8
BLACK
6
CONTINUOUS
10
30.1833
20
-205.71
11
30.3262
21
-205.568
0
LINE
8
BLACK
6
CONTINUOUS
10
30.3262
20
-205.568
11
30.6119
21
-205.425
0
LINE
8
BLACK
6
CONTINUOUS
10
34.3262
20
-205.425
11
32.8976
21
-205.425
0
LINE
8
BLACK
6
CONTINUOUS
10
32.8976
20
-205.425
11
32.7548
21
-206.853
0
LINE
8
BLACK
6
CONTINUOUS
10
32.7548
20
-206.853
11
32.8976
21
-206.71
0
LINE
8
BLACK
6
CONTINUOUS
10
32.8976
20
-206.71
11
33.1833
21
-206.568
0
LINE
8
BLACK
6
CONTINUOUS
10
33.1833
20
-206.568
11
33.8976
21
-206.568
0
LINE
8
BLACK
6
CONTINUOUS
10
33.8976
20
-206.568
11
34.1833
21
-206.71
0
LINE
8
BLACK
6
CONTINUOUS
10
34.1833
20
-206.71
11
34.3262
21
-206.853
0
LINE
8
BLACK
6
CONTINUOUS
10
34.3262
20
-206.853
11
34.469
21
-207.139
0
LINE
8
BLACK
6
CONTINUOUS
10
34.469
20
-207.139
11
34.469
21
-207.853
0
LINE
8
BLACK
6
CONTINUOUS
10
34.469
20
-207.853
11
34.3262
21
-208.139
0
LINE
8
BLACK
6
CONTINUOUS
10
34.3262
20
-208.139
11
34.1833
21
-208.282
0
LINE
8
BLACK
6
CONTINUOUS
10
34.1833
20
-208.282
11
33.8976
21
-208.425
0
LINE
8
BLACK
6
CONTINUOUS
10
33.8976
20
-208.425
11
33.1833
21
-208.425
0
LINE
8
BLACK
6
CONTINUOUS
10
33.1833
20
-208.425
11
32.8976
21
-208.282
0
LINE
8
BLACK
6
CONTINUOUS
10
32.8976
20
-208.282
11
32.7548
21
-208.139
0
LINE
8
BLACK
6
CONTINUOUS
10
35.7548
20
-208.425
11
35.7548
21
-206.425
0
LINE
8
BLACK
6
CONTINUOUS
10
35.7548
20
-206.71
11
35.8976
21
-206.568
0
LINE
8
BLACK
6
CONTINUOUS
10
35.8976
20
-206.568
11
36.1833
21
-206.425
0
LINE
8
BLACK
6
CONTINUOUS
10
36.1833
20
-206.425
11
36.6119
21
-206.425
0
LINE
8
BLACK
6
CONTINUOUS
10
36.6119
20
-206.425
11
36.8976
21
-206.568
0
LINE
8
BLACK
6
CONTINUOUS
10
36.8976
20
-206.568
11
37.0405
21
-206.853
0
LINE
8
BLACK
6
CONTINUOUS
10
37.0405
20
-206.853
11
37.0405
21
-208.425
0
LINE
8
BLACK
6
CONTINUOUS
10
37.0405
20
-206.853
11
37.1833
21
-206.568
0
LINE
8
BLACK
6
CONTINUOUS
10
37.1833
20
-206.568
11
37.469
21
-206.425
0
LINE
8
BLACK
6
CONTINUOUS
10
37.469
20
-206.425
11
37.8976
21
-206.425
0
LINE
8
BLACK
6
CONTINUOUS
10
37.8976
20
-206.425
11
38.1833
21
-206.568
0
LINE
8
BLACK
6
CONTINUOUS
10
38.1833
20
-206.568
11
38.3262
21
-206.853
0
LINE
8
BLACK
6
CONTINUOUS
10
38.3262
20
-206.853
11
38.3262
21
-208.425
0
LINE
8
BLACK
6
CONTINUOUS
10
39.7548
20
-208.425
11
39.7548
21
-206.425
0
LINE
8
BLACK
6
CONTINUOUS
10
39.7548
20
-206.71
11
39.8976
21
-206.568
0
LINE
8
BLACK
6
CONTINUOUS
10
39.8976
20
-206.568
11
40.1833
21
-206.425
0
LINE
8
BLACK
6
CONTINUOUS
10
40.1833
20
-206.425
11
40.6119
21
-206.425
0
LINE
8
BLACK
6
CONTINUOUS
10
40.6119
20
-206.425
11
40.8976
21
-206.568
0
LINE
8
BLACK
6
CONTINUOUS
10
40.8976
20
-206.568
11
41.0405
21
-206.853
0
LINE
8
BLACK
6
CONTINUOUS
10
41.0405
20
-206.853
11
41.0405
21
-208.425
0
LINE
8
BLACK
6
CONTINUOUS
10
41.0405
20
-206.853
11
41.1833
21
-206.568
0
LINE
8
BLACK
6
CONTINUOUS
10
41.1833
20
-206.568
11
41.469
21
-206.425
0
LINE
8
BLACK
6
CONTINUOUS
10
41.469
20
-206.425
11
41.8976
21
-206.425
0
LINE
8
BLACK
6
CONTINUOUS
10
41.8976
20
-206.425
11
42.1833
21
-206.568
0
LINE
8
BLACK
6
CONTINUOUS
10
42.1833
20
-206.568
11
42.3262
21
-206.853
0
LINE
8
BLACK
6
CONTINUOUS
10
42.3262
20
-206.853
11
42.3262
21
-208.425
0
LINE
8
BLACK
6
CONTINUOUS
10
48.1833
20
-205.282
11
45.6119
21
-209.139
0
LINE
8
BLACK
6
CONTINUOUS
10
52.0405
20
-205.425
11
52.3262
21
-205.425
0
LINE
8
BLACK
6
CONTINUOUS
10
52.3262
20
-205.425
11
52.6119
21
-205.568
0
LINE
8
BLACK
6
CONTINUOUS
10
52.6119
20
-205.568
11
52.7548
21
-205.71
0
LINE
8
BLACK
6
CONTINUOUS
10
52.7548
20
-205.71
11
52.8976
21
-205.996
0
LINE
8
BLACK
6
CONTINUOUS
10
52.8976
20
-205.996
11
53.0405
21
-206.568
0
LINE
8
BLACK
6
CONTINUOUS
10
53.0405
20
-206.568
11
53.0405
21
-207.282
0
LINE
8
BLACK
6
CONTINUOUS
10
53.0405
20
-207.282
11
52.8976
21
-207.853
0
LINE
8
BLACK
6
CONTINUOUS
10
52.8976
20
-207.853
11
52.7548
21
-208.139
0
LINE
8
BLACK
6
CONTINUOUS
10
52.7548
20
-208.139
11
52.6119
21
-208.282
0
LINE
8
BLACK
6
CONTINUOUS
10
52.6119
20
-208.282
11
52.3262
21
-208.425
0
LINE
8
BLACK
6
CONTINUOUS
10
52.3262
20
-208.425
11
52.0405
21
-208.425
0
LINE
8
BLACK
6
CONTINUOUS
10
52.0405
20
-208.425
11
51.7548
21
-208.282
0
LINE
8
BLACK
6
CONTINUOUS
10
51.7548
20
-208.282
11
51.6119
21
-208.139
0
LINE
8
BLACK
6
CONTINUOUS
10
51.6119
20
-208.139
11
51.469
21
-207.853
0
LINE
8
BLACK
6
CONTINUOUS
10
51.469
20
-207.853
11
51.3262
21
-207.282
0
LINE
8
BLACK
6
CONTINUOUS
10
51.3262
20
-207.282
11
51.3262
21
-206.568
0
LINE
8
BLACK
6
CONTINUOUS
10
51.3262
20
-206.568
11
51.469
21
-205.996
0
LINE
8
BLACK
6
CONTINUOUS
10
51.469
20
-205.996
11
51.6119
21
-205.71
0
LINE
8
BLACK
6
CONTINUOUS
10
51.6119
20
-205.71
11
51.7548
21
-205.568
0
LINE
8
BLACK
6
CONTINUOUS
10
51.7548
20
-205.568
11
52.0405
21
-205.425
0
LINE
8
BLACK
6
CONTINUOUS
10
54.3262
20
-208.139
11
54.469
21
-208.282
0
LINE
8
BLACK
6
CONTINUOUS
10
54.469
20
-208.282
11
54.3262
21
-208.425
0
LINE
8
BLACK
6
CONTINUOUS
10
54.3262
20
-208.425
11
54.1833
21
-208.282
0
LINE
8
BLACK
6
CONTINUOUS
10
54.1833
20
-208.282
11
54.3262
21
-208.139
0
LINE
8
BLACK
6
CONTINUOUS
10
54.3262
20
-208.139
11
54.3262
21
-208.425
0
LINE
8
BLACK
6
CONTINUOUS
10
57.3262
20
-208.425
11
55.6119
21
-208.425
0
LINE
8
BLACK
6
CONTINUOUS
10
56.469
20
-208.425
11
56.469
21
-205.425
0
LINE
8
BLACK
6
CONTINUOUS
10
56.469
20
-205.425
11
56.1833
21
-205.853
0
LINE
8
BLACK
6
CONTINUOUS
10
56.1833
20
-205.853
11
55.8976
21
-206.139
0
LINE
8
BLACK
6
CONTINUOUS
10
55.8976
20
-206.139
11
55.6119
21
-206.282
0
LINE
8
BLACK
6
CONTINUOUS
10
58.469
20
-205.71
11
58.6119
21
-205.568
0
LINE
8
BLACK
6
CONTINUOUS
10
58.6119
20
-205.568
11
58.8976
21
-205.425
0
LINE
8
BLACK
6
CONTINUOUS
10
58.8976
20
-205.425
11
59.6119
21
-205.425
0
LINE
8
BLACK
6
CONTINUOUS
10
59.6119
20
-205.425
11
59.8976
21
-205.568
0
LINE
8
BLACK
6
CONTINUOUS
10
59.8976
20
-205.568
11
60.0405
21
-205.71
0
LINE
8
BLACK
6
CONTINUOUS
10
60.0405
20
-205.71
11
60.1833
21
-205.996
0
LINE
8
BLACK
6
CONTINUOUS
10
60.1833
20
-205.996
11
60.1833
21
-206.282
0
LINE
8
BLACK
6
CONTINUOUS
10
60.1833
20
-206.282
11
60.0405
21
-206.71
0
LINE
8
BLACK
6
CONTINUOUS
10
60.0405
20
-206.71
11
58.3262
21
-208.425
0
LINE
8
BLACK
6
CONTINUOUS
10
58.3262
20
-208.425
11
60.1833
21
-208.425
0
LINE
8
BLACK
6
CONTINUOUS
10
62.0405
20
-205.425
11
62.3262
21
-205.425
0
LINE
8
BLACK
6
CONTINUOUS
10
62.3262
20
-205.425
11
62.6119
21
-205.568
0
LINE
8
BLACK
6
CONTINUOUS
10
62.6119
20
-205.568
11
62.7548
21
-205.71
0
LINE
8
BLACK
6
CONTINUOUS
10
62.7548
20
-205.71
11
62.8976
21
-205.996
0
LINE
8
BLACK
6
CONTINUOUS
10
62.8976
20
-205.996
11
63.0405
21
-206.568
0
LINE
8
BLACK
6
CONTINUOUS
10
63.0405
20
-206.568
11
63.0405
21
-207.282
0
LINE
8
BLACK
6
CONTINUOUS
10
63.0405
20
-207.282
11
62.8976
21
-207.853
0
LINE
8
BLACK
6
CONTINUOUS
10
62.8976
20
-207.853
11
62.7548
21
-208.139
0
LINE
8
BLACK
6
CONTINUOUS
10
62.7548
20
-208.139
11
62.6119
21
-208.282
0
LINE
8
BLACK
6
CONTINUOUS
10
62.6119
20
-208.282
11
62.3262
21
-208.425
0
LINE
8
BLACK
6
CONTINUOUS
10
62.3262
20
-208.425
11
62.0405
21
-208.425
0
LINE
8
BLACK
6
CONTINUOUS
10
62.0405
20
-208.425
11
61.7548
21
-208.282
0
LINE
8
BLACK
6
CONTINUOUS
10
61.7548
20
-208.282
11
61.6119
21
-208.139
0
LINE
8
BLACK
6
CONTINUOUS
10
61.6119
20
-208.139
11
61.469
21
-207.853
0
LINE
8
BLACK
6
CONTINUOUS
10
61.469
20
-207.853
11
61.3262
21
-207.282
0
LINE
8
BLACK
6
CONTINUOUS
10
61.3262
20
-207.282
11
61.3262
21
-206.568
0
LINE
8
BLACK
6
CONTINUOUS
10
61.3262
20
-206.568
11
61.469
21
-205.996
0
LINE
8
BLACK
6
CONTINUOUS
10
61.469
20
-205.996
11
61.6119
21
-205.71
0
LINE
8
BLACK
6
CONTINUOUS
10
61.6119
20
-205.71
11
61.7548
21
-205.568
0
LINE
8
BLACK
6
CONTINUOUS
10
61.7548
20
-205.568
11
62.0405
21
-205.425
0
LINE
8
BLACK
6
CONTINUOUS
10
64.1833
20
-205.425
11
64.1833
21
-205.996
0
LINE
8
BLACK
6
CONTINUOUS
10
65.3262
20
-205.425
11
65.3262
21
-205.996
0
LINE
8
BLACK
6
CONTINUOUS
10
69.7548
20
-209.568
11
69.6119
21
-209.425
0
LINE
8
BLACK
6
CONTINUOUS
10
69.6119
20
-209.425
11
69.3262
21
-208.996
0
LINE
8
BLACK
6
CONTINUOUS
10
69.3262
20
-208.996
11
69.1833
21
-208.71
0
LINE
8
BLACK
6
CONTINUOUS
10
69.1833
20
-208.71
11
69.0405
21
-208.282
0
LINE
8
BLACK
6
CONTINUOUS
10
69.0405
20
-208.282
11
68.8976
21
-207.568
0
LINE
8
BLACK
6
CONTINUOUS
10
68.8976
20
-207.568
11
68.8976
21
-206.996
0
LINE
8
BLACK
6
CONTINUOUS
10
68.8976
20
-206.996
11
69.0405
21
-206.282
0
LINE
8
BLACK
6
CONTINUOUS
10
69.0405
20
-206.282
11
69.1833
21
-205.853
0
LINE
8
BLACK
6
CONTINUOUS
10
69.1833
20
-205.853
11
69.3262
21
-205.568
0
LINE
8
BLACK
6
CONTINUOUS
10
69.3262
20
-205.568
11
69.6119
21
-205.139
0
LINE
8
BLACK
6
CONTINUOUS
10
69.6119
20
-205.139
11
69.7548
21
-204.996
0
LINE
8
BLACK
6
CONTINUOUS
10
70.7548
20
-205.71
11
70.8976
21
-205.568
0
LINE
8
BLACK
6
CONTINUOUS
10
70.8976
20
-205.568
11
71.1833
21
-205.425
0
LINE
8
BLACK
6
CONTINUOUS
10
71.1833
20
-205.425
11
71.8976
21
-205.425
0
LINE
8
BLACK
6
CONTINUOUS
10
71.8976
20
-205.425
11
72.1833
21
-205.568
0
LINE
8
BLACK
6
CONTINUOUS
10
72.1833
20
-205.568
11
72.3262
21
-205.71
0
LINE
8
BLACK
6
CONTINUOUS
10
72.3262
20
-205.71
11
72.469
21
-205.996
0
LINE
8
BLACK
6
CONTINUOUS
10
72.469
20
-205.996
11
72.469
21
-206.282
0
LINE
8
BLACK
6
CONTINUOUS
10
72.469
20
-206.282
11
72.3262
21
-206.71
0
LINE
8
BLACK
6
CONTINUOUS
10
72.3262
20
-206.71
11
70.6119
21
-208.425
0
LINE
8
BLACK
6
CONTINUOUS
10
70.6119
20
-208.425
11
72.469
21
-208.425
0
LINE
8
BLACK
6
CONTINUOUS
10
76.0405
20
-208.425
11
76.0405
21
-205.425
0
LINE
8
BLACK
6
CONTINUOUS
10
77.3262
20
-208.425
11
77.3262
21
-206.853
0
LINE
8
BLACK
6
CONTINUOUS
10
77.3262
20
-206.853
11
77.1833
21
-206.568
0
LINE
8
BLACK
6
CONTINUOUS
10
77.1833
20
-206.568
11
76.8976
21
-206.425
0
LINE
8
BLACK
6
CONTINUOUS
10
76.8976
20
-206.425
11
76.469
21
-206.425
0
LINE
8
BLACK
6
CONTINUOUS
10
76.469
20
-206.425
11
76.1833
21
-206.568
0
LINE
8
BLACK
6
CONTINUOUS
10
76.1833
20
-206.568
11
76.0405
21
-206.71
0
LINE
8
BLACK
6
CONTINUOUS
10
79.1833
20
-208.425
11
78.8976
21
-208.282
0
LINE
8
BLACK
6
CONTINUOUS
10
78.8976
20
-208.282
11
78.7548
21
-208.139
0
LINE
8
BLACK
6
CONTINUOUS
10
78.7548
20
-208.139
11
78.6119
21
-207.853
0
LINE
8
BLACK
6
CONTINUOUS
10
78.6119
20
-207.853
11
78.6119
21
-206.996
0
LINE
8
BLACK
6
CONTINUOUS
10
78.6119
20
-206.996
11
78.7548
21
-206.71
0
LINE
8
BLACK
6
CONTINUOUS
10
78.7548
20
-206.71
11
78.8976
21
-206.568
0
LINE
8
BLACK
6
CONTINUOUS
10
78.8976
20
-206.568
11
79.1833
21
-206.425
0
LINE
8
BLACK
6
CONTINUOUS
10
79.1833
20
-206.425
11
79.6119
21
-206.425
0
LINE
8
BLACK
6
CONTINUOUS
10
79.6119
20
-206.425
11
79.8976
21
-206.568
0
LINE
8
BLACK
6
CONTINUOUS
10
79.8976
20
-206.568
11
80.0405
21
-206.71
0
LINE
8
BLACK
6
CONTINUOUS
10
80.0405
20
-206.71
11
80.1833
21
-206.996
0
LINE
8
BLACK
6
CONTINUOUS
10
80.1833
20
-206.996
11
80.1833
21
-207.853
0
LINE
8
BLACK
6
CONTINUOUS
10
80.1833
20
-207.853
11
80.0405
21
-208.139
0
LINE
8
BLACK
6
CONTINUOUS
10
80.0405
20
-208.139
11
79.8976
21
-208.282
0
LINE
8
BLACK
6
CONTINUOUS
10
79.8976
20
-208.282
11
79.6119
21
-208.425
0
LINE
8
BLACK
6
CONTINUOUS
10
79.6119
20
-208.425
11
79.1833
21
-208.425
0
LINE
8
BLACK
6
CONTINUOUS
10
81.8976
20
-208.425
11
81.6119
21
-208.282
0
LINE
8
BLACK
6
CONTINUOUS
10
81.6119
20
-208.282
11
81.469
21
-207.996
0
LINE
8
BLACK
6
CONTINUOUS
10
81.469
20
-207.996
11
81.469
21
-205.425
0
LINE
8
BLACK
6
CONTINUOUS
10
84.1833
20
-208.282
11
83.8976
21
-208.425
0
LINE
8
BLACK
6
CONTINUOUS
10
83.8976
20
-208.425
11
83.3262
21
-208.425
0
LINE
8
BLACK
6
CONTINUOUS
10
83.3262
20
-208.425
11
83.0405
21
-208.282
0
LINE
8
BLACK
6
CONTINUOUS
10
83.0405
20
-208.282
11
82.8976
21
-207.996
0
LINE
8
BLACK
6
CONTINUOUS
10
82.8976
20
-207.996
11
82.8976
21
-206.853
0
LINE
8
BLACK
6
CONTINUOUS
10
82.8976
20
-206.853
11
83.0405
21
-206.568
0
LINE
8
BLACK
6
CONTINUOUS
10
83.0405
20
-206.568
11
83.3262
21
-206.425
0
LINE
8
BLACK
6
CONTINUOUS
10
83.3262
20
-206.425
11
83.8976
21
-206.425
0
LINE
8
BLACK
6
CONTINUOUS
10
83.8976
20
-206.425
11
84.1833
21
-206.568
0
LINE
8
BLACK
6
CONTINUOUS
10
84.1833
20
-206.568
11
84.3262
21
-206.853
0
LINE
8
BLACK
6
CONTINUOUS
10
84.3262
20
-206.853
11
84.3262
21
-207.139
0
LINE
8
BLACK
6
CONTINUOUS
10
84.3262
20
-207.139
11
82.8976
21
-207.425
0
LINE
8
BLACK
6
CONTINUOUS
10
85.469
20
-208.282
11
85.7548
21
-208.425
0
LINE
8
BLACK
6
CONTINUOUS
10
85.7548
20
-208.425
11
86.3262
21
-208.425
0
LINE
8
BLACK
6
CONTINUOUS
10
86.3262
20
-208.425
11
86.6119
21
-208.282
0
LINE
8
BLACK
6
CONTINUOUS
10
86.6119
20
-208.282
11
86.7548
21
-207.996
0
LINE
8
BLACK
6
CONTINUOUS
10
86.7548
20
-207.996
11
86.7548
21
-207.853
0
LINE
8
BLACK
6
CONTINUOUS
10
86.7548
20
-207.853
11
86.6119
21
-207.568
0
LINE
8
BLACK
6
CONTINUOUS
10
86.6119
20
-207.568
11
86.3262
21
-207.425
0
LINE
8
BLACK
6
CONTINUOUS
10
86.3262
20
-207.425
11
85.8976
21
-207.425
0
LINE
8
BLACK
6
CONTINUOUS
10
85.8976
20
-207.425
11
85.6119
21
-207.282
0
LINE
8
BLACK
6
CONTINUOUS
10
85.6119
20
-207.282
11
85.469
21
-206.996
0
LINE
8
BLACK
6
CONTINUOUS
10
85.469
20
-206.996
11
85.469
21
-206.853
0
LINE
8
BLACK
6
CONTINUOUS
10
85.469
20
-206.853
11
85.6119
21
-206.568
0
LINE
8
BLACK
6
CONTINUOUS
10
85.6119
20
-206.568
11
85.8976
21
-206.425
0
LINE
8
BLACK
6
CONTINUOUS
10
85.8976
20
-206.425
11
86.3262
21
-206.425
0
LINE
8
BLACK
6
CONTINUOUS
10
86.3262
20
-206.425
11
86.6119
21
-206.568
0
LINE
8
BLACK
6
CONTINUOUS
10
87.7548
20
-209.568
11
87.8976
21
-209.425
0
LINE
8
BLACK
6
CONTINUOUS
10
87.8976
20
-209.425
11
88.1833
21
-208.996
0
LINE
8
BLACK
6
CONTINUOUS
10
88.1833
20
-208.996
11
88.3262
21
-208.71
0
LINE
8
BLACK
6
CONTINUOUS
10
88.3262
20
-208.71
11
88.469
21
-208.282
0
LINE
8
BLACK
6
CONTINUOUS
10
88.469
20
-208.282
11
88.6119
21
-207.568
0
LINE
8
BLACK
6
CONTINUOUS
10
88.6119
20
-207.568
11
88.6119
21
-206.996
0
LINE
8
BLACK
6
CONTINUOUS
10
88.6119
20
-206.996
11
88.469
21
-206.282
0
LINE
8
BLACK
6
CONTINUOUS
10
88.469
20
-206.282
11
88.3262
21
-205.853
0
LINE
8
BLACK
6
CONTINUOUS
10
88.3262
20
-205.853
11
88.1833
21
-205.568
0
LINE
8
BLACK
6
CONTINUOUS
10
88.1833
20
-205.568
11
87.8976
21
-205.139
0
LINE
8
BLACK
6
CONTINUOUS
10
87.8976
20
-205.139
11
87.7548
21
-204.996
0
LINE
8
BLACK
6
CONTINUOUS
10
93.1833
20
-209.568
11
93.0405
21
-209.425
0
LINE
8
BLACK
6
CONTINUOUS
10
93.0405
20
-209.425
11
92.7548
21
-208.996
0
LINE
8
BLACK
6
CONTINUOUS
10
92.7548
20
-208.996
11
92.6119
21
-208.71
0
LINE
8
BLACK
6
CONTINUOUS
10
92.6119
20
-208.71
11
92.469
21
-208.282
0
LINE
8
BLACK
6
CONTINUOUS
10
92.469
20
-208.282
11
92.3262
21
-207.568
0
LINE
8
BLACK
6
CONTINUOUS
10
92.3262
20
-207.568
11
92.3262
21
-206.996
0
LINE
8
BLACK
6
CONTINUOUS
10
92.3262
20
-206.996
11
92.469
21
-206.282
0
LINE
8
BLACK
6
CONTINUOUS
10
92.469
20
-206.282
11
92.6119
21
-205.853
0
LINE
8
BLACK
6
CONTINUOUS
10
92.6119
20
-205.853
11
92.7548
21
-205.568
0
LINE
8
BLACK
6
CONTINUOUS
10
92.7548
20
-205.568
11
93.0405
21
-205.139
0
LINE
8
BLACK
6
CONTINUOUS
10
93.0405
20
-205.139
11
93.1833
21
-204.996
0
LINE
8
BLACK
6
CONTINUOUS
10
94.3262
20
-206.425
11
94.3262
21
-208.425
0
LINE
8
BLACK
6
CONTINUOUS
10
94.3262
20
-206.71
11
94.469
21
-206.568
0
LINE
8
BLACK
6
CONTINUOUS
10
94.469
20
-206.568
11
94.7548
21
-206.425
0
LINE
8
BLACK
6
CONTINUOUS
10
94.7548
20
-206.425
11
95.1833
21
-206.425
0
LINE
8
BLACK
6
CONTINUOUS
10
95.1833
20
-206.425
11
95.469
21
-206.568
0
LINE
8
BLACK
6
CONTINUOUS
10
95.469
20
-206.568
11
95.6119
21
-206.853
0
LINE
8
BLACK
6
CONTINUOUS
10
95.6119
20
-206.853
11
95.6119
21
-208.425
0
LINE
8
BLACK
6
CONTINUOUS
10
97.469
20
-208.425
11
97.1833
21
-208.282
0
LINE
8
BLACK
6
CONTINUOUS
10
97.1833
20
-208.282
11
97.0405
21
-208.139
0
LINE
8
BLACK
6
CONTINUOUS
10
97.0405
20
-208.139
11
96.8976
21
-207.853
0
LINE
8
BLACK
6
CONTINUOUS
10
96.8976
20
-207.853
11
96.8976
21
-206.996
0
LINE
8
BLACK
6
CONTINUOUS
10
96.8976
20
-206.996
11
97.0405
21
-206.71
0
LINE
8
BLACK
6
CONTINUOUS
10
97.0405
20
-206.71
11
97.1833
21
-206.568
0
LINE
8
BLACK
6
CONTINUOUS
10
97.1833
20
-206.568
11
97.469
21
-206.425
0
LINE
8
BLACK
6
CONTINUOUS
10
97.469
20
-206.425
11
97.8976
21
-206.425
0
LINE
8
BLACK
6
CONTINUOUS
10
97.8976
20
-206.425
11
98.1833
21
-206.568
0
LINE
8
BLACK
6
CONTINUOUS
10
98.1833
20
-206.568
11
98.3262
21
-206.71
0
LINE
8
BLACK
6
CONTINUOUS
10
98.3262
20
-206.71
11
98.469
21
-206.996
0
LINE
8
BLACK
6
CONTINUOUS
10
98.469
20
-206.996
11
98.469
21
-207.853
0
LINE
8
BLACK
6
CONTINUOUS
10
98.469
20
-207.853
11
98.3262
21
-208.139
0
LINE
8
BLACK
6
CONTINUOUS
10
98.3262
20
-208.139
11
98.1833
21
-208.282
0
LINE
8
BLACK
6
CONTINUOUS
10
98.1833
20
-208.282
11
97.8976
21
-208.425
0
LINE
8
BLACK
6
CONTINUOUS
10
97.8976
20
-208.425
11
97.469
21
-208.425
0
LINE
8
BLACK
6
CONTINUOUS
10
99.3262
20
-206.425
11
100.469
21
-206.425
0
LINE
8
BLACK
6
CONTINUOUS
10
99.7548
20
-205.425
11
99.7548
21
-207.996
0
LINE
8
BLACK
6
CONTINUOUS
10
99.7548
20
-207.996
11
99.8976
21
-208.282
0
LINE
8
BLACK
6
CONTINUOUS
10
99.8976
20
-208.282
11
100.183
21
-208.425
0
LINE
8
BLACK
6
CONTINUOUS
10
100.183
20
-208.425
11
100.469
21
-208.425
0
LINE
8
BLACK
6
CONTINUOUS
10
103.755
20
-206.425
11
103.755
21
-209.425
0
LINE
8
BLACK
6
CONTINUOUS
10
103.755
20
-206.568
11
104.04
21
-206.425
0
LINE
8
BLACK
6
CONTINUOUS
10
104.04
20
-206.425
11
104.612
21
-206.425
0
LINE
8
BLACK
6
CONTINUOUS
10
104.612
20
-206.425
11
104.898
21
-206.568
0
LINE
8
BLACK
6
CONTINUOUS
10
104.898
20
-206.568
11
105.04
21
-206.71
0
LINE
8
BLACK
6
CONTINUOUS
10
105.04
20
-206.71
11
105.183
21
-206.996
0
LINE
8
BLACK
6
CONTINUOUS
10
105.183
20
-206.996
11
105.183
21
-207.853
0
LINE
8
BLACK
6
CONTINUOUS
10
105.183
20
-207.853
11
105.04
21
-208.139
0
LINE
8
BLACK
6
CONTINUOUS
10
105.04
20
-208.139
11
104.898
21
-208.282
0
LINE
8
BLACK
6
CONTINUOUS
10
104.898
20
-208.282
11
104.612
21
-208.425
0
LINE
8
BLACK
6
CONTINUOUS
10
104.612
20
-208.425
11
104.04
21
-208.425
0
LINE
8
BLACK
6
CONTINUOUS
10
104.04
20
-208.425
11
103.755
21
-208.282
0
LINE
8
BLACK
6
CONTINUOUS
10
106.898
20
-208.425
11
106.612
21
-208.282
0
LINE
8
BLACK
6
CONTINUOUS
10
106.612
20
-208.282
11
106.469
21
-207.996
0
LINE
8
BLACK
6
CONTINUOUS
10
106.469
20
-207.996
11
106.469
21
-205.425
0
LINE
8
BLACK
6
CONTINUOUS
10
109.326
20
-208.425
11
109.326
21
-206.853
0
LINE
8
BLACK
6
CONTINUOUS
10
109.326
20
-206.853
11
109.183
21
-206.568
0
LINE
8
BLACK
6
CONTINUOUS
10
109.183
20
-206.568
11
108.898
21
-206.425
0
LINE
8
BLACK
6
CONTINUOUS
10
108.898
20
-206.425
11
108.326
21
-206.425
0
LINE
8
BLACK
6
CONTINUOUS
10
108.326
20
-206.425
11
108.04
21
-206.568
0
LINE
8
BLACK
6
CONTINUOUS
10
109.326
20
-208.282
11
109.04
21
-208.425
0
LINE
8
BLACK
6
CONTINUOUS
10
109.04
20
-208.425
11
108.326
21
-208.425
0
LINE
8
BLACK
6
CONTINUOUS
10
108.326
20
-208.425
11
108.04
21
-208.282
0
LINE
8
BLACK
6
CONTINUOUS
10
108.04
20
-208.282
11
107.898
21
-207.996
0
LINE
8
BLACK
6
CONTINUOUS
10
107.898
20
-207.996
11
107.898
21
-207.71
0
LINE
8
BLACK
6
CONTINUOUS
10
107.898
20
-207.71
11
108.04
21
-207.425
0
LINE
8
BLACK
6
CONTINUOUS
10
108.04
20
-207.425
11
108.326
21
-207.282
0
LINE
8
BLACK
6
CONTINUOUS
10
108.326
20
-207.282
11
109.04
21
-207.282
0
LINE
8
BLACK
6
CONTINUOUS
10
109.04
20
-207.282
11
109.326
21
-207.139
0
LINE
8
BLACK
6
CONTINUOUS
10
110.326
20
-206.425
11
111.469
21
-206.425
0
LINE
8
BLACK
6
CONTINUOUS
10
110.755
20
-205.425
11
110.755
21
-207.996
0
LINE
8
BLACK
6
CONTINUOUS
10
110.755
20
-207.996
11
110.898
21
-208.282
0
LINE
8
BLACK
6
CONTINUOUS
10
110.898
20
-208.282
11
111.183
21
-208.425
0
LINE
8
BLACK
6
CONTINUOUS
10
111.183
20
-208.425
11
111.469
21
-208.425
0
LINE
8
BLACK
6
CONTINUOUS
10
113.612
20
-208.282
11
113.326
21
-208.425
0
LINE
8
BLACK
6
CONTINUOUS
10
113.326
20
-208.425
11
112.755
21
-208.425
0
LINE
8
BLACK
6
CONTINUOUS
10
112.755
20
-208.425
11
112.469
21
-208.282
0
LINE
8
BLACK
6
CONTINUOUS
10
112.469
20
-208.282
11
112.326
21
-207.996
0
LINE
8
BLACK
6
CONTINUOUS
10
112.326
20
-207.996
11
112.326
21
-206.853
0
LINE
8
BLACK
6
CONTINUOUS
10
112.326
20
-206.853
11
112.469
21
-206.568
0
LINE
8
BLACK
6
CONTINUOUS
10
112.469
20
-206.568
11
112.755
21
-206.425
0
LINE
8
BLACK
6
CONTINUOUS
10
112.755
20
-206.425
11
113.326
21
-206.425
0
LINE
8
BLACK
6
CONTINUOUS
10
113.326
20
-206.425
11
113.612
21
-206.568
0
LINE
8
BLACK
6
CONTINUOUS
10
113.612
20
-206.568
11
113.755
21
-206.853
0
LINE
8
BLACK
6
CONTINUOUS
10
113.755
20
-206.853
11
113.755
21
-207.139
0
LINE
8
BLACK
6
CONTINUOUS
10
113.755
20
-207.139
11
112.326
21
-207.425
0
LINE
8
BLACK
6
CONTINUOUS
10
116.326
20
-208.425
11
116.326
21
-205.425
0
LINE
8
BLACK
6
CONTINUOUS
10
116.326
20
-208.282
11
116.04
21
-208.425
0
LINE
8
BLACK
6
CONTINUOUS
10
116.04
20
-208.425
11
115.469
21
-208.425
0
LINE
8
BLACK
6
CONTINUOUS
10
115.469
20
-208.425
11
115.183
21
-208.282
0
LINE
8
BLACK
6
CONTINUOUS
10
115.183
20
-208.282
11
115.04
21
-208.139
0
LINE
8
BLACK
6
CONTINUOUS
10
115.04
20
-208.139
11
114.898
21
-207.853
0
LINE
8
BLACK
6
CONTINUOUS
10
114.898
20
-207.853
11
114.898
21
-206.996
0
LINE
8
BLACK
6
CONTINUOUS
10
114.898
20
-206.996
11
115.04
21
-206.71
0
LINE
8
BLACK
6
CONTINUOUS
10
115.04
20
-206.71
11
115.183
21
-206.568
0
LINE
8
BLACK
6
CONTINUOUS
10
115.183
20
-206.568
11
115.469
21
-206.425
0
LINE
8
BLACK
6
CONTINUOUS
10
115.469
20
-206.425
11
116.04
21
-206.425
0
LINE
8
BLACK
6
CONTINUOUS
10
116.04
20
-206.425
11
116.326
21
-206.568
0
LINE
8
BLACK
6
CONTINUOUS
10
117.469
20
-209.568
11
117.612
21
-209.425
0
LINE
8
BLACK
6
CONTINUOUS
10
117.612
20
-209.425
11
117.898
21
-208.996
0
LINE
8
BLACK
6
CONTINUOUS
10
117.898
20
-208.996
11
118.04
21
-208.71
0
LINE
8
BLACK
6
CONTINUOUS
10
118.04
20
-208.71
11
118.183
21
-208.282
0
LINE
8
BLACK
6
CONTINUOUS
10
118.183
20
-208.282
11
118.326
21
-207.568
0
LINE
8
BLACK
6
CONTINUOUS
10
118.326
20
-207.568
11
118.326
21
-206.996
0
LINE
8
BLACK
6
CONTINUOUS
10
118.326
20
-206.996
11
118.183
21
-206.282
0
LINE
8
BLACK
6
CONTINUOUS
10
118.183
20
-206.282
11
118.04
21
-205.853
0
LINE
8
BLACK
6
CONTINUOUS
10
118.04
20
-205.853
11
117.898
21
-205.568
0
LINE
8
BLACK
6
CONTINUOUS
10
117.898
20
-205.568
11
117.612
21
-205.139
0
LINE
8
BLACK
6
CONTINUOUS
10
117.612
20
-205.139
11
117.469
21
-204.996
0
LINE
8
BLACK
6
CONTINUOUS
10
22.4072
20
-212.582
11
22.4072
21
-210.249
0
LINE
8
BLACK
6
CONTINUOUS
10
22.4072
20
-210.249
11
20.0737
21
-210.249
0
LINE
8
BLACK
6
CONTINUOUS
10
20.0737
20
-210.249
11
20.0737
21
-212.582
0
LINE
8
BLACK
6
CONTINUOUS
10
20.0737
20
-212.582
11
22.4072
21
-212.582
0
LINE
8
BLACK
6
CONTINUOUS
10
25.469
20
-209.773
11
27.3262
21
-209.773
0
LINE
8
BLACK
6
CONTINUOUS
10
27.3262
20
-209.773
11
26.3262
21
-210.916
0
LINE
8
BLACK
6
CONTINUOUS
10
26.3262
20
-210.916
11
26.7548
21
-210.916
0
LINE
8
BLACK
6
CONTINUOUS
10
26.7548
20
-210.916
11
27.0405
21
-211.058
0
LINE
8
BLACK
6
CONTINUOUS
10
27.0405
20
-211.058
11
27.1833
21
-211.201
0
LINE
8
BLACK
6
CONTINUOUS
10
27.1833
20
-211.201
11
27.3262
21
-211.487
0
LINE
8
BLACK
6
CONTINUOUS
10
27.3262
20
-211.487
11
27.3262
21
-212.201
0
LINE
8
BLACK
6
CONTINUOUS
10
27.3262
20
-212.201
11
27.1833
21
-212.487
0
LINE
8
BLACK
6
CONTINUOUS
10
27.1833
20
-212.487
11
27.0405
21
-212.63
0
LINE
8
BLACK
6
CONTINUOUS
10
27.0405
20
-212.63
11
26.7548
21
-212.773
0
LINE
8
BLACK
6
CONTINUOUS
10
26.7548
20
-212.773
11
25.8976
21
-212.773
0
LINE
8
BLACK
6
CONTINUOUS
10
25.8976
20
-212.773
11
25.6119
21
-212.63
0
LINE
8
BLACK
6
CONTINUOUS
10
25.6119
20
-212.63
11
25.469
21
-212.487
0
LINE
8
BLACK
6
CONTINUOUS
10
28.6119
20
-212.487
11
28.7548
21
-212.63
0
LINE
8
BLACK
6
CONTINUOUS
10
28.7548
20
-212.63
11
28.6119
21
-212.773
0
LINE
8
BLACK
6
CONTINUOUS
10
28.6119
20
-212.773
11
28.469
21
-212.63
0
LINE
8
BLACK
6
CONTINUOUS
10
28.469
20
-212.63
11
28.6119
21
-212.487
0
LINE
8
BLACK
6
CONTINUOUS
10
28.6119
20
-212.487
11
28.6119
21
-212.773
0
LINE
8
BLACK
6
CONTINUOUS
10
29.7548
20
-209.773
11
31.6119
21
-209.773
0
LINE
8
BLACK
6
CONTINUOUS
10
31.6119
20
-209.773
11
30.6119
21
-210.916
0
LINE
8
BLACK
6
CONTINUOUS
10
30.6119
20
-210.916
11
31.0405
21
-210.916
0
LINE
8
BLACK
6
CONTINUOUS
10
31.0405
20
-210.916
11
31.3262
21
-211.058
0
LINE
8
BLACK
6
CONTINUOUS
10
31.3262
20
-211.058
11
31.469
21
-211.201
0
LINE
8
BLACK
6
CONTINUOUS
10
31.469
20
-211.201
11
31.6119
21
-211.487
0
LINE
8
BLACK
6
CONTINUOUS
10
31.6119
20
-211.487
11
31.6119
21
-212.201
0
LINE
8
BLACK
6
CONTINUOUS
10
31.6119
20
-212.201
11
31.469
21
-212.487
0
LINE
8
BLACK
6
CONTINUOUS
10
31.469
20
-212.487
11
31.3262
21
-212.63
0
LINE
8
BLACK
6
CONTINUOUS
10
31.3262
20
-212.63
11
31.0405
21
-212.773
0
LINE
8
BLACK
6
CONTINUOUS
10
31.0405
20
-212.773
11
30.1833
21
-212.773
0
LINE
8
BLACK
6
CONTINUOUS
10
30.1833
20
-212.773
11
29.8976
21
-212.63
0
LINE
8
BLACK
6
CONTINUOUS
10
29.8976
20
-212.63
11
29.7548
21
-212.487
0
LINE
8
BLACK
6
CONTINUOUS
10
33.469
20
-209.773
11
33.7548
21
-209.773
0
LINE
8
BLACK
6
CONTINUOUS
10
33.7548
20
-209.773
11
34.0405
21
-209.916
0
LINE
8
BLACK
6
CONTINUOUS
10
34.0405
20
-209.916
11
34.1833
21
-210.058
0
LINE
8
BLACK
6
CONTINUOUS
10
34.1833
20
-210.058
11
34.3262
21
-210.344
0
LINE
8
BLACK
6
CONTINUOUS
10
34.3262
20
-210.344
11
34.469
21
-210.916
0
LINE
8
BLACK
6
CONTINUOUS
10
34.469
20
-210.916
11
34.469
21
-211.63
0
LINE
8
BLACK
6
CONTINUOUS
10
34.469
20
-211.63
11
34.3262
21
-212.201
0
LINE
8
BLACK
6
CONTINUOUS
10
34.3262
20
-212.201
11
34.1833
21
-212.487
0
LINE
8
BLACK
6
CONTINUOUS
10
34.1833
20
-212.487
11
34.0405
21
-212.63
0
LINE
8
BLACK
6
CONTINUOUS
10
34.0405
20
-212.63
11
33.7548
21
-212.773
0
LINE
8
BLACK
6
CONTINUOUS
10
33.7548
20
-212.773
11
33.469
21
-212.773
0
LINE
8
BLACK
6
CONTINUOUS
10
33.469
20
-212.773
11
33.1833
21
-212.63
0
LINE
8
BLACK
6
CONTINUOUS
10
33.1833
20
-212.63
11
33.0405
21
-212.487
0
LINE
8
BLACK
6
CONTINUOUS
10
33.0405
20
-212.487
11
32.8976
21
-212.201
0
LINE
8
BLACK
6
CONTINUOUS
10
32.8976
20
-212.201
11
32.7548
21
-211.63
0
LINE
8
BLACK
6
CONTINUOUS
10
32.7548
20
-211.63
11
32.7548
21
-210.916
0
LINE
8
BLACK
6
CONTINUOUS
10
32.7548
20
-210.916
11
32.8976
21
-210.344
0
LINE
8
BLACK
6
CONTINUOUS
10
32.8976
20
-210.344
11
33.0405
21
-210.058
0
LINE
8
BLACK
6
CONTINUOUS
10
33.0405
20
-210.058
11
33.1833
21
-209.916
0
LINE
8
BLACK
6
CONTINUOUS
10
33.1833
20
-209.916
11
33.469
21
-209.773
0
LINE
8
BLACK
6
CONTINUOUS
10
35.7548
20
-212.773
11
35.7548
21
-210.773
0
LINE
8
BLACK
6
CONTINUOUS
10
35.7548
20
-211.058
11
35.8976
21
-210.916
0
LINE
8
BLACK
6
CONTINUOUS
10
35.8976
20
-210.916
11
36.1833
21
-210.773
0
LINE
8
BLACK
6
CONTINUOUS
10
36.1833
20
-210.773
11
36.6119
21
-210.773
0
LINE
8
BLACK
6
CONTINUOUS
10
36.6119
20
-210.773
11
36.8976
21
-210.916
0
LINE
8
BLACK
6
CONTINUOUS
10
36.8976
20
-210.916
11
37.0405
21
-211.201
0
LINE
8
BLACK
6
CONTINUOUS
10
37.0405
20
-211.201
11
37.0405
21
-212.773
0
LINE
8
BLACK
6
CONTINUOUS
10
37.0405
20
-211.201
11
37.1833
21
-210.916
0
LINE
8
BLACK
6
CONTINUOUS
10
37.1833
20
-210.916
11
37.469
21
-210.773
0
LINE
8
BLACK
6
CONTINUOUS
10
37.469
20
-210.773
11
37.8976
21
-210.773
0
LINE
8
BLACK
6
CONTINUOUS
10
37.8976
20
-210.773
11
38.1833
21
-210.916
0
LINE
8
BLACK
6
CONTINUOUS
10
38.1833
20
-210.916
11
38.3262
21
-211.201
0
LINE
8
BLACK
6
CONTINUOUS
10
38.3262
20
-211.201
11
38.3262
21
-212.773
0
LINE
8
BLACK
6
CONTINUOUS
10
39.7548
20
-212.773
11
39.7548
21
-210.773
0
LINE
8
BLACK
6
CONTINUOUS
10
39.7548
20
-211.058
11
39.8976
21
-210.916
0
LINE
8
BLACK
6
CONTINUOUS
10
39.8976
20
-210.916
11
40.1833
21
-210.773
0
LINE
8
BLACK
6
CONTINUOUS
10
40.1833
20
-210.773
11
40.6119
21
-210.773
0
LINE
8
BLACK
6
CONTINUOUS
10
40.6119
20
-210.773
11
40.8976
21
-210.916
0
LINE
8
BLACK
6
CONTINUOUS
10
40.8976
20
-210.916
11
41.0405
21
-211.201
0
LINE
8
BLACK
6
CONTINUOUS
10
41.0405
20
-211.201
11
41.0405
21
-212.773
0
LINE
8
BLACK
6
CONTINUOUS
10
41.0405
20
-211.201
11
41.1833
21
-210.916
0
LINE
8
BLACK
6
CONTINUOUS
10
41.1833
20
-210.916
11
41.469
21
-210.773
0
LINE
8
BLACK
6
CONTINUOUS
10
41.469
20
-210.773
11
41.8976
21
-210.773
0
LINE
8
BLACK
6
CONTINUOUS
10
41.8976
20
-210.773
11
42.1833
21
-210.916
0
LINE
8
BLACK
6
CONTINUOUS
10
42.1833
20
-210.916
11
42.3262
21
-211.201
0
LINE
8
BLACK
6
CONTINUOUS
10
42.3262
20
-211.201
11
42.3262
21
-212.773
0
LINE
8
BLACK
6
CONTINUOUS
10
48.1833
20
-209.63
11
45.6119
21
-213.487
0
LINE
8
BLACK
6
CONTINUOUS
10
52.0405
20
-209.773
11
52.3262
21
-209.773
0
LINE
8
BLACK
6
CONTINUOUS
10
52.3262
20
-209.773
11
52.6119
21
-209.916
0
LINE
8
BLACK
6
CONTINUOUS
10
52.6119
20
-209.916
11
52.7548
21
-210.058
0
LINE
8
BLACK
6
CONTINUOUS
10
52.7548
20
-210.058
11
52.8976
21
-210.344
0
LINE
8
BLACK
6
CONTINUOUS
10
52.8976
20
-210.344
11
53.0405
21
-210.916
0
LINE
8
BLACK
6
CONTINUOUS
10
53.0405
20
-210.916
11
53.0405
21
-211.63
0
LINE
8
BLACK
6
CONTINUOUS
10
53.0405
20
-211.63
11
52.8976
21
-212.201
0
LINE
8
BLACK
6
CONTINUOUS
10
52.8976
20
-212.201
11
52.7548
21
-212.487
0
LINE
8
BLACK
6
CONTINUOUS
10
52.7548
20
-212.487
11
52.6119
21
-212.63
0
LINE
8
BLACK
6
CONTINUOUS
10
52.6119
20
-212.63
11
52.3262
21
-212.773
0
LINE
8
BLACK
6
CONTINUOUS
10
52.3262
20
-212.773
11
52.0405
21
-212.773
0
LINE
8
BLACK
6
CONTINUOUS
10
52.0405
20
-212.773
11
51.7548
21
-212.63
0
LINE
8
BLACK
6
CONTINUOUS
10
51.7548
20
-212.63
11
51.6119
21
-212.487
0
LINE
8
BLACK
6
CONTINUOUS
10
51.6119
20
-212.487
11
51.469
21
-212.201
0
LINE
8
BLACK
6
CONTINUOUS
10
51.469
20
-212.201
11
51.3262
21
-211.63
0
LINE
8
BLACK
6
CONTINUOUS
10
51.3262
20
-211.63
11
51.3262
21
-210.916
0
LINE
8
BLACK
6
CONTINUOUS
10
51.3262
20
-210.916
11
51.469
21
-210.344
0
LINE
8
BLACK
6
CONTINUOUS
10
51.469
20
-210.344
11
51.6119
21
-210.058
0
LINE
8
BLACK
6
CONTINUOUS
10
51.6119
20
-210.058
11
51.7548
21
-209.916
0
LINE
8
BLACK
6
CONTINUOUS
10
51.7548
20
-209.916
11
52.0405
21
-209.773
0
LINE
8
BLACK
6
CONTINUOUS
10
54.3262
20
-212.487
11
54.469
21
-212.63
0
LINE
8
BLACK
6
CONTINUOUS
10
54.469
20
-212.63
11
54.3262
21
-212.773
0
LINE
8
BLACK
6
CONTINUOUS
10
54.3262
20
-212.773
11
54.1833
21
-212.63
0
LINE
8
BLACK
6
CONTINUOUS
10
54.1833
20
-212.63
11
54.3262
21
-212.487
0
LINE
8
BLACK
6
CONTINUOUS
10
54.3262
20
-212.487
11
54.3262
21
-212.773
0
LINE
8
BLACK
6
CONTINUOUS
10
57.3262
20
-212.773
11
55.6119
21
-212.773
0
LINE
8
BLACK
6
CONTINUOUS
10
56.469
20
-212.773
11
56.469
21
-209.773
0
LINE
8
BLACK
6
CONTINUOUS
10
56.469
20
-209.773
11
56.1833
21
-210.201
0
LINE
8
BLACK
6
CONTINUOUS
10
56.1833
20
-210.201
11
55.8976
21
-210.487
0
LINE
8
BLACK
6
CONTINUOUS
10
55.8976
20
-210.487
11
55.6119
21
-210.63
0
LINE
8
BLACK
6
CONTINUOUS
10
58.3262
20
-209.773
11
60.1833
21
-209.773
0
LINE
8
BLACK
6
CONTINUOUS
10
60.1833
20
-209.773
11
59.1833
21
-210.916
0
LINE
8
BLACK
6
CONTINUOUS
10
59.1833
20
-210.916
11
59.6119
21
-210.916
0
LINE
8
BLACK
6
CONTINUOUS
10
59.6119
20
-210.916
11
59.8976
21
-211.058
0
LINE
8
BLACK
6
CONTINUOUS
10
59.8976
20
-211.058
11
60.0405
21
-211.201
0
LINE
8
BLACK
6
CONTINUOUS
10
60.0405
20
-211.201
11
60.1833
21
-211.487
0
LINE
8
BLACK
6
CONTINUOUS
10
60.1833
20
-211.487
11
60.1833
21
-212.201
0
LINE
8
BLACK
6
CONTINUOUS
10
60.1833
20
-212.201
11
60.0405
21
-212.487
0
LINE
8
BLACK
6
CONTINUOUS
10
60.0405
20
-212.487
11
59.8976
21
-212.63
0
LINE
8
BLACK
6
CONTINUOUS
10
59.8976
20
-212.63
11
59.6119
21
-212.773
0
LINE
8
BLACK
6
CONTINUOUS
10
59.6119
20
-212.773
11
58.7548
21
-212.773
0
LINE
8
BLACK
6
CONTINUOUS
10
58.7548
20
-212.773
11
58.469
21
-212.63
0
LINE
8
BLACK
6
CONTINUOUS
10
58.469
20
-212.63
11
58.3262
21
-212.487
0
LINE
8
BLACK
6
CONTINUOUS
10
62.0405
20
-209.773
11
62.3262
21
-209.773
0
LINE
8
BLACK
6
CONTINUOUS
10
62.3262
20
-209.773
11
62.6119
21
-209.916
0
LINE
8
BLACK
6
CONTINUOUS
10
62.6119
20
-209.916
11
62.7548
21
-210.058
0
LINE
8
BLACK
6
CONTINUOUS
10
62.7548
20
-210.058
11
62.8976
21
-210.344
0
LINE
8
BLACK
6
CONTINUOUS
10
62.8976
20
-210.344
11
63.0405
21
-210.916
0
LINE
8
BLACK
6
CONTINUOUS
10
63.0405
20
-210.916
11
63.0405
21
-211.63
0
LINE
8
BLACK
6
CONTINUOUS
10
63.0405
20
-211.63
11
62.8976
21
-212.201
0
LINE
8
BLACK
6
CONTINUOUS
10
62.8976
20
-212.201
11
62.7548
21
-212.487
0
LINE
8
BLACK
6
CONTINUOUS
10
62.7548
20
-212.487
11
62.6119
21
-212.63
0
LINE
8
BLACK
6
CONTINUOUS
10
62.6119
20
-212.63
11
62.3262
21
-212.773
0
LINE
8
BLACK
6
CONTINUOUS
10
62.3262
20
-212.773
11
62.0405
21
-212.773
0
LINE
8
BLACK
6
CONTINUOUS
10
62.0405
20
-212.773
11
61.7548
21
-212.63
0
LINE
8
BLACK
6
CONTINUOUS
10
61.7548
20
-212.63
11
61.6119
21
-212.487
0
LINE
8
BLACK
6
CONTINUOUS
10
61.6119
20
-212.487
11
61.469
21
-212.201
0
LINE
8
BLACK
6
CONTINUOUS
10
61.469
20
-212.201
11
61.3262
21
-211.63
0
LINE
8
BLACK
6
CONTINUOUS
10
61.3262
20
-211.63
11
61.3262
21
-210.916
0
LINE
8
BLACK
6
CONTINUOUS
10
61.3262
20
-210.916
11
61.469
21
-210.344
0
LINE
8
BLACK
6
CONTINUOUS
10
61.469
20
-210.344
11
61.6119
21
-210.058
0
LINE
8
BLACK
6
CONTINUOUS
10
61.6119
20
-210.058
11
61.7548
21
-209.916
0
LINE
8
BLACK
6
CONTINUOUS
10
61.7548
20
-209.916
11
62.0405
21
-209.773
0
LINE
8
BLACK
6
CONTINUOUS
10
64.1833
20
-209.773
11
64.1833
21
-210.344
0
LINE
8
BLACK
6
CONTINUOUS
10
65.3262
20
-209.773
11
65.3262
21
-210.344
0
LINE
8
BLACK
6
CONTINUOUS
10
69.7548
20
-213.916
11
69.6119
21
-213.773
0
LINE
8
BLACK
6
CONTINUOUS
10
69.6119
20
-213.773
11
69.3262
21
-213.344
0
LINE
8
BLACK
6
CONTINUOUS
10
69.3262
20
-213.344
11
69.1833
21
-213.058
0
LINE
8
BLACK
6
CONTINUOUS
10
69.1833
20
-213.058
11
69.0405
21
-212.63
0
LINE
8
BLACK
6
CONTINUOUS
10
69.0405
20
-212.63
11
68.8976
21
-211.916
0
LINE
8
BLACK
6
CONTINUOUS
10
68.8976
20
-211.916
11
68.8976
21
-211.344
0
LINE
8
BLACK
6
CONTINUOUS
10
68.8976
20
-211.344
11
69.0405
21
-210.63
0
LINE
8
BLACK
6
CONTINUOUS
10
69.0405
20
-210.63
11
69.1833
21
-210.201
0
LINE
8
BLACK
6
CONTINUOUS
10
69.1833
20
-210.201
11
69.3262
21
-209.916
0
LINE
8
BLACK
6
CONTINUOUS
10
69.3262
20
-209.916
11
69.6119
21
-209.487
0
LINE
8
BLACK
6
CONTINUOUS
10
69.6119
20
-209.487
11
69.7548
21
-209.344
0
LINE
8
BLACK
6
CONTINUOUS
10
70.6119
20
-209.773
11
72.469
21
-209.773
0
LINE
8
BLACK
6
CONTINUOUS
10
72.469
20
-209.773
11
71.469
21
-210.916
0
LINE
8
BLACK
6
CONTINUOUS
10
71.469
20
-210.916
11
71.8976
21
-210.916
0
LINE
8
BLACK
6
CONTINUOUS
10
71.8976
20
-210.916
11
72.1833
21
-211.058
0
LINE
8
BLACK
6
CONTINUOUS
10
72.1833
20
-211.058
11
72.3262
21
-211.201
0
LINE
8
BLACK
6
CONTINUOUS
10
72.3262
20
-211.201
11
72.469
21
-211.487
0
LINE
8
BLACK
6
CONTINUOUS
10
72.469
20
-211.487
11
72.469
21
-212.201
0
LINE
8
BLACK
6
CONTINUOUS
10
72.469
20
-212.201
11
72.3262
21
-212.487
0
LINE
8
BLACK
6
CONTINUOUS
10
72.3262
20
-212.487
11
72.1833
21
-212.63
0
LINE
8
BLACK
6
CONTINUOUS
10
72.1833
20
-212.63
11
71.8976
21
-212.773
0
LINE
8
BLACK
6
CONTINUOUS
10
71.8976
20
-212.773
11
71.0405
21
-212.773
0
LINE
8
BLACK
6
CONTINUOUS
10
71.0405
20
-212.773
11
70.7548
21
-212.63
0
LINE
8
BLACK
6
CONTINUOUS
10
70.7548
20
-212.63
11
70.6119
21
-212.487
0
LINE
8
BLACK
6
CONTINUOUS
10
76.0405
20
-212.773
11
76.0405
21
-209.773
0
LINE
8
BLACK
6
CONTINUOUS
10
77.3262
20
-212.773
11
77.3262
21
-211.201
0
LINE
8
BLACK
6
CONTINUOUS
10
77.3262
20
-211.201
11
77.1833
21
-210.916
0
LINE
8
BLACK
6
CONTINUOUS
10
77.1833
20
-210.916
11
76.8976
21
-210.773
0
LINE
8
BLACK
6
CONTINUOUS
10
76.8976
20
-210.773
11
76.469
21
-210.773
0
LINE
8
BLACK
6
CONTINUOUS
10
76.469
20
-210.773
11
76.1833
21
-210.916
0
LINE
8
BLACK
6
CONTINUOUS
10
76.1833
20
-210.916
11
76.0405
21
-211.058
0
LINE
8
BLACK
6
CONTINUOUS
10
79.1833
20
-212.773
11
78.8976
21
-212.63
0
LINE
8
BLACK
6
CONTINUOUS
10
78.8976
20
-212.63
11
78.7548
21
-212.487
0
LINE
8
BLACK
6
CONTINUOUS
10
78.7548
20
-212.487
11
78.6119
21
-212.201
0
LINE
8
BLACK
6
CONTINUOUS
10
78.6119
20
-212.201
11
78.6119
21
-211.344
0
LINE
8
BLACK
6
CONTINUOUS
10
78.6119
20
-211.344
11
78.7548
21
-211.058
0
LINE
8
BLACK
6
CONTINUOUS
10
78.7548
20
-211.058
11
78.8976
21
-210.916
0
LINE
8
BLACK
6
CONTINUOUS
10
78.8976
20
-210.916
11
79.1833
21
-210.773
0
LINE
8
BLACK
6
CONTINUOUS
10
79.1833
20
-210.773
11
79.6119
21
-210.773
0
LINE
8
BLACK
6
CONTINUOUS
10
79.6119
20
-210.773
11
79.8976
21
-210.916
0
LINE
8
BLACK
6
CONTINUOUS
10
79.8976
20
-210.916
11
80.0405
21
-211.058
0
LINE
8
BLACK
6
CONTINUOUS
10
80.0405
20
-211.058
11
80.1833
21
-211.344
0
LINE
8
BLACK
6
CONTINUOUS
10
80.1833
20
-211.344
11
80.1833
21
-212.201
0
LINE
8
BLACK
6
CONTINUOUS
10
80.1833
20
-212.201
11
80.0405
21
-212.487
0
LINE
8
BLACK
6
CONTINUOUS
10
80.0405
20
-212.487
11
79.8976
21
-212.63
0
LINE
8
BLACK
6
CONTINUOUS
10
79.8976
20
-212.63
11
79.6119
21
-212.773
0
LINE
8
BLACK
6
CONTINUOUS
10
79.6119
20
-212.773
11
79.1833
21
-212.773
0
LINE
8
BLACK
6
CONTINUOUS
10
81.8976
20
-212.773
11
81.6119
21
-212.63
0
LINE
8
BLACK
6
CONTINUOUS
10
81.6119
20
-212.63
11
81.469
21
-212.344
0
LINE
8
BLACK
6
CONTINUOUS
10
81.469
20
-212.344
11
81.469
21
-209.773
0
LINE
8
BLACK
6
CONTINUOUS
10
84.1833
20
-212.63
11
83.8976
21
-212.773
0
LINE
8
BLACK
6
CONTINUOUS
10
83.8976
20
-212.773
11
83.3262
21
-212.773
0
LINE
8
BLACK
6
CONTINUOUS
10
83.3262
20
-212.773
11
83.0405
21
-212.63
0
LINE
8
BLACK
6
CONTINUOUS
10
83.0405
20
-212.63
11
82.8976
21
-212.344
0
LINE
8
BLACK
6
CONTINUOUS
10
82.8976
20
-212.344
11
82.8976
21
-211.201
0
LINE
8
BLACK
6
CONTINUOUS
10
82.8976
20
-211.201
11
83.0405
21
-210.916
0
LINE
8
BLACK
6
CONTINUOUS
10
83.0405
20
-210.916
11
83.3262
21
-210.773
0
LINE
8
BLACK
6
CONTINUOUS
10
83.3262
20
-210.773
11
83.8976
21
-210.773
0
LINE
8
BLACK
6
CONTINUOUS
10
83.8976
20
-210.773
11
84.1833
21
-210.916
0
LINE
8
BLACK
6
CONTINUOUS
10
84.1833
20
-210.916
11
84.3262
21
-211.201
0
LINE
8
BLACK
6
CONTINUOUS
10
84.3262
20
-211.201
11
84.3262
21
-211.487
0
LINE
8
BLACK
6
CONTINUOUS
10
84.3262
20
-211.487
11
82.8976
21
-211.773
0
LINE
8
BLACK
6
CONTINUOUS
10
85.469
20
-212.63
11
85.7548
21
-212.773
0
LINE
8
BLACK
6
CONTINUOUS
10
85.7548
20
-212.773
11
86.3262
21
-212.773
0
LINE
8
BLACK
6
CONTINUOUS
10
86.3262
20
-212.773
11
86.6119
21
-212.63
0
LINE
8
BLACK
6
CONTINUOUS
10
86.6119
20
-212.63
11
86.7548
21
-212.344
0
LINE
8
BLACK
6
CONTINUOUS
10
86.7548
20
-212.344
11
86.7548
21
-212.201
0
LINE
8
BLACK
6
CONTINUOUS
10
86.7548
20
-212.201
11
86.6119
21
-211.916
0
LINE
8
BLACK
6
CONTINUOUS
10
86.6119
20
-211.916
11
86.3262
21
-211.773
0
LINE
8
BLACK
6
CONTINUOUS
10
86.3262
20
-211.773
11
85.8976
21
-211.773
0
LINE
8
BLACK
6
CONTINUOUS
10
85.8976
20
-211.773
11
85.6119
21
-211.63
0
LINE
8
BLACK
6
CONTINUOUS
10
85.6119
20
-211.63
11
85.469
21
-211.344
0
LINE
8
BLACK
6
CONTINUOUS
10
85.469
20
-211.344
11
85.469
21
-211.201
0
LINE
8
BLACK
6
CONTINUOUS
10
85.469
20
-211.201
11
85.6119
21
-210.916
0
LINE
8
BLACK
6
CONTINUOUS
10
85.6119
20
-210.916
11
85.8976
21
-210.773
0
LINE
8
BLACK
6
CONTINUOUS
10
85.8976
20
-210.773
11
86.3262
21
-210.773
0
LINE
8
BLACK
6
CONTINUOUS
10
86.3262
20
-210.773
11
86.6119
21
-210.916
0
LINE
8
BLACK
6
CONTINUOUS
10
87.7548
20
-213.916
11
87.8976
21
-213.773
0
LINE
8
BLACK
6
CONTINUOUS
10
87.8976
20
-213.773
11
88.1833
21
-213.344
0
LINE
8
BLACK
6
CONTINUOUS
10
88.1833
20
-213.344
11
88.3262
21
-213.058
0
LINE
8
BLACK
6
CONTINUOUS
10
88.3262
20
-213.058
11
88.469
21
-212.63
0
LINE
8
BLACK
6
CONTINUOUS
10
88.469
20
-212.63
11
88.6119
21
-211.916
0
LINE
8
BLACK
6
CONTINUOUS
10
88.6119
20
-211.916
11
88.6119
21
-211.344
0
LINE
8
BLACK
6
CONTINUOUS
10
88.6119
20
-211.344
11
88.469
21
-210.63
0
LINE
8
BLACK
6
CONTINUOUS
10
88.469
20
-210.63
11
88.3262
21
-210.201
0
LINE
8
BLACK
6
CONTINUOUS
10
88.3262
20
-210.201
11
88.1833
21
-209.916
0
LINE
8
BLACK
6
CONTINUOUS
10
88.1833
20
-209.916
11
87.8976
21
-209.487
0
LINE
8
BLACK
6
CONTINUOUS
10
87.8976
20
-209.487
11
87.7548
21
-209.344
0
LINE
8
BLACK
6
CONTINUOUS
10
93.1833
20
-213.916
11
93.0405
21
-213.773
0
LINE
8
BLACK
6
CONTINUOUS
10
93.0405
20
-213.773
11
92.7548
21
-213.344
0
LINE
8
BLACK
6
CONTINUOUS
10
92.7548
20
-213.344
11
92.6119
21
-213.058
0
LINE
8
BLACK
6
CONTINUOUS
10
92.6119
20
-213.058
11
92.469
21
-212.63
0
LINE
8
BLACK
6
CONTINUOUS
10
92.469
20
-212.63
11
92.3262
21
-211.916
0
LINE
8
BLACK
6
CONTINUOUS
10
92.3262
20
-211.916
11
92.3262
21
-211.344
0
LINE
8
BLACK
6
CONTINUOUS
10
92.3262
20
-211.344
11
92.469
21
-210.63
0
LINE
8
BLACK
6
CONTINUOUS
10
92.469
20
-210.63
11
92.6119
21
-210.201
0
LINE
8
BLACK
6
CONTINUOUS
10
92.6119
20
-210.201
11
92.7548
21
-209.916
0
LINE
8
BLACK
6
CONTINUOUS
10
92.7548
20
-209.916
11
93.0405
21
-209.487
0
LINE
8
BLACK
6
CONTINUOUS
10
93.0405
20
-209.487
11
93.1833
21
-209.344
0
LINE
8
BLACK
6
CONTINUOUS
10
94.3262
20
-210.773
11
94.3262
21
-212.773
0
LINE
8
BLACK
6
CONTINUOUS
10
94.3262
20
-211.058
11
94.469
21
-210.916
0
LINE
8
BLACK
6
CONTINUOUS
10
94.469
20
-210.916
11
94.7548
21
-210.773
0
LINE
8
BLACK
6
CONTINUOUS
10
94.7548
20
-210.773
11
95.1833
21
-210.773
0
LINE
8
BLACK
6
CONTINUOUS
10
95.1833
20
-210.773
11
95.469
21
-210.916
0
LINE
8
BLACK
6
CONTINUOUS
10
95.469
20
-210.916
11
95.6119
21
-211.201
0
LINE
8
BLACK
6
CONTINUOUS
10
95.6119
20
-211.201
11
95.6119
21
-212.773
0
LINE
8
BLACK
6
CONTINUOUS
10
97.469
20
-212.773
11
97.1833
21
-212.63
0
LINE
8
BLACK
6
CONTINUOUS
10
97.1833
20
-212.63
11
97.0405
21
-212.487
0
LINE
8
BLACK
6
CONTINUOUS
10
97.0405
20
-212.487
11
96.8976
21
-212.201
0
LINE
8
BLACK
6
CONTINUOUS
10
96.8976
20
-212.201
11
96.8976
21
-211.344
0
LINE
8
BLACK
6
CONTINUOUS
10
96.8976
20
-211.344
11
97.0405
21
-211.058
0
LINE
8
BLACK
6
CONTINUOUS
10
97.0405
20
-211.058
11
97.1833
21
-210.916
0
LINE
8
BLACK
6
CONTINUOUS
10
97.1833
20
-210.916
11
97.469
21
-210.773
0
LINE
8
BLACK
6
CONTINUOUS
10
97.469
20
-210.773
11
97.8976
21
-210.773
0
LINE
8
BLACK
6
CONTINUOUS
10
97.8976
20
-210.773
11
98.1833
21
-210.916
0
LINE
8
BLACK
6
CONTINUOUS
10
98.1833
20
-210.916
11
98.3262
21
-211.058
0
LINE
8
BLACK
6
CONTINUOUS
10
98.3262
20
-211.058
11
98.469
21
-211.344
0
LINE
8
BLACK
6
CONTINUOUS
10
98.469
20
-211.344
11
98.469
21
-212.201
0
LINE
8
BLACK
6
CONTINUOUS
10
98.469
20
-212.201
11
98.3262
21
-212.487
0
LINE
8
BLACK
6
CONTINUOUS
10
98.3262
20
-212.487
11
98.1833
21
-212.63
0
LINE
8
BLACK
6
CONTINUOUS
10
98.1833
20
-212.63
11
97.8976
21
-212.773
0
LINE
8
BLACK
6
CONTINUOUS
10
97.8976
20
-212.773
11
97.469
21
-212.773
0
LINE
8
BLACK
6
CONTINUOUS
10
99.3262
20
-210.773
11
100.469
21
-210.773
0
LINE
8
BLACK
6
CONTINUOUS
10
99.7548
20
-209.773
11
99.7548
21
-212.344
0
LINE
8
BLACK
6
CONTINUOUS
10
99.7548
20
-212.344
11
99.8976
21
-212.63
0
LINE
8
BLACK
6
CONTINUOUS
10
99.8976
20
-212.63
11
100.183
21
-212.773
0
LINE
8
BLACK
6
CONTINUOUS
10
100.183
20
-212.773
11
100.469
21
-212.773
0
LINE
8
BLACK
6
CONTINUOUS
10
103.755
20
-210.773
11
103.755
21
-213.773
0
LINE
8
BLACK
6
CONTINUOUS
10
103.755
20
-210.916
11
104.04
21
-210.773
0
LINE
8
BLACK
6
CONTINUOUS
10
104.04
20
-210.773
11
104.612
21
-210.773
0
LINE
8
BLACK
6
CONTINUOUS
10
104.612
20
-210.773
11
104.898
21
-210.916
0
LINE
8
BLACK
6
CONTINUOUS
10
104.898
20
-210.916
11
105.04
21
-211.058
0
LINE
8
BLACK
6
CONTINUOUS
10
105.04
20
-211.058
11
105.183
21
-211.344
0
LINE
8
BLACK
6
CONTINUOUS
10
105.183
20
-211.344
11
105.183
21
-212.201
0
LINE
8
BLACK
6
CONTINUOUS
10
105.183
20
-212.201
11
105.04
21
-212.487
0
LINE
8
BLACK
6
CONTINUOUS
10
105.04
20
-212.487
11
104.898
21
-212.63
0
LINE
8
BLACK
6
CONTINUOUS
10
104.898
20
-212.63
11
104.612
21
-212.773
0
LINE
8
BLACK
6
CONTINUOUS
10
104.612
20
-212.773
11
104.04
21
-212.773
0
LINE
8
BLACK
6
CONTINUOUS
10
104.04
20
-212.773
11
103.755
21
-212.63
0
LINE
8
BLACK
6
CONTINUOUS
10
106.898
20
-212.773
11
106.612
21
-212.63
0
LINE
8
BLACK
6
CONTINUOUS
10
106.612
20
-212.63
11
106.469
21
-212.344
0
LINE
8
BLACK
6
CONTINUOUS
10
106.469
20
-212.344
11
106.469
21
-209.773
0
LINE
8
BLACK
6
CONTINUOUS
10
109.326
20
-212.773
11
109.326
21
-211.201
0
LINE
8
BLACK
6
CONTINUOUS
10
109.326
20
-211.201
11
109.183
21
-210.916
0
LINE
8
BLACK
6
CONTINUOUS
10
109.183
20
-210.916
11
108.898
21
-210.773
0
LINE
8
BLACK
6
CONTINUOUS
10
108.898
20
-210.773
11
108.326
21
-210.773
0
LINE
8
BLACK
6
CONTINUOUS
10
108.326
20
-210.773
11
108.04
21
-210.916
0
LINE
8
BLACK
6
CONTINUOUS
10
109.326
20
-212.63
11
109.04
21
-212.773
0
LINE
8
BLACK
6
CONTINUOUS
10
109.04
20
-212.773
11
108.326
21
-212.773
0
LINE
8
BLACK
6
CONTINUOUS
10
108.326
20
-212.773
11
108.04
21
-212.63
0
LINE
8
BLACK
6
CONTINUOUS
10
108.04
20
-212.63
11
107.898
21
-212.344
0
LINE
8
BLACK
6
CONTINUOUS
10
107.898
20
-212.344
11
107.898
21
-212.058
0
LINE
8
BLACK
6
CONTINUOUS
10
107.898
20
-212.058
11
108.04
21
-211.773
0
LINE
8
BLACK
6
CONTINUOUS
10
108.04
20
-211.773
11
108.326
21
-211.63
0
LINE
8
BLACK
6
CONTINUOUS
10
108.326
20
-211.63
11
109.04
21
-211.63
0
LINE
8
BLACK
6
CONTINUOUS
10
109.04
20
-211.63
11
109.326
21
-211.487
0
LINE
8
BLACK
6
CONTINUOUS
10
110.326
20
-210.773
11
111.469
21
-210.773
0
LINE
8
BLACK
6
CONTINUOUS
10
110.755
20
-209.773
11
110.755
21
-212.344
0
LINE
8
BLACK
6
CONTINUOUS
10
110.755
20
-212.344
11
110.898
21
-212.63
0
LINE
8
BLACK
6
CONTINUOUS
10
110.898
20
-212.63
11
111.183
21
-212.773
0
LINE
8
BLACK
6
CONTINUOUS
10
111.183
20
-212.773
11
111.469
21
-212.773
0
LINE
8
BLACK
6
CONTINUOUS
10
113.612
20
-212.63
11
113.326
21
-212.773
0
LINE
8
BLACK
6
CONTINUOUS
10
113.326
20
-212.773
11
112.755
21
-212.773
0
LINE
8
BLACK
6
CONTINUOUS
10
112.755
20
-212.773
11
112.469
21
-212.63
0
LINE
8
BLACK
6
CONTINUOUS
10
112.469
20
-212.63
11
112.326
21
-212.344
0
LINE
8
BLACK
6
CONTINUOUS
10
112.326
20
-212.344
11
112.326
21
-211.201
0
LINE
8
BLACK
6
CONTINUOUS
10
112.326
20
-211.201
11
112.469
21
-210.916
0
LINE
8
BLACK
6
CONTINUOUS
10
112.469
20
-210.916
11
112.755
21
-210.773
0
LINE
8
BLACK
6
CONTINUOUS
10
112.755
20
-210.773
11
113.326
21
-210.773
0
LINE
8
BLACK
6
CONTINUOUS
10
113.326
20
-210.773
11
113.612
21
-210.916
0
LINE
8
BLACK
6
CONTINUOUS
10
113.612
20
-210.916
11
113.755
21
-211.201
0
LINE
8
BLACK
6
CONTINUOUS
10
113.755
20
-211.201
11
113.755
21
-211.487
0
LINE
8
BLACK
6
CONTINUOUS
10
113.755
20
-211.487
11
112.326
21
-211.773
0
LINE
8
BLACK
6
CONTINUOUS
10
116.326
20
-212.773
11
116.326
21
-209.773
0
LINE
8
BLACK
6
CONTINUOUS
10
116.326
20
-212.63
11
116.04
21
-212.773
0
LINE
8
BLACK
6
CONTINUOUS
10
116.04
20
-212.773
11
115.469
21
-212.773
0
LINE
8
BLACK
6
CONTINUOUS
10
115.469
20
-212.773
11
115.183
21
-212.63
0
LINE
8
BLACK
6
CONTINUOUS
10
115.183
20
-212.63
11
115.04
21
-212.487
0
LINE
8
BLACK
6
CONTINUOUS
10
115.04
20
-212.487
11
114.898
21
-212.201
0
LINE
8
BLACK
6
CONTINUOUS
10
114.898
20
-212.201
11
114.898
21
-211.344
0
LINE
8
BLACK
6
CONTINUOUS
10
114.898
20
-211.344
11
115.04
21
-211.058
0
LINE
8
BLACK
6
CONTINUOUS
10
115.04
20
-211.058
11
115.183
21
-210.916
0
LINE
8
BLACK
6
CONTINUOUS
10
115.183
20
-210.916
11
115.469
21
-210.773
0
LINE
8
BLACK
6
CONTINUOUS
10
115.469
20
-210.773
11
116.04
21
-210.773
0
LINE
8
BLACK
6
CONTINUOUS
10
116.04
20
-210.773
11
116.326
21
-210.916
0
LINE
8
BLACK
6
CONTINUOUS
10
117.469
20
-213.916
11
117.612
21
-213.773
0
LINE
8
BLACK
6
CONTINUOUS
10
117.612
20
-213.773
11
117.898
21
-213.344
0
LINE
8
BLACK
6
CONTINUOUS
10
117.898
20
-213.344
11
118.04
21
-213.058
0
LINE
8
BLACK
6
CONTINUOUS
10
118.04
20
-213.058
11
118.183
21
-212.63
0
LINE
8
BLACK
6
CONTINUOUS
10
118.183
20
-212.63
11
118.326
21
-211.916
0
LINE
8
BLACK
6
CONTINUOUS
10
118.326
20
-211.916
11
118.326
21
-211.344
0
LINE
8
BLACK
6
CONTINUOUS
10
118.326
20
-211.344
11
118.183
21
-210.63
0
LINE
8
BLACK
6
CONTINUOUS
10
118.183
20
-210.63
11
118.04
21
-210.201
0
LINE
8
BLACK
6
CONTINUOUS
10
118.04
20
-210.201
11
117.898
21
-209.916
0
LINE
8
BLACK
6
CONTINUOUS
10
117.898
20
-209.916
11
117.612
21
-209.487
0
LINE
8
BLACK
6
CONTINUOUS
10
117.612
20
-209.487
11
117.469
21
-209.344
0
LINE
8
BLACK
6
CONTINUOUS
10
20.8966
20
-218.009
11
22.8905
21
-216.016
0
LINE
8
BLACK
6
CONTINUOUS
10
22.8905
20
-216.016
11
20.8966
21
-214.022
0
LINE
8
BLACK
6
CONTINUOUS
10
20.8966
20
-214.022
11
18.9027
21
-216.016
0
LINE
8
BLACK
6
CONTINUOUS
10
18.9027
20
-216.016
11
20.8966
21
-218.009
0
LINE
8
BLACK
6
CONTINUOUS
10
25.469
20
-214.373
11
27.3262
21
-214.373
0
LINE
8
BLACK
6
CONTINUOUS
10
27.3262
20
-214.373
11
26.3262
21
-215.516
0
LINE
8
BLACK
6
CONTINUOUS
10
26.3262
20
-215.516
11
26.7548
21
-215.516
0
LINE
8
BLACK
6
CONTINUOUS
10
26.7548
20
-215.516
11
27.0405
21
-215.658
0
LINE
8
BLACK
6
CONTINUOUS
10
27.0405
20
-215.658
11
27.1833
21
-215.801
0
LINE
8
BLACK
6
CONTINUOUS
10
27.1833
20
-215.801
11
27.3262
21
-216.087
0
LINE
8
BLACK
6
CONTINUOUS
10
27.3262
20
-216.087
11
27.3262
21
-216.801
0
LINE
8
BLACK
6
CONTINUOUS
10
27.3262
20
-216.801
11
27.1833
21
-217.087
0
LINE
8
BLACK
6
CONTINUOUS
10
27.1833
20
-217.087
11
27.0405
21
-217.23
0
LINE
8
BLACK
6
CONTINUOUS
10
27.0405
20
-217.23
11
26.7548
21
-217.373
0
LINE
8
BLACK
6
CONTINUOUS
10
26.7548
20
-217.373
11
25.8976
21
-217.373
0
LINE
8
BLACK
6
CONTINUOUS
10
25.8976
20
-217.373
11
25.6119
21
-217.23
0
LINE
8
BLACK
6
CONTINUOUS
10
25.6119
20
-217.23
11
25.469
21
-217.087
0
LINE
8
BLACK
6
CONTINUOUS
10
28.6119
20
-217.087
11
28.7548
21
-217.23
0
LINE
8
BLACK
6
CONTINUOUS
10
28.7548
20
-217.23
11
28.6119
21
-217.373
0
LINE
8
BLACK
6
CONTINUOUS
10
28.6119
20
-217.373
11
28.469
21
-217.23
0
LINE
8
BLACK
6
CONTINUOUS
10
28.469
20
-217.23
11
28.6119
21
-217.087
0
LINE
8
BLACK
6
CONTINUOUS
10
28.6119
20
-217.087
11
28.6119
21
-217.373
0
LINE
8
BLACK
6
CONTINUOUS
10
30.1833
20
-217.373
11
30.7548
21
-217.373
0
LINE
8
BLACK
6
CONTINUOUS
10
30.7548
20
-217.373
11
31.0405
21
-217.23
0
LINE
8
BLACK
6
CONTINUOUS
10
31.0405
20
-217.23
11
31.1833
21
-217.087
0
LINE
8
BLACK
6
CONTINUOUS
10
31.1833
20
-217.087
11
31.469
21
-216.658
0
LINE
8
BLACK
6
CONTINUOUS
10
31.469
20
-216.658
11
31.6119
21
-216.087
0
LINE
8
BLACK
6
CONTINUOUS
10
31.6119
20
-216.087
11
31.6119
21
-214.944
0
LINE
8
BLACK
6
CONTINUOUS
10
31.6119
20
-214.944
11
31.469
21
-214.658
0
LINE
8
BLACK
6
CONTINUOUS
10
31.469
20
-214.658
11
31.3262
21
-214.516
0
LINE
8
BLACK
6
CONTINUOUS
10
31.3262
20
-214.516
11
31.0405
21
-214.373
0
LINE
8
BLACK
6
CONTINUOUS
10
31.0405
20
-214.373
11
30.469
21
-214.373
0
LINE
8
BLACK
6
CONTINUOUS
10
30.469
20
-214.373
11
30.1833
21
-214.516
0
LINE
8
BLACK
6
CONTINUOUS
10
30.1833
20
-214.516
11
30.0405
21
-214.658
0
LINE
8
BLACK
6
CONTINUOUS
10
30.0405
20
-214.658
11
29.8976
21
-214.944
0
LINE
8
BLACK
6
CONTINUOUS
10
29.8976
20
-214.944
11
29.8976
21
-215.658
0
LINE
8
BLACK
6
CONTINUOUS
10
29.8976
20
-215.658
11
30.0405
21
-215.944
0
LINE
8
BLACK
6
CONTINUOUS
10
30.0405
20
-215.944
11
30.1833
21
-216.087
0
LINE
8
BLACK
6
CONTINUOUS
10
30.1833
20
-216.087
11
30.469
21
-216.23
0
LINE
8
BLACK
6
CONTINUOUS
10
30.469
20
-216.23
11
31.0405
21
-216.23
0
LINE
8
BLACK
6
CONTINUOUS
10
31.0405
20
-216.23
11
31.3262
21
-216.087
0
LINE
8
BLACK
6
CONTINUOUS
10
31.3262
20
-216.087
11
31.469
21
-215.944
0
LINE
8
BLACK
6
CONTINUOUS
10
31.469
20
-215.944
11
31.6119
21
-215.658
0
LINE
8
BLACK
6
CONTINUOUS
10
33.0405
20
-217.373
11
33.6119
21
-217.373
0
LINE
8
BLACK
6
CONTINUOUS
10
33.6119
20
-217.373
11
33.8976
21
-217.23
0
LINE
8
BLACK
6
CONTINUOUS
10
33.8976
20
-217.23
11
34.0405
21
-217.087
0
LINE
8
BLACK
6
CONTINUOUS
10
34.0405
20
-217.087
11
34.3262
21
-216.658
0
LINE
8
BLACK
6
CONTINUOUS
10
34.3262
20
-216.658
11
34.469
21
-216.087
0
LINE
8
BLACK
6
CONTINUOUS
10
34.469
20
-216.087
11
34.469
21
-214.944
0
LINE
8
BLACK
6
CONTINUOUS
10
34.469
20
-214.944
11
34.3262
21
-214.658
0
LINE
8
BLACK
6
CONTINUOUS
10
34.3262
20
-214.658
11
34.1833
21
-214.516
0
LINE
8
BLACK
6
CONTINUOUS
10
34.1833
20
-214.516
11
33.8976
21
-214.373
0
LINE
8
BLACK
6
CONTINUOUS
10
33.8976
20
-214.373
11
33.3262
21
-214.373
0
LINE
8
BLACK
6
CONTINUOUS
10
33.3262
20
-214.373
11
33.0405
21
-214.516
0
LINE
8
BLACK
6
CONTINUOUS
10
33.0405
20
-214.516
11
32.8976
21
-214.658
0
LINE
8
BLACK
6
CONTINUOUS
10
32.8976
20
-214.658
11
32.7548
21
-214.944
0
LINE
8
BLACK
6
CONTINUOUS
10
32.7548
20
-214.944
11
32.7548
21
-215.658
0
LINE
8
BLACK
6
CONTINUOUS
10
32.7548
20
-215.658
11
32.8976
21
-215.944
0
LINE
8
BLACK
6
CONTINUOUS
10
32.8976
20
-215.944
11
33.0405
21
-216.087
0
LINE
8
BLACK
6
CONTINUOUS
10
33.0405
20
-216.087
11
33.3262
21
-216.23
0
LINE
8
BLACK
6
CONTINUOUS
10
33.3262
20
-216.23
11
33.8976
21
-216.23
0
LINE
8
BLACK
6
CONTINUOUS
10
33.8976
20
-216.23
11
34.1833
21
-216.087
0
LINE
8
BLACK
6
CONTINUOUS
10
34.1833
20
-216.087
11
34.3262
21
-215.944
0
LINE
8
BLACK
6
CONTINUOUS
10
34.3262
20
-215.944
11
34.469
21
-215.658
0
LINE
8
BLACK
6
CONTINUOUS
10
35.7548
20
-217.373
11
35.7548
21
-215.373
0
LINE
8
BLACK
6
CONTINUOUS
10
35.7548
20
-215.658
11
35.8976
21
-215.516
0
LINE
8
BLACK
6
CONTINUOUS
10
35.8976
20
-215.516
11
36.1833
21
-215.373
0
LINE
8
BLACK
6
CONTINUOUS
10
36.1833
20
-215.373
11
36.6119
21
-215.373
0
LINE
8
BLACK
6
CONTINUOUS
10
36.6119
20
-215.373
11
36.8976
21
-215.516
0
LINE
8
BLACK
6
CONTINUOUS
10
36.8976
20
-215.516
11
37.0405
21
-215.801
0
LINE
8
BLACK
6
CONTINUOUS
10
37.0405
20
-215.801
11
37.0405
21
-217.373
0
LINE
8
BLACK
6
CONTINUOUS
10
37.0405
20
-215.801
11
37.1833
21
-215.516
0
LINE
8
BLACK
6
CONTINUOUS
10
37.1833
20
-215.516
11
37.469
21
-215.373
0
LINE
8
BLACK
6
CONTINUOUS
10
37.469
20
-215.373
11
37.8976
21
-215.373
0
LINE
8
BLACK
6
CONTINUOUS
10
37.8976
20
-215.373
11
38.1833
21
-215.516
0
LINE
8
BLACK
6
CONTINUOUS
10
38.1833
20
-215.516
11
38.3262
21
-215.801
0
LINE
8
BLACK
6
CONTINUOUS
10
38.3262
20
-215.801
11
38.3262
21
-217.373
0
LINE
8
BLACK
6
CONTINUOUS
10
39.7548
20
-217.373
11
39.7548
21
-215.373
0
LINE
8
BLACK
6
CONTINUOUS
10
39.7548
20
-215.658
11
39.8976
21
-215.516
0
LINE
8
BLACK
6
CONTINUOUS
10
39.8976
20
-215.516
11
40.1833
21
-215.373
0
LINE
8
BLACK
6
CONTINUOUS
10
40.1833
20
-215.373
11
40.6119
21
-215.373
0
LINE
8
BLACK
6
CONTINUOUS
10
40.6119
20
-215.373
11
40.8976
21
-215.516
0
LINE
8
BLACK
6
CONTINUOUS
10
40.8976
20
-215.516
11
41.0405
21
-215.801
0
LINE
8
BLACK
6
CONTINUOUS
10
41.0405
20
-215.801
11
41.0405
21
-217.373
0
LINE
8
BLACK
6
CONTINUOUS
10
41.0405
20
-215.801
11
41.1833
21
-215.516
0
LINE
8
BLACK
6
CONTINUOUS
10
41.1833
20
-215.516
11
41.469
21
-215.373
0
LINE
8
BLACK
6
CONTINUOUS
10
41.469
20
-215.373
11
41.8976
21
-215.373
0
LINE
8
BLACK
6
CONTINUOUS
10
41.8976
20
-215.373
11
42.1833
21
-215.516
0
LINE
8
BLACK
6
CONTINUOUS
10
42.1833
20
-215.516
11
42.3262
21
-215.801
0
LINE
8
BLACK
6
CONTINUOUS
10
42.3262
20
-215.801
11
42.3262
21
-217.373
0
LINE
8
BLACK
6
CONTINUOUS
10
48.1833
20
-214.23
11
45.6119
21
-218.087
0
LINE
8
BLACK
6
CONTINUOUS
10
52.0405
20
-214.373
11
52.3262
21
-214.373
0
LINE
8
BLACK
6
CONTINUOUS
10
52.3262
20
-214.373
11
52.6119
21
-214.516
0
LINE
8
BLACK
6
CONTINUOUS
10
52.6119
20
-214.516
11
52.7548
21
-214.658
0
LINE
8
BLACK
6
CONTINUOUS
10
52.7548
20
-214.658
11
52.8976
21
-214.944
0
LINE
8
BLACK
6
CONTINUOUS
10
52.8976
20
-214.944
11
53.0405
21
-215.516
0
LINE
8
BLACK
6
CONTINUOUS
10
53.0405
20
-215.516
11
53.0405
21
-216.23
0
LINE
8
BLACK
6
CONTINUOUS
10
53.0405
20
-216.23
11
52.8976
21
-216.801
0
LINE
8
BLACK
6
CONTINUOUS
10
52.8976
20
-216.801
11
52.7548
21
-217.087
0
LINE
8
BLACK
6
CONTINUOUS
10
52.7548
20
-217.087
11
52.6119
21
-217.23
0
LINE
8
BLACK
6
CONTINUOUS
10
52.6119
20
-217.23
11
52.3262
21
-217.373
0
LINE
8
BLACK
6
CONTINUOUS
10
52.3262
20
-217.373
11
52.0405
21
-217.373
0
LINE
8
BLACK
6
CONTINUOUS
10
52.0405
20
-217.373
11
51.7548
21
-217.23
0
LINE
8
BLACK
6
CONTINUOUS
10
51.7548
20
-217.23
11
51.6119
21
-217.087
0
LINE
8
BLACK
6
CONTINUOUS
10
51.6119
20
-217.087
11
51.469
21
-216.801
0
LINE
8
BLACK
6
CONTINUOUS
10
51.469
20
-216.801
11
51.3262
21
-216.23
0
LINE
8
BLACK
6
CONTINUOUS
10
51.3262
20
-216.23
11
51.3262
21
-215.516
0
LINE
8
BLACK
6
CONTINUOUS
10
51.3262
20
-215.516
11
51.469
21
-214.944
0
LINE
8
BLACK
6
CONTINUOUS
10
51.469
20
-214.944
11
51.6119
21
-214.658
0
LINE
8
BLACK
6
CONTINUOUS
10
51.6119
20
-214.658
11
51.7548
21
-214.516
0
LINE
8
BLACK
6
CONTINUOUS
10
51.7548
20
-214.516
11
52.0405
21
-214.373
0
LINE
8
BLACK
6
CONTINUOUS
10
54.3262
20
-217.087
11
54.469
21
-217.23
0
LINE
8
BLACK
6
CONTINUOUS
10
54.469
20
-217.23
11
54.3262
21
-217.373
0
LINE
8
BLACK
6
CONTINUOUS
10
54.3262
20
-217.373
11
54.1833
21
-217.23
0
LINE
8
BLACK
6
CONTINUOUS
10
54.1833
20
-217.23
11
54.3262
21
-217.087
0
LINE
8
BLACK
6
CONTINUOUS
10
54.3262
20
-217.087
11
54.3262
21
-217.373
0
LINE
8
BLACK
6
CONTINUOUS
10
57.3262
20
-217.373
11
55.6119
21
-217.373
0
LINE
8
BLACK
6
CONTINUOUS
10
56.469
20
-217.373
11
56.469
21
-214.373
0
LINE
8
BLACK
6
CONTINUOUS
10
56.469
20
-214.373
11
56.1833
21
-214.801
0
LINE
8
BLACK
6
CONTINUOUS
10
56.1833
20
-214.801
11
55.8976
21
-215.087
0
LINE
8
BLACK
6
CONTINUOUS
10
55.8976
20
-215.087
11
55.6119
21
-215.23
0
LINE
8
BLACK
6
CONTINUOUS
10
60.0405
20
-214.373
11
58.6119
21
-214.373
0
LINE
8
BLACK
6
CONTINUOUS
10
58.6119
20
-214.373
11
58.469
21
-215.801
0
LINE
8
BLACK
6
CONTINUOUS
10
58.469
20
-215.801
11
58.6119
21
-215.658
0
LINE
8
BLACK
6
CONTINUOUS
10
58.6119
20
-215.658
11
58.8976
21
-215.516
0
LINE
8
BLACK
6
CONTINUOUS
10
58.8976
20
-215.516
11
59.6119
21
-215.516
0
LINE
8
BLACK
6
CONTINUOUS
10
59.6119
20
-215.516
11
59.8976
21
-215.658
0
LINE
8
BLACK
6
CONTINUOUS
10
59.8976
20
-215.658
11
60.0405
21
-215.801
0
LINE
8
BLACK
6
CONTINUOUS
10
60.0405
20
-215.801
11
60.1833
21
-216.087
0
LINE
8
BLACK
6
CONTINUOUS
10
60.1833
20
-216.087
11
60.1833
21
-216.801
0
LINE
8
BLACK
6
CONTINUOUS
10
60.1833
20
-216.801
11
60.0405
21
-217.087
0
LINE
8
BLACK
6
CONTINUOUS
10
60.0405
20
-217.087
11
59.8976
21
-217.23
0
LINE
8
BLACK
6
CONTINUOUS
10
59.8976
20
-217.23
11
59.6119
21
-217.373
0
LINE
8
BLACK
6
CONTINUOUS
10
59.6119
20
-217.373
11
58.8976
21
-217.373
0
LINE
8
BLACK
6
CONTINUOUS
10
58.8976
20
-217.373
11
58.6119
21
-217.23
0
LINE
8
BLACK
6
CONTINUOUS
10
58.6119
20
-217.23
11
58.469
21
-217.087
0
LINE
8
BLACK
6
CONTINUOUS
10
61.1833
20
-214.373
11
63.1833
21
-214.373
0
LINE
8
BLACK
6
CONTINUOUS
10
63.1833
20
-214.373
11
61.8976
21
-217.373
0
LINE
8
BLACK
6
CONTINUOUS
10
64.1833
20
-214.373
11
64.1833
21
-214.944
0
LINE
8
BLACK
6
CONTINUOUS
10
65.3262
20
-214.373
11
65.3262
21
-214.944
0
LINE
8
BLACK
6
CONTINUOUS
10
69.7548
20
-218.516
11
69.6119
21
-218.373
0
LINE
8
BLACK
6
CONTINUOUS
10
69.6119
20
-218.373
11
69.3262
21
-217.944
0
LINE
8
BLACK
6
CONTINUOUS
10
69.3262
20
-217.944
11
69.1833
21
-217.658
0
LINE
8
BLACK
6
CONTINUOUS
10
69.1833
20
-217.658
11
69.0405
21
-217.23
0
LINE
8
BLACK
6
CONTINUOUS
10
69.0405
20
-217.23
11
68.8976
21
-216.516
0
LINE
8
BLACK
6
CONTINUOUS
10
68.8976
20
-216.516
11
68.8976
21
-215.944
0
LINE
8
BLACK
6
CONTINUOUS
10
68.8976
20
-215.944
11
69.0405
21
-215.23
0
LINE
8
BLACK
6
CONTINUOUS
10
69.0405
20
-215.23
11
69.1833
21
-214.801
0
LINE
8
BLACK
6
CONTINUOUS
10
69.1833
20
-214.801
11
69.3262
21
-214.516
0
LINE
8
BLACK
6
CONTINUOUS
10
69.3262
20
-214.516
11
69.6119
21
-214.087
0
LINE
8
BLACK
6
CONTINUOUS
10
69.6119
20
-214.087
11
69.7548
21
-213.944
0
LINE
8
BLACK
6
CONTINUOUS
10
72.1833
20
-215.373
11
72.1833
21
-217.373
0
LINE
8
BLACK
6
CONTINUOUS
10
71.469
20
-214.23
11
70.7548
21
-216.373
0
LINE
8
BLACK
6
CONTINUOUS
10
70.7548
20
-216.373
11
72.6119
21
-216.373
0
LINE
8
BLACK
6
CONTINUOUS
10
75.1833
20
-214.373
11
73.7548
21
-214.373
0
LINE
8
BLACK
6
CONTINUOUS
10
73.7548
20
-214.373
11
73.6119
21
-215.801
0
LINE
8
BLACK
6
CONTINUOUS
10
73.6119
20
-215.801
11
73.7548
21
-215.658
0
LINE
8
BLACK
6
CONTINUOUS
10
73.7548
20
-215.658
11
74.0405
21
-215.516
0
LINE
8
BLACK
6
CONTINUOUS
10
74.0405
20
-215.516
11
74.7548
21
-215.516
0
LINE
8
BLACK
6
CONTINUOUS
10
74.7548
20
-215.516
11
75.0405
21
-215.658
0
LINE
8
BLACK
6
CONTINUOUS
10
75.0405
20
-215.658
11
75.1833
21
-215.801
0
LINE
8
BLACK
6
CONTINUOUS
10
75.1833
20
-215.801
11
75.3262
21
-216.087
0
LINE
8
BLACK
6
CONTINUOUS
10
75.3262
20
-216.087
11
75.3262
21
-216.801
0
LINE
8
BLACK
6
CONTINUOUS
10
75.3262
20
-216.801
11
75.1833
21
-217.087
0
LINE
8
BLACK
6
CONTINUOUS
10
75.1833
20
-217.087
11
75.0405
21
-217.23
0
LINE
8
BLACK
6
CONTINUOUS
10
75.0405
20
-217.23
11
74.7548
21
-217.373
0
LINE
8
BLACK
6
CONTINUOUS
10
74.7548
20
-217.373
11
74.0405
21
-217.373
0
LINE
8
BLACK
6
CONTINUOUS
10
74.0405
20
-217.373
11
73.7548
21
-217.23
0
LINE
8
BLACK
6
CONTINUOUS
10
73.7548
20
-217.23
11
73.6119
21
-217.087
0
LINE
8
BLACK
6
CONTINUOUS
10
78.8976
20
-217.373
11
78.8976
21
-214.373
0
LINE
8
BLACK
6
CONTINUOUS
10
80.1833
20
-217.373
11
80.1833
21
-215.801
0
LINE
8
BLACK
6
CONTINUOUS
10
80.1833
20
-215.801
11
80.0405
21
-215.516
0
LINE
8
BLACK
6
CONTINUOUS
10
80.0405
20
-215.516
11
79.7548
21
-215.373
0
LINE
8
BLACK
6
CONTINUOUS
10
79.7548
20
-215.373
11
79.3262
21
-215.373
0
LINE
8
BLACK
6
CONTINUOUS
10
79.3262
20
-215.373
11
79.0405
21
-215.516
0
LINE
8
BLACK
6
CONTINUOUS
10
79.0405
20
-215.516
11
78.8976
21
-215.658
0
LINE
8
BLACK
6
CONTINUOUS
10
82.0405
20
-217.373
11
81.7548
21
-217.23
0
LINE
8
BLACK
6
CONTINUOUS
10
81.7548
20
-217.23
11
81.6119
21
-217.087
0
LINE
8
BLACK
6
CONTINUOUS
10
81.6119
20
-217.087
11
81.469
21
-216.801
0
LINE
8
BLACK
6
CONTINUOUS
10
81.469
20
-216.801
11
81.469
21
-215.944
0
LINE
8
BLACK
6
CONTINUOUS
10
81.469
20
-215.944
11
81.6119
21
-215.658
0
LINE
8
BLACK
6
CONTINUOUS
10
81.6119
20
-215.658
11
81.7548
21
-215.516
0
LINE
8
BLACK
6
CONTINUOUS
10
81.7548
20
-215.516
11
82.0405
21
-215.373
0
LINE
8
BLACK
6
CONTINUOUS
10
82.0405
20
-215.373
11
82.469
21
-215.373
0
LINE
8
BLACK
6
CONTINUOUS
10
82.469
20
-215.373
11
82.7548
21
-215.516
0
LINE
8
BLACK
6
CONTINUOUS
10
82.7548
20
-215.516
11
82.8976
21
-215.658
0
LINE
8
BLACK
6
CONTINUOUS
10
82.8976
20
-215.658
11
83.0405
21
-215.944
0
LINE
8
BLACK
6
CONTINUOUS
10
83.0405
20
-215.944
11
83.0405
21
-216.801
0
LINE
8
BLACK
6
CONTINUOUS
10
83.0405
20
-216.801
11
82.8976
21
-217.087
0
LINE
8
BLACK
6
CONTINUOUS
10
82.8976
20
-217.087
11
82.7548
21
-217.23
0
LINE
8
BLACK
6
CONTINUOUS
10
82.7548
20
-217.23
11
82.469
21
-217.373
0
LINE
8
BLACK
6
CONTINUOUS
10
82.469
20
-217.373
11
82.0405
21
-217.373
0
LINE
8
BLACK
6
CONTINUOUS
10
84.7548
20
-217.373
11
84.469
21
-217.23
0
LINE
8
BLACK
6
CONTINUOUS
10
84.469
20
-217.23
11
84.3262
21
-216.944
0
LINE
8
BLACK
6
CONTINUOUS
10
84.3262
20
-216.944
11
84.3262
21
-214.373
0
LINE
8
BLACK
6
CONTINUOUS
10
87.0405
20
-217.23
11
86.7548
21
-217.373
0
LINE
8
BLACK
6
CONTINUOUS
10
86.7548
20
-217.373
11
86.1833
21
-217.373
0
LINE
8
BLACK
6
CONTINUOUS
10
86.1833
20
-217.373
11
85.8976
21
-217.23
0
LINE
8
BLACK
6
CONTINUOUS
10
85.8976
20
-217.23
11
85.7548
21
-216.944
0
LINE
8
BLACK
6
CONTINUOUS
10
85.7548
20
-216.944
11
85.7548
21
-215.801
0
LINE
8
BLACK
6
CONTINUOUS
10
85.7548
20
-215.801
11
85.8976
21
-215.516
0
LINE
8
BLACK
6
CONTINUOUS
10
85.8976
20
-215.516
11
86.1833
21
-215.373
0
LINE
8
BLACK
6
CONTINUOUS
10
86.1833
20
-215.373
11
86.7548
21
-215.373
0
LINE
8
BLACK
6
CONTINUOUS
10
86.7548
20
-215.373
11
87.0405
21
-215.516
0
LINE
8
BLACK
6
CONTINUOUS
10
87.0405
20
-215.516
11
87.1833
21
-215.801
0
LINE
8
BLACK
6
CONTINUOUS
10
87.1833
20
-215.801
11
87.1833
21
-216.087
0
LINE
8
BLACK
6
CONTINUOUS
10
87.1833
20
-216.087
11
85.7548
21
-216.373
0
LINE
8
BLACK
6
CONTINUOUS
10
88.3262
20
-217.23
11
88.6119
21
-217.373
0
LINE
8
BLACK
6
CONTINUOUS
10
88.6119
20
-217.373
11
89.1833
21
-217.373
0
LINE
8
BLACK
6
CONTINUOUS
10
89.1833
20
-217.373
11
89.469
21
-217.23
0
LINE
8
BLACK
6
CONTINUOUS
10
89.469
20
-217.23
11
89.6119
21
-216.944
0
LINE
8
BLACK
6
CONTINUOUS
10
89.6119
20
-216.944
11
89.6119
21
-216.801
0
LINE
8
BLACK
6
CONTINUOUS
10
89.6119
20
-216.801
11
89.469
21
-216.516
0
LINE
8
BLACK
6
CONTINUOUS
10
89.469
20
-216.516
11
89.1833
21
-216.373
0
LINE
8
BLACK
6
CONTINUOUS
10
89.1833
20
-216.373
11
88.7548
21
-216.373
0
LINE
8
BLACK
6
CONTINUOUS
10
88.7548
20
-216.373
11
88.469
21
-216.23
0
LINE
8
BLACK
6
CONTINUOUS
10
88.469
20
-216.23
11
88.3262
21
-215.944
0
LINE
8
BLACK
6
CONTINUOUS
10
88.3262
20
-215.944
11
88.3262
21
-215.801
0
LINE
8
BLACK
6
CONTINUOUS
10
88.3262
20
-215.801
11
88.469
21
-215.516
0
LINE
8
BLACK
6
CONTINUOUS
10
88.469
20
-215.516
11
88.7548
21
-215.373
0
LINE
8
BLACK
6
CONTINUOUS
10
88.7548
20
-215.373
11
89.1833
21
-215.373
0
LINE
8
BLACK
6
CONTINUOUS
10
89.1833
20
-215.373
11
89.469
21
-215.516
0
LINE
8
BLACK
6
CONTINUOUS
10
90.6119
20
-218.516
11
90.7548
21
-218.373
0
LINE
8
BLACK
6
CONTINUOUS
10
90.7548
20
-218.373
11
91.0405
21
-217.944
0
LINE
8
BLACK
6
CONTINUOUS
10
91.0405
20
-217.944
11
91.1833
21
-217.658
0
LINE
8
BLACK
6
CONTINUOUS
10
91.1833
20
-217.658
11
91.3262
21
-217.23
0
LINE
8
BLACK
6
CONTINUOUS
10
91.3262
20
-217.23
11
91.469
21
-216.516
0
LINE
8
BLACK
6
CONTINUOUS
10
91.469
20
-216.516
11
91.469
21
-215.944
0
LINE
8
BLACK
6
CONTINUOUS
10
91.469
20
-215.944
11
91.3262
21
-215.23
0
LINE
8
BLACK
6
CONTINUOUS
10
91.3262
20
-215.23
11
91.1833
21
-214.801
0
LINE
8
BLACK
6
CONTINUOUS
10
91.1833
20
-214.801
11
91.0405
21
-214.516
0
LINE
8
BLACK
6
CONTINUOUS
10
91.0405
20
-214.516
11
90.7548
21
-214.087
0
LINE
8
BLACK
6
CONTINUOUS
10
90.7548
20
-214.087
11
90.6119
21
-213.944
0
LINE
8
BLACK
6
CONTINUOUS
10
96.0405
20
-218.516
11
95.8976
21
-218.373
0
LINE
8
BLACK
6
CONTINUOUS
10
95.8976
20
-218.373
11
95.6119
21
-217.944
0
LINE
8
BLACK
6
CONTINUOUS
10
95.6119
20
-217.944
11
95.469
21
-217.658
0
LINE
8
BLACK
6
CONTINUOUS
10
95.469
20
-217.658
11
95.3262
21
-217.23
0
LINE
8
BLACK
6
CONTINUOUS
10
95.3262
20
-217.23
11
95.1833
21
-216.516
0
LINE
8
BLACK
6
CONTINUOUS
10
95.1833
20
-216.516
11
95.1833
21
-215.944
0
LINE
8
BLACK
6
CONTINUOUS
10
95.1833
20
-215.944
11
95.3262
21
-215.23
0
LINE
8
BLACK
6
CONTINUOUS
10
95.3262
20
-215.23
11
95.469
21
-214.801
0
LINE
8
BLACK
6
CONTINUOUS
10
95.469
20
-214.801
11
95.6119
21
-214.516
0
LINE
8
BLACK
6
CONTINUOUS
10
95.6119
20
-214.516
11
95.8976
21
-214.087
0
LINE
8
BLACK
6
CONTINUOUS
10
95.8976
20
-214.087
11
96.0405
21
-213.944
0
LINE
8
BLACK
6
CONTINUOUS
10
97.1833
20
-215.373
11
97.1833
21
-217.373
0
LINE
8
BLACK
6
CONTINUOUS
10
97.1833
20
-215.658
11
97.3262
21
-215.516
0
LINE
8
BLACK
6
CONTINUOUS
10
97.3262
20
-215.516
11
97.6119
21
-215.373
0
LINE
8
BLACK
6
CONTINUOUS
10
97.6119
20
-215.373
11
98.0405
21
-215.373
0
LINE
8
BLACK
6
CONTINUOUS
10
98.0405
20
-215.373
11
98.3262
21
-215.516
0
LINE
8
BLACK
6
CONTINUOUS
10
98.3262
20
-215.516
11
98.469
21
-215.801
0
LINE
8
BLACK
6
CONTINUOUS
10
98.469
20
-215.801
11
98.469
21
-217.373
0
LINE
8
BLACK
6
CONTINUOUS
10
100.326
20
-217.373
11
100.04
21
-217.23
0
LINE
8
BLACK
6
CONTINUOUS
10
100.04
20
-217.23
11
99.8976
21
-217.087
0
LINE
8
BLACK
6
CONTINUOUS
10
99.8976
20
-217.087
11
99.7548
21
-216.801
0
LINE
8
BLACK
6
CONTINUOUS
10
99.7548
20
-216.801
11
99.7548
21
-215.944
0
LINE
8
BLACK
6
CONTINUOUS
10
99.7548
20
-215.944
11
99.8976
21
-215.658
0
LINE
8
BLACK
6
CONTINUOUS
10
99.8976
20
-215.658
11
100.04
21
-215.516
0
LINE
8
BLACK
6
CONTINUOUS
10
100.04
20
-215.516
11
100.326
21
-215.373
0
LINE
8
BLACK
6
CONTINUOUS
10
100.326
20
-215.373
11
100.755
21
-215.373
0
LINE
8
BLACK
6
CONTINUOUS
10
100.755
20
-215.373
11
101.04
21
-215.516
0
LINE
8
BLACK
6
CONTINUOUS
10
101.04
20
-215.516
11
101.183
21
-215.658
0
LINE
8
BLACK
6
CONTINUOUS
10
101.183
20
-215.658
11
101.326
21
-215.944
0
LINE
8
BLACK
6
CONTINUOUS
10
101.326
20
-215.944
11
101.326
21
-216.801
0
LINE
8
BLACK
6
CONTINUOUS
10
101.326
20
-216.801
11
101.183
21
-217.087
0
LINE
8
BLACK
6
CONTINUOUS
10
101.183
20
-217.087
11
101.04
21
-217.23
0
LINE
8
BLACK
6
CONTINUOUS
10
101.04
20
-217.23
11
100.755
21
-217.373
0
LINE
8
BLACK
6
CONTINUOUS
10
100.755
20
-217.373
11
100.326
21
-217.373
0
LINE
8
BLACK
6
CONTINUOUS
10
102.183
20
-215.373
11
103.326
21
-215.373
0
LINE
8
BLACK
6
CONTINUOUS
10
102.612
20
-214.373
11
102.612
21
-216.944
0
LINE
8
BLACK
6
CONTINUOUS
10
102.612
20
-216.944
11
102.755
21
-217.23
0
LINE
8
BLACK
6
CONTINUOUS
10
102.755
20
-217.23
11
103.04
21
-217.373
0
LINE
8
BLACK
6
CONTINUOUS
10
103.04
20
-217.373
11
103.326
21
-217.373
0
LINE
8
BLACK
6
CONTINUOUS
10
106.612
20
-215.373
11
106.612
21
-218.373
0
LINE
8
BLACK
6
CONTINUOUS
10
106.612
20
-215.516
11
106.898
21
-215.373
0
LINE
8
BLACK
6
CONTINUOUS
10
106.898
20
-215.373
11
107.469
21
-215.373
0
LINE
8
BLACK
6
CONTINUOUS
10
107.469
20
-215.373
11
107.755
21
-215.516
0
LINE
8
BLACK
6
CONTINUOUS
10
107.755
20
-215.516
11
107.898
21
-215.658
0
LINE
8
BLACK
6
CONTINUOUS
10
107.898
20
-215.658
11
108.04
21
-215.944
0
LINE
8
BLACK
6
CONTINUOUS
10
108.04
20
-215.944
11
108.04
21
-216.801
0
LINE
8
BLACK
6
CONTINUOUS
10
108.04
20
-216.801
11
107.898
21
-217.087
0
LINE
8
BLACK
6
CONTINUOUS
10
107.898
20
-217.087
11
107.755
21
-217.23
0
LINE
8
BLACK
6
CONTINUOUS
10
107.755
20
-217.23
11
107.469
21
-217.373
0
LINE
8
BLACK
6
CONTINUOUS
10
107.469
20
-217.373
11
106.898
21
-217.373
0
LINE
8
BLACK
6
CONTINUOUS
10
106.898
20
-217.373
11
106.612
21
-217.23
0
LINE
8
BLACK
6
CONTINUOUS
10
109.755
20
-217.373
11
109.469
21
-217.23
0
LINE
8
BLACK
6
CONTINUOUS
10
109.469
20
-217.23
11
109.326
21
-216.944
0
LINE
8
BLACK
6
CONTINUOUS
10
109.326
20
-216.944
11
109.326
21
-214.373
0
LINE
8
BLACK
6
CONTINUOUS
10
112.183
20
-217.373
11
112.183
21
-215.801
0
LINE
8
BLACK
6
CONTINUOUS
10
112.183
20
-215.801
11
112.04
21
-215.516
0
LINE
8
BLACK
6
CONTINUOUS
10
112.04
20
-215.516
11
111.755
21
-215.373
0
LINE
8
BLACK
6
CONTINUOUS
10
111.755
20
-215.373
11
111.183
21
-215.373
0
LINE
8
BLACK
6
CONTINUOUS
10
111.183
20
-215.373
11
110.898
21
-215.516
0
LINE
8
BLACK
6
CONTINUOUS
10
112.183
20
-217.23
11
111.898
21
-217.373
0
LINE
8
BLACK
6
CONTINUOUS
10
111.898
20
-217.373
11
111.183
21
-217.373
0
LINE
8
BLACK
6
CONTINUOUS
10
111.183
20
-217.373
11
110.898
21
-217.23
0
LINE
8
BLACK
6
CONTINUOUS
10
110.898
20
-217.23
11
110.755
21
-216.944
0
LINE
8
BLACK
6
CONTINUOUS
10
110.755
20
-216.944
11
110.755
21
-216.658
0
LINE
8
BLACK
6
CONTINUOUS
10
110.755
20
-216.658
11
110.898
21
-216.373
0
LINE
8
BLACK
6
CONTINUOUS
10
110.898
20
-216.373
11
111.183
21
-216.23
0
LINE
8
BLACK
6
CONTINUOUS
10
111.183
20
-216.23
11
111.898
21
-216.23
0
LINE
8
BLACK
6
CONTINUOUS
10
111.898
20
-216.23
11
112.183
21
-216.087
0
LINE
8
BLACK
6
CONTINUOUS
10
113.183
20
-215.373
11
114.326
21
-215.373
0
LINE
8
BLACK
6
CONTINUOUS
10
113.612
20
-214.373
11
113.612
21
-216.944
0
LINE
8
BLACK
6
CONTINUOUS
10
113.612
20
-216.944
11
113.755
21
-217.23
0
LINE
8
BLACK
6
CONTINUOUS
10
113.755
20
-217.23
11
114.04
21
-217.373
0
LINE
8
BLACK
6
CONTINUOUS
10
114.04
20
-217.373
11
114.326
21
-217.373
0
LINE
8
BLACK
6
CONTINUOUS
10
116.469
20
-217.23
11
116.183
21
-217.373
0
LINE
8
BLACK
6
CONTINUOUS
10
116.183
20
-217.373
11
115.612
21
-217.373
0
LINE
8
BLACK
6
CONTINUOUS
10
115.612
20
-217.373
11
115.326
21
-217.23
0
LINE
8
BLACK
6
CONTINUOUS
10
115.326
20
-217.23
11
115.183
21
-216.944
0
LINE
8
BLACK
6
CONTINUOUS
10
115.183
20
-216.944
11
115.183
21
-215.801
0
LINE
8
BLACK
6
CONTINUOUS
10
115.183
20
-215.801
11
115.326
21
-215.516
0
LINE
8
BLACK
6
CONTINUOUS
10
115.326
20
-215.516
11
115.612
21
-215.373
0
LINE
8
BLACK
6
CONTINUOUS
10
115.612
20
-215.373
11
116.183
21
-215.373
0
LINE
8
BLACK
6
CONTINUOUS
10
116.183
20
-215.373
11
116.469
21
-215.516
0
LINE
8
BLACK
6
CONTINUOUS
10
116.469
20
-215.516
11
116.612
21
-215.801
0
LINE
8
BLACK
6
CONTINUOUS
10
116.612
20
-215.801
11
116.612
21
-216.087
0
LINE
8
BLACK
6
CONTINUOUS
10
116.612
20
-216.087
11
115.183
21
-216.373
0
LINE
8
BLACK
6
CONTINUOUS
10
119.183
20
-217.373
11
119.183
21
-214.373
0
LINE
8
BLACK
6
CONTINUOUS
10
119.183
20
-217.23
11
118.898
21
-217.373
0
LINE
8
BLACK
6
CONTINUOUS
10
118.898
20
-217.373
11
118.326
21
-217.373
0
LINE
8
BLACK
6
CONTINUOUS
10
118.326
20
-217.373
11
118.04
21
-217.23
0
LINE
8
BLACK
6
CONTINUOUS
10
118.04
20
-217.23
11
117.898
21
-217.087
0
LINE
8
BLACK
6
CONTINUOUS
10
117.898
20
-217.087
11
117.755
21
-216.801
0
LINE
8
BLACK
6
CONTINUOUS
10
117.755
20
-216.801
11
117.755
21
-215.944
0
LINE
8
BLACK
6
CONTINUOUS
10
117.755
20
-215.944
11
117.898
21
-215.658
0
LINE
8
BLACK
6
CONTINUOUS
10
117.898
20
-215.658
11
118.04
21
-215.516
0
LINE
8
BLACK
6
CONTINUOUS
10
118.04
20
-215.516
11
118.326
21
-215.373
0
LINE
8
BLACK
6
CONTINUOUS
10
118.326
20
-215.373
11
118.898
21
-215.373
0
LINE
8
BLACK
6
CONTINUOUS
10
118.898
20
-215.373
11
119.183
21
-215.516
0
LINE
8
BLACK
6
CONTINUOUS
10
120.326
20
-218.516
11
120.469
21
-218.373
0
LINE
8
BLACK
6
CONTINUOUS
10
120.469
20
-218.373
11
120.755
21
-217.944
0
LINE
8
BLACK
6
CONTINUOUS
10
120.755
20
-217.944
11
120.898
21
-217.658
0
LINE
8
BLACK
6
CONTINUOUS
10
120.898
20
-217.658
11
121.04
21
-217.23
0
LINE
8
BLACK
6
CONTINUOUS
10
121.04
20
-217.23
11
121.183
21
-216.516
0
LINE
8
BLACK
6
CONTINUOUS
10
121.183
20
-216.516
11
121.183
21
-215.944
0
LINE
8
BLACK
6
CONTINUOUS
10
121.183
20
-215.944
11
121.04
21
-215.23
0
LINE
8
BLACK
6
CONTINUOUS
10
121.04
20
-215.23
11
120.898
21
-214.801
0
LINE
8
BLACK
6
CONTINUOUS
10
120.898
20
-214.801
11
120.755
21
-214.516
0
LINE
8
BLACK
6
CONTINUOUS
10
120.755
20
-214.516
11
120.469
21
-214.087
0
LINE
8
BLACK
6
CONTINUOUS
10
120.469
20
-214.087
11
120.326
21
-213.944
  0
ENDSEC
  0
EOF
