%FSLAX45Y45*%
G04 Gerber Fmt 4.5, Leading zero omitted, Abs format (unit mm)*
G04 Created by KiCad (PCBNEW (5.0.1)-rc2) date 2018-10-18 11:00:09*
%MOMM*%
%LPD*%
G01*
G04 APERTURE LIST*
%ADD10C,0.381000*%
%ADD11C,0.200000*%
%ADD12C,0.300000*%
G04 APERTURE END LIST*
D10*
X19621500Y-15113000D02*
X19469100Y-15290800D01*
X19634200Y-3467100D02*
X19392900Y-3225800D01*
X12715240Y-15290800D02*
X19469100Y-15290800D01*
X19634200Y-15100300D02*
X19634200Y-3467100D01*
X19392900Y-3225800D02*
X14340840Y-3225800D01*
X14340840Y-3225800D02*
X14340840Y-3048000D01*
X14340840Y-3048000D02*
X13190220Y-3048000D01*
X13190220Y-3048000D02*
X13190220Y-3225800D01*
X13190220Y-3225800D02*
X9504680Y-3225800D01*
X9504680Y-3225800D02*
X9504680Y-3048000D01*
X9504680Y-3048000D02*
X8870950Y-3048000D01*
X8870950Y-3048000D02*
X8870950Y-3175000D01*
X8870950Y-3175000D02*
X8421370Y-3175000D01*
X8421370Y-3175000D02*
X8421370Y-3048000D01*
X8421370Y-3048000D02*
X7787640Y-3048000D01*
X7787640Y-3048000D02*
X7787640Y-3225800D01*
X7787640Y-3225800D02*
X6581140Y-3225800D01*
X6581140Y-3225800D02*
X6261100Y-3543300D01*
X6261100Y-3543300D02*
X6261100Y-12166600D01*
X6261100Y-12166600D02*
X5770880Y-12166600D01*
X5770880Y-12166600D02*
X2461768Y-13709650D01*
X2461768Y-13709650D02*
X2308098Y-14131544D01*
X2308098Y-14131544D02*
X4476496Y-18781776D01*
X4476496Y-18781776D02*
X4898390Y-18935192D01*
X4898390Y-18935192D02*
X12715240Y-15290800D01*
D11*
X7821100Y-4461100D02*
X7871900Y-4511900D01*
X7871900Y-4461100D02*
X7821100Y-4511900D01*
X8032680Y-4932680D02*
X8083480Y-4983480D01*
X8083480Y-4932680D02*
X8032680Y-4983480D01*
X12992100Y-4191000D02*
X13042900Y-4241800D01*
X13042900Y-4191000D02*
X12992100Y-4241800D01*
X14833600Y-4356100D02*
X14884400Y-4406900D01*
X14884400Y-4356100D02*
X14833600Y-4406900D01*
X14947900Y-4648200D02*
X14998700Y-4699000D01*
X14998700Y-4648200D02*
X14947900Y-4699000D01*
X15013940Y-5161280D02*
X15064740Y-5212080D01*
X15064740Y-5161280D02*
X15013940Y-5212080D01*
X15039340Y-5288280D02*
X15090140Y-5339080D01*
X15090140Y-5288280D02*
X15039340Y-5339080D01*
X15049500Y-5403850D02*
X15100300Y-5454650D01*
X15100300Y-5403850D02*
X15049500Y-5454650D01*
X15064740Y-5516880D02*
X15115540Y-5567680D01*
X15115540Y-5516880D02*
X15064740Y-5567680D01*
X15222220Y-5524500D02*
X15273020Y-5575300D01*
X15273020Y-5524500D02*
X15222220Y-5575300D01*
X15841980Y-14668500D02*
X15892780Y-14719300D01*
X15892780Y-14668500D02*
X15841980Y-14719300D01*
X16329660Y-5402580D02*
X16380460Y-5453380D01*
X16380460Y-5402580D02*
X16329660Y-5453380D01*
X17223740Y-5796280D02*
X17274540Y-5847080D01*
X17274540Y-5796280D02*
X17223740Y-5847080D01*
X17579340Y-7851140D02*
X17630140Y-7901940D01*
X17630140Y-7851140D02*
X17579340Y-7901940D01*
X17691100Y-9756140D02*
X17741900Y-9806940D01*
X17741900Y-9756140D02*
X17691100Y-9806940D01*
X17813020Y-11661140D02*
X17863820Y-11711940D01*
X17863820Y-11661140D02*
X17813020Y-11711940D01*
X17818100Y-4076700D02*
X17868900Y-4127500D01*
X17868900Y-4076700D02*
X17818100Y-4127500D01*
X18448020Y-3690620D02*
X18498820Y-3741420D01*
X18498820Y-3690620D02*
X18448020Y-3741420D01*
X19433540Y-5618480D02*
X19484340Y-5669280D01*
X19484340Y-5618480D02*
X19433540Y-5669280D01*
X13437616Y-3223006D02*
G75*
G03X13437616Y-3223006I-38100J0D01*
G01*
X13371416Y-3165856D02*
X13371416Y-3280156D01*
X13427616Y-3165856D02*
X13427616Y-3280156D01*
X13371416Y-3280156D02*
G75*
G03X13427616Y-3280156I28100J0D01*
G01*
X13427616Y-3165856D02*
G75*
G03X13371416Y-3165856I-28100J0D01*
G01*
X13642340Y-3727958D02*
G75*
G03X13642340Y-3727958I-38100J0D01*
G01*
X13722350Y-3608070D02*
G75*
G03X13722350Y-3608070I-38100J0D01*
G01*
X13802360Y-3727958D02*
G75*
G03X13802360Y-3727958I-38100J0D01*
G01*
X13882370Y-3608070D02*
G75*
G03X13882370Y-3608070I-38100J0D01*
G01*
X13962380Y-3727958D02*
G75*
G03X13962380Y-3727958I-38100J0D01*
G01*
X14167104Y-3223006D02*
G75*
G03X14167104Y-3223006I-38100J0D01*
G01*
X14100904Y-3165856D02*
X14100904Y-3280156D01*
X14157104Y-3165856D02*
X14157104Y-3280156D01*
X14100904Y-3280156D02*
G75*
G03X14157104Y-3280156I28100J0D01*
G01*
X14157104Y-3165856D02*
G75*
G03X14100904Y-3165856I-28100J0D01*
G01*
X18882740Y-5192480D02*
X18882740Y-5282480D01*
X18837740Y-5237480D02*
X18927740Y-5237480D01*
X19382740Y-5192480D02*
X19382740Y-5282480D01*
X19337740Y-5237480D02*
X19427740Y-5237480D01*
X18323023Y-9148289D02*
X18323023Y-9078243D01*
X18252977Y-9078243D01*
X18252977Y-9148289D01*
X18323023Y-9148289D01*
X18323023Y-9402289D02*
X18323023Y-9332243D01*
X18252977Y-9332243D01*
X18252977Y-9402289D01*
X18323023Y-9402289D01*
X19085023Y-9148289D02*
X19085023Y-9078243D01*
X19014977Y-9078243D01*
X19014977Y-9148289D01*
X19085023Y-9148289D01*
X19085023Y-9402289D02*
X19085023Y-9332243D01*
X19014977Y-9332243D01*
X19014977Y-9402289D01*
X19085023Y-9402289D01*
X16418023Y-14863289D02*
X16418023Y-14793243D01*
X16347977Y-14793243D01*
X16347977Y-14863289D01*
X16418023Y-14863289D01*
X16418023Y-15117289D02*
X16418023Y-15047243D01*
X16347977Y-15047243D01*
X16347977Y-15117289D01*
X16418023Y-15117289D01*
X17180023Y-14863289D02*
X17180023Y-14793243D01*
X17109977Y-14793243D01*
X17109977Y-14863289D01*
X17180023Y-14863289D01*
X17180023Y-15117289D02*
X17180023Y-15047243D01*
X17109977Y-15047243D01*
X17109977Y-15117289D01*
X17180023Y-15117289D01*
X18323023Y-12958289D02*
X18323023Y-12888243D01*
X18252977Y-12888243D01*
X18252977Y-12958289D01*
X18323023Y-12958289D01*
X18323023Y-13212289D02*
X18323023Y-13142243D01*
X18252977Y-13142243D01*
X18252977Y-13212289D01*
X18323023Y-13212289D01*
X19085023Y-12958289D02*
X19085023Y-12888243D01*
X19014977Y-12888243D01*
X19014977Y-12958289D01*
X19085023Y-12958289D01*
X19085023Y-13212289D02*
X19085023Y-13142243D01*
X19014977Y-13142243D01*
X19014977Y-13212289D01*
X19085023Y-13212289D01*
X12608023Y-12481023D02*
X12608023Y-12410977D01*
X12537977Y-12410977D01*
X12537977Y-12481023D01*
X12608023Y-12481023D01*
X12608023Y-12735023D02*
X12608023Y-12664977D01*
X12537977Y-12664977D01*
X12537977Y-12735023D01*
X12608023Y-12735023D01*
X13370023Y-12481023D02*
X13370023Y-12410977D01*
X13299977Y-12410977D01*
X13299977Y-12481023D01*
X13370023Y-12481023D01*
X13370023Y-12735023D02*
X13370023Y-12664977D01*
X13299977Y-12664977D01*
X13299977Y-12735023D01*
X13370023Y-12735023D01*
X14513023Y-6925789D02*
X14513023Y-6855743D01*
X14442977Y-6855743D01*
X14442977Y-6925789D01*
X14513023Y-6925789D01*
X14513023Y-7179789D02*
X14513023Y-7109743D01*
X14442977Y-7109743D01*
X14442977Y-7179789D01*
X14513023Y-7179789D01*
X15275023Y-6925789D02*
X15275023Y-6855743D01*
X15204977Y-6855743D01*
X15204977Y-6925789D01*
X15275023Y-6925789D01*
X15275023Y-7179789D02*
X15275023Y-7109743D01*
X15204977Y-7109743D01*
X15204977Y-7179789D01*
X15275023Y-7179789D01*
X14513023Y-8830789D02*
X14513023Y-8760743D01*
X14442977Y-8760743D01*
X14442977Y-8830789D01*
X14513023Y-8830789D01*
X14513023Y-9084789D02*
X14513023Y-9014743D01*
X14442977Y-9014743D01*
X14442977Y-9084789D01*
X14513023Y-9084789D01*
X15275023Y-8830789D02*
X15275023Y-8760743D01*
X15204977Y-8760743D01*
X15204977Y-8830789D01*
X15275023Y-8830789D01*
X15275023Y-9084789D02*
X15275023Y-9014743D01*
X15204977Y-9014743D01*
X15204977Y-9084789D01*
X15275023Y-9084789D01*
X14513023Y-10735789D02*
X14513023Y-10665743D01*
X14442977Y-10665743D01*
X14442977Y-10735789D01*
X14513023Y-10735789D01*
X14513023Y-10989789D02*
X14513023Y-10919743D01*
X14442977Y-10919743D01*
X14442977Y-10989789D01*
X14513023Y-10989789D01*
X15275023Y-10735789D02*
X15275023Y-10665743D01*
X15204977Y-10665743D01*
X15204977Y-10735789D01*
X15275023Y-10735789D01*
X15275023Y-10989789D02*
X15275023Y-10919743D01*
X15204977Y-10919743D01*
X15204977Y-10989789D01*
X15275023Y-10989789D01*
X5356460Y-14732461D02*
X5356460Y-14662414D01*
X5286413Y-14662414D01*
X5286413Y-14732461D01*
X5356460Y-14732461D01*
X6047067Y-14410426D02*
X6047067Y-14340379D01*
X5977020Y-14340379D01*
X5977020Y-14410426D01*
X6047067Y-14410426D01*
X18323023Y-11053289D02*
X18323023Y-10983243D01*
X18252977Y-10983243D01*
X18252977Y-11053289D01*
X18323023Y-11053289D01*
X18323023Y-11307289D02*
X18323023Y-11237243D01*
X18252977Y-11237243D01*
X18252977Y-11307289D01*
X18323023Y-11307289D01*
X19085023Y-11053289D02*
X19085023Y-10983243D01*
X19014977Y-10983243D01*
X19014977Y-11053289D01*
X19085023Y-11053289D01*
X19085023Y-11307289D02*
X19085023Y-11237243D01*
X19014977Y-11237243D01*
X19014977Y-11307289D01*
X19085023Y-11307289D01*
X6738258Y-15586758D02*
X6738258Y-15516711D01*
X6668211Y-15516711D01*
X6668211Y-15586758D01*
X6738258Y-15586758D01*
X6968460Y-15479413D02*
X6968460Y-15409366D01*
X6898414Y-15409366D01*
X6898414Y-15479413D01*
X6968460Y-15479413D01*
X7060293Y-16277364D02*
X7060293Y-16207318D01*
X6990247Y-16207318D01*
X6990247Y-16277364D01*
X7060293Y-16277364D01*
X7290495Y-16170019D02*
X7290495Y-16099973D01*
X7220449Y-16099973D01*
X7220449Y-16170019D01*
X7290495Y-16170019D01*
X3374304Y-14983315D02*
X3374304Y-14913269D01*
X3304257Y-14913269D01*
X3304257Y-14983315D01*
X3374304Y-14983315D01*
X3481649Y-15213517D02*
X3481649Y-15143471D01*
X3411602Y-15143471D01*
X3411602Y-15213517D01*
X3481649Y-15213517D01*
X4064911Y-14661280D02*
X4064911Y-14591233D01*
X3994864Y-14591233D01*
X3994864Y-14661280D01*
X4064911Y-14661280D01*
X4172256Y-14891482D02*
X4172256Y-14821436D01*
X4102209Y-14821436D01*
X4102209Y-14891482D01*
X4172256Y-14891482D01*
X8798023Y-12767789D02*
X8798023Y-12697743D01*
X8727977Y-12697743D01*
X8727977Y-12767789D01*
X8798023Y-12767789D01*
X8798023Y-13021789D02*
X8798023Y-12951743D01*
X8727977Y-12951743D01*
X8727977Y-13021789D01*
X8798023Y-13021789D01*
X9560023Y-12767789D02*
X9560023Y-12697743D01*
X9489977Y-12697743D01*
X9489977Y-12767789D01*
X9560023Y-12767789D01*
X9560023Y-13021789D02*
X9560023Y-12951743D01*
X9489977Y-12951743D01*
X9489977Y-13021789D01*
X9560023Y-13021789D01*
X10703023Y-6925789D02*
X10703023Y-6855743D01*
X10632977Y-6855743D01*
X10632977Y-6925789D01*
X10703023Y-6925789D01*
X10703023Y-7179789D02*
X10703023Y-7109743D01*
X10632977Y-7109743D01*
X10632977Y-7179789D01*
X10703023Y-7179789D01*
X11465023Y-6925789D02*
X11465023Y-6855743D01*
X11394977Y-6855743D01*
X11394977Y-6925789D01*
X11465023Y-6925789D01*
X11465023Y-7179789D02*
X11465023Y-7109743D01*
X11394977Y-7109743D01*
X11394977Y-7179789D01*
X11465023Y-7179789D01*
X5100742Y-14178389D02*
X5100742Y-14108343D01*
X5030696Y-14108343D01*
X5030696Y-14178389D01*
X5100742Y-14178389D01*
X5208087Y-14408591D02*
X5208087Y-14338545D01*
X5138041Y-14338545D01*
X5138041Y-14408591D01*
X5208087Y-14408591D01*
X5791349Y-13856354D02*
X5791349Y-13786307D01*
X5721302Y-13786307D01*
X5721302Y-13856354D01*
X5791349Y-13856354D01*
X5898694Y-14086556D02*
X5898694Y-14016510D01*
X5828647Y-14016510D01*
X5828647Y-14086556D01*
X5898694Y-14086556D01*
X8798023Y-8957789D02*
X8798023Y-8887743D01*
X8727977Y-8887743D01*
X8727977Y-8957789D01*
X8798023Y-8957789D01*
X8798023Y-9211789D02*
X8798023Y-9141743D01*
X8727977Y-9141743D01*
X8727977Y-9211789D01*
X8798023Y-9211789D01*
X9560023Y-8957789D02*
X9560023Y-8887743D01*
X9489977Y-8887743D01*
X9489977Y-8957789D01*
X9560023Y-8957789D01*
X9560023Y-9211789D02*
X9560023Y-9141743D01*
X9489977Y-9141743D01*
X9489977Y-9211789D01*
X9560023Y-9211789D01*
X16418023Y-12958289D02*
X16418023Y-12888243D01*
X16347977Y-12888243D01*
X16347977Y-12958289D01*
X16418023Y-12958289D01*
X16418023Y-13212289D02*
X16418023Y-13142243D01*
X16347977Y-13142243D01*
X16347977Y-13212289D01*
X16418023Y-13212289D01*
X17180023Y-12958289D02*
X17180023Y-12888243D01*
X17109977Y-12888243D01*
X17109977Y-12958289D01*
X17180023Y-12958289D01*
X17180023Y-13212289D02*
X17180023Y-13142243D01*
X17109977Y-13142243D01*
X17109977Y-13212289D01*
X17180023Y-13212289D01*
X8464696Y-14781578D02*
X8464696Y-14711531D01*
X8394650Y-14711531D01*
X8394650Y-14781578D01*
X8464696Y-14781578D01*
X8694898Y-14674233D02*
X8694898Y-14604186D01*
X8624852Y-14604186D01*
X8624852Y-14674233D01*
X8694898Y-14674233D01*
X8786731Y-15472184D02*
X8786731Y-15402138D01*
X8716685Y-15402138D01*
X8716685Y-15472184D01*
X8786731Y-15472184D01*
X9016933Y-15364839D02*
X9016933Y-15294793D01*
X8946887Y-15294793D01*
X8946887Y-15364839D01*
X9016933Y-15364839D01*
X10703023Y-12640789D02*
X10703023Y-12570743D01*
X10632977Y-12570743D01*
X10632977Y-12640789D01*
X10703023Y-12640789D01*
X10703023Y-12894789D02*
X10703023Y-12824743D01*
X10632977Y-12824743D01*
X10632977Y-12894789D01*
X10703023Y-12894789D01*
X11465023Y-12640789D02*
X11465023Y-12570743D01*
X11394977Y-12570743D01*
X11394977Y-12640789D01*
X11465023Y-12640789D01*
X11465023Y-12894789D02*
X11465023Y-12824743D01*
X11394977Y-12824743D01*
X11394977Y-12894789D01*
X11465023Y-12894789D01*
X12608023Y-8671023D02*
X12608023Y-8600977D01*
X12537977Y-8600977D01*
X12537977Y-8671023D01*
X12608023Y-8671023D01*
X12608023Y-8925023D02*
X12608023Y-8854977D01*
X12537977Y-8854977D01*
X12537977Y-8925023D01*
X12608023Y-8925023D01*
X13370023Y-8671023D02*
X13370023Y-8600977D01*
X13299977Y-8600977D01*
X13299977Y-8671023D01*
X13370023Y-8671023D01*
X13370023Y-8925023D02*
X13370023Y-8854977D01*
X13299977Y-8854977D01*
X13299977Y-8925023D01*
X13370023Y-8925023D01*
X18323023Y-7243543D02*
X18323023Y-7173497D01*
X18252977Y-7173497D01*
X18252977Y-7243543D01*
X18323023Y-7243543D01*
X18323023Y-7497543D02*
X18323023Y-7427497D01*
X18252977Y-7427497D01*
X18252977Y-7497543D01*
X18323023Y-7497543D01*
X19085023Y-7243543D02*
X19085023Y-7173497D01*
X19014977Y-7173497D01*
X19014977Y-7243543D01*
X19085023Y-7243543D01*
X19085023Y-7497543D02*
X19085023Y-7427497D01*
X19014977Y-7427497D01*
X19014977Y-7497543D01*
X19085023Y-7497543D01*
X10703023Y-8830789D02*
X10703023Y-8760743D01*
X10632977Y-8760743D01*
X10632977Y-8830789D01*
X10703023Y-8830789D01*
X10703023Y-9084789D02*
X10703023Y-9014743D01*
X10632977Y-9014743D01*
X10632977Y-9084789D01*
X10703023Y-9084789D01*
X11465023Y-8830789D02*
X11465023Y-8760743D01*
X11394977Y-8760743D01*
X11394977Y-8830789D01*
X11465023Y-8830789D01*
X11465023Y-9084789D02*
X11465023Y-9014743D01*
X11394977Y-9014743D01*
X11394977Y-9084789D01*
X11465023Y-9084789D01*
X8798023Y-7053043D02*
X8798023Y-6982997D01*
X8727977Y-6982997D01*
X8727977Y-7053043D01*
X8798023Y-7053043D01*
X8798023Y-7307043D02*
X8798023Y-7236997D01*
X8727977Y-7236997D01*
X8727977Y-7307043D01*
X8798023Y-7307043D01*
X9560023Y-7053043D02*
X9560023Y-6982997D01*
X9489977Y-6982997D01*
X9489977Y-7053043D01*
X9560023Y-7053043D01*
X9560023Y-7307043D02*
X9560023Y-7236997D01*
X9489977Y-7236997D01*
X9489977Y-7307043D01*
X9560023Y-7307043D01*
X4179230Y-16709753D02*
X4179230Y-16639707D01*
X4109183Y-16639707D01*
X4109183Y-16709753D01*
X4179230Y-16709753D01*
X4286575Y-16939955D02*
X4286575Y-16869909D01*
X4216529Y-16869909D01*
X4216529Y-16939955D01*
X4286575Y-16939955D01*
X4869837Y-16387718D02*
X4869837Y-16317671D01*
X4799790Y-16317671D01*
X4799790Y-16387718D01*
X4869837Y-16387718D01*
X4977182Y-16617920D02*
X4977182Y-16547874D01*
X4907135Y-16547874D01*
X4907135Y-16617920D01*
X4977182Y-16617920D01*
X18323023Y-14863289D02*
X18323023Y-14793243D01*
X18252977Y-14793243D01*
X18252977Y-14863289D01*
X18323023Y-14863289D01*
X18323023Y-15117289D02*
X18323023Y-15047243D01*
X18252977Y-15047243D01*
X18252977Y-15117289D01*
X18323023Y-15117289D01*
X19085023Y-14863289D02*
X19085023Y-14793243D01*
X19014977Y-14793243D01*
X19014977Y-14863289D01*
X19085023Y-14863289D01*
X19085023Y-15117289D02*
X19085023Y-15047243D01*
X19014977Y-15047243D01*
X19014977Y-15117289D01*
X19085023Y-15117289D01*
X10143523Y-3681523D02*
X10143523Y-3611477D01*
X10073477Y-3611477D01*
X10073477Y-3681523D01*
X10143523Y-3681523D01*
X11159523Y-3681523D02*
X11159523Y-3611477D01*
X11089477Y-3611477D01*
X11089477Y-3681523D01*
X11159523Y-3681523D01*
X16418023Y-11053289D02*
X16418023Y-10983243D01*
X16347977Y-10983243D01*
X16347977Y-11053289D01*
X16418023Y-11053289D01*
X16418023Y-11307289D02*
X16418023Y-11237243D01*
X16347977Y-11237243D01*
X16347977Y-11307289D01*
X16418023Y-11307289D01*
X17180023Y-11053289D02*
X17180023Y-10983243D01*
X17109977Y-10983243D01*
X17109977Y-11053289D01*
X17180023Y-11053289D01*
X17180023Y-11307289D02*
X17180023Y-11237243D01*
X17109977Y-11237243D01*
X17109977Y-11307289D01*
X17180023Y-11307289D01*
X9433023Y-3527523D02*
X9433023Y-3457477D01*
X9362977Y-3457477D01*
X9362977Y-3527523D01*
X9433023Y-3527523D01*
X9433023Y-3781523D02*
X9433023Y-3711477D01*
X9362977Y-3711477D01*
X9362977Y-3781523D01*
X9433023Y-3781523D01*
X9433023Y-4035523D02*
X9433023Y-3965477D01*
X9362977Y-3965477D01*
X9362977Y-4035523D01*
X9433023Y-4035523D01*
X16418023Y-9148289D02*
X16418023Y-9078243D01*
X16347977Y-9078243D01*
X16347977Y-9148289D01*
X16418023Y-9148289D01*
X16418023Y-9402289D02*
X16418023Y-9332243D01*
X16347977Y-9332243D01*
X16347977Y-9402289D01*
X16418023Y-9402289D01*
X17180023Y-9148289D02*
X17180023Y-9078243D01*
X17109977Y-9078243D01*
X17109977Y-9148289D01*
X17180023Y-9148289D01*
X17180023Y-9402289D02*
X17180023Y-9332243D01*
X17109977Y-9332243D01*
X17109977Y-9402289D01*
X17180023Y-9402289D01*
X16418023Y-7243543D02*
X16418023Y-7173497D01*
X16347977Y-7173497D01*
X16347977Y-7243543D01*
X16418023Y-7243543D01*
X16418023Y-7497543D02*
X16418023Y-7427497D01*
X16347977Y-7427497D01*
X16347977Y-7497543D01*
X16418023Y-7497543D01*
X17180023Y-7243543D02*
X17180023Y-7173497D01*
X17109977Y-7173497D01*
X17109977Y-7243543D01*
X17180023Y-7243543D01*
X17180023Y-7497543D02*
X17180023Y-7427497D01*
X17109977Y-7427497D01*
X17109977Y-7497543D01*
X17180023Y-7497543D01*
X7083660Y-13934901D02*
X7083660Y-13864854D01*
X7013613Y-13864854D01*
X7013613Y-13934901D01*
X7083660Y-13934901D01*
X7774267Y-13612866D02*
X7774267Y-13542819D01*
X7704220Y-13542819D01*
X7704220Y-13612866D01*
X7774267Y-13612866D01*
X10144223Y-4010123D02*
X10144223Y-3940077D01*
X10074177Y-3940077D01*
X10074177Y-4010123D01*
X10144223Y-4010123D01*
X11160223Y-4010123D02*
X11160223Y-3940077D01*
X11090177Y-3940077D01*
X11090177Y-4010123D01*
X11160223Y-4010123D01*
X10703023Y-14545789D02*
X10703023Y-14475743D01*
X10632977Y-14475743D01*
X10632977Y-14545789D01*
X10703023Y-14545789D01*
X10703023Y-14799789D02*
X10703023Y-14729743D01*
X10632977Y-14729743D01*
X10632977Y-14799789D01*
X10703023Y-14799789D01*
X11465023Y-14545789D02*
X11465023Y-14475743D01*
X11394977Y-14475743D01*
X11394977Y-14545789D01*
X11465023Y-14545789D01*
X11465023Y-14799789D02*
X11465023Y-14729743D01*
X11394977Y-14729743D01*
X11394977Y-14799789D01*
X11465023Y-14799789D01*
X14513023Y-14545789D02*
X14513023Y-14475743D01*
X14442977Y-14475743D01*
X14442977Y-14545789D01*
X14513023Y-14545789D01*
X14513023Y-14799789D02*
X14513023Y-14729743D01*
X14442977Y-14729743D01*
X14442977Y-14799789D01*
X14513023Y-14799789D01*
X15275023Y-14545789D02*
X15275023Y-14475743D01*
X15204977Y-14475743D01*
X15204977Y-14545789D01*
X15275023Y-14545789D01*
X15275023Y-14799789D02*
X15275023Y-14729743D01*
X15204977Y-14729743D01*
X15204977Y-14799789D01*
X15275023Y-14799789D01*
X7909023Y-3527523D02*
X7909023Y-3457477D01*
X7838977Y-3457477D01*
X7838977Y-3527523D01*
X7909023Y-3527523D01*
X7909023Y-3781523D02*
X7909023Y-3711477D01*
X7838977Y-3711477D01*
X7838977Y-3781523D01*
X7909023Y-3781523D01*
X7909023Y-4035523D02*
X7909023Y-3965477D01*
X7838977Y-3965477D01*
X7838977Y-4035523D01*
X7909023Y-4035523D01*
X12608023Y-6766023D02*
X12608023Y-6695977D01*
X12537977Y-6695977D01*
X12537977Y-6766023D01*
X12608023Y-6766023D01*
X12608023Y-7020023D02*
X12608023Y-6949977D01*
X12537977Y-6949977D01*
X12537977Y-7020023D01*
X12608023Y-7020023D01*
X13370023Y-6766023D02*
X13370023Y-6695977D01*
X13299977Y-6695977D01*
X13299977Y-6766023D01*
X13370023Y-6766023D01*
X13370023Y-7020023D02*
X13370023Y-6949977D01*
X13299977Y-6949977D01*
X13299977Y-7020023D01*
X13370023Y-7020023D01*
X6884673Y-12771088D02*
X6884673Y-12701041D01*
X6814626Y-12701041D01*
X6814626Y-12771088D01*
X6884673Y-12771088D01*
X6884673Y-13025088D02*
X6884673Y-12955041D01*
X6814626Y-12955041D01*
X6814626Y-13025088D01*
X6884673Y-13025088D01*
X7646673Y-12771088D02*
X7646673Y-12701041D01*
X7576626Y-12701041D01*
X7576626Y-12771088D01*
X7646673Y-12771088D01*
X7646673Y-13025088D02*
X7646673Y-12955041D01*
X7576626Y-12955041D01*
X7576626Y-13025088D01*
X7646673Y-13025088D01*
X12608023Y-10576023D02*
X12608023Y-10505977D01*
X12537977Y-10505977D01*
X12537977Y-10576023D01*
X12608023Y-10576023D01*
X12608023Y-10830023D02*
X12608023Y-10759977D01*
X12537977Y-10759977D01*
X12537977Y-10830023D01*
X12608023Y-10830023D01*
X13370023Y-10576023D02*
X13370023Y-10505977D01*
X13299977Y-10505977D01*
X13299977Y-10576023D01*
X13370023Y-10576023D01*
X13370023Y-10830023D02*
X13370023Y-10759977D01*
X13299977Y-10759977D01*
X13299977Y-10830023D01*
X13370023Y-10830023D01*
X7771523Y-4233523D02*
X7771523Y-4163477D01*
X7701477Y-4163477D01*
X7701477Y-4233523D01*
X7771523Y-4233523D01*
X7771523Y-5249523D02*
X7771523Y-5179477D01*
X7701477Y-5179477D01*
X7701477Y-5249523D01*
X7771523Y-5249523D01*
X4984410Y-18436445D02*
X4984410Y-18366399D01*
X4914364Y-18366399D01*
X4914364Y-18436445D01*
X4984410Y-18436445D01*
X5091755Y-18666647D02*
X5091755Y-18596601D01*
X5021709Y-18596601D01*
X5021709Y-18666647D01*
X5091755Y-18666647D01*
X5675017Y-18114410D02*
X5675017Y-18044364D01*
X5604970Y-18044364D01*
X5604970Y-18114410D01*
X5675017Y-18114410D01*
X5782362Y-18344612D02*
X5782362Y-18274566D01*
X5712315Y-18274566D01*
X5712315Y-18344612D01*
X5782362Y-18344612D01*
X7101523Y-4233523D02*
X7101523Y-4163477D01*
X7031477Y-4163477D01*
X7031477Y-4233523D01*
X7101523Y-4233523D01*
X7101523Y-5249523D02*
X7101523Y-5179477D01*
X7031477Y-5179477D01*
X7031477Y-5249523D01*
X7101523Y-5249523D01*
X13316683Y-4060923D02*
X13316683Y-3990877D01*
X13246637Y-3990877D01*
X13246637Y-4060923D01*
X13316683Y-4060923D01*
X13557983Y-4060923D02*
X13557983Y-3990877D01*
X13487937Y-3990877D01*
X13487937Y-4060923D01*
X13557983Y-4060923D01*
X13799283Y-4060923D02*
X13799283Y-3990877D01*
X13729237Y-3990877D01*
X13729237Y-4060923D01*
X13799283Y-4060923D01*
X14040583Y-4060923D02*
X14040583Y-3990877D01*
X13970537Y-3990877D01*
X13970537Y-4060923D01*
X14040583Y-4060923D01*
X14281883Y-4060923D02*
X14281883Y-3990877D01*
X14211837Y-3990877D01*
X14211837Y-4060923D01*
X14281883Y-4060923D01*
X6893023Y-7053043D02*
X6893023Y-6982997D01*
X6822977Y-6982997D01*
X6822977Y-7053043D01*
X6893023Y-7053043D01*
X6893023Y-7307043D02*
X6893023Y-7236997D01*
X6822977Y-7236997D01*
X6822977Y-7307043D01*
X6893023Y-7307043D01*
X7655023Y-7053043D02*
X7655023Y-6982997D01*
X7584977Y-6982997D01*
X7584977Y-7053043D01*
X7655023Y-7053043D01*
X7655023Y-7307043D02*
X7655023Y-7236997D01*
X7584977Y-7236997D01*
X7584977Y-7307043D01*
X7655023Y-7307043D01*
X6893277Y-8959313D02*
X6893277Y-8889267D01*
X6823231Y-8889267D01*
X6823231Y-8959313D01*
X6893277Y-8959313D01*
X6893277Y-9213313D02*
X6893277Y-9143267D01*
X6823231Y-9143267D01*
X6823231Y-9213313D01*
X6893277Y-9213313D01*
X7655277Y-8959313D02*
X7655277Y-8889267D01*
X7585231Y-8889267D01*
X7585231Y-8959313D01*
X7655277Y-8959313D01*
X7655277Y-9213313D02*
X7655277Y-9143267D01*
X7585231Y-9143267D01*
X7585231Y-9213313D01*
X7655277Y-9213313D01*
X8798023Y-10862789D02*
X8798023Y-10792743D01*
X8727977Y-10792743D01*
X8727977Y-10862789D01*
X8798023Y-10862789D01*
X8798023Y-11116789D02*
X8798023Y-11046743D01*
X8727977Y-11046743D01*
X8727977Y-11116789D01*
X8798023Y-11116789D01*
X9560023Y-10862789D02*
X9560023Y-10792743D01*
X9489977Y-10792743D01*
X9489977Y-10862789D01*
X9560023Y-10862789D01*
X9560023Y-11116789D02*
X9560023Y-11046743D01*
X9489977Y-11046743D01*
X9489977Y-11116789D01*
X9560023Y-11116789D01*
X7431523Y-4233523D02*
X7431523Y-4163477D01*
X7361477Y-4163477D01*
X7361477Y-4233523D01*
X7431523Y-4233523D01*
X7431523Y-5249523D02*
X7431523Y-5179477D01*
X7361477Y-5179477D01*
X7361477Y-5249523D01*
X7431523Y-5249523D01*
X12608023Y-14386023D02*
X12608023Y-14315977D01*
X12537977Y-14315977D01*
X12537977Y-14386023D01*
X12608023Y-14386023D01*
X12608023Y-14640023D02*
X12608023Y-14569977D01*
X12537977Y-14569977D01*
X12537977Y-14640023D01*
X12608023Y-14640023D01*
X13370023Y-14386023D02*
X13370023Y-14315977D01*
X13299977Y-14315977D01*
X13299977Y-14386023D01*
X13370023Y-14386023D01*
X13370023Y-14640023D02*
X13370023Y-14569977D01*
X13299977Y-14569977D01*
X13299977Y-14640023D01*
X13370023Y-14640023D01*
X6893277Y-10864313D02*
X6893277Y-10794267D01*
X6823231Y-10794267D01*
X6823231Y-10864313D01*
X6893277Y-10864313D01*
X6893277Y-11118313D02*
X6893277Y-11048267D01*
X6823231Y-11048267D01*
X6823231Y-11118313D01*
X6893277Y-11118313D01*
X7655277Y-10864313D02*
X7655277Y-10794267D01*
X7585231Y-10794267D01*
X7585231Y-10864313D01*
X7655277Y-10864313D01*
X7655277Y-11118313D02*
X7655277Y-11048267D01*
X7585231Y-11048267D01*
X7585231Y-11118313D01*
X7655277Y-11118313D01*
X10703023Y-10735789D02*
X10703023Y-10665743D01*
X10632977Y-10665743D01*
X10632977Y-10735789D01*
X10703023Y-10735789D01*
X10703023Y-10989789D02*
X10703023Y-10919743D01*
X10632977Y-10919743D01*
X10632977Y-10989789D01*
X10703023Y-10989789D01*
X11465023Y-10735789D02*
X11465023Y-10665743D01*
X11394977Y-10665743D01*
X11394977Y-10735789D01*
X11465023Y-10735789D01*
X11465023Y-10989789D02*
X11465023Y-10919743D01*
X11394977Y-10919743D01*
X11394977Y-10989789D01*
X11465023Y-10989789D01*
X14513023Y-12640789D02*
X14513023Y-12570743D01*
X14442977Y-12570743D01*
X14442977Y-12640789D01*
X14513023Y-12640789D01*
X14513023Y-12894789D02*
X14513023Y-12824743D01*
X14442977Y-12824743D01*
X14442977Y-12894789D01*
X14513023Y-12894789D01*
X15275023Y-12640789D02*
X15275023Y-12570743D01*
X15204977Y-12570743D01*
X15204977Y-12640789D01*
X15275023Y-12640789D01*
X15275023Y-12894789D02*
X15275023Y-12824743D01*
X15204977Y-12824743D01*
X15204977Y-12894789D01*
X15275023Y-12894789D01*
X6646500Y-4812538D02*
X6696538Y-4762500D01*
X6646500Y-4712462D01*
X6596462Y-4762500D01*
X6646500Y-4812538D01*
X6646500Y-5066538D02*
X6696538Y-5016500D01*
X6646500Y-4966462D01*
X6596462Y-5016500D01*
X6646500Y-5066538D01*
X6646500Y-3542538D02*
X6696538Y-3492500D01*
X6646500Y-3442462D01*
X6596462Y-3492500D01*
X6646500Y-3542538D01*
X6646500Y-3796538D02*
X6696538Y-3746500D01*
X6646500Y-3696462D01*
X6596462Y-3746500D01*
X6646500Y-3796538D01*
X6646500Y-4172538D02*
X6696538Y-4122500D01*
X6646500Y-4072462D01*
X6596462Y-4122500D01*
X6646500Y-4172538D01*
X6646500Y-4426538D02*
X6696538Y-4376500D01*
X6646500Y-4326462D01*
X6596462Y-4376500D01*
X6646500Y-4426538D01*
X18601817Y-4962017D02*
X18710783Y-5070983D01*
X18710783Y-4962017D02*
X18601817Y-5070983D01*
X18710783Y-5016500D02*
G75*
G03X18710783Y-5016500I-54483J0D01*
G01*
X15807690Y-3437890D02*
X15916910Y-3547110D01*
X15916910Y-3437890D02*
X15807690Y-3547110D01*
X15862300Y-3437890D02*
X15862300Y-3547110D01*
X15807690Y-3492500D02*
X15916910Y-3492500D01*
X15807690Y-4961890D02*
X15916910Y-5071110D01*
X15916910Y-4961890D02*
X15807690Y-5071110D01*
X15862300Y-4961890D02*
X15862300Y-5071110D01*
X15807690Y-5016500D02*
X15916910Y-5016500D01*
X16061690Y-3437890D02*
X16170910Y-3547110D01*
X16170910Y-3437890D02*
X16061690Y-3547110D01*
X16116300Y-3437890D02*
X16116300Y-3547110D01*
X16061690Y-3492500D02*
X16170910Y-3492500D01*
X16061690Y-4961890D02*
X16170910Y-5071110D01*
X16170910Y-4961890D02*
X16061690Y-5071110D01*
X16116300Y-4961890D02*
X16116300Y-5071110D01*
X16061690Y-5016500D02*
X16170910Y-5016500D01*
X16315690Y-3437890D02*
X16424910Y-3547110D01*
X16424910Y-3437890D02*
X16315690Y-3547110D01*
X16370300Y-3437890D02*
X16370300Y-3547110D01*
X16315690Y-3492500D02*
X16424910Y-3492500D01*
X16315690Y-4961890D02*
X16424910Y-5071110D01*
X16424910Y-4961890D02*
X16315690Y-5071110D01*
X16370300Y-4961890D02*
X16370300Y-5071110D01*
X16315690Y-5016500D02*
X16424910Y-5016500D01*
X16569690Y-3437890D02*
X16678910Y-3547110D01*
X16678910Y-3437890D02*
X16569690Y-3547110D01*
X16624300Y-3437890D02*
X16624300Y-3547110D01*
X16569690Y-3492500D02*
X16678910Y-3492500D01*
X16569690Y-4961890D02*
X16678910Y-5071110D01*
X16678910Y-4961890D02*
X16569690Y-5071110D01*
X16624300Y-4961890D02*
X16624300Y-5071110D01*
X16569690Y-5016500D02*
X16678910Y-5016500D01*
X16823690Y-3437890D02*
X16932910Y-3547110D01*
X16932910Y-3437890D02*
X16823690Y-3547110D01*
X16878300Y-3437890D02*
X16878300Y-3547110D01*
X16823690Y-3492500D02*
X16932910Y-3492500D01*
X16823690Y-4961890D02*
X16932910Y-5071110D01*
X16932910Y-4961890D02*
X16823690Y-5071110D01*
X16878300Y-4961890D02*
X16878300Y-5071110D01*
X16823690Y-5016500D02*
X16932910Y-5016500D01*
X17077690Y-3437890D02*
X17186910Y-3547110D01*
X17186910Y-3437890D02*
X17077690Y-3547110D01*
X17132300Y-3437890D02*
X17132300Y-3547110D01*
X17077690Y-3492500D02*
X17186910Y-3492500D01*
X17077690Y-4961890D02*
X17186910Y-5071110D01*
X17186910Y-4961890D02*
X17077690Y-5071110D01*
X17132300Y-4961890D02*
X17132300Y-5071110D01*
X17077690Y-5016500D02*
X17186910Y-5016500D01*
X17331690Y-3437890D02*
X17440910Y-3547110D01*
X17440910Y-3437890D02*
X17331690Y-3547110D01*
X17386300Y-3437890D02*
X17386300Y-3547110D01*
X17331690Y-3492500D02*
X17440910Y-3492500D01*
X17331690Y-4961890D02*
X17440910Y-5071110D01*
X17440910Y-4961890D02*
X17331690Y-5071110D01*
X17386300Y-4961890D02*
X17386300Y-5071110D01*
X17331690Y-5016500D02*
X17440910Y-5016500D01*
X17585690Y-3437890D02*
X17694910Y-3547110D01*
X17694910Y-3437890D02*
X17585690Y-3547110D01*
X17640300Y-3437890D02*
X17640300Y-3547110D01*
X17585690Y-3492500D02*
X17694910Y-3492500D01*
X17585690Y-4961890D02*
X17694910Y-5071110D01*
X17694910Y-4961890D02*
X17585690Y-5071110D01*
X17640300Y-4961890D02*
X17640300Y-5071110D01*
X17585690Y-5016500D02*
X17694910Y-5016500D01*
X17839690Y-3437890D02*
X17948910Y-3547110D01*
X17948910Y-3437890D02*
X17839690Y-3547110D01*
X17894300Y-3437890D02*
X17894300Y-3547110D01*
X17839690Y-3492500D02*
X17948910Y-3492500D01*
X17839690Y-4961890D02*
X17948910Y-5071110D01*
X17948910Y-4961890D02*
X17839690Y-5071110D01*
X17894300Y-4961890D02*
X17894300Y-5071110D01*
X17839690Y-5016500D02*
X17948910Y-5016500D01*
X18093690Y-3437890D02*
X18202910Y-3547110D01*
X18202910Y-3437890D02*
X18093690Y-3547110D01*
X18148300Y-3437890D02*
X18148300Y-3547110D01*
X18093690Y-3492500D02*
X18202910Y-3492500D01*
X18093690Y-4961890D02*
X18202910Y-5071110D01*
X18202910Y-4961890D02*
X18093690Y-5071110D01*
X18148300Y-4961890D02*
X18148300Y-5071110D01*
X18093690Y-5016500D02*
X18202910Y-5016500D01*
X18347690Y-3437890D02*
X18456910Y-3547110D01*
X18456910Y-3437890D02*
X18347690Y-3547110D01*
X18402300Y-3437890D02*
X18402300Y-3547110D01*
X18347690Y-3492500D02*
X18456910Y-3492500D01*
X18347690Y-4961890D02*
X18456910Y-5071110D01*
X18456910Y-4961890D02*
X18347690Y-5071110D01*
X18402300Y-4961890D02*
X18402300Y-5071110D01*
X18347690Y-5016500D02*
X18456910Y-5016500D01*
X18601690Y-3437890D02*
X18710910Y-3547110D01*
X18710910Y-3437890D02*
X18601690Y-3547110D01*
X18656300Y-3437890D02*
X18656300Y-3547110D01*
X18601690Y-3492500D02*
X18710910Y-3492500D01*
X15806190Y-3816390D02*
X15915410Y-3925610D01*
X15915410Y-3816390D02*
X15806190Y-3925610D01*
X15860800Y-3816390D02*
X15860800Y-3925610D01*
X15806190Y-3871000D02*
X15915410Y-3871000D01*
X15806190Y-4578390D02*
X15915410Y-4687610D01*
X15915410Y-4578390D02*
X15806190Y-4687610D01*
X15860800Y-4578390D02*
X15860800Y-4687610D01*
X15806190Y-4633000D02*
X15915410Y-4633000D01*
X16060190Y-3816390D02*
X16169410Y-3925610D01*
X16169410Y-3816390D02*
X16060190Y-3925610D01*
X16114800Y-3816390D02*
X16114800Y-3925610D01*
X16060190Y-3871000D02*
X16169410Y-3871000D01*
X16060190Y-4578390D02*
X16169410Y-4687610D01*
X16169410Y-4578390D02*
X16060190Y-4687610D01*
X16114800Y-4578390D02*
X16114800Y-4687610D01*
X16060190Y-4633000D02*
X16169410Y-4633000D01*
X16314190Y-3816390D02*
X16423410Y-3925610D01*
X16423410Y-3816390D02*
X16314190Y-3925610D01*
X16368800Y-3816390D02*
X16368800Y-3925610D01*
X16314190Y-3871000D02*
X16423410Y-3871000D01*
X16314190Y-4578390D02*
X16423410Y-4687610D01*
X16423410Y-4578390D02*
X16314190Y-4687610D01*
X16368800Y-4578390D02*
X16368800Y-4687610D01*
X16314190Y-4633000D02*
X16423410Y-4633000D01*
X16568190Y-3816390D02*
X16677410Y-3925610D01*
X16677410Y-3816390D02*
X16568190Y-3925610D01*
X16622800Y-3816390D02*
X16622800Y-3925610D01*
X16568190Y-3871000D02*
X16677410Y-3871000D01*
X16568190Y-4578390D02*
X16677410Y-4687610D01*
X16677410Y-4578390D02*
X16568190Y-4687610D01*
X16622800Y-4578390D02*
X16622800Y-4687610D01*
X16568190Y-4633000D02*
X16677410Y-4633000D01*
X16822190Y-3816390D02*
X16931410Y-3925610D01*
X16931410Y-3816390D02*
X16822190Y-3925610D01*
X16876800Y-3816390D02*
X16876800Y-3925610D01*
X16822190Y-3871000D02*
X16931410Y-3871000D01*
X16822190Y-4578390D02*
X16931410Y-4687610D01*
X16931410Y-4578390D02*
X16822190Y-4687610D01*
X16876800Y-4578390D02*
X16876800Y-4687610D01*
X16822190Y-4633000D02*
X16931410Y-4633000D01*
X17076190Y-3816390D02*
X17185410Y-3925610D01*
X17185410Y-3816390D02*
X17076190Y-3925610D01*
X17130800Y-3816390D02*
X17130800Y-3925610D01*
X17076190Y-3871000D02*
X17185410Y-3871000D01*
X17076190Y-4578390D02*
X17185410Y-4687610D01*
X17185410Y-4578390D02*
X17076190Y-4687610D01*
X17130800Y-4578390D02*
X17130800Y-4687610D01*
X17076190Y-4633000D02*
X17185410Y-4633000D01*
X17330190Y-3816390D02*
X17439410Y-3925610D01*
X17439410Y-3816390D02*
X17330190Y-3925610D01*
X17384800Y-3816390D02*
X17384800Y-3925610D01*
X17330190Y-3871000D02*
X17439410Y-3871000D01*
X17330190Y-4578390D02*
X17439410Y-4687610D01*
X17439410Y-4578390D02*
X17330190Y-4687610D01*
X17384800Y-4578390D02*
X17384800Y-4687610D01*
X17330190Y-4633000D02*
X17439410Y-4633000D01*
X17584190Y-3816390D02*
X17693410Y-3925610D01*
X17693410Y-3816390D02*
X17584190Y-3925610D01*
X17638800Y-3816390D02*
X17638800Y-3925610D01*
X17584190Y-3871000D02*
X17693410Y-3871000D01*
X17584190Y-4578390D02*
X17693410Y-4687610D01*
X17693410Y-4578390D02*
X17584190Y-4687610D01*
X17638800Y-4578390D02*
X17638800Y-4687610D01*
X17584190Y-4633000D02*
X17693410Y-4633000D01*
X17838190Y-3816390D02*
X17947410Y-3925610D01*
X17947410Y-3816390D02*
X17838190Y-3925610D01*
X17892800Y-3816390D02*
X17892800Y-3925610D01*
X17838190Y-3871000D02*
X17947410Y-3871000D01*
X17838190Y-4578390D02*
X17947410Y-4687610D01*
X17947410Y-4578390D02*
X17838190Y-4687610D01*
X17892800Y-4578390D02*
X17892800Y-4687610D01*
X17838190Y-4633000D02*
X17947410Y-4633000D01*
X18092190Y-3816390D02*
X18201410Y-3925610D01*
X18201410Y-3816390D02*
X18092190Y-3925610D01*
X18146800Y-3816390D02*
X18146800Y-3925610D01*
X18092190Y-3871000D02*
X18201410Y-3871000D01*
X18092190Y-4578390D02*
X18201410Y-4687610D01*
X18201410Y-4578390D02*
X18092190Y-4687610D01*
X18146800Y-4578390D02*
X18146800Y-4687610D01*
X18092190Y-4633000D02*
X18201410Y-4633000D01*
X18346190Y-3816390D02*
X18455410Y-3925610D01*
X18455410Y-3816390D02*
X18346190Y-3925610D01*
X18400800Y-3816390D02*
X18400800Y-3925610D01*
X18346190Y-3871000D02*
X18455410Y-3871000D01*
X18600190Y-3816390D02*
X18709410Y-3925610D01*
X18709410Y-3816390D02*
X18600190Y-3925610D01*
X18654800Y-3816390D02*
X18654800Y-3925610D01*
X18600190Y-3871000D02*
X18709410Y-3871000D01*
X18600190Y-4578390D02*
X18709410Y-4687610D01*
X18709410Y-4578390D02*
X18600190Y-4687610D01*
X18654800Y-4578390D02*
X18654800Y-4687610D01*
X18600190Y-4633000D02*
X18709410Y-4633000D01*
X18854190Y-3816390D02*
X18963410Y-3925610D01*
X18963410Y-3816390D02*
X18854190Y-3925610D01*
X18908800Y-3816390D02*
X18908800Y-3925610D01*
X18854190Y-3871000D02*
X18963410Y-3871000D01*
X18854190Y-4578390D02*
X18963410Y-4687610D01*
X18963410Y-4578390D02*
X18854190Y-4687610D01*
X18908800Y-4578390D02*
X18908800Y-4687610D01*
X18854190Y-4633000D02*
X18963410Y-4633000D01*
X19108190Y-3816390D02*
X19217410Y-3925610D01*
X19217410Y-3816390D02*
X19108190Y-3925610D01*
X19162800Y-3816390D02*
X19162800Y-3925610D01*
X19108190Y-3871000D02*
X19217410Y-3871000D01*
X8111490Y-3282950D02*
X8220710Y-3392170D01*
X8220710Y-3282950D02*
X8111490Y-3392170D01*
X8166100Y-3282950D02*
X8166100Y-3392170D01*
X8111490Y-3337560D02*
X8220710Y-3337560D01*
X8181340Y-3292950D02*
X8150860Y-3292950D01*
X8181340Y-3382170D02*
X8150860Y-3382170D01*
X8150860Y-3292950D02*
G75*
G03X8150860Y-3382170I0J-44610D01*
G01*
X8181340Y-3382170D02*
G75*
G03X8181340Y-3292950I0J44610D01*
G01*
X8215630Y-3783330D02*
X8324850Y-3892550D01*
X8324850Y-3783330D02*
X8215630Y-3892550D01*
X8270240Y-3783330D02*
X8270240Y-3892550D01*
X8215630Y-3837940D02*
X8324850Y-3837940D01*
X8416290Y-4093210D02*
X8525510Y-4202430D01*
X8525510Y-4093210D02*
X8416290Y-4202430D01*
X8470900Y-4093210D02*
X8470900Y-4202430D01*
X8416290Y-4147820D02*
X8525510Y-4147820D01*
X8736330Y-4093210D02*
X8845550Y-4202430D01*
X8845550Y-4093210D02*
X8736330Y-4202430D01*
X8790940Y-4093210D02*
X8790940Y-4202430D01*
X8736330Y-4147820D02*
X8845550Y-4147820D01*
X8936990Y-3783330D02*
X9046210Y-3892550D01*
X9046210Y-3783330D02*
X8936990Y-3892550D01*
X8991600Y-3783330D02*
X8991600Y-3892550D01*
X8936990Y-3837940D02*
X9046210Y-3837940D01*
X9041130Y-3282950D02*
X9150350Y-3392170D01*
X9150350Y-3282950D02*
X9041130Y-3392170D01*
X9095740Y-3282950D02*
X9095740Y-3392170D01*
X9041130Y-3337560D02*
X9150350Y-3337560D01*
X9110980Y-3292950D02*
X9080500Y-3292950D01*
X9110980Y-3382170D02*
X9080500Y-3382170D01*
X9080500Y-3292950D02*
G75*
G03X9080500Y-3382170I0J-44610D01*
G01*
X9110980Y-3382170D02*
G75*
G03X9110980Y-3292950I0J44610D01*
G01*
X10593070Y-13673836D02*
X10742930Y-13823696D01*
X10742930Y-13673836D02*
X10593070Y-13823696D01*
X10720984Y-13801750D02*
X10720984Y-13695782D01*
X10615016Y-13695782D01*
X10615016Y-13801750D01*
X10720984Y-13801750D01*
X10720070Y-13419836D02*
X10869930Y-13569696D01*
X10869930Y-13419836D02*
X10720070Y-13569696D01*
X10847984Y-13547750D02*
X10847984Y-13441782D01*
X10742016Y-13441782D01*
X10742016Y-13547750D01*
X10847984Y-13547750D01*
X11228070Y-13419836D02*
X11377930Y-13569696D01*
X11377930Y-13419836D02*
X11228070Y-13569696D01*
X11355984Y-13547750D02*
X11355984Y-13441782D01*
X11250016Y-13441782D01*
X11250016Y-13547750D01*
X11355984Y-13547750D01*
X11355070Y-13673836D02*
X11504930Y-13823696D01*
X11504930Y-13673836D02*
X11355070Y-13823696D01*
X11482984Y-13801750D02*
X11482984Y-13695782D01*
X11377016Y-13695782D01*
X11377016Y-13801750D01*
X11482984Y-13801750D01*
X14403070Y-13673836D02*
X14552930Y-13823696D01*
X14552930Y-13673836D02*
X14403070Y-13823696D01*
X14530984Y-13801750D02*
X14530984Y-13695782D01*
X14425016Y-13695782D01*
X14425016Y-13801750D01*
X14530984Y-13801750D01*
X14530070Y-13419836D02*
X14679930Y-13569696D01*
X14679930Y-13419836D02*
X14530070Y-13569696D01*
X14657984Y-13547750D02*
X14657984Y-13441782D01*
X14552016Y-13441782D01*
X14552016Y-13547750D01*
X14657984Y-13547750D01*
X15038070Y-13419836D02*
X15187930Y-13569696D01*
X15187930Y-13419836D02*
X15038070Y-13569696D01*
X15165984Y-13547750D02*
X15165984Y-13441782D01*
X15060016Y-13441782D01*
X15060016Y-13547750D01*
X15165984Y-13547750D01*
X15165070Y-13673836D02*
X15314930Y-13823696D01*
X15314930Y-13673836D02*
X15165070Y-13823696D01*
X15292984Y-13801750D02*
X15292984Y-13695782D01*
X15187016Y-13695782D01*
X15187016Y-13801750D01*
X15292984Y-13801750D01*
X12498070Y-5894070D02*
X12647930Y-6043930D01*
X12647930Y-5894070D02*
X12498070Y-6043930D01*
X12625984Y-6021984D02*
X12625984Y-5916016D01*
X12520016Y-5916016D01*
X12520016Y-6021984D01*
X12625984Y-6021984D01*
X12625070Y-5640070D02*
X12774930Y-5789930D01*
X12774930Y-5640070D02*
X12625070Y-5789930D01*
X12752984Y-5767984D02*
X12752984Y-5662016D01*
X12647016Y-5662016D01*
X12647016Y-5767984D01*
X12752984Y-5767984D01*
X13133070Y-5640070D02*
X13282930Y-5789930D01*
X13282930Y-5640070D02*
X13133070Y-5789930D01*
X13260984Y-5767984D02*
X13260984Y-5662016D01*
X13155016Y-5662016D01*
X13155016Y-5767984D01*
X13260984Y-5767984D01*
X13260070Y-5894070D02*
X13409930Y-6043930D01*
X13409930Y-5894070D02*
X13260070Y-6043930D01*
X13387984Y-6021984D02*
X13387984Y-5916016D01*
X13282016Y-5916016D01*
X13282016Y-6021984D01*
X13387984Y-6021984D01*
X6774719Y-11899135D02*
X6924579Y-12048995D01*
X6924579Y-11899135D02*
X6774719Y-12048995D01*
X6902633Y-12027049D02*
X6902633Y-11921081D01*
X6796665Y-11921081D01*
X6796665Y-12027049D01*
X6902633Y-12027049D01*
X6901719Y-11645135D02*
X7051579Y-11794995D01*
X7051579Y-11645135D02*
X6901719Y-11794995D01*
X7029633Y-11773049D02*
X7029633Y-11667081D01*
X6923665Y-11667081D01*
X6923665Y-11773049D01*
X7029633Y-11773049D01*
X7409719Y-11645135D02*
X7559579Y-11794995D01*
X7559579Y-11645135D02*
X7409719Y-11794995D01*
X7537633Y-11773049D02*
X7537633Y-11667081D01*
X7431665Y-11667081D01*
X7431665Y-11773049D01*
X7537633Y-11773049D01*
X7536719Y-11899135D02*
X7686579Y-12048995D01*
X7686579Y-11899135D02*
X7536719Y-12048995D01*
X7664633Y-12027049D02*
X7664633Y-11921081D01*
X7558665Y-11921081D01*
X7558665Y-12027049D01*
X7664633Y-12027049D01*
X12498070Y-9704070D02*
X12647930Y-9853930D01*
X12647930Y-9704070D02*
X12498070Y-9853930D01*
X12625984Y-9831984D02*
X12625984Y-9726016D01*
X12520016Y-9726016D01*
X12520016Y-9831984D01*
X12625984Y-9831984D01*
X12625070Y-9450070D02*
X12774930Y-9599930D01*
X12774930Y-9450070D02*
X12625070Y-9599930D01*
X12752984Y-9577984D02*
X12752984Y-9472016D01*
X12647016Y-9472016D01*
X12647016Y-9577984D01*
X12752984Y-9577984D01*
X13133070Y-9450070D02*
X13282930Y-9599930D01*
X13282930Y-9450070D02*
X13133070Y-9599930D01*
X13260984Y-9577984D02*
X13260984Y-9472016D01*
X13155016Y-9472016D01*
X13155016Y-9577984D01*
X13260984Y-9577984D01*
X13260070Y-9704070D02*
X13409930Y-9853930D01*
X13409930Y-9704070D02*
X13260070Y-9853930D01*
X13387984Y-9831984D02*
X13387984Y-9726016D01*
X13282016Y-9726016D01*
X13282016Y-9831984D01*
X13387984Y-9831984D01*
X4552422Y-17635885D02*
X4702282Y-17785745D01*
X4702282Y-17635885D02*
X4552422Y-17785745D01*
X4680336Y-17763799D02*
X4680336Y-17657831D01*
X4574368Y-17657831D01*
X4574368Y-17763799D01*
X4680336Y-17763799D01*
X4560178Y-17352011D02*
X4710038Y-17501871D01*
X4710038Y-17352011D02*
X4560178Y-17501871D01*
X4688092Y-17479925D02*
X4688092Y-17373957D01*
X4582124Y-17373957D01*
X4582124Y-17479925D01*
X4688092Y-17479925D01*
X5020582Y-17137321D02*
X5170442Y-17287181D01*
X5170442Y-17137321D02*
X5020582Y-17287181D01*
X5148496Y-17265235D02*
X5148496Y-17159267D01*
X5042528Y-17159267D01*
X5042528Y-17265235D01*
X5148496Y-17265235D01*
X5243028Y-17313850D02*
X5392888Y-17463710D01*
X5392888Y-17313850D02*
X5243028Y-17463710D01*
X5370942Y-17441764D02*
X5370942Y-17335796D01*
X5264974Y-17335796D01*
X5264974Y-17441764D01*
X5370942Y-17441764D01*
X6783070Y-6181090D02*
X6932930Y-6330950D01*
X6932930Y-6181090D02*
X6783070Y-6330950D01*
X6910984Y-6309004D02*
X6910984Y-6203036D01*
X6805016Y-6203036D01*
X6805016Y-6309004D01*
X6910984Y-6309004D01*
X6910070Y-5927090D02*
X7059930Y-6076950D01*
X7059930Y-5927090D02*
X6910070Y-6076950D01*
X7037984Y-6055004D02*
X7037984Y-5949036D01*
X6932016Y-5949036D01*
X6932016Y-6055004D01*
X7037984Y-6055004D01*
X7418070Y-5927090D02*
X7567930Y-6076950D01*
X7567930Y-5927090D02*
X7418070Y-6076950D01*
X7545984Y-6055004D02*
X7545984Y-5949036D01*
X7440016Y-5949036D01*
X7440016Y-6055004D01*
X7545984Y-6055004D01*
X7545070Y-6181090D02*
X7694930Y-6330950D01*
X7694930Y-6181090D02*
X7545070Y-6330950D01*
X7672984Y-6309004D02*
X7672984Y-6203036D01*
X7567016Y-6203036D01*
X7567016Y-6309004D01*
X7672984Y-6309004D01*
X6783324Y-8087360D02*
X6933184Y-8237220D01*
X6933184Y-8087360D02*
X6783324Y-8237220D01*
X6911238Y-8215274D02*
X6911238Y-8109306D01*
X6805270Y-8109306D01*
X6805270Y-8215274D01*
X6911238Y-8215274D01*
X6910324Y-7833360D02*
X7060184Y-7983220D01*
X7060184Y-7833360D02*
X6910324Y-7983220D01*
X7038238Y-7961274D02*
X7038238Y-7855306D01*
X6932270Y-7855306D01*
X6932270Y-7961274D01*
X7038238Y-7961274D01*
X7418324Y-7833360D02*
X7568184Y-7983220D01*
X7568184Y-7833360D02*
X7418324Y-7983220D01*
X7546238Y-7961274D02*
X7546238Y-7855306D01*
X7440270Y-7855306D01*
X7440270Y-7961274D01*
X7546238Y-7961274D01*
X7545324Y-8087360D02*
X7695184Y-8237220D01*
X7695184Y-8087360D02*
X7545324Y-8237220D01*
X7673238Y-8215274D02*
X7673238Y-8109306D01*
X7567270Y-8109306D01*
X7567270Y-8215274D01*
X7673238Y-8215274D01*
X8688070Y-9990836D02*
X8837930Y-10140696D01*
X8837930Y-9990836D02*
X8688070Y-10140696D01*
X8815984Y-10118750D02*
X8815984Y-10012782D01*
X8710016Y-10012782D01*
X8710016Y-10118750D01*
X8815984Y-10118750D01*
X8815070Y-9736836D02*
X8964930Y-9886696D01*
X8964930Y-9736836D02*
X8815070Y-9886696D01*
X8942984Y-9864750D02*
X8942984Y-9758782D01*
X8837016Y-9758782D01*
X8837016Y-9864750D01*
X8942984Y-9864750D01*
X9323070Y-9736836D02*
X9472930Y-9886696D01*
X9472930Y-9736836D02*
X9323070Y-9886696D01*
X9450984Y-9864750D02*
X9450984Y-9758782D01*
X9345016Y-9758782D01*
X9345016Y-9864750D01*
X9450984Y-9864750D01*
X9450070Y-9990836D02*
X9599930Y-10140696D01*
X9599930Y-9990836D02*
X9450070Y-10140696D01*
X9577984Y-10118750D02*
X9577984Y-10012782D01*
X9472016Y-10012782D01*
X9472016Y-10118750D01*
X9577984Y-10118750D01*
X12498070Y-13514070D02*
X12647930Y-13663930D01*
X12647930Y-13514070D02*
X12498070Y-13663930D01*
X12625984Y-13641984D02*
X12625984Y-13536016D01*
X12520016Y-13536016D01*
X12520016Y-13641984D01*
X12625984Y-13641984D01*
X12625070Y-13260070D02*
X12774930Y-13409930D01*
X12774930Y-13260070D02*
X12625070Y-13409930D01*
X12752984Y-13387984D02*
X12752984Y-13282016D01*
X12647016Y-13282016D01*
X12647016Y-13387984D01*
X12752984Y-13387984D01*
X13133070Y-13260070D02*
X13282930Y-13409930D01*
X13282930Y-13260070D02*
X13133070Y-13409930D01*
X13260984Y-13387984D02*
X13260984Y-13282016D01*
X13155016Y-13282016D01*
X13155016Y-13387984D01*
X13260984Y-13387984D01*
X13260070Y-13514070D02*
X13409930Y-13663930D01*
X13409930Y-13514070D02*
X13260070Y-13663930D01*
X13387984Y-13641984D02*
X13387984Y-13536016D01*
X13282016Y-13536016D01*
X13282016Y-13641984D01*
X13387984Y-13641984D01*
X6783324Y-9992360D02*
X6933184Y-10142220D01*
X6933184Y-9992360D02*
X6783324Y-10142220D01*
X6911238Y-10120274D02*
X6911238Y-10014306D01*
X6805270Y-10014306D01*
X6805270Y-10120274D01*
X6911238Y-10120274D01*
X6910324Y-9738360D02*
X7060184Y-9888220D01*
X7060184Y-9738360D02*
X6910324Y-9888220D01*
X7038238Y-9866274D02*
X7038238Y-9760306D01*
X6932270Y-9760306D01*
X6932270Y-9866274D01*
X7038238Y-9866274D01*
X7418324Y-9738360D02*
X7568184Y-9888220D01*
X7568184Y-9738360D02*
X7418324Y-9888220D01*
X7546238Y-9866274D02*
X7546238Y-9760306D01*
X7440270Y-9760306D01*
X7440270Y-9866274D01*
X7546238Y-9866274D01*
X7545324Y-9992360D02*
X7695184Y-10142220D01*
X7695184Y-9992360D02*
X7545324Y-10142220D01*
X7673238Y-10120274D02*
X7673238Y-10014306D01*
X7567270Y-10014306D01*
X7567270Y-10120274D01*
X7673238Y-10120274D01*
X10593070Y-9863836D02*
X10742930Y-10013696D01*
X10742930Y-9863836D02*
X10593070Y-10013696D01*
X10720984Y-9991750D02*
X10720984Y-9885782D01*
X10615016Y-9885782D01*
X10615016Y-9991750D01*
X10720984Y-9991750D01*
X10720070Y-9609836D02*
X10869930Y-9759696D01*
X10869930Y-9609836D02*
X10720070Y-9759696D01*
X10847984Y-9737750D02*
X10847984Y-9631782D01*
X10742016Y-9631782D01*
X10742016Y-9737750D01*
X10847984Y-9737750D01*
X11228070Y-9609836D02*
X11377930Y-9759696D01*
X11377930Y-9609836D02*
X11228070Y-9759696D01*
X11355984Y-9737750D02*
X11355984Y-9631782D01*
X11250016Y-9631782D01*
X11250016Y-9737750D01*
X11355984Y-9737750D01*
X11355070Y-9863836D02*
X11504930Y-10013696D01*
X11504930Y-9863836D02*
X11355070Y-10013696D01*
X11482984Y-9991750D02*
X11482984Y-9885782D01*
X11377016Y-9885782D01*
X11377016Y-9991750D01*
X11482984Y-9991750D01*
X14403070Y-11768836D02*
X14552930Y-11918696D01*
X14552930Y-11768836D02*
X14403070Y-11918696D01*
X14530984Y-11896750D02*
X14530984Y-11790782D01*
X14425016Y-11790782D01*
X14425016Y-11896750D01*
X14530984Y-11896750D01*
X14530070Y-11514836D02*
X14679930Y-11664696D01*
X14679930Y-11514836D02*
X14530070Y-11664696D01*
X14657984Y-11642750D02*
X14657984Y-11536782D01*
X14552016Y-11536782D01*
X14552016Y-11642750D01*
X14657984Y-11642750D01*
X15038070Y-11514836D02*
X15187930Y-11664696D01*
X15187930Y-11514836D02*
X15038070Y-11664696D01*
X15165984Y-11642750D02*
X15165984Y-11536782D01*
X15060016Y-11536782D01*
X15060016Y-11642750D01*
X15165984Y-11642750D01*
X15165070Y-11768836D02*
X15314930Y-11918696D01*
X15314930Y-11768836D02*
X15165070Y-11918696D01*
X15292984Y-11896750D02*
X15292984Y-11790782D01*
X15187016Y-11790782D01*
X15187016Y-11896750D01*
X15292984Y-11896750D01*
X18213070Y-8276336D02*
X18362930Y-8426196D01*
X18362930Y-8276336D02*
X18213070Y-8426196D01*
X18340984Y-8404250D02*
X18340984Y-8298282D01*
X18235016Y-8298282D01*
X18235016Y-8404250D01*
X18340984Y-8404250D01*
X18340070Y-8022336D02*
X18489930Y-8172196D01*
X18489930Y-8022336D02*
X18340070Y-8172196D01*
X18467984Y-8150250D02*
X18467984Y-8044282D01*
X18362016Y-8044282D01*
X18362016Y-8150250D01*
X18467984Y-8150250D01*
X18848070Y-8022336D02*
X18997930Y-8172196D01*
X18997930Y-8022336D02*
X18848070Y-8172196D01*
X18975984Y-8150250D02*
X18975984Y-8044282D01*
X18870016Y-8044282D01*
X18870016Y-8150250D01*
X18975984Y-8150250D01*
X18975070Y-8276336D02*
X19124930Y-8426196D01*
X19124930Y-8276336D02*
X18975070Y-8426196D01*
X19102984Y-8404250D02*
X19102984Y-8298282D01*
X18997016Y-8298282D01*
X18997016Y-8404250D01*
X19102984Y-8404250D01*
X16308070Y-13991336D02*
X16457930Y-14141196D01*
X16457930Y-13991336D02*
X16308070Y-14141196D01*
X16435984Y-14119250D02*
X16435984Y-14013282D01*
X16330016Y-14013282D01*
X16330016Y-14119250D01*
X16435984Y-14119250D01*
X16435070Y-13737336D02*
X16584930Y-13887196D01*
X16584930Y-13737336D02*
X16435070Y-13887196D01*
X16562984Y-13865250D02*
X16562984Y-13759282D01*
X16457016Y-13759282D01*
X16457016Y-13865250D01*
X16562984Y-13865250D01*
X16943070Y-13737336D02*
X17092930Y-13887196D01*
X17092930Y-13737336D02*
X16943070Y-13887196D01*
X17070984Y-13865250D02*
X17070984Y-13759282D01*
X16965016Y-13759282D01*
X16965016Y-13865250D01*
X17070984Y-13865250D01*
X17070070Y-13991336D02*
X17219930Y-14141196D01*
X17219930Y-13991336D02*
X17070070Y-14141196D01*
X17197984Y-14119250D02*
X17197984Y-14013282D01*
X17092016Y-14013282D01*
X17092016Y-14119250D01*
X17197984Y-14119250D01*
X18213070Y-12086336D02*
X18362930Y-12236196D01*
X18362930Y-12086336D02*
X18213070Y-12236196D01*
X18340984Y-12214250D02*
X18340984Y-12108282D01*
X18235016Y-12108282D01*
X18235016Y-12214250D01*
X18340984Y-12214250D01*
X18340070Y-11832336D02*
X18489930Y-11982196D01*
X18489930Y-11832336D02*
X18340070Y-11982196D01*
X18467984Y-11960250D02*
X18467984Y-11854282D01*
X18362016Y-11854282D01*
X18362016Y-11960250D01*
X18467984Y-11960250D01*
X18848070Y-11832336D02*
X18997930Y-11982196D01*
X18997930Y-11832336D02*
X18848070Y-11982196D01*
X18975984Y-11960250D02*
X18975984Y-11854282D01*
X18870016Y-11854282D01*
X18870016Y-11960250D01*
X18975984Y-11960250D01*
X18975070Y-12086336D02*
X19124930Y-12236196D01*
X19124930Y-12086336D02*
X18975070Y-12236196D01*
X19102984Y-12214250D02*
X19102984Y-12108282D01*
X18997016Y-12108282D01*
X18997016Y-12214250D01*
X19102984Y-12214250D01*
X12498070Y-11609070D02*
X12647930Y-11758930D01*
X12647930Y-11609070D02*
X12498070Y-11758930D01*
X12625984Y-11736984D02*
X12625984Y-11631016D01*
X12520016Y-11631016D01*
X12520016Y-11736984D01*
X12625984Y-11736984D01*
X12625070Y-11355070D02*
X12774930Y-11504930D01*
X12774930Y-11355070D02*
X12625070Y-11504930D01*
X12752984Y-11482984D02*
X12752984Y-11377016D01*
X12647016Y-11377016D01*
X12647016Y-11482984D01*
X12752984Y-11482984D01*
X13133070Y-11355070D02*
X13282930Y-11504930D01*
X13282930Y-11355070D02*
X13133070Y-11504930D01*
X13260984Y-11482984D02*
X13260984Y-11377016D01*
X13155016Y-11377016D01*
X13155016Y-11482984D01*
X13260984Y-11482984D01*
X13260070Y-11609070D02*
X13409930Y-11758930D01*
X13409930Y-11609070D02*
X13260070Y-11758930D01*
X13387984Y-11736984D02*
X13387984Y-11631016D01*
X13282016Y-11631016D01*
X13282016Y-11736984D01*
X13387984Y-11736984D01*
X14403070Y-6053836D02*
X14552930Y-6203696D01*
X14552930Y-6053836D02*
X14403070Y-6203696D01*
X14530984Y-6181750D02*
X14530984Y-6075782D01*
X14425016Y-6075782D01*
X14425016Y-6181750D01*
X14530984Y-6181750D01*
X14530070Y-5799836D02*
X14679930Y-5949696D01*
X14679930Y-5799836D02*
X14530070Y-5949696D01*
X14657984Y-5927750D02*
X14657984Y-5821782D01*
X14552016Y-5821782D01*
X14552016Y-5927750D01*
X14657984Y-5927750D01*
X15038070Y-5799836D02*
X15187930Y-5949696D01*
X15187930Y-5799836D02*
X15038070Y-5949696D01*
X15165984Y-5927750D02*
X15165984Y-5821782D01*
X15060016Y-5821782D01*
X15060016Y-5927750D01*
X15165984Y-5927750D01*
X15165070Y-6053836D02*
X15314930Y-6203696D01*
X15314930Y-6053836D02*
X15165070Y-6203696D01*
X15292984Y-6181750D02*
X15292984Y-6075782D01*
X15187016Y-6075782D01*
X15187016Y-6181750D01*
X15292984Y-6181750D01*
X14403070Y-7958836D02*
X14552930Y-8108696D01*
X14552930Y-7958836D02*
X14403070Y-8108696D01*
X14530984Y-8086750D02*
X14530984Y-7980782D01*
X14425016Y-7980782D01*
X14425016Y-8086750D01*
X14530984Y-8086750D01*
X14530070Y-7704836D02*
X14679930Y-7854696D01*
X14679930Y-7704836D02*
X14530070Y-7854696D01*
X14657984Y-7832750D02*
X14657984Y-7726782D01*
X14552016Y-7726782D01*
X14552016Y-7832750D01*
X14657984Y-7832750D01*
X15038070Y-7704836D02*
X15187930Y-7854696D01*
X15187930Y-7704836D02*
X15038070Y-7854696D01*
X15165984Y-7832750D02*
X15165984Y-7726782D01*
X15060016Y-7726782D01*
X15060016Y-7832750D01*
X15165984Y-7832750D01*
X15165070Y-7958836D02*
X15314930Y-8108696D01*
X15314930Y-7958836D02*
X15165070Y-8108696D01*
X15292984Y-8086750D02*
X15292984Y-7980782D01*
X15187016Y-7980782D01*
X15187016Y-8086750D01*
X15292984Y-8086750D01*
X7200372Y-14299087D02*
X7350232Y-14448947D01*
X7350232Y-14299087D02*
X7200372Y-14448947D01*
X7328286Y-14427001D02*
X7328286Y-14321033D01*
X7222318Y-14321033D01*
X7222318Y-14427001D01*
X7328286Y-14427001D01*
X7208128Y-14015213D02*
X7357988Y-14165073D01*
X7357988Y-14015213D02*
X7208128Y-14165073D01*
X7336042Y-14143127D02*
X7336042Y-14037159D01*
X7230074Y-14037159D01*
X7230074Y-14143127D01*
X7336042Y-14143127D01*
X7668532Y-13800523D02*
X7818392Y-13950383D01*
X7818392Y-13800523D02*
X7668532Y-13950383D01*
X7796446Y-13928437D02*
X7796446Y-13822469D01*
X7690478Y-13822469D01*
X7690478Y-13928437D01*
X7796446Y-13928437D01*
X7890978Y-13977052D02*
X8040838Y-14126912D01*
X8040838Y-13977052D02*
X7890978Y-14126912D01*
X8018892Y-14104966D02*
X8018892Y-13998998D01*
X7912924Y-13998998D01*
X7912924Y-14104966D01*
X8018892Y-14104966D01*
X14403070Y-9863836D02*
X14552930Y-10013696D01*
X14552930Y-9863836D02*
X14403070Y-10013696D01*
X14530984Y-9991750D02*
X14530984Y-9885782D01*
X14425016Y-9885782D01*
X14425016Y-9991750D01*
X14530984Y-9991750D01*
X14530070Y-9609836D02*
X14679930Y-9759696D01*
X14679930Y-9609836D02*
X14530070Y-9759696D01*
X14657984Y-9737750D02*
X14657984Y-9631782D01*
X14552016Y-9631782D01*
X14552016Y-9737750D01*
X14657984Y-9737750D01*
X15038070Y-9609836D02*
X15187930Y-9759696D01*
X15187930Y-9609836D02*
X15038070Y-9759696D01*
X15165984Y-9737750D02*
X15165984Y-9631782D01*
X15060016Y-9631782D01*
X15060016Y-9737750D01*
X15165984Y-9737750D01*
X15165070Y-9863836D02*
X15314930Y-10013696D01*
X15314930Y-9863836D02*
X15165070Y-10013696D01*
X15292984Y-9991750D02*
X15292984Y-9885782D01*
X15187016Y-9885782D01*
X15187016Y-9991750D01*
X15292984Y-9991750D01*
X18213070Y-10181336D02*
X18362930Y-10331196D01*
X18362930Y-10181336D02*
X18213070Y-10331196D01*
X18340984Y-10309250D02*
X18340984Y-10203282D01*
X18235016Y-10203282D01*
X18235016Y-10309250D01*
X18340984Y-10309250D01*
X18340070Y-9927336D02*
X18489930Y-10077196D01*
X18489930Y-9927336D02*
X18340070Y-10077196D01*
X18467984Y-10055250D02*
X18467984Y-9949282D01*
X18362016Y-9949282D01*
X18362016Y-10055250D01*
X18467984Y-10055250D01*
X18848070Y-9927336D02*
X18997930Y-10077196D01*
X18997930Y-9927336D02*
X18848070Y-10077196D01*
X18975984Y-10055250D02*
X18975984Y-9949282D01*
X18870016Y-9949282D01*
X18870016Y-10055250D01*
X18975984Y-10055250D01*
X18975070Y-10181336D02*
X19124930Y-10331196D01*
X19124930Y-10181336D02*
X18975070Y-10331196D01*
X19102984Y-10309250D02*
X19102984Y-10203282D01*
X18997016Y-10203282D01*
X18997016Y-10309250D01*
X19102984Y-10309250D01*
X5761169Y-16021286D02*
X5911029Y-16171146D01*
X5911029Y-16021286D02*
X5761169Y-16171146D01*
X5889083Y-16149200D02*
X5889083Y-16043232D01*
X5783115Y-16043232D01*
X5783115Y-16149200D01*
X5889083Y-16149200D01*
X5937698Y-15798840D02*
X6087558Y-15948700D01*
X6087558Y-15798840D02*
X5937698Y-15948700D01*
X6065612Y-15926754D02*
X6065612Y-15820786D01*
X5959644Y-15820786D01*
X5959644Y-15926754D01*
X6065612Y-15926754D01*
X5975859Y-16481690D02*
X6125719Y-16631550D01*
X6125719Y-16481690D02*
X5975859Y-16631550D01*
X6103773Y-16609604D02*
X6103773Y-16503636D01*
X5997805Y-16503636D01*
X5997805Y-16609604D01*
X6103773Y-16609604D01*
X6259733Y-16489446D02*
X6409593Y-16639306D01*
X6409593Y-16489446D02*
X6259733Y-16639306D01*
X6387647Y-16617360D02*
X6387647Y-16511392D01*
X6281679Y-16511392D01*
X6281679Y-16617360D01*
X6387647Y-16617360D01*
X2942316Y-14182755D02*
X3092176Y-14332615D01*
X3092176Y-14182755D02*
X2942316Y-14332615D01*
X3070230Y-14310669D02*
X3070230Y-14204701D01*
X2964262Y-14204701D01*
X2964262Y-14310669D01*
X3070230Y-14310669D01*
X2950072Y-13898881D02*
X3099932Y-14048741D01*
X3099932Y-13898881D02*
X2950072Y-14048741D01*
X3077986Y-14026795D02*
X3077986Y-13920827D01*
X2972018Y-13920827D01*
X2972018Y-14026795D01*
X3077986Y-14026795D01*
X3410476Y-13684191D02*
X3560336Y-13834051D01*
X3560336Y-13684191D02*
X3410476Y-13834051D01*
X3538390Y-13812105D02*
X3538390Y-13706137D01*
X3432422Y-13706137D01*
X3432422Y-13812105D01*
X3538390Y-13812105D01*
X3632922Y-13860720D02*
X3782782Y-14010580D01*
X3782782Y-13860720D02*
X3632922Y-14010580D01*
X3760836Y-13988634D02*
X3760836Y-13882666D01*
X3654868Y-13882666D01*
X3654868Y-13988634D01*
X3760836Y-13988634D01*
X8688070Y-11895836D02*
X8837930Y-12045696D01*
X8837930Y-11895836D02*
X8688070Y-12045696D01*
X8815984Y-12023750D02*
X8815984Y-11917782D01*
X8710016Y-11917782D01*
X8710016Y-12023750D01*
X8815984Y-12023750D01*
X8815070Y-11641836D02*
X8964930Y-11791696D01*
X8964930Y-11641836D02*
X8815070Y-11791696D01*
X8942984Y-11769750D02*
X8942984Y-11663782D01*
X8837016Y-11663782D01*
X8837016Y-11769750D01*
X8942984Y-11769750D01*
X9323070Y-11641836D02*
X9472930Y-11791696D01*
X9472930Y-11641836D02*
X9323070Y-11791696D01*
X9450984Y-11769750D02*
X9450984Y-11663782D01*
X9345016Y-11663782D01*
X9345016Y-11769750D01*
X9450984Y-11769750D01*
X9450070Y-11895836D02*
X9599930Y-12045696D01*
X9599930Y-11895836D02*
X9450070Y-12045696D01*
X9577984Y-12023750D02*
X9577984Y-11917782D01*
X9472016Y-11917782D01*
X9472016Y-12023750D01*
X9577984Y-12023750D01*
X10593070Y-6053836D02*
X10742930Y-6203696D01*
X10742930Y-6053836D02*
X10593070Y-6203696D01*
X10720984Y-6181750D02*
X10720984Y-6075782D01*
X10615016Y-6075782D01*
X10615016Y-6181750D01*
X10720984Y-6181750D01*
X10720070Y-5799836D02*
X10869930Y-5949696D01*
X10869930Y-5799836D02*
X10720070Y-5949696D01*
X10847984Y-5927750D02*
X10847984Y-5821782D01*
X10742016Y-5821782D01*
X10742016Y-5927750D01*
X10847984Y-5927750D01*
X11228070Y-5799836D02*
X11377930Y-5949696D01*
X11377930Y-5799836D02*
X11228070Y-5949696D01*
X11355984Y-5927750D02*
X11355984Y-5821782D01*
X11250016Y-5821782D01*
X11250016Y-5927750D01*
X11355984Y-5927750D01*
X11355070Y-6053836D02*
X11504930Y-6203696D01*
X11504930Y-6053836D02*
X11355070Y-6203696D01*
X11482984Y-6181750D02*
X11482984Y-6075782D01*
X11377016Y-6075782D01*
X11377016Y-6181750D01*
X11482984Y-6181750D01*
X4668754Y-13377829D02*
X4818614Y-13527689D01*
X4818614Y-13377829D02*
X4668754Y-13527689D01*
X4796668Y-13505743D02*
X4796668Y-13399775D01*
X4690700Y-13399775D01*
X4690700Y-13505743D01*
X4796668Y-13505743D01*
X4676510Y-13093955D02*
X4826370Y-13243815D01*
X4826370Y-13093955D02*
X4676510Y-13243815D01*
X4804424Y-13221869D02*
X4804424Y-13115901D01*
X4698456Y-13115901D01*
X4698456Y-13221869D01*
X4804424Y-13221869D01*
X5136914Y-12879265D02*
X5286774Y-13029125D01*
X5286774Y-12879265D02*
X5136914Y-13029125D01*
X5264828Y-13007179D02*
X5264828Y-12901211D01*
X5158860Y-12901211D01*
X5158860Y-13007179D01*
X5264828Y-13007179D01*
X5359360Y-13055794D02*
X5509220Y-13205654D01*
X5509220Y-13055794D02*
X5359360Y-13205654D01*
X5487274Y-13183708D02*
X5487274Y-13077740D01*
X5381306Y-13077740D01*
X5381306Y-13183708D01*
X5487274Y-13183708D01*
X8688070Y-8085836D02*
X8837930Y-8235696D01*
X8837930Y-8085836D02*
X8688070Y-8235696D01*
X8815984Y-8213750D02*
X8815984Y-8107782D01*
X8710016Y-8107782D01*
X8710016Y-8213750D01*
X8815984Y-8213750D01*
X8815070Y-7831836D02*
X8964930Y-7981696D01*
X8964930Y-7831836D02*
X8815070Y-7981696D01*
X8942984Y-7959750D02*
X8942984Y-7853782D01*
X8837016Y-7853782D01*
X8837016Y-7959750D01*
X8942984Y-7959750D01*
X9323070Y-7831836D02*
X9472930Y-7981696D01*
X9472930Y-7831836D02*
X9323070Y-7981696D01*
X9450984Y-7959750D02*
X9450984Y-7853782D01*
X9345016Y-7853782D01*
X9345016Y-7959750D01*
X9450984Y-7959750D01*
X9450070Y-8085836D02*
X9599930Y-8235696D01*
X9599930Y-8085836D02*
X9450070Y-8235696D01*
X9577984Y-8213750D02*
X9577984Y-8107782D01*
X9472016Y-8107782D01*
X9472016Y-8213750D01*
X9577984Y-8213750D01*
X5473934Y-15104267D02*
X5623794Y-15254127D01*
X5623794Y-15104267D02*
X5473934Y-15254127D01*
X5601848Y-15232181D02*
X5601848Y-15126213D01*
X5495880Y-15126213D01*
X5495880Y-15232181D01*
X5601848Y-15232181D01*
X5481690Y-14820393D02*
X5631550Y-14970253D01*
X5631550Y-14820393D02*
X5481690Y-14970253D01*
X5609604Y-14948307D02*
X5609604Y-14842339D01*
X5503636Y-14842339D01*
X5503636Y-14948307D01*
X5609604Y-14948307D01*
X5942094Y-14605703D02*
X6091954Y-14755563D01*
X6091954Y-14605703D02*
X5942094Y-14755563D01*
X6070008Y-14733617D02*
X6070008Y-14627649D01*
X5964040Y-14627649D01*
X5964040Y-14733617D01*
X6070008Y-14733617D01*
X6164540Y-14782232D02*
X6314400Y-14932092D01*
X6314400Y-14782232D02*
X6164540Y-14932092D01*
X6292454Y-14910146D02*
X6292454Y-14804178D01*
X6186486Y-14804178D01*
X6186486Y-14910146D01*
X6292454Y-14910146D01*
X16308070Y-12086336D02*
X16457930Y-12236196D01*
X16457930Y-12086336D02*
X16308070Y-12236196D01*
X16435984Y-12214250D02*
X16435984Y-12108282D01*
X16330016Y-12108282D01*
X16330016Y-12214250D01*
X16435984Y-12214250D01*
X16435070Y-11832336D02*
X16584930Y-11982196D01*
X16584930Y-11832336D02*
X16435070Y-11982196D01*
X16562984Y-11960250D02*
X16562984Y-11854282D01*
X16457016Y-11854282D01*
X16457016Y-11960250D01*
X16562984Y-11960250D01*
X16943070Y-11832336D02*
X17092930Y-11982196D01*
X17092930Y-11832336D02*
X16943070Y-11982196D01*
X17070984Y-11960250D02*
X17070984Y-11854282D01*
X16965016Y-11854282D01*
X16965016Y-11960250D01*
X17070984Y-11960250D01*
X17070070Y-12086336D02*
X17219930Y-12236196D01*
X17219930Y-12086336D02*
X17070070Y-12236196D01*
X17197984Y-12214250D02*
X17197984Y-12108282D01*
X17092016Y-12108282D01*
X17092016Y-12214250D01*
X17197984Y-12214250D01*
X7487607Y-15216106D02*
X7637467Y-15365966D01*
X7637467Y-15216106D02*
X7487607Y-15365966D01*
X7615521Y-15344020D02*
X7615521Y-15238052D01*
X7509553Y-15238052D01*
X7509553Y-15344020D01*
X7615521Y-15344020D01*
X7664136Y-14993660D02*
X7813996Y-15143520D01*
X7813996Y-14993660D02*
X7664136Y-15143520D01*
X7792050Y-15121574D02*
X7792050Y-15015606D01*
X7686082Y-15015606D01*
X7686082Y-15121574D01*
X7792050Y-15121574D01*
X7702297Y-15676510D02*
X7852157Y-15826370D01*
X7852157Y-15676510D02*
X7702297Y-15826370D01*
X7830211Y-15804424D02*
X7830211Y-15698456D01*
X7724243Y-15698456D01*
X7724243Y-15804424D01*
X7830211Y-15804424D01*
X7986171Y-15684266D02*
X8136031Y-15834126D01*
X8136031Y-15684266D02*
X7986171Y-15834126D01*
X8114085Y-15812180D02*
X8114085Y-15706212D01*
X8008117Y-15706212D01*
X8008117Y-15812180D01*
X8114085Y-15812180D01*
X10593070Y-11768836D02*
X10742930Y-11918696D01*
X10742930Y-11768836D02*
X10593070Y-11918696D01*
X10720984Y-11896750D02*
X10720984Y-11790782D01*
X10615016Y-11790782D01*
X10615016Y-11896750D01*
X10720984Y-11896750D01*
X10720070Y-11514836D02*
X10869930Y-11664696D01*
X10869930Y-11514836D02*
X10720070Y-11664696D01*
X10847984Y-11642750D02*
X10847984Y-11536782D01*
X10742016Y-11536782D01*
X10742016Y-11642750D01*
X10847984Y-11642750D01*
X11228070Y-11514836D02*
X11377930Y-11664696D01*
X11377930Y-11514836D02*
X11228070Y-11664696D01*
X11355984Y-11642750D02*
X11355984Y-11536782D01*
X11250016Y-11536782D01*
X11250016Y-11642750D01*
X11355984Y-11642750D01*
X11355070Y-11768836D02*
X11504930Y-11918696D01*
X11504930Y-11768836D02*
X11355070Y-11918696D01*
X11482984Y-11896750D02*
X11482984Y-11790782D01*
X11377016Y-11790782D01*
X11377016Y-11896750D01*
X11482984Y-11896750D01*
X12498070Y-7799070D02*
X12647930Y-7948930D01*
X12647930Y-7799070D02*
X12498070Y-7948930D01*
X12625984Y-7926984D02*
X12625984Y-7821016D01*
X12520016Y-7821016D01*
X12520016Y-7926984D01*
X12625984Y-7926984D01*
X12625070Y-7545070D02*
X12774930Y-7694930D01*
X12774930Y-7545070D02*
X12625070Y-7694930D01*
X12752984Y-7672984D02*
X12752984Y-7567016D01*
X12647016Y-7567016D01*
X12647016Y-7672984D01*
X12752984Y-7672984D01*
X13133070Y-7545070D02*
X13282930Y-7694930D01*
X13282930Y-7545070D02*
X13133070Y-7694930D01*
X13260984Y-7672984D02*
X13260984Y-7567016D01*
X13155016Y-7567016D01*
X13155016Y-7672984D01*
X13260984Y-7672984D01*
X13260070Y-7799070D02*
X13409930Y-7948930D01*
X13409930Y-7799070D02*
X13260070Y-7948930D01*
X13387984Y-7926984D02*
X13387984Y-7821016D01*
X13282016Y-7821016D01*
X13282016Y-7926984D01*
X13387984Y-7926984D01*
X18213070Y-6371590D02*
X18362930Y-6521450D01*
X18362930Y-6371590D02*
X18213070Y-6521450D01*
X18340984Y-6499504D02*
X18340984Y-6393536D01*
X18235016Y-6393536D01*
X18235016Y-6499504D01*
X18340984Y-6499504D01*
X18340070Y-6117590D02*
X18489930Y-6267450D01*
X18489930Y-6117590D02*
X18340070Y-6267450D01*
X18467984Y-6245504D02*
X18467984Y-6139536D01*
X18362016Y-6139536D01*
X18362016Y-6245504D01*
X18467984Y-6245504D01*
X18848070Y-6117590D02*
X18997930Y-6267450D01*
X18997930Y-6117590D02*
X18848070Y-6267450D01*
X18975984Y-6245504D02*
X18975984Y-6139536D01*
X18870016Y-6139536D01*
X18870016Y-6245504D01*
X18975984Y-6245504D01*
X18975070Y-6371590D02*
X19124930Y-6521450D01*
X19124930Y-6371590D02*
X18975070Y-6521450D01*
X19102984Y-6499504D02*
X19102984Y-6393536D01*
X18997016Y-6393536D01*
X18997016Y-6499504D01*
X19102984Y-6499504D01*
X10593070Y-7958836D02*
X10742930Y-8108696D01*
X10742930Y-7958836D02*
X10593070Y-8108696D01*
X10720984Y-8086750D02*
X10720984Y-7980782D01*
X10615016Y-7980782D01*
X10615016Y-8086750D01*
X10720984Y-8086750D01*
X10720070Y-7704836D02*
X10869930Y-7854696D01*
X10869930Y-7704836D02*
X10720070Y-7854696D01*
X10847984Y-7832750D02*
X10847984Y-7726782D01*
X10742016Y-7726782D01*
X10742016Y-7832750D01*
X10847984Y-7832750D01*
X11228070Y-7704836D02*
X11377930Y-7854696D01*
X11377930Y-7704836D02*
X11228070Y-7854696D01*
X11355984Y-7832750D02*
X11355984Y-7726782D01*
X11250016Y-7726782D01*
X11250016Y-7832750D01*
X11355984Y-7832750D01*
X11355070Y-7958836D02*
X11504930Y-8108696D01*
X11504930Y-7958836D02*
X11355070Y-8108696D01*
X11482984Y-8086750D02*
X11482984Y-7980782D01*
X11377016Y-7980782D01*
X11377016Y-8086750D01*
X11482984Y-8086750D01*
X6493550Y-17291110D02*
X6643410Y-17440970D01*
X6643410Y-17291110D02*
X6493550Y-17440970D01*
X6621464Y-17419024D02*
X6621464Y-17313056D01*
X6515496Y-17313056D01*
X6515496Y-17419024D01*
X6621464Y-17419024D01*
X6715996Y-17467639D02*
X6865856Y-17617499D01*
X6865856Y-17467639D02*
X6715996Y-17617499D01*
X6843910Y-17595553D02*
X6843910Y-17489585D01*
X6737942Y-17489585D01*
X6737942Y-17595553D01*
X6843910Y-17595553D01*
X7176400Y-17252949D02*
X7326260Y-17402809D01*
X7326260Y-17252949D02*
X7176400Y-17402809D01*
X7304314Y-17380863D02*
X7304314Y-17274895D01*
X7198346Y-17274895D01*
X7198346Y-17380863D01*
X7304314Y-17380863D01*
X7184156Y-16969075D02*
X7334016Y-17118935D01*
X7334016Y-16969075D02*
X7184156Y-17118935D01*
X7312070Y-17096989D02*
X7312070Y-16991021D01*
X7206102Y-16991021D01*
X7206102Y-17096989D01*
X7312070Y-17096989D01*
X8688070Y-6181090D02*
X8837930Y-6330950D01*
X8837930Y-6181090D02*
X8688070Y-6330950D01*
X8815984Y-6309004D02*
X8815984Y-6203036D01*
X8710016Y-6203036D01*
X8710016Y-6309004D01*
X8815984Y-6309004D01*
X8815070Y-5927090D02*
X8964930Y-6076950D01*
X8964930Y-5927090D02*
X8815070Y-6076950D01*
X8942984Y-6055004D02*
X8942984Y-5949036D01*
X8837016Y-5949036D01*
X8837016Y-6055004D01*
X8942984Y-6055004D01*
X9323070Y-5927090D02*
X9472930Y-6076950D01*
X9472930Y-5927090D02*
X9323070Y-6076950D01*
X9450984Y-6055004D02*
X9450984Y-5949036D01*
X9345016Y-5949036D01*
X9345016Y-6055004D01*
X9450984Y-6055004D01*
X9450070Y-6181090D02*
X9599930Y-6330950D01*
X9599930Y-6181090D02*
X9450070Y-6330950D01*
X9577984Y-6309004D02*
X9577984Y-6203036D01*
X9472016Y-6203036D01*
X9472016Y-6309004D01*
X9577984Y-6309004D01*
X8220242Y-16486184D02*
X8370102Y-16636044D01*
X8370102Y-16486184D02*
X8220242Y-16636044D01*
X8348156Y-16614098D02*
X8348156Y-16508130D01*
X8242188Y-16508130D01*
X8242188Y-16614098D01*
X8348156Y-16614098D01*
X8442688Y-16662713D02*
X8592548Y-16812573D01*
X8592548Y-16662713D02*
X8442688Y-16812573D01*
X8570602Y-16790627D02*
X8570602Y-16684659D01*
X8464634Y-16684659D01*
X8464634Y-16790627D01*
X8570602Y-16790627D01*
X8903092Y-16448023D02*
X9052952Y-16597883D01*
X9052952Y-16448023D02*
X8903092Y-16597883D01*
X9031006Y-16575937D02*
X9031006Y-16469969D01*
X8925038Y-16469969D01*
X8925038Y-16575937D01*
X9031006Y-16575937D01*
X8910848Y-16164149D02*
X9060708Y-16314009D01*
X9060708Y-16164149D02*
X8910848Y-16314009D01*
X9038762Y-16292063D02*
X9038762Y-16186095D01*
X8932794Y-16186095D01*
X8932794Y-16292063D01*
X9038762Y-16292063D01*
X3747242Y-15909193D02*
X3897102Y-16059053D01*
X3897102Y-15909193D02*
X3747242Y-16059053D01*
X3875156Y-16037107D02*
X3875156Y-15931139D01*
X3769188Y-15931139D01*
X3769188Y-16037107D01*
X3875156Y-16037107D01*
X3754998Y-15625319D02*
X3904858Y-15775179D01*
X3904858Y-15625319D02*
X3754998Y-15775179D01*
X3882912Y-15753233D02*
X3882912Y-15647265D01*
X3776944Y-15647265D01*
X3776944Y-15753233D01*
X3882912Y-15753233D01*
X4215402Y-15410629D02*
X4365262Y-15560489D01*
X4365262Y-15410629D02*
X4215402Y-15560489D01*
X4343316Y-15538543D02*
X4343316Y-15432575D01*
X4237348Y-15432575D01*
X4237348Y-15538543D01*
X4343316Y-15538543D01*
X4437848Y-15587158D02*
X4587708Y-15737018D01*
X4587708Y-15587158D02*
X4437848Y-15737018D01*
X4565762Y-15715072D02*
X4565762Y-15609104D01*
X4459794Y-15609104D01*
X4459794Y-15715072D01*
X4565762Y-15715072D01*
X18213070Y-13991336D02*
X18362930Y-14141196D01*
X18362930Y-13991336D02*
X18213070Y-14141196D01*
X18340984Y-14119250D02*
X18340984Y-14013282D01*
X18235016Y-14013282D01*
X18235016Y-14119250D01*
X18340984Y-14119250D01*
X18340070Y-13737336D02*
X18489930Y-13887196D01*
X18489930Y-13737336D02*
X18340070Y-13887196D01*
X18467984Y-13865250D02*
X18467984Y-13759282D01*
X18362016Y-13759282D01*
X18362016Y-13865250D01*
X18467984Y-13865250D01*
X18848070Y-13737336D02*
X18997930Y-13887196D01*
X18997930Y-13737336D02*
X18848070Y-13887196D01*
X18975984Y-13865250D02*
X18975984Y-13759282D01*
X18870016Y-13759282D01*
X18870016Y-13865250D01*
X18975984Y-13865250D01*
X18975070Y-13991336D02*
X19124930Y-14141196D01*
X19124930Y-13991336D02*
X18975070Y-14141196D01*
X19102984Y-14119250D02*
X19102984Y-14013282D01*
X18997016Y-14013282D01*
X18997016Y-14119250D01*
X19102984Y-14119250D01*
X16308070Y-10181336D02*
X16457930Y-10331196D01*
X16457930Y-10181336D02*
X16308070Y-10331196D01*
X16435984Y-10309250D02*
X16435984Y-10203282D01*
X16330016Y-10203282D01*
X16330016Y-10309250D01*
X16435984Y-10309250D01*
X16435070Y-9927336D02*
X16584930Y-10077196D01*
X16584930Y-9927336D02*
X16435070Y-10077196D01*
X16562984Y-10055250D02*
X16562984Y-9949282D01*
X16457016Y-9949282D01*
X16457016Y-10055250D01*
X16562984Y-10055250D01*
X16943070Y-9927336D02*
X17092930Y-10077196D01*
X17092930Y-9927336D02*
X16943070Y-10077196D01*
X17070984Y-10055250D02*
X17070984Y-9949282D01*
X16965016Y-9949282D01*
X16965016Y-10055250D01*
X17070984Y-10055250D01*
X17070070Y-10181336D02*
X17219930Y-10331196D01*
X17219930Y-10181336D02*
X17070070Y-10331196D01*
X17197984Y-10309250D02*
X17197984Y-10203282D01*
X17092016Y-10203282D01*
X17092016Y-10309250D01*
X17197984Y-10309250D01*
X16308070Y-8276336D02*
X16457930Y-8426196D01*
X16457930Y-8276336D02*
X16308070Y-8426196D01*
X16435984Y-8404250D02*
X16435984Y-8298282D01*
X16330016Y-8298282D01*
X16330016Y-8404250D01*
X16435984Y-8404250D01*
X16435070Y-8022336D02*
X16584930Y-8172196D01*
X16584930Y-8022336D02*
X16435070Y-8172196D01*
X16562984Y-8150250D02*
X16562984Y-8044282D01*
X16457016Y-8044282D01*
X16457016Y-8150250D01*
X16562984Y-8150250D01*
X16943070Y-8022336D02*
X17092930Y-8172196D01*
X17092930Y-8022336D02*
X16943070Y-8172196D01*
X17070984Y-8150250D02*
X17070984Y-8044282D01*
X16965016Y-8044282D01*
X16965016Y-8150250D01*
X17070984Y-8150250D01*
X17070070Y-8276336D02*
X17219930Y-8426196D01*
X17219930Y-8276336D02*
X17070070Y-8426196D01*
X17197984Y-8404250D02*
X17197984Y-8298282D01*
X17092016Y-8298282D01*
X17092016Y-8404250D01*
X17197984Y-8404250D01*
X16308070Y-6371590D02*
X16457930Y-6521450D01*
X16457930Y-6371590D02*
X16308070Y-6521450D01*
X16435984Y-6499504D02*
X16435984Y-6393536D01*
X16330016Y-6393536D01*
X16330016Y-6499504D01*
X16435984Y-6499504D01*
X16435070Y-6117590D02*
X16584930Y-6267450D01*
X16584930Y-6117590D02*
X16435070Y-6267450D01*
X16562984Y-6245504D02*
X16562984Y-6139536D01*
X16457016Y-6139536D01*
X16457016Y-6245504D01*
X16562984Y-6245504D01*
X16943070Y-6117590D02*
X17092930Y-6267450D01*
X17092930Y-6117590D02*
X16943070Y-6267450D01*
X17070984Y-6245504D02*
X17070984Y-6139536D01*
X16965016Y-6139536D01*
X16965016Y-6245504D01*
X17070984Y-6245504D01*
X17070070Y-6371590D02*
X17219930Y-6521450D01*
X17219930Y-6371590D02*
X17070070Y-6521450D01*
X17197984Y-6499504D02*
X17197984Y-6393536D01*
X17092016Y-6393536D01*
X17092016Y-6499504D01*
X17197984Y-6499504D01*
X18075910Y-10425176D02*
X18246090Y-10595356D01*
X18246090Y-10425176D02*
X18075910Y-10595356D01*
X18161000Y-10595356D02*
X18246090Y-10510266D01*
X18161000Y-10425176D01*
X18075910Y-10510266D01*
X18161000Y-10595356D01*
X19091910Y-10425176D02*
X19262090Y-10595356D01*
X19262090Y-10425176D02*
X19091910Y-10595356D01*
X19177000Y-10595356D02*
X19262090Y-10510266D01*
X19177000Y-10425176D01*
X19091910Y-10510266D01*
X19177000Y-10595356D01*
X6104068Y-15566234D02*
X6274248Y-15736414D01*
X6274248Y-15566234D02*
X6104068Y-15736414D01*
X6189158Y-15736414D02*
X6274248Y-15651324D01*
X6189158Y-15566234D01*
X6104068Y-15651324D01*
X6189158Y-15736414D01*
X6533448Y-16487042D02*
X6703628Y-16657222D01*
X6703628Y-16487042D02*
X6533448Y-16657222D01*
X6618538Y-16657222D02*
X6703628Y-16572132D01*
X6618538Y-16487042D01*
X6533448Y-16572132D01*
X6618538Y-16657222D01*
X2924400Y-14456470D02*
X3094580Y-14626650D01*
X3094580Y-14456470D02*
X2924400Y-14626650D01*
X3009490Y-14626650D02*
X3094580Y-14541560D01*
X3009490Y-14456470D01*
X2924400Y-14541560D01*
X3009490Y-14626650D01*
X3845208Y-14027090D02*
X4015388Y-14197270D01*
X4015388Y-14027090D02*
X3845208Y-14197270D01*
X3930298Y-14197270D02*
X4015388Y-14112180D01*
X3930298Y-14027090D01*
X3845208Y-14112180D01*
X3930298Y-14197270D01*
X8550910Y-12139676D02*
X8721090Y-12309856D01*
X8721090Y-12139676D02*
X8550910Y-12309856D01*
X8636000Y-12309856D02*
X8721090Y-12224766D01*
X8636000Y-12139676D01*
X8550910Y-12224766D01*
X8636000Y-12309856D01*
X9566910Y-12139676D02*
X9737090Y-12309856D01*
X9737090Y-12139676D02*
X9566910Y-12309856D01*
X9652000Y-12309856D02*
X9737090Y-12224766D01*
X9652000Y-12139676D01*
X9566910Y-12224766D01*
X9652000Y-12309856D01*
X10455910Y-6297676D02*
X10626090Y-6467856D01*
X10626090Y-6297676D02*
X10455910Y-6467856D01*
X10541000Y-6467856D02*
X10626090Y-6382766D01*
X10541000Y-6297676D01*
X10455910Y-6382766D01*
X10541000Y-6467856D01*
X11471910Y-6297676D02*
X11642090Y-6467856D01*
X11642090Y-6297676D02*
X11471910Y-6467856D01*
X11557000Y-6467856D02*
X11642090Y-6382766D01*
X11557000Y-6297676D01*
X11471910Y-6382766D01*
X11557000Y-6467856D01*
X4650838Y-13651544D02*
X4821018Y-13821724D01*
X4821018Y-13651544D02*
X4650838Y-13821724D01*
X4735928Y-13821724D02*
X4821018Y-13736634D01*
X4735928Y-13651544D01*
X4650838Y-13736634D01*
X4735928Y-13821724D01*
X5571646Y-13222164D02*
X5741826Y-13392344D01*
X5741826Y-13222164D02*
X5571646Y-13392344D01*
X5656736Y-13392344D02*
X5741826Y-13307254D01*
X5656736Y-13222164D01*
X5571646Y-13307254D01*
X5656736Y-13392344D01*
X8550910Y-8329676D02*
X8721090Y-8499856D01*
X8721090Y-8329676D02*
X8550910Y-8499856D01*
X8636000Y-8499856D02*
X8721090Y-8414766D01*
X8636000Y-8329676D01*
X8550910Y-8414766D01*
X8636000Y-8499856D01*
X9566910Y-8329676D02*
X9737090Y-8499856D01*
X9737090Y-8329676D02*
X9566910Y-8499856D01*
X9652000Y-8499856D02*
X9737090Y-8414766D01*
X9652000Y-8329676D01*
X9566910Y-8414766D01*
X9652000Y-8499856D01*
X5456018Y-15377982D02*
X5626198Y-15548162D01*
X5626198Y-15377982D02*
X5456018Y-15548162D01*
X5541108Y-15548162D02*
X5626198Y-15463072D01*
X5541108Y-15377982D01*
X5456018Y-15463072D01*
X5541108Y-15548162D01*
X6376826Y-14948602D02*
X6547006Y-15118782D01*
X6547006Y-14948602D02*
X6376826Y-15118782D01*
X6461916Y-15118782D02*
X6547006Y-15033692D01*
X6461916Y-14948602D01*
X6376826Y-15033692D01*
X6461916Y-15118782D01*
X16170910Y-12330176D02*
X16341090Y-12500356D01*
X16341090Y-12330176D02*
X16170910Y-12500356D01*
X16256000Y-12500356D02*
X16341090Y-12415266D01*
X16256000Y-12330176D01*
X16170910Y-12415266D01*
X16256000Y-12500356D01*
X17186910Y-12330176D02*
X17357090Y-12500356D01*
X17357090Y-12330176D02*
X17186910Y-12500356D01*
X17272000Y-12500356D02*
X17357090Y-12415266D01*
X17272000Y-12330176D01*
X17186910Y-12415266D01*
X17272000Y-12500356D01*
X7830506Y-14761054D02*
X8000686Y-14931234D01*
X8000686Y-14761054D02*
X7830506Y-14931234D01*
X7915596Y-14931234D02*
X8000686Y-14846144D01*
X7915596Y-14761054D01*
X7830506Y-14846144D01*
X7915596Y-14931234D01*
X8259886Y-15681862D02*
X8430066Y-15852042D01*
X8430066Y-15681862D02*
X8259886Y-15852042D01*
X8344976Y-15852042D02*
X8430066Y-15766952D01*
X8344976Y-15681862D01*
X8259886Y-15766952D01*
X8344976Y-15852042D01*
X10455910Y-12012676D02*
X10626090Y-12182856D01*
X10626090Y-12012676D02*
X10455910Y-12182856D01*
X10541000Y-12182856D02*
X10626090Y-12097766D01*
X10541000Y-12012676D01*
X10455910Y-12097766D01*
X10541000Y-12182856D01*
X11471910Y-12012676D02*
X11642090Y-12182856D01*
X11642090Y-12012676D02*
X11471910Y-12182856D01*
X11557000Y-12182856D02*
X11642090Y-12097766D01*
X11557000Y-12012676D01*
X11471910Y-12097766D01*
X11557000Y-12182856D01*
X12360910Y-8042910D02*
X12531090Y-8213090D01*
X12531090Y-8042910D02*
X12360910Y-8213090D01*
X12446000Y-8213090D02*
X12531090Y-8128000D01*
X12446000Y-8042910D01*
X12360910Y-8128000D01*
X12446000Y-8213090D01*
X13376910Y-8042910D02*
X13547090Y-8213090D01*
X13547090Y-8042910D02*
X13376910Y-8213090D01*
X13462000Y-8213090D02*
X13547090Y-8128000D01*
X13462000Y-8042910D01*
X13376910Y-8128000D01*
X13462000Y-8213090D01*
X18075910Y-6615430D02*
X18246090Y-6785610D01*
X18246090Y-6615430D02*
X18075910Y-6785610D01*
X18161000Y-6785610D02*
X18246090Y-6700520D01*
X18161000Y-6615430D01*
X18075910Y-6700520D01*
X18161000Y-6785610D01*
X19091910Y-6615430D02*
X19262090Y-6785610D01*
X19262090Y-6615430D02*
X19091910Y-6785610D01*
X19177000Y-6785610D02*
X19262090Y-6700520D01*
X19177000Y-6615430D01*
X19091910Y-6700520D01*
X19177000Y-6785610D01*
X10455910Y-8202676D02*
X10626090Y-8372856D01*
X10626090Y-8202676D02*
X10455910Y-8372856D01*
X10541000Y-8372856D02*
X10626090Y-8287766D01*
X10541000Y-8202676D01*
X10455910Y-8287766D01*
X10541000Y-8372856D01*
X11471910Y-8202676D02*
X11642090Y-8372856D01*
X11642090Y-8202676D02*
X11471910Y-8372856D01*
X11557000Y-8372856D02*
X11642090Y-8287766D01*
X11557000Y-8202676D01*
X11471910Y-8287766D01*
X11557000Y-8372856D01*
X6260944Y-17104420D02*
X6431124Y-17274600D01*
X6431124Y-17104420D02*
X6260944Y-17274600D01*
X6346034Y-17274600D02*
X6431124Y-17189510D01*
X6346034Y-17104420D01*
X6260944Y-17189510D01*
X6346034Y-17274600D01*
X7181752Y-16675040D02*
X7351932Y-16845220D01*
X7351932Y-16675040D02*
X7181752Y-16845220D01*
X7266842Y-16845220D02*
X7351932Y-16760130D01*
X7266842Y-16675040D01*
X7181752Y-16760130D01*
X7266842Y-16845220D01*
X8550910Y-6424930D02*
X8721090Y-6595110D01*
X8721090Y-6424930D02*
X8550910Y-6595110D01*
X8636000Y-6595110D02*
X8721090Y-6510020D01*
X8636000Y-6424930D01*
X8550910Y-6510020D01*
X8636000Y-6595110D01*
X9566910Y-6424930D02*
X9737090Y-6595110D01*
X9737090Y-6424930D02*
X9566910Y-6595110D01*
X9652000Y-6595110D02*
X9737090Y-6510020D01*
X9652000Y-6424930D01*
X9566910Y-6510020D01*
X9652000Y-6595110D01*
X7987636Y-16299494D02*
X8157816Y-16469674D01*
X8157816Y-16299494D02*
X7987636Y-16469674D01*
X8072726Y-16469674D02*
X8157816Y-16384584D01*
X8072726Y-16299494D01*
X7987636Y-16384584D01*
X8072726Y-16469674D01*
X8908444Y-15870114D02*
X9078624Y-16040294D01*
X9078624Y-15870114D02*
X8908444Y-16040294D01*
X8993534Y-16040294D02*
X9078624Y-15955204D01*
X8993534Y-15870114D01*
X8908444Y-15955204D01*
X8993534Y-16040294D01*
X3729326Y-16182908D02*
X3899506Y-16353088D01*
X3899506Y-16182908D02*
X3729326Y-16353088D01*
X3814416Y-16353088D02*
X3899506Y-16267998D01*
X3814416Y-16182908D01*
X3729326Y-16267998D01*
X3814416Y-16353088D01*
X4650134Y-15753528D02*
X4820314Y-15923708D01*
X4820314Y-15753528D02*
X4650134Y-15923708D01*
X4735224Y-15923708D02*
X4820314Y-15838618D01*
X4735224Y-15753528D01*
X4650134Y-15838618D01*
X4735224Y-15923708D01*
X18075910Y-14235176D02*
X18246090Y-14405356D01*
X18246090Y-14235176D02*
X18075910Y-14405356D01*
X18161000Y-14405356D02*
X18246090Y-14320266D01*
X18161000Y-14235176D01*
X18075910Y-14320266D01*
X18161000Y-14405356D01*
X19091910Y-14235176D02*
X19262090Y-14405356D01*
X19262090Y-14235176D02*
X19091910Y-14405356D01*
X19177000Y-14405356D02*
X19262090Y-14320266D01*
X19177000Y-14235176D01*
X19091910Y-14320266D01*
X19177000Y-14405356D01*
X16170910Y-10425176D02*
X16341090Y-10595356D01*
X16341090Y-10425176D02*
X16170910Y-10595356D01*
X16256000Y-10595356D02*
X16341090Y-10510266D01*
X16256000Y-10425176D01*
X16170910Y-10510266D01*
X16256000Y-10595356D01*
X17186910Y-10425176D02*
X17357090Y-10595356D01*
X17357090Y-10425176D02*
X17186910Y-10595356D01*
X17272000Y-10595356D02*
X17357090Y-10510266D01*
X17272000Y-10425176D01*
X17186910Y-10510266D01*
X17272000Y-10595356D01*
X16170910Y-8520176D02*
X16341090Y-8690356D01*
X16341090Y-8520176D02*
X16170910Y-8690356D01*
X16256000Y-8690356D02*
X16341090Y-8605266D01*
X16256000Y-8520176D01*
X16170910Y-8605266D01*
X16256000Y-8690356D01*
X17186910Y-8520176D02*
X17357090Y-8690356D01*
X17357090Y-8520176D02*
X17186910Y-8690356D01*
X17272000Y-8690356D02*
X17357090Y-8605266D01*
X17272000Y-8520176D01*
X17186910Y-8605266D01*
X17272000Y-8690356D01*
X16170910Y-6615430D02*
X16341090Y-6785610D01*
X16341090Y-6615430D02*
X16170910Y-6785610D01*
X16256000Y-6785610D02*
X16341090Y-6700520D01*
X16256000Y-6615430D01*
X16170910Y-6700520D01*
X16256000Y-6785610D01*
X17186910Y-6615430D02*
X17357090Y-6785610D01*
X17357090Y-6615430D02*
X17186910Y-6785610D01*
X17272000Y-6785610D02*
X17357090Y-6700520D01*
X17272000Y-6615430D01*
X17186910Y-6700520D01*
X17272000Y-6785610D01*
X10455910Y-13917676D02*
X10626090Y-14087856D01*
X10626090Y-13917676D02*
X10455910Y-14087856D01*
X10541000Y-14087856D02*
X10626090Y-14002766D01*
X10541000Y-13917676D01*
X10455910Y-14002766D01*
X10541000Y-14087856D01*
X11471910Y-13917676D02*
X11642090Y-14087856D01*
X11642090Y-13917676D02*
X11471910Y-14087856D01*
X11557000Y-14087856D02*
X11642090Y-14002766D01*
X11557000Y-13917676D01*
X11471910Y-14002766D01*
X11557000Y-14087856D01*
X14265910Y-13917676D02*
X14436090Y-14087856D01*
X14436090Y-13917676D02*
X14265910Y-14087856D01*
X14351000Y-14087856D02*
X14436090Y-14002766D01*
X14351000Y-13917676D01*
X14265910Y-14002766D01*
X14351000Y-14087856D01*
X15281910Y-13917676D02*
X15452090Y-14087856D01*
X15452090Y-13917676D02*
X15281910Y-14087856D01*
X15367000Y-14087856D02*
X15452090Y-14002766D01*
X15367000Y-13917676D01*
X15281910Y-14002766D01*
X15367000Y-14087856D01*
X12360910Y-6137910D02*
X12531090Y-6308090D01*
X12531090Y-6137910D02*
X12360910Y-6308090D01*
X12446000Y-6308090D02*
X12531090Y-6223000D01*
X12446000Y-6137910D01*
X12360910Y-6223000D01*
X12446000Y-6308090D01*
X13376910Y-6137910D02*
X13547090Y-6308090D01*
X13547090Y-6137910D02*
X13376910Y-6308090D01*
X13462000Y-6308090D02*
X13547090Y-6223000D01*
X13462000Y-6137910D01*
X13376910Y-6223000D01*
X13462000Y-6308090D01*
X6637559Y-12142975D02*
X6807739Y-12313155D01*
X6807739Y-12142975D02*
X6637559Y-12313155D01*
X6722649Y-12313155D02*
X6807739Y-12228065D01*
X6722649Y-12142975D01*
X6637559Y-12228065D01*
X6722649Y-12313155D01*
X7653559Y-12142975D02*
X7823739Y-12313155D01*
X7823739Y-12142975D02*
X7653559Y-12313155D01*
X7738649Y-12313155D02*
X7823739Y-12228065D01*
X7738649Y-12142975D01*
X7653559Y-12228065D01*
X7738649Y-12313155D01*
X12360910Y-9947910D02*
X12531090Y-10118090D01*
X12531090Y-9947910D02*
X12360910Y-10118090D01*
X12446000Y-10118090D02*
X12531090Y-10033000D01*
X12446000Y-9947910D01*
X12360910Y-10033000D01*
X12446000Y-10118090D01*
X13376910Y-9947910D02*
X13547090Y-10118090D01*
X13547090Y-9947910D02*
X13376910Y-10118090D01*
X13462000Y-10118090D02*
X13547090Y-10033000D01*
X13462000Y-9947910D01*
X13376910Y-10033000D01*
X13462000Y-10118090D01*
X4534506Y-17909600D02*
X4704686Y-18079780D01*
X4704686Y-17909600D02*
X4534506Y-18079780D01*
X4619596Y-18079780D02*
X4704686Y-17994690D01*
X4619596Y-17909600D01*
X4534506Y-17994690D01*
X4619596Y-18079780D01*
X5455314Y-17480220D02*
X5625494Y-17650400D01*
X5625494Y-17480220D02*
X5455314Y-17650400D01*
X5540404Y-17650400D02*
X5625494Y-17565310D01*
X5540404Y-17480220D01*
X5455314Y-17565310D01*
X5540404Y-17650400D01*
X6645910Y-6424930D02*
X6816090Y-6595110D01*
X6816090Y-6424930D02*
X6645910Y-6595110D01*
X6731000Y-6595110D02*
X6816090Y-6510020D01*
X6731000Y-6424930D01*
X6645910Y-6510020D01*
X6731000Y-6595110D01*
X7661910Y-6424930D02*
X7832090Y-6595110D01*
X7832090Y-6424930D02*
X7661910Y-6595110D01*
X7747000Y-6595110D02*
X7832090Y-6510020D01*
X7747000Y-6424930D01*
X7661910Y-6510020D01*
X7747000Y-6595110D01*
X6646164Y-8331200D02*
X6816344Y-8501380D01*
X6816344Y-8331200D02*
X6646164Y-8501380D01*
X6731254Y-8501380D02*
X6816344Y-8416290D01*
X6731254Y-8331200D01*
X6646164Y-8416290D01*
X6731254Y-8501380D01*
X7662164Y-8331200D02*
X7832344Y-8501380D01*
X7832344Y-8331200D02*
X7662164Y-8501380D01*
X7747254Y-8501380D02*
X7832344Y-8416290D01*
X7747254Y-8331200D01*
X7662164Y-8416290D01*
X7747254Y-8501380D01*
X8550910Y-10234676D02*
X8721090Y-10404856D01*
X8721090Y-10234676D02*
X8550910Y-10404856D01*
X8636000Y-10404856D02*
X8721090Y-10319766D01*
X8636000Y-10234676D01*
X8550910Y-10319766D01*
X8636000Y-10404856D01*
X9566910Y-10234676D02*
X9737090Y-10404856D01*
X9737090Y-10234676D02*
X9566910Y-10404856D01*
X9652000Y-10404856D02*
X9737090Y-10319766D01*
X9652000Y-10234676D01*
X9566910Y-10319766D01*
X9652000Y-10404856D01*
X12360910Y-13757910D02*
X12531090Y-13928090D01*
X12531090Y-13757910D02*
X12360910Y-13928090D01*
X12446000Y-13928090D02*
X12531090Y-13843000D01*
X12446000Y-13757910D01*
X12360910Y-13843000D01*
X12446000Y-13928090D01*
X13376910Y-13757910D02*
X13547090Y-13928090D01*
X13547090Y-13757910D02*
X13376910Y-13928090D01*
X13462000Y-13928090D02*
X13547090Y-13843000D01*
X13462000Y-13757910D01*
X13376910Y-13843000D01*
X13462000Y-13928090D01*
X6646164Y-10236200D02*
X6816344Y-10406380D01*
X6816344Y-10236200D02*
X6646164Y-10406380D01*
X6731254Y-10406380D02*
X6816344Y-10321290D01*
X6731254Y-10236200D01*
X6646164Y-10321290D01*
X6731254Y-10406380D01*
X7662164Y-10236200D02*
X7832344Y-10406380D01*
X7832344Y-10236200D02*
X7662164Y-10406380D01*
X7747254Y-10406380D02*
X7832344Y-10321290D01*
X7747254Y-10236200D01*
X7662164Y-10321290D01*
X7747254Y-10406380D01*
X10455910Y-10107676D02*
X10626090Y-10277856D01*
X10626090Y-10107676D02*
X10455910Y-10277856D01*
X10541000Y-10277856D02*
X10626090Y-10192766D01*
X10541000Y-10107676D01*
X10455910Y-10192766D01*
X10541000Y-10277856D01*
X11471910Y-10107676D02*
X11642090Y-10277856D01*
X11642090Y-10107676D02*
X11471910Y-10277856D01*
X11557000Y-10277856D02*
X11642090Y-10192766D01*
X11557000Y-10107676D01*
X11471910Y-10192766D01*
X11557000Y-10277856D01*
X14265910Y-12012676D02*
X14436090Y-12182856D01*
X14436090Y-12012676D02*
X14265910Y-12182856D01*
X14351000Y-12182856D02*
X14436090Y-12097766D01*
X14351000Y-12012676D01*
X14265910Y-12097766D01*
X14351000Y-12182856D01*
X15281910Y-12012676D02*
X15452090Y-12182856D01*
X15452090Y-12012676D02*
X15281910Y-12182856D01*
X15367000Y-12182856D02*
X15452090Y-12097766D01*
X15367000Y-12012676D01*
X15281910Y-12097766D01*
X15367000Y-12182856D01*
X18075910Y-8520176D02*
X18246090Y-8690356D01*
X18246090Y-8520176D02*
X18075910Y-8690356D01*
X18161000Y-8690356D02*
X18246090Y-8605266D01*
X18161000Y-8520176D01*
X18075910Y-8605266D01*
X18161000Y-8690356D01*
X19091910Y-8520176D02*
X19262090Y-8690356D01*
X19262090Y-8520176D02*
X19091910Y-8690356D01*
X19177000Y-8690356D02*
X19262090Y-8605266D01*
X19177000Y-8520176D01*
X19091910Y-8605266D01*
X19177000Y-8690356D01*
X16170910Y-14235176D02*
X16341090Y-14405356D01*
X16341090Y-14235176D02*
X16170910Y-14405356D01*
X16256000Y-14405356D02*
X16341090Y-14320266D01*
X16256000Y-14235176D01*
X16170910Y-14320266D01*
X16256000Y-14405356D01*
X17186910Y-14235176D02*
X17357090Y-14405356D01*
X17357090Y-14235176D02*
X17186910Y-14405356D01*
X17272000Y-14405356D02*
X17357090Y-14320266D01*
X17272000Y-14235176D01*
X17186910Y-14320266D01*
X17272000Y-14405356D01*
X18075910Y-12330176D02*
X18246090Y-12500356D01*
X18246090Y-12330176D02*
X18075910Y-12500356D01*
X18161000Y-12500356D02*
X18246090Y-12415266D01*
X18161000Y-12330176D01*
X18075910Y-12415266D01*
X18161000Y-12500356D01*
X19091910Y-12330176D02*
X19262090Y-12500356D01*
X19262090Y-12330176D02*
X19091910Y-12500356D01*
X19177000Y-12500356D02*
X19262090Y-12415266D01*
X19177000Y-12330176D01*
X19091910Y-12415266D01*
X19177000Y-12500356D01*
X12360910Y-11852910D02*
X12531090Y-12023090D01*
X12531090Y-11852910D02*
X12360910Y-12023090D01*
X12446000Y-12023090D02*
X12531090Y-11938000D01*
X12446000Y-11852910D01*
X12360910Y-11938000D01*
X12446000Y-12023090D01*
X13376910Y-11852910D02*
X13547090Y-12023090D01*
X13547090Y-11852910D02*
X13376910Y-12023090D01*
X13462000Y-12023090D02*
X13547090Y-11938000D01*
X13462000Y-11852910D01*
X13376910Y-11938000D01*
X13462000Y-12023090D01*
X14265910Y-6297676D02*
X14436090Y-6467856D01*
X14436090Y-6297676D02*
X14265910Y-6467856D01*
X14351000Y-6467856D02*
X14436090Y-6382766D01*
X14351000Y-6297676D01*
X14265910Y-6382766D01*
X14351000Y-6467856D01*
X15281910Y-6297676D02*
X15452090Y-6467856D01*
X15452090Y-6297676D02*
X15281910Y-6467856D01*
X15367000Y-6467856D02*
X15452090Y-6382766D01*
X15367000Y-6297676D01*
X15281910Y-6382766D01*
X15367000Y-6467856D01*
X14265910Y-8202676D02*
X14436090Y-8372856D01*
X14436090Y-8202676D02*
X14265910Y-8372856D01*
X14351000Y-8372856D02*
X14436090Y-8287766D01*
X14351000Y-8202676D01*
X14265910Y-8287766D01*
X14351000Y-8372856D01*
X15281910Y-8202676D02*
X15452090Y-8372856D01*
X15452090Y-8202676D02*
X15281910Y-8372856D01*
X15367000Y-8372856D02*
X15452090Y-8287766D01*
X15367000Y-8202676D01*
X15281910Y-8287766D01*
X15367000Y-8372856D01*
X7182456Y-14572802D02*
X7352636Y-14742982D01*
X7352636Y-14572802D02*
X7182456Y-14742982D01*
X7267546Y-14742982D02*
X7352636Y-14657892D01*
X7267546Y-14572802D01*
X7182456Y-14657892D01*
X7267546Y-14742982D01*
X8103264Y-14143422D02*
X8273444Y-14313602D01*
X8273444Y-14143422D02*
X8103264Y-14313602D01*
X8188354Y-14313602D02*
X8273444Y-14228512D01*
X8188354Y-14143422D01*
X8103264Y-14228512D01*
X8188354Y-14313602D01*
X14265910Y-10107676D02*
X14436090Y-10277856D01*
X14436090Y-10107676D02*
X14265910Y-10277856D01*
X14351000Y-10277856D02*
X14436090Y-10192766D01*
X14351000Y-10107676D01*
X14265910Y-10192766D01*
X14351000Y-10277856D01*
X15281910Y-10107676D02*
X15452090Y-10277856D01*
X15452090Y-10107676D02*
X15281910Y-10277856D01*
X15367000Y-10277856D02*
X15452090Y-10192766D01*
X15367000Y-10107676D01*
X15281910Y-10192766D01*
X15367000Y-10277856D01*
D12*
X2575476Y-19419956D02*
X2575476Y-19119956D01*
X2646905Y-19119956D01*
X2689762Y-19134242D01*
X2718334Y-19162814D01*
X2732619Y-19191385D01*
X2746905Y-19248528D01*
X2746905Y-19291385D01*
X2732619Y-19348528D01*
X2718334Y-19377099D01*
X2689762Y-19405671D01*
X2646905Y-19419956D01*
X2575476Y-19419956D01*
X2875476Y-19419956D02*
X2875476Y-19219956D01*
X2875476Y-19277099D02*
X2889762Y-19248528D01*
X2904048Y-19234242D01*
X2932619Y-19219956D01*
X2961191Y-19219956D01*
X3061191Y-19419956D02*
X3061191Y-19219956D01*
X3061191Y-19119956D02*
X3046905Y-19134242D01*
X3061191Y-19148528D01*
X3075476Y-19134242D01*
X3061191Y-19119956D01*
X3061191Y-19148528D01*
X3246905Y-19419956D02*
X3218334Y-19405671D01*
X3204048Y-19377099D01*
X3204048Y-19119956D01*
X3404048Y-19419956D02*
X3375476Y-19405671D01*
X3361191Y-19377099D01*
X3361191Y-19119956D01*
X3746905Y-19419956D02*
X3746905Y-19119956D01*
X3846905Y-19334242D01*
X3946905Y-19119956D01*
X3946905Y-19419956D01*
X4218334Y-19419956D02*
X4218334Y-19262814D01*
X4204048Y-19234242D01*
X4175476Y-19219956D01*
X4118334Y-19219956D01*
X4089762Y-19234242D01*
X4218334Y-19405671D02*
X4189762Y-19419956D01*
X4118334Y-19419956D01*
X4089762Y-19405671D01*
X4075476Y-19377099D01*
X4075476Y-19348528D01*
X4089762Y-19319956D01*
X4118334Y-19305671D01*
X4189762Y-19305671D01*
X4218334Y-19291385D01*
X4361191Y-19219956D02*
X4361191Y-19519956D01*
X4361191Y-19234242D02*
X4389762Y-19219956D01*
X4446905Y-19219956D01*
X4475476Y-19234242D01*
X4489762Y-19248528D01*
X4504048Y-19277099D01*
X4504048Y-19362814D01*
X4489762Y-19391385D01*
X4475476Y-19405671D01*
X4446905Y-19419956D01*
X4389762Y-19419956D01*
X4361191Y-19405671D01*
X4632619Y-19391385D02*
X4646905Y-19405671D01*
X4632619Y-19419956D01*
X4618334Y-19405671D01*
X4632619Y-19391385D01*
X4632619Y-19419956D01*
X4632619Y-19234242D02*
X4646905Y-19248528D01*
X4632619Y-19262814D01*
X4618334Y-19248528D01*
X4632619Y-19234242D01*
X4632619Y-19262814D01*
X2238248Y-19888842D02*
X2289048Y-19939642D01*
X2289048Y-19888842D02*
X2238248Y-19939642D01*
X2632619Y-19749956D02*
X2661191Y-19749956D01*
X2689762Y-19764242D01*
X2704048Y-19778528D01*
X2718334Y-19807099D01*
X2732619Y-19864242D01*
X2732619Y-19935671D01*
X2718334Y-19992814D01*
X2704048Y-20021385D01*
X2689762Y-20035671D01*
X2661191Y-20049956D01*
X2632619Y-20049956D01*
X2604048Y-20035671D01*
X2589762Y-20021385D01*
X2575476Y-19992814D01*
X2561191Y-19935671D01*
X2561191Y-19864242D01*
X2575476Y-19807099D01*
X2589762Y-19778528D01*
X2604048Y-19764242D01*
X2632619Y-19749956D01*
X2861191Y-20021385D02*
X2875476Y-20035671D01*
X2861191Y-20049956D01*
X2846905Y-20035671D01*
X2861191Y-20021385D01*
X2861191Y-20049956D01*
X3146905Y-19749956D02*
X3004048Y-19749956D01*
X2989762Y-19892814D01*
X3004048Y-19878528D01*
X3032619Y-19864242D01*
X3104048Y-19864242D01*
X3132619Y-19878528D01*
X3146905Y-19892814D01*
X3161191Y-19921385D01*
X3161191Y-19992814D01*
X3146905Y-20021385D01*
X3132619Y-20035671D01*
X3104048Y-20049956D01*
X3032619Y-20049956D01*
X3004048Y-20035671D01*
X2989762Y-20021385D01*
X3446905Y-20049956D02*
X3275476Y-20049956D01*
X3361191Y-20049956D02*
X3361191Y-19749956D01*
X3332619Y-19792814D01*
X3304048Y-19821385D01*
X3275476Y-19835671D01*
X3575476Y-20049956D02*
X3575476Y-19849956D01*
X3575476Y-19878528D02*
X3589762Y-19864242D01*
X3618334Y-19849956D01*
X3661191Y-19849956D01*
X3689762Y-19864242D01*
X3704048Y-19892814D01*
X3704048Y-20049956D01*
X3704048Y-19892814D02*
X3718334Y-19864242D01*
X3746905Y-19849956D01*
X3789762Y-19849956D01*
X3818334Y-19864242D01*
X3832619Y-19892814D01*
X3832619Y-20049956D01*
X3975476Y-20049956D02*
X3975476Y-19849956D01*
X3975476Y-19878528D02*
X3989762Y-19864242D01*
X4018334Y-19849956D01*
X4061191Y-19849956D01*
X4089762Y-19864242D01*
X4104048Y-19892814D01*
X4104048Y-20049956D01*
X4104048Y-19892814D02*
X4118334Y-19864242D01*
X4146905Y-19849956D01*
X4189762Y-19849956D01*
X4218334Y-19864242D01*
X4232619Y-19892814D01*
X4232619Y-20049956D01*
X4818334Y-19735671D02*
X4561191Y-20121385D01*
X5204048Y-19749956D02*
X5232619Y-19749956D01*
X5261191Y-19764242D01*
X5275476Y-19778528D01*
X5289762Y-19807099D01*
X5304048Y-19864242D01*
X5304048Y-19935671D01*
X5289762Y-19992814D01*
X5275476Y-20021385D01*
X5261191Y-20035671D01*
X5232619Y-20049956D01*
X5204048Y-20049956D01*
X5175476Y-20035671D01*
X5161191Y-20021385D01*
X5146905Y-19992814D01*
X5132619Y-19935671D01*
X5132619Y-19864242D01*
X5146905Y-19807099D01*
X5161191Y-19778528D01*
X5175476Y-19764242D01*
X5204048Y-19749956D01*
X5432619Y-20021385D02*
X5446905Y-20035671D01*
X5432619Y-20049956D01*
X5418334Y-20035671D01*
X5432619Y-20021385D01*
X5432619Y-20049956D01*
X5632619Y-19749956D02*
X5661191Y-19749956D01*
X5689762Y-19764242D01*
X5704048Y-19778528D01*
X5718334Y-19807099D01*
X5732619Y-19864242D01*
X5732619Y-19935671D01*
X5718334Y-19992814D01*
X5704048Y-20021385D01*
X5689762Y-20035671D01*
X5661191Y-20049956D01*
X5632619Y-20049956D01*
X5604048Y-20035671D01*
X5589762Y-20021385D01*
X5575476Y-19992814D01*
X5561191Y-19935671D01*
X5561191Y-19864242D01*
X5575476Y-19807099D01*
X5589762Y-19778528D01*
X5604048Y-19764242D01*
X5632619Y-19749956D01*
X5846905Y-19778528D02*
X5861191Y-19764242D01*
X5889762Y-19749956D01*
X5961191Y-19749956D01*
X5989762Y-19764242D01*
X6004048Y-19778528D01*
X6018334Y-19807099D01*
X6018334Y-19835671D01*
X6004048Y-19878528D01*
X5832619Y-20049956D01*
X6018334Y-20049956D01*
X6204048Y-19749956D02*
X6232619Y-19749956D01*
X6261191Y-19764242D01*
X6275476Y-19778528D01*
X6289762Y-19807099D01*
X6304048Y-19864242D01*
X6304048Y-19935671D01*
X6289762Y-19992814D01*
X6275476Y-20021385D01*
X6261191Y-20035671D01*
X6232619Y-20049956D01*
X6204048Y-20049956D01*
X6175476Y-20035671D01*
X6161191Y-20021385D01*
X6146905Y-19992814D01*
X6132619Y-19935671D01*
X6132619Y-19864242D01*
X6146905Y-19807099D01*
X6161191Y-19778528D01*
X6175476Y-19764242D01*
X6204048Y-19749956D01*
X6418334Y-19749956D02*
X6418334Y-19807099D01*
X6532619Y-19749956D02*
X6532619Y-19807099D01*
X6975476Y-20164242D02*
X6961191Y-20149956D01*
X6932619Y-20107099D01*
X6918334Y-20078528D01*
X6904048Y-20035671D01*
X6889762Y-19964242D01*
X6889762Y-19907099D01*
X6904048Y-19835671D01*
X6918334Y-19792814D01*
X6932619Y-19764242D01*
X6961191Y-19721385D01*
X6975476Y-19707099D01*
X7246905Y-20049956D02*
X7075476Y-20049956D01*
X7161191Y-20049956D02*
X7161191Y-19749956D01*
X7132619Y-19792814D01*
X7104048Y-19821385D01*
X7075476Y-19835671D01*
X7389762Y-20049956D02*
X7446905Y-20049956D01*
X7475476Y-20035671D01*
X7489762Y-20021385D01*
X7518334Y-19978528D01*
X7532619Y-19921385D01*
X7532619Y-19807099D01*
X7518334Y-19778528D01*
X7504048Y-19764242D01*
X7475476Y-19749956D01*
X7418334Y-19749956D01*
X7389762Y-19764242D01*
X7375476Y-19778528D01*
X7361191Y-19807099D01*
X7361191Y-19878528D01*
X7375476Y-19907099D01*
X7389762Y-19921385D01*
X7418334Y-19935671D01*
X7475476Y-19935671D01*
X7504048Y-19921385D01*
X7518334Y-19907099D01*
X7532619Y-19878528D01*
X7889762Y-20049956D02*
X7889762Y-19749956D01*
X8018334Y-20049956D02*
X8018334Y-19892814D01*
X8004048Y-19864242D01*
X7975476Y-19849956D01*
X7932619Y-19849956D01*
X7904048Y-19864242D01*
X7889762Y-19878528D01*
X8204048Y-20049956D02*
X8175476Y-20035671D01*
X8161191Y-20021385D01*
X8146905Y-19992814D01*
X8146905Y-19907099D01*
X8161191Y-19878528D01*
X8175476Y-19864242D01*
X8204048Y-19849956D01*
X8246905Y-19849956D01*
X8275476Y-19864242D01*
X8289762Y-19878528D01*
X8304048Y-19907099D01*
X8304048Y-19992814D01*
X8289762Y-20021385D01*
X8275476Y-20035671D01*
X8246905Y-20049956D01*
X8204048Y-20049956D01*
X8475476Y-20049956D02*
X8446905Y-20035671D01*
X8432619Y-20007099D01*
X8432619Y-19749956D01*
X8704048Y-20035671D02*
X8675476Y-20049956D01*
X8618334Y-20049956D01*
X8589762Y-20035671D01*
X8575476Y-20007099D01*
X8575476Y-19892814D01*
X8589762Y-19864242D01*
X8618334Y-19849956D01*
X8675476Y-19849956D01*
X8704048Y-19864242D01*
X8718334Y-19892814D01*
X8718334Y-19921385D01*
X8575476Y-19949956D01*
X8832619Y-20035671D02*
X8861191Y-20049956D01*
X8918334Y-20049956D01*
X8946905Y-20035671D01*
X8961191Y-20007099D01*
X8961191Y-19992814D01*
X8946905Y-19964242D01*
X8918334Y-19949956D01*
X8875476Y-19949956D01*
X8846905Y-19935671D01*
X8832619Y-19907099D01*
X8832619Y-19892814D01*
X8846905Y-19864242D01*
X8875476Y-19849956D01*
X8918334Y-19849956D01*
X8946905Y-19864242D01*
X9061191Y-20164242D02*
X9075476Y-20149956D01*
X9104048Y-20107099D01*
X9118334Y-20078528D01*
X9132619Y-20035671D01*
X9146905Y-19964242D01*
X9146905Y-19907099D01*
X9132619Y-19835671D01*
X9118334Y-19792814D01*
X9104048Y-19764242D01*
X9075476Y-19721385D01*
X9061191Y-19707099D01*
X2289048Y-20310242D02*
G75*
G03X2289048Y-20310242I-38100J0D01*
G01*
X2632619Y-20145956D02*
X2661191Y-20145956D01*
X2689762Y-20160242D01*
X2704048Y-20174528D01*
X2718334Y-20203099D01*
X2732619Y-20260242D01*
X2732619Y-20331671D01*
X2718334Y-20388814D01*
X2704048Y-20417385D01*
X2689762Y-20431671D01*
X2661191Y-20445956D01*
X2632619Y-20445956D01*
X2604048Y-20431671D01*
X2589762Y-20417385D01*
X2575476Y-20388814D01*
X2561191Y-20331671D01*
X2561191Y-20260242D01*
X2575476Y-20203099D01*
X2589762Y-20174528D01*
X2604048Y-20160242D01*
X2632619Y-20145956D01*
X2861191Y-20417385D02*
X2875476Y-20431671D01*
X2861191Y-20445956D01*
X2846905Y-20431671D01*
X2861191Y-20417385D01*
X2861191Y-20445956D01*
X2975476Y-20145956D02*
X3175476Y-20145956D01*
X3046905Y-20445956D01*
X3418334Y-20145956D02*
X3361191Y-20145956D01*
X3332619Y-20160242D01*
X3318334Y-20174528D01*
X3289762Y-20217385D01*
X3275476Y-20274528D01*
X3275476Y-20388814D01*
X3289762Y-20417385D01*
X3304048Y-20431671D01*
X3332619Y-20445956D01*
X3389762Y-20445956D01*
X3418334Y-20431671D01*
X3432619Y-20417385D01*
X3446905Y-20388814D01*
X3446905Y-20317385D01*
X3432619Y-20288814D01*
X3418334Y-20274528D01*
X3389762Y-20260242D01*
X3332619Y-20260242D01*
X3304048Y-20274528D01*
X3289762Y-20288814D01*
X3275476Y-20317385D01*
X3575476Y-20445956D02*
X3575476Y-20245956D01*
X3575476Y-20274528D02*
X3589762Y-20260242D01*
X3618334Y-20245956D01*
X3661191Y-20245956D01*
X3689762Y-20260242D01*
X3704048Y-20288814D01*
X3704048Y-20445956D01*
X3704048Y-20288814D02*
X3718334Y-20260242D01*
X3746905Y-20245956D01*
X3789762Y-20245956D01*
X3818334Y-20260242D01*
X3832619Y-20288814D01*
X3832619Y-20445956D01*
X3975476Y-20445956D02*
X3975476Y-20245956D01*
X3975476Y-20274528D02*
X3989762Y-20260242D01*
X4018334Y-20245956D01*
X4061191Y-20245956D01*
X4089762Y-20260242D01*
X4104048Y-20288814D01*
X4104048Y-20445956D01*
X4104048Y-20288814D02*
X4118334Y-20260242D01*
X4146905Y-20245956D01*
X4189762Y-20245956D01*
X4218334Y-20260242D01*
X4232619Y-20288814D01*
X4232619Y-20445956D01*
X4818334Y-20131671D02*
X4561191Y-20517385D01*
X5204048Y-20145956D02*
X5232619Y-20145956D01*
X5261191Y-20160242D01*
X5275476Y-20174528D01*
X5289762Y-20203099D01*
X5304048Y-20260242D01*
X5304048Y-20331671D01*
X5289762Y-20388814D01*
X5275476Y-20417385D01*
X5261191Y-20431671D01*
X5232619Y-20445956D01*
X5204048Y-20445956D01*
X5175476Y-20431671D01*
X5161191Y-20417385D01*
X5146905Y-20388814D01*
X5132619Y-20331671D01*
X5132619Y-20260242D01*
X5146905Y-20203099D01*
X5161191Y-20174528D01*
X5175476Y-20160242D01*
X5204048Y-20145956D01*
X5432619Y-20417385D02*
X5446905Y-20431671D01*
X5432619Y-20445956D01*
X5418334Y-20431671D01*
X5432619Y-20417385D01*
X5432619Y-20445956D01*
X5632619Y-20145956D02*
X5661191Y-20145956D01*
X5689762Y-20160242D01*
X5704048Y-20174528D01*
X5718334Y-20203099D01*
X5732619Y-20260242D01*
X5732619Y-20331671D01*
X5718334Y-20388814D01*
X5704048Y-20417385D01*
X5689762Y-20431671D01*
X5661191Y-20445956D01*
X5632619Y-20445956D01*
X5604048Y-20431671D01*
X5589762Y-20417385D01*
X5575476Y-20388814D01*
X5561191Y-20331671D01*
X5561191Y-20260242D01*
X5575476Y-20203099D01*
X5589762Y-20174528D01*
X5604048Y-20160242D01*
X5632619Y-20145956D01*
X5832619Y-20145956D02*
X6018334Y-20145956D01*
X5918334Y-20260242D01*
X5961191Y-20260242D01*
X5989762Y-20274528D01*
X6004048Y-20288814D01*
X6018334Y-20317385D01*
X6018334Y-20388814D01*
X6004048Y-20417385D01*
X5989762Y-20431671D01*
X5961191Y-20445956D01*
X5875476Y-20445956D01*
X5846905Y-20431671D01*
X5832619Y-20417385D01*
X6204048Y-20145956D02*
X6232619Y-20145956D01*
X6261191Y-20160242D01*
X6275476Y-20174528D01*
X6289762Y-20203099D01*
X6304048Y-20260242D01*
X6304048Y-20331671D01*
X6289762Y-20388814D01*
X6275476Y-20417385D01*
X6261191Y-20431671D01*
X6232619Y-20445956D01*
X6204048Y-20445956D01*
X6175476Y-20431671D01*
X6161191Y-20417385D01*
X6146905Y-20388814D01*
X6132619Y-20331671D01*
X6132619Y-20260242D01*
X6146905Y-20203099D01*
X6161191Y-20174528D01*
X6175476Y-20160242D01*
X6204048Y-20145956D01*
X6418334Y-20145956D02*
X6418334Y-20203099D01*
X6532619Y-20145956D02*
X6532619Y-20203099D01*
X6975476Y-20560242D02*
X6961191Y-20545956D01*
X6932619Y-20503099D01*
X6918334Y-20474528D01*
X6904048Y-20431671D01*
X6889762Y-20360242D01*
X6889762Y-20303099D01*
X6904048Y-20231671D01*
X6918334Y-20188814D01*
X6932619Y-20160242D01*
X6961191Y-20117385D01*
X6975476Y-20103099D01*
X7232619Y-20145956D02*
X7089762Y-20145956D01*
X7075476Y-20288814D01*
X7089762Y-20274528D01*
X7118334Y-20260242D01*
X7189762Y-20260242D01*
X7218334Y-20274528D01*
X7232619Y-20288814D01*
X7246905Y-20317385D01*
X7246905Y-20388814D01*
X7232619Y-20417385D01*
X7218334Y-20431671D01*
X7189762Y-20445956D01*
X7118334Y-20445956D01*
X7089762Y-20431671D01*
X7075476Y-20417385D01*
X7604048Y-20445956D02*
X7604048Y-20145956D01*
X7732619Y-20445956D02*
X7732619Y-20288814D01*
X7718334Y-20260242D01*
X7689762Y-20245956D01*
X7646905Y-20245956D01*
X7618334Y-20260242D01*
X7604048Y-20274528D01*
X7918334Y-20445956D02*
X7889762Y-20431671D01*
X7875476Y-20417385D01*
X7861191Y-20388814D01*
X7861191Y-20303099D01*
X7875476Y-20274528D01*
X7889762Y-20260242D01*
X7918334Y-20245956D01*
X7961191Y-20245956D01*
X7989762Y-20260242D01*
X8004048Y-20274528D01*
X8018334Y-20303099D01*
X8018334Y-20388814D01*
X8004048Y-20417385D01*
X7989762Y-20431671D01*
X7961191Y-20445956D01*
X7918334Y-20445956D01*
X8189762Y-20445956D02*
X8161191Y-20431671D01*
X8146905Y-20403099D01*
X8146905Y-20145956D01*
X8418334Y-20431671D02*
X8389762Y-20445956D01*
X8332619Y-20445956D01*
X8304048Y-20431671D01*
X8289762Y-20403099D01*
X8289762Y-20288814D01*
X8304048Y-20260242D01*
X8332619Y-20245956D01*
X8389762Y-20245956D01*
X8418334Y-20260242D01*
X8432619Y-20288814D01*
X8432619Y-20317385D01*
X8289762Y-20345956D01*
X8546905Y-20431671D02*
X8575476Y-20445956D01*
X8632619Y-20445956D01*
X8661191Y-20431671D01*
X8675476Y-20403099D01*
X8675476Y-20388814D01*
X8661191Y-20360242D01*
X8632619Y-20345956D01*
X8589762Y-20345956D01*
X8561191Y-20331671D01*
X8546905Y-20303099D01*
X8546905Y-20288814D01*
X8561191Y-20260242D01*
X8589762Y-20245956D01*
X8632619Y-20245956D01*
X8661191Y-20260242D01*
X9032619Y-20331671D02*
X9261191Y-20331671D01*
X9146905Y-20445956D02*
X9146905Y-20217385D01*
X9618334Y-20174528D02*
X9632619Y-20160242D01*
X9661191Y-20145956D01*
X9732619Y-20145956D01*
X9761191Y-20160242D01*
X9775476Y-20174528D01*
X9789762Y-20203099D01*
X9789762Y-20231671D01*
X9775476Y-20274528D01*
X9604048Y-20445956D01*
X9789762Y-20445956D01*
X10132619Y-20431671D02*
X10161191Y-20445956D01*
X10218334Y-20445956D01*
X10246905Y-20431671D01*
X10261191Y-20403099D01*
X10261191Y-20388814D01*
X10246905Y-20360242D01*
X10218334Y-20345956D01*
X10175476Y-20345956D01*
X10146905Y-20331671D01*
X10132619Y-20303099D01*
X10132619Y-20288814D01*
X10146905Y-20260242D01*
X10175476Y-20245956D01*
X10218334Y-20245956D01*
X10246905Y-20260242D01*
X10432619Y-20445956D02*
X10404048Y-20431671D01*
X10389762Y-20403099D01*
X10389762Y-20145956D01*
X10589762Y-20445956D02*
X10561191Y-20431671D01*
X10546905Y-20417385D01*
X10532619Y-20388814D01*
X10532619Y-20303099D01*
X10546905Y-20274528D01*
X10561191Y-20260242D01*
X10589762Y-20245956D01*
X10632619Y-20245956D01*
X10661191Y-20260242D01*
X10675476Y-20274528D01*
X10689762Y-20303099D01*
X10689762Y-20388814D01*
X10675476Y-20417385D01*
X10661191Y-20431671D01*
X10632619Y-20445956D01*
X10589762Y-20445956D01*
X10775476Y-20245956D02*
X10889762Y-20245956D01*
X10818334Y-20145956D02*
X10818334Y-20403099D01*
X10832619Y-20431671D01*
X10861191Y-20445956D01*
X10889762Y-20445956D01*
X10975476Y-20431671D02*
X11004048Y-20445956D01*
X11061191Y-20445956D01*
X11089762Y-20431671D01*
X11104048Y-20403099D01*
X11104048Y-20388814D01*
X11089762Y-20360242D01*
X11061191Y-20345956D01*
X11018334Y-20345956D01*
X10989762Y-20331671D01*
X10975476Y-20303099D01*
X10975476Y-20288814D01*
X10989762Y-20260242D01*
X11018334Y-20245956D01*
X11061191Y-20245956D01*
X11089762Y-20260242D01*
X11204048Y-20560242D02*
X11218334Y-20545956D01*
X11246905Y-20503099D01*
X11261191Y-20474528D01*
X11275476Y-20431671D01*
X11289762Y-20360242D01*
X11289762Y-20303099D01*
X11275476Y-20231671D01*
X11261191Y-20188814D01*
X11246905Y-20160242D01*
X11218334Y-20117385D01*
X11204048Y-20103099D01*
X2244048Y-20661242D02*
X2244048Y-20751242D01*
X2199048Y-20706242D02*
X2289048Y-20706242D01*
X2632619Y-20541956D02*
X2661191Y-20541956D01*
X2689762Y-20556242D01*
X2704048Y-20570528D01*
X2718334Y-20599099D01*
X2732619Y-20656242D01*
X2732619Y-20727671D01*
X2718334Y-20784814D01*
X2704048Y-20813385D01*
X2689762Y-20827671D01*
X2661191Y-20841956D01*
X2632619Y-20841956D01*
X2604048Y-20827671D01*
X2589762Y-20813385D01*
X2575476Y-20784814D01*
X2561191Y-20727671D01*
X2561191Y-20656242D01*
X2575476Y-20599099D01*
X2589762Y-20570528D01*
X2604048Y-20556242D01*
X2632619Y-20541956D01*
X2861191Y-20813385D02*
X2875476Y-20827671D01*
X2861191Y-20841956D01*
X2846905Y-20827671D01*
X2861191Y-20813385D01*
X2861191Y-20841956D01*
X3018334Y-20841956D02*
X3075476Y-20841956D01*
X3104048Y-20827671D01*
X3118334Y-20813385D01*
X3146905Y-20770528D01*
X3161191Y-20713385D01*
X3161191Y-20599099D01*
X3146905Y-20570528D01*
X3132619Y-20556242D01*
X3104048Y-20541956D01*
X3046905Y-20541956D01*
X3018334Y-20556242D01*
X3004048Y-20570528D01*
X2989762Y-20599099D01*
X2989762Y-20670528D01*
X3004048Y-20699099D01*
X3018334Y-20713385D01*
X3046905Y-20727671D01*
X3104048Y-20727671D01*
X3132619Y-20713385D01*
X3146905Y-20699099D01*
X3161191Y-20670528D01*
X3346905Y-20541956D02*
X3375476Y-20541956D01*
X3404048Y-20556242D01*
X3418334Y-20570528D01*
X3432619Y-20599099D01*
X3446905Y-20656242D01*
X3446905Y-20727671D01*
X3432619Y-20784814D01*
X3418334Y-20813385D01*
X3404048Y-20827671D01*
X3375476Y-20841956D01*
X3346905Y-20841956D01*
X3318334Y-20827671D01*
X3304048Y-20813385D01*
X3289762Y-20784814D01*
X3275476Y-20727671D01*
X3275476Y-20656242D01*
X3289762Y-20599099D01*
X3304048Y-20570528D01*
X3318334Y-20556242D01*
X3346905Y-20541956D01*
X3575476Y-20841956D02*
X3575476Y-20641956D01*
X3575476Y-20670528D02*
X3589762Y-20656242D01*
X3618334Y-20641956D01*
X3661191Y-20641956D01*
X3689762Y-20656242D01*
X3704048Y-20684814D01*
X3704048Y-20841956D01*
X3704048Y-20684814D02*
X3718334Y-20656242D01*
X3746905Y-20641956D01*
X3789762Y-20641956D01*
X3818334Y-20656242D01*
X3832619Y-20684814D01*
X3832619Y-20841956D01*
X3975476Y-20841956D02*
X3975476Y-20641956D01*
X3975476Y-20670528D02*
X3989762Y-20656242D01*
X4018334Y-20641956D01*
X4061191Y-20641956D01*
X4089762Y-20656242D01*
X4104048Y-20684814D01*
X4104048Y-20841956D01*
X4104048Y-20684814D02*
X4118334Y-20656242D01*
X4146905Y-20641956D01*
X4189762Y-20641956D01*
X4218334Y-20656242D01*
X4232619Y-20684814D01*
X4232619Y-20841956D01*
X4818334Y-20527671D02*
X4561191Y-20913385D01*
X5204048Y-20541956D02*
X5232619Y-20541956D01*
X5261191Y-20556242D01*
X5275476Y-20570528D01*
X5289762Y-20599099D01*
X5304048Y-20656242D01*
X5304048Y-20727671D01*
X5289762Y-20784814D01*
X5275476Y-20813385D01*
X5261191Y-20827671D01*
X5232619Y-20841956D01*
X5204048Y-20841956D01*
X5175476Y-20827671D01*
X5161191Y-20813385D01*
X5146905Y-20784814D01*
X5132619Y-20727671D01*
X5132619Y-20656242D01*
X5146905Y-20599099D01*
X5161191Y-20570528D01*
X5175476Y-20556242D01*
X5204048Y-20541956D01*
X5432619Y-20813385D02*
X5446905Y-20827671D01*
X5432619Y-20841956D01*
X5418334Y-20827671D01*
X5432619Y-20813385D01*
X5432619Y-20841956D01*
X5632619Y-20541956D02*
X5661191Y-20541956D01*
X5689762Y-20556242D01*
X5704048Y-20570528D01*
X5718334Y-20599099D01*
X5732619Y-20656242D01*
X5732619Y-20727671D01*
X5718334Y-20784814D01*
X5704048Y-20813385D01*
X5689762Y-20827671D01*
X5661191Y-20841956D01*
X5632619Y-20841956D01*
X5604048Y-20827671D01*
X5589762Y-20813385D01*
X5575476Y-20784814D01*
X5561191Y-20727671D01*
X5561191Y-20656242D01*
X5575476Y-20599099D01*
X5589762Y-20570528D01*
X5604048Y-20556242D01*
X5632619Y-20541956D01*
X5832619Y-20541956D02*
X6018334Y-20541956D01*
X5918334Y-20656242D01*
X5961191Y-20656242D01*
X5989762Y-20670528D01*
X6004048Y-20684814D01*
X6018334Y-20713385D01*
X6018334Y-20784814D01*
X6004048Y-20813385D01*
X5989762Y-20827671D01*
X5961191Y-20841956D01*
X5875476Y-20841956D01*
X5846905Y-20827671D01*
X5832619Y-20813385D01*
X6289762Y-20541956D02*
X6146905Y-20541956D01*
X6132619Y-20684814D01*
X6146905Y-20670528D01*
X6175476Y-20656242D01*
X6246905Y-20656242D01*
X6275476Y-20670528D01*
X6289762Y-20684814D01*
X6304048Y-20713385D01*
X6304048Y-20784814D01*
X6289762Y-20813385D01*
X6275476Y-20827671D01*
X6246905Y-20841956D01*
X6175476Y-20841956D01*
X6146905Y-20827671D01*
X6132619Y-20813385D01*
X6418334Y-20541956D02*
X6418334Y-20599099D01*
X6532619Y-20541956D02*
X6532619Y-20599099D01*
X6975476Y-20956242D02*
X6961191Y-20941956D01*
X6932619Y-20899099D01*
X6918334Y-20870528D01*
X6904048Y-20827671D01*
X6889762Y-20756242D01*
X6889762Y-20699099D01*
X6904048Y-20627671D01*
X6918334Y-20584814D01*
X6932619Y-20556242D01*
X6961191Y-20513385D01*
X6975476Y-20499099D01*
X7075476Y-20570528D02*
X7089762Y-20556242D01*
X7118334Y-20541956D01*
X7189762Y-20541956D01*
X7218334Y-20556242D01*
X7232619Y-20570528D01*
X7246905Y-20599099D01*
X7246905Y-20627671D01*
X7232619Y-20670528D01*
X7061191Y-20841956D01*
X7246905Y-20841956D01*
X7604048Y-20841956D02*
X7604048Y-20541956D01*
X7732619Y-20841956D02*
X7732619Y-20684814D01*
X7718334Y-20656242D01*
X7689762Y-20641956D01*
X7646905Y-20641956D01*
X7618334Y-20656242D01*
X7604048Y-20670528D01*
X7918334Y-20841956D02*
X7889762Y-20827671D01*
X7875476Y-20813385D01*
X7861191Y-20784814D01*
X7861191Y-20699099D01*
X7875476Y-20670528D01*
X7889762Y-20656242D01*
X7918334Y-20641956D01*
X7961191Y-20641956D01*
X7989762Y-20656242D01*
X8004048Y-20670528D01*
X8018334Y-20699099D01*
X8018334Y-20784814D01*
X8004048Y-20813385D01*
X7989762Y-20827671D01*
X7961191Y-20841956D01*
X7918334Y-20841956D01*
X8189762Y-20841956D02*
X8161191Y-20827671D01*
X8146905Y-20799099D01*
X8146905Y-20541956D01*
X8418334Y-20827671D02*
X8389762Y-20841956D01*
X8332619Y-20841956D01*
X8304048Y-20827671D01*
X8289762Y-20799099D01*
X8289762Y-20684814D01*
X8304048Y-20656242D01*
X8332619Y-20641956D01*
X8389762Y-20641956D01*
X8418334Y-20656242D01*
X8432619Y-20684814D01*
X8432619Y-20713385D01*
X8289762Y-20741956D01*
X8546905Y-20827671D02*
X8575476Y-20841956D01*
X8632619Y-20841956D01*
X8661191Y-20827671D01*
X8675476Y-20799099D01*
X8675476Y-20784814D01*
X8661191Y-20756242D01*
X8632619Y-20741956D01*
X8589762Y-20741956D01*
X8561191Y-20727671D01*
X8546905Y-20699099D01*
X8546905Y-20684814D01*
X8561191Y-20656242D01*
X8589762Y-20641956D01*
X8632619Y-20641956D01*
X8661191Y-20656242D01*
X8775476Y-20956242D02*
X8789762Y-20941956D01*
X8818334Y-20899099D01*
X8832619Y-20870528D01*
X8846905Y-20827671D01*
X8861191Y-20756242D01*
X8861191Y-20699099D01*
X8846905Y-20627671D01*
X8832619Y-20584814D01*
X8818334Y-20556242D01*
X8789762Y-20513385D01*
X8775476Y-20499099D01*
X2274541Y-21137265D02*
X2274541Y-21067219D01*
X2204495Y-21067219D01*
X2204495Y-21137265D01*
X2274541Y-21137265D01*
X2632619Y-20937956D02*
X2661191Y-20937956D01*
X2689762Y-20952242D01*
X2704048Y-20966528D01*
X2718334Y-20995099D01*
X2732619Y-21052242D01*
X2732619Y-21123671D01*
X2718334Y-21180814D01*
X2704048Y-21209385D01*
X2689762Y-21223671D01*
X2661191Y-21237956D01*
X2632619Y-21237956D01*
X2604048Y-21223671D01*
X2589762Y-21209385D01*
X2575476Y-21180814D01*
X2561191Y-21123671D01*
X2561191Y-21052242D01*
X2575476Y-20995099D01*
X2589762Y-20966528D01*
X2604048Y-20952242D01*
X2632619Y-20937956D01*
X2861191Y-21209385D02*
X2875476Y-21223671D01*
X2861191Y-21237956D01*
X2846905Y-21223671D01*
X2861191Y-21209385D01*
X2861191Y-21237956D01*
X3018334Y-21237956D02*
X3075476Y-21237956D01*
X3104048Y-21223671D01*
X3118334Y-21209385D01*
X3146905Y-21166528D01*
X3161191Y-21109385D01*
X3161191Y-20995099D01*
X3146905Y-20966528D01*
X3132619Y-20952242D01*
X3104048Y-20937956D01*
X3046905Y-20937956D01*
X3018334Y-20952242D01*
X3004048Y-20966528D01*
X2989762Y-20995099D01*
X2989762Y-21066528D01*
X3004048Y-21095099D01*
X3018334Y-21109385D01*
X3046905Y-21123671D01*
X3104048Y-21123671D01*
X3132619Y-21109385D01*
X3146905Y-21095099D01*
X3161191Y-21066528D01*
X3304048Y-21237956D02*
X3361191Y-21237956D01*
X3389762Y-21223671D01*
X3404048Y-21209385D01*
X3432619Y-21166528D01*
X3446905Y-21109385D01*
X3446905Y-20995099D01*
X3432619Y-20966528D01*
X3418334Y-20952242D01*
X3389762Y-20937956D01*
X3332619Y-20937956D01*
X3304048Y-20952242D01*
X3289762Y-20966528D01*
X3275476Y-20995099D01*
X3275476Y-21066528D01*
X3289762Y-21095099D01*
X3304048Y-21109385D01*
X3332619Y-21123671D01*
X3389762Y-21123671D01*
X3418334Y-21109385D01*
X3432619Y-21095099D01*
X3446905Y-21066528D01*
X3575476Y-21237956D02*
X3575476Y-21037956D01*
X3575476Y-21066528D02*
X3589762Y-21052242D01*
X3618334Y-21037956D01*
X3661191Y-21037956D01*
X3689762Y-21052242D01*
X3704048Y-21080814D01*
X3704048Y-21237956D01*
X3704048Y-21080814D02*
X3718334Y-21052242D01*
X3746905Y-21037956D01*
X3789762Y-21037956D01*
X3818334Y-21052242D01*
X3832619Y-21080814D01*
X3832619Y-21237956D01*
X3975476Y-21237956D02*
X3975476Y-21037956D01*
X3975476Y-21066528D02*
X3989762Y-21052242D01*
X4018334Y-21037956D01*
X4061191Y-21037956D01*
X4089762Y-21052242D01*
X4104048Y-21080814D01*
X4104048Y-21237956D01*
X4104048Y-21080814D02*
X4118334Y-21052242D01*
X4146905Y-21037956D01*
X4189762Y-21037956D01*
X4218334Y-21052242D01*
X4232619Y-21080814D01*
X4232619Y-21237956D01*
X4818334Y-20923671D02*
X4561191Y-21309385D01*
X5204048Y-20937956D02*
X5232619Y-20937956D01*
X5261191Y-20952242D01*
X5275476Y-20966528D01*
X5289762Y-20995099D01*
X5304048Y-21052242D01*
X5304048Y-21123671D01*
X5289762Y-21180814D01*
X5275476Y-21209385D01*
X5261191Y-21223671D01*
X5232619Y-21237956D01*
X5204048Y-21237956D01*
X5175476Y-21223671D01*
X5161191Y-21209385D01*
X5146905Y-21180814D01*
X5132619Y-21123671D01*
X5132619Y-21052242D01*
X5146905Y-20995099D01*
X5161191Y-20966528D01*
X5175476Y-20952242D01*
X5204048Y-20937956D01*
X5432619Y-21209385D02*
X5446905Y-21223671D01*
X5432619Y-21237956D01*
X5418334Y-21223671D01*
X5432619Y-21209385D01*
X5432619Y-21237956D01*
X5632619Y-20937956D02*
X5661191Y-20937956D01*
X5689762Y-20952242D01*
X5704048Y-20966528D01*
X5718334Y-20995099D01*
X5732619Y-21052242D01*
X5732619Y-21123671D01*
X5718334Y-21180814D01*
X5704048Y-21209385D01*
X5689762Y-21223671D01*
X5661191Y-21237956D01*
X5632619Y-21237956D01*
X5604048Y-21223671D01*
X5589762Y-21209385D01*
X5575476Y-21180814D01*
X5561191Y-21123671D01*
X5561191Y-21052242D01*
X5575476Y-20995099D01*
X5589762Y-20966528D01*
X5604048Y-20952242D01*
X5632619Y-20937956D01*
X5832619Y-20937956D02*
X6018334Y-20937956D01*
X5918334Y-21052242D01*
X5961191Y-21052242D01*
X5989762Y-21066528D01*
X6004048Y-21080814D01*
X6018334Y-21109385D01*
X6018334Y-21180814D01*
X6004048Y-21209385D01*
X5989762Y-21223671D01*
X5961191Y-21237956D01*
X5875476Y-21237956D01*
X5846905Y-21223671D01*
X5832619Y-21209385D01*
X6161191Y-21237956D02*
X6218334Y-21237956D01*
X6246905Y-21223671D01*
X6261191Y-21209385D01*
X6289762Y-21166528D01*
X6304048Y-21109385D01*
X6304048Y-20995099D01*
X6289762Y-20966528D01*
X6275476Y-20952242D01*
X6246905Y-20937956D01*
X6189762Y-20937956D01*
X6161191Y-20952242D01*
X6146905Y-20966528D01*
X6132619Y-20995099D01*
X6132619Y-21066528D01*
X6146905Y-21095099D01*
X6161191Y-21109385D01*
X6189762Y-21123671D01*
X6246905Y-21123671D01*
X6275476Y-21109385D01*
X6289762Y-21095099D01*
X6304048Y-21066528D01*
X6418334Y-20937956D02*
X6418334Y-20995099D01*
X6532619Y-20937956D02*
X6532619Y-20995099D01*
X6975476Y-21352242D02*
X6961191Y-21337956D01*
X6932619Y-21295099D01*
X6918334Y-21266528D01*
X6904048Y-21223671D01*
X6889762Y-21152242D01*
X6889762Y-21095099D01*
X6904048Y-21023671D01*
X6918334Y-20980814D01*
X6932619Y-20952242D01*
X6961191Y-20909385D01*
X6975476Y-20895099D01*
X7246905Y-21237956D02*
X7075476Y-21237956D01*
X7161191Y-21237956D02*
X7161191Y-20937956D01*
X7132619Y-20980814D01*
X7104048Y-21009385D01*
X7075476Y-21023671D01*
X7418334Y-21066528D02*
X7389762Y-21052242D01*
X7375476Y-21037956D01*
X7361191Y-21009385D01*
X7361191Y-20995099D01*
X7375476Y-20966528D01*
X7389762Y-20952242D01*
X7418334Y-20937956D01*
X7475476Y-20937956D01*
X7504048Y-20952242D01*
X7518334Y-20966528D01*
X7532619Y-20995099D01*
X7532619Y-21009385D01*
X7518334Y-21037956D01*
X7504048Y-21052242D01*
X7475476Y-21066528D01*
X7418334Y-21066528D01*
X7389762Y-21080814D01*
X7375476Y-21095099D01*
X7361191Y-21123671D01*
X7361191Y-21180814D01*
X7375476Y-21209385D01*
X7389762Y-21223671D01*
X7418334Y-21237956D01*
X7475476Y-21237956D01*
X7504048Y-21223671D01*
X7518334Y-21209385D01*
X7532619Y-21180814D01*
X7532619Y-21123671D01*
X7518334Y-21095099D01*
X7504048Y-21080814D01*
X7475476Y-21066528D01*
X7818334Y-21237956D02*
X7646905Y-21237956D01*
X7732619Y-21237956D02*
X7732619Y-20937956D01*
X7704048Y-20980814D01*
X7675476Y-21009385D01*
X7646905Y-21023671D01*
X8175476Y-21237956D02*
X8175476Y-20937956D01*
X8304048Y-21237956D02*
X8304048Y-21080814D01*
X8289762Y-21052242D01*
X8261191Y-21037956D01*
X8218334Y-21037956D01*
X8189762Y-21052242D01*
X8175476Y-21066528D01*
X8489762Y-21237956D02*
X8461191Y-21223671D01*
X8446905Y-21209385D01*
X8432619Y-21180814D01*
X8432619Y-21095099D01*
X8446905Y-21066528D01*
X8461191Y-21052242D01*
X8489762Y-21037956D01*
X8532619Y-21037956D01*
X8561191Y-21052242D01*
X8575476Y-21066528D01*
X8589762Y-21095099D01*
X8589762Y-21180814D01*
X8575476Y-21209385D01*
X8561191Y-21223671D01*
X8532619Y-21237956D01*
X8489762Y-21237956D01*
X8761191Y-21237956D02*
X8732619Y-21223671D01*
X8718334Y-21195099D01*
X8718334Y-20937956D01*
X8989762Y-21223671D02*
X8961191Y-21237956D01*
X8904048Y-21237956D01*
X8875476Y-21223671D01*
X8861191Y-21195099D01*
X8861191Y-21080814D01*
X8875476Y-21052242D01*
X8904048Y-21037956D01*
X8961191Y-21037956D01*
X8989762Y-21052242D01*
X9004048Y-21080814D01*
X9004048Y-21109385D01*
X8861191Y-21137956D01*
X9118334Y-21223671D02*
X9146905Y-21237956D01*
X9204048Y-21237956D01*
X9232619Y-21223671D01*
X9246905Y-21195099D01*
X9246905Y-21180814D01*
X9232619Y-21152242D01*
X9204048Y-21137956D01*
X9161191Y-21137956D01*
X9132619Y-21123671D01*
X9118334Y-21095099D01*
X9118334Y-21080814D01*
X9132619Y-21052242D01*
X9161191Y-21037956D01*
X9204048Y-21037956D01*
X9232619Y-21052242D01*
X9346905Y-21352242D02*
X9361191Y-21337956D01*
X9389762Y-21295099D01*
X9404048Y-21266528D01*
X9418334Y-21223671D01*
X9432619Y-21152242D01*
X9432619Y-21095099D01*
X9418334Y-21023671D01*
X9404048Y-20980814D01*
X9389762Y-20952242D01*
X9361191Y-20909385D01*
X9346905Y-20895099D01*
X2239010Y-21548280D02*
X2289048Y-21498242D01*
X2239010Y-21448204D01*
X2188972Y-21498242D01*
X2239010Y-21548280D01*
X2732619Y-21633956D02*
X2561191Y-21633956D01*
X2646905Y-21633956D02*
X2646905Y-21333956D01*
X2618334Y-21376814D01*
X2589762Y-21405385D01*
X2561191Y-21419671D01*
X2861191Y-21605385D02*
X2875476Y-21619671D01*
X2861191Y-21633956D01*
X2846905Y-21619671D01*
X2861191Y-21605385D01*
X2861191Y-21633956D01*
X3061191Y-21333956D02*
X3089762Y-21333956D01*
X3118334Y-21348242D01*
X3132619Y-21362528D01*
X3146905Y-21391099D01*
X3161191Y-21448242D01*
X3161191Y-21519671D01*
X3146905Y-21576814D01*
X3132619Y-21605385D01*
X3118334Y-21619671D01*
X3089762Y-21633956D01*
X3061191Y-21633956D01*
X3032619Y-21619671D01*
X3018334Y-21605385D01*
X3004048Y-21576814D01*
X2989762Y-21519671D01*
X2989762Y-21448242D01*
X3004048Y-21391099D01*
X3018334Y-21362528D01*
X3032619Y-21348242D01*
X3061191Y-21333956D01*
X3346905Y-21333956D02*
X3375476Y-21333956D01*
X3404048Y-21348242D01*
X3418334Y-21362528D01*
X3432619Y-21391099D01*
X3446905Y-21448242D01*
X3446905Y-21519671D01*
X3432619Y-21576814D01*
X3418334Y-21605385D01*
X3404048Y-21619671D01*
X3375476Y-21633956D01*
X3346905Y-21633956D01*
X3318334Y-21619671D01*
X3304048Y-21605385D01*
X3289762Y-21576814D01*
X3275476Y-21519671D01*
X3275476Y-21448242D01*
X3289762Y-21391099D01*
X3304048Y-21362528D01*
X3318334Y-21348242D01*
X3346905Y-21333956D01*
X3575476Y-21633956D02*
X3575476Y-21433956D01*
X3575476Y-21462528D02*
X3589762Y-21448242D01*
X3618334Y-21433956D01*
X3661191Y-21433956D01*
X3689762Y-21448242D01*
X3704048Y-21476814D01*
X3704048Y-21633956D01*
X3704048Y-21476814D02*
X3718334Y-21448242D01*
X3746905Y-21433956D01*
X3789762Y-21433956D01*
X3818334Y-21448242D01*
X3832619Y-21476814D01*
X3832619Y-21633956D01*
X3975476Y-21633956D02*
X3975476Y-21433956D01*
X3975476Y-21462528D02*
X3989762Y-21448242D01*
X4018334Y-21433956D01*
X4061191Y-21433956D01*
X4089762Y-21448242D01*
X4104048Y-21476814D01*
X4104048Y-21633956D01*
X4104048Y-21476814D02*
X4118334Y-21448242D01*
X4146905Y-21433956D01*
X4189762Y-21433956D01*
X4218334Y-21448242D01*
X4232619Y-21476814D01*
X4232619Y-21633956D01*
X4818334Y-21319671D02*
X4561191Y-21705385D01*
X5204048Y-21333956D02*
X5232619Y-21333956D01*
X5261191Y-21348242D01*
X5275476Y-21362528D01*
X5289762Y-21391099D01*
X5304048Y-21448242D01*
X5304048Y-21519671D01*
X5289762Y-21576814D01*
X5275476Y-21605385D01*
X5261191Y-21619671D01*
X5232619Y-21633956D01*
X5204048Y-21633956D01*
X5175476Y-21619671D01*
X5161191Y-21605385D01*
X5146905Y-21576814D01*
X5132619Y-21519671D01*
X5132619Y-21448242D01*
X5146905Y-21391099D01*
X5161191Y-21362528D01*
X5175476Y-21348242D01*
X5204048Y-21333956D01*
X5432619Y-21605385D02*
X5446905Y-21619671D01*
X5432619Y-21633956D01*
X5418334Y-21619671D01*
X5432619Y-21605385D01*
X5432619Y-21633956D01*
X5632619Y-21333956D02*
X5661191Y-21333956D01*
X5689762Y-21348242D01*
X5704048Y-21362528D01*
X5718334Y-21391099D01*
X5732619Y-21448242D01*
X5732619Y-21519671D01*
X5718334Y-21576814D01*
X5704048Y-21605385D01*
X5689762Y-21619671D01*
X5661191Y-21633956D01*
X5632619Y-21633956D01*
X5604048Y-21619671D01*
X5589762Y-21605385D01*
X5575476Y-21576814D01*
X5561191Y-21519671D01*
X5561191Y-21448242D01*
X5575476Y-21391099D01*
X5589762Y-21362528D01*
X5604048Y-21348242D01*
X5632619Y-21333956D01*
X5832619Y-21333956D02*
X6018334Y-21333956D01*
X5918334Y-21448242D01*
X5961191Y-21448242D01*
X5989762Y-21462528D01*
X6004048Y-21476814D01*
X6018334Y-21505385D01*
X6018334Y-21576814D01*
X6004048Y-21605385D01*
X5989762Y-21619671D01*
X5961191Y-21633956D01*
X5875476Y-21633956D01*
X5846905Y-21619671D01*
X5832619Y-21605385D01*
X6161191Y-21633956D02*
X6218334Y-21633956D01*
X6246905Y-21619671D01*
X6261191Y-21605385D01*
X6289762Y-21562528D01*
X6304048Y-21505385D01*
X6304048Y-21391099D01*
X6289762Y-21362528D01*
X6275476Y-21348242D01*
X6246905Y-21333956D01*
X6189762Y-21333956D01*
X6161191Y-21348242D01*
X6146905Y-21362528D01*
X6132619Y-21391099D01*
X6132619Y-21462528D01*
X6146905Y-21491099D01*
X6161191Y-21505385D01*
X6189762Y-21519671D01*
X6246905Y-21519671D01*
X6275476Y-21505385D01*
X6289762Y-21491099D01*
X6304048Y-21462528D01*
X6418334Y-21333956D02*
X6418334Y-21391099D01*
X6532619Y-21333956D02*
X6532619Y-21391099D01*
X6975476Y-21748242D02*
X6961191Y-21733956D01*
X6932619Y-21691099D01*
X6918334Y-21662528D01*
X6904048Y-21619671D01*
X6889762Y-21548242D01*
X6889762Y-21491099D01*
X6904048Y-21419671D01*
X6918334Y-21376814D01*
X6932619Y-21348242D01*
X6961191Y-21305385D01*
X6975476Y-21291099D01*
X7218334Y-21333956D02*
X7161191Y-21333956D01*
X7132619Y-21348242D01*
X7118334Y-21362528D01*
X7089762Y-21405385D01*
X7075476Y-21462528D01*
X7075476Y-21576814D01*
X7089762Y-21605385D01*
X7104048Y-21619671D01*
X7132619Y-21633956D01*
X7189762Y-21633956D01*
X7218334Y-21619671D01*
X7232619Y-21605385D01*
X7246905Y-21576814D01*
X7246905Y-21505385D01*
X7232619Y-21476814D01*
X7218334Y-21462528D01*
X7189762Y-21448242D01*
X7132619Y-21448242D01*
X7104048Y-21462528D01*
X7089762Y-21476814D01*
X7075476Y-21505385D01*
X7604048Y-21633956D02*
X7604048Y-21333956D01*
X7732619Y-21633956D02*
X7732619Y-21476814D01*
X7718334Y-21448242D01*
X7689762Y-21433956D01*
X7646905Y-21433956D01*
X7618334Y-21448242D01*
X7604048Y-21462528D01*
X7918334Y-21633956D02*
X7889762Y-21619671D01*
X7875476Y-21605385D01*
X7861191Y-21576814D01*
X7861191Y-21491099D01*
X7875476Y-21462528D01*
X7889762Y-21448242D01*
X7918334Y-21433956D01*
X7961191Y-21433956D01*
X7989762Y-21448242D01*
X8004048Y-21462528D01*
X8018334Y-21491099D01*
X8018334Y-21576814D01*
X8004048Y-21605385D01*
X7989762Y-21619671D01*
X7961191Y-21633956D01*
X7918334Y-21633956D01*
X8189762Y-21633956D02*
X8161191Y-21619671D01*
X8146905Y-21591099D01*
X8146905Y-21333956D01*
X8418334Y-21619671D02*
X8389762Y-21633956D01*
X8332619Y-21633956D01*
X8304048Y-21619671D01*
X8289762Y-21591099D01*
X8289762Y-21476814D01*
X8304048Y-21448242D01*
X8332619Y-21433956D01*
X8389762Y-21433956D01*
X8418334Y-21448242D01*
X8432619Y-21476814D01*
X8432619Y-21505385D01*
X8289762Y-21533956D01*
X8546905Y-21619671D02*
X8575476Y-21633956D01*
X8632619Y-21633956D01*
X8661191Y-21619671D01*
X8675476Y-21591099D01*
X8675476Y-21576814D01*
X8661191Y-21548242D01*
X8632619Y-21533956D01*
X8589762Y-21533956D01*
X8561191Y-21519671D01*
X8546905Y-21491099D01*
X8546905Y-21476814D01*
X8561191Y-21448242D01*
X8589762Y-21433956D01*
X8632619Y-21433956D01*
X8661191Y-21448242D01*
X8775476Y-21748242D02*
X8789762Y-21733956D01*
X8818334Y-21691099D01*
X8832619Y-21662528D01*
X8846905Y-21619671D01*
X8861191Y-21548242D01*
X8861191Y-21491099D01*
X8846905Y-21419671D01*
X8832619Y-21376814D01*
X8818334Y-21348242D01*
X8789762Y-21305385D01*
X8775476Y-21291099D01*
X2180082Y-21839759D02*
X2289048Y-21948725D01*
X2289048Y-21839759D02*
X2180082Y-21948725D01*
X2289048Y-21894242D02*
G75*
G03X2289048Y-21894242I-54483J0D01*
G01*
X2732619Y-22029956D02*
X2561191Y-22029956D01*
X2646905Y-22029956D02*
X2646905Y-21729956D01*
X2618334Y-21772814D01*
X2589762Y-21801385D01*
X2561191Y-21815671D01*
X2861191Y-22001385D02*
X2875476Y-22015671D01*
X2861191Y-22029956D01*
X2846905Y-22015671D01*
X2861191Y-22001385D01*
X2861191Y-22029956D01*
X3061191Y-21729956D02*
X3089762Y-21729956D01*
X3118334Y-21744242D01*
X3132619Y-21758528D01*
X3146905Y-21787099D01*
X3161191Y-21844242D01*
X3161191Y-21915671D01*
X3146905Y-21972814D01*
X3132619Y-22001385D01*
X3118334Y-22015671D01*
X3089762Y-22029956D01*
X3061191Y-22029956D01*
X3032619Y-22015671D01*
X3018334Y-22001385D01*
X3004048Y-21972814D01*
X2989762Y-21915671D01*
X2989762Y-21844242D01*
X3004048Y-21787099D01*
X3018334Y-21758528D01*
X3032619Y-21744242D01*
X3061191Y-21729956D01*
X3304048Y-22029956D02*
X3361191Y-22029956D01*
X3389762Y-22015671D01*
X3404048Y-22001385D01*
X3432619Y-21958528D01*
X3446905Y-21901385D01*
X3446905Y-21787099D01*
X3432619Y-21758528D01*
X3418334Y-21744242D01*
X3389762Y-21729956D01*
X3332619Y-21729956D01*
X3304048Y-21744242D01*
X3289762Y-21758528D01*
X3275476Y-21787099D01*
X3275476Y-21858528D01*
X3289762Y-21887099D01*
X3304048Y-21901385D01*
X3332619Y-21915671D01*
X3389762Y-21915671D01*
X3418334Y-21901385D01*
X3432619Y-21887099D01*
X3446905Y-21858528D01*
X3575476Y-22029956D02*
X3575476Y-21829956D01*
X3575476Y-21858528D02*
X3589762Y-21844242D01*
X3618334Y-21829956D01*
X3661191Y-21829956D01*
X3689762Y-21844242D01*
X3704048Y-21872814D01*
X3704048Y-22029956D01*
X3704048Y-21872814D02*
X3718334Y-21844242D01*
X3746905Y-21829956D01*
X3789762Y-21829956D01*
X3818334Y-21844242D01*
X3832619Y-21872814D01*
X3832619Y-22029956D01*
X3975476Y-22029956D02*
X3975476Y-21829956D01*
X3975476Y-21858528D02*
X3989762Y-21844242D01*
X4018334Y-21829956D01*
X4061191Y-21829956D01*
X4089762Y-21844242D01*
X4104048Y-21872814D01*
X4104048Y-22029956D01*
X4104048Y-21872814D02*
X4118334Y-21844242D01*
X4146905Y-21829956D01*
X4189762Y-21829956D01*
X4218334Y-21844242D01*
X4232619Y-21872814D01*
X4232619Y-22029956D01*
X4818334Y-21715671D02*
X4561191Y-22101385D01*
X5204048Y-21729956D02*
X5232619Y-21729956D01*
X5261191Y-21744242D01*
X5275476Y-21758528D01*
X5289762Y-21787099D01*
X5304048Y-21844242D01*
X5304048Y-21915671D01*
X5289762Y-21972814D01*
X5275476Y-22001385D01*
X5261191Y-22015671D01*
X5232619Y-22029956D01*
X5204048Y-22029956D01*
X5175476Y-22015671D01*
X5161191Y-22001385D01*
X5146905Y-21972814D01*
X5132619Y-21915671D01*
X5132619Y-21844242D01*
X5146905Y-21787099D01*
X5161191Y-21758528D01*
X5175476Y-21744242D01*
X5204048Y-21729956D01*
X5432619Y-22001385D02*
X5446905Y-22015671D01*
X5432619Y-22029956D01*
X5418334Y-22015671D01*
X5432619Y-22001385D01*
X5432619Y-22029956D01*
X5632619Y-21729956D02*
X5661191Y-21729956D01*
X5689762Y-21744242D01*
X5704048Y-21758528D01*
X5718334Y-21787099D01*
X5732619Y-21844242D01*
X5732619Y-21915671D01*
X5718334Y-21972814D01*
X5704048Y-22001385D01*
X5689762Y-22015671D01*
X5661191Y-22029956D01*
X5632619Y-22029956D01*
X5604048Y-22015671D01*
X5589762Y-22001385D01*
X5575476Y-21972814D01*
X5561191Y-21915671D01*
X5561191Y-21844242D01*
X5575476Y-21787099D01*
X5589762Y-21758528D01*
X5604048Y-21744242D01*
X5632619Y-21729956D01*
X5989762Y-21829956D02*
X5989762Y-22029956D01*
X5918334Y-21715671D02*
X5846905Y-21929956D01*
X6032619Y-21929956D01*
X6118334Y-21729956D02*
X6304048Y-21729956D01*
X6204048Y-21844242D01*
X6246905Y-21844242D01*
X6275476Y-21858528D01*
X6289762Y-21872814D01*
X6304048Y-21901385D01*
X6304048Y-21972814D01*
X6289762Y-22001385D01*
X6275476Y-22015671D01*
X6246905Y-22029956D01*
X6161191Y-22029956D01*
X6132619Y-22015671D01*
X6118334Y-22001385D01*
X6418334Y-21729956D02*
X6418334Y-21787099D01*
X6532619Y-21729956D02*
X6532619Y-21787099D01*
X6975476Y-22144242D02*
X6961191Y-22129956D01*
X6932619Y-22087099D01*
X6918334Y-22058528D01*
X6904048Y-22015671D01*
X6889762Y-21944242D01*
X6889762Y-21887099D01*
X6904048Y-21815671D01*
X6918334Y-21772814D01*
X6932619Y-21744242D01*
X6961191Y-21701385D01*
X6975476Y-21687099D01*
X7246905Y-22029956D02*
X7075476Y-22029956D01*
X7161191Y-22029956D02*
X7161191Y-21729956D01*
X7132619Y-21772814D01*
X7104048Y-21801385D01*
X7075476Y-21815671D01*
X7604048Y-22029956D02*
X7604048Y-21729956D01*
X7732619Y-22029956D02*
X7732619Y-21872814D01*
X7718334Y-21844242D01*
X7689762Y-21829956D01*
X7646905Y-21829956D01*
X7618334Y-21844242D01*
X7604048Y-21858528D01*
X7918334Y-22029956D02*
X7889762Y-22015671D01*
X7875476Y-22001385D01*
X7861191Y-21972814D01*
X7861191Y-21887099D01*
X7875476Y-21858528D01*
X7889762Y-21844242D01*
X7918334Y-21829956D01*
X7961191Y-21829956D01*
X7989762Y-21844242D01*
X8004048Y-21858528D01*
X8018334Y-21887099D01*
X8018334Y-21972814D01*
X8004048Y-22001385D01*
X7989762Y-22015671D01*
X7961191Y-22029956D01*
X7918334Y-22029956D01*
X8189762Y-22029956D02*
X8161191Y-22015671D01*
X8146905Y-21987099D01*
X8146905Y-21729956D01*
X8418334Y-22015671D02*
X8389762Y-22029956D01*
X8332619Y-22029956D01*
X8304048Y-22015671D01*
X8289762Y-21987099D01*
X8289762Y-21872814D01*
X8304048Y-21844242D01*
X8332619Y-21829956D01*
X8389762Y-21829956D01*
X8418334Y-21844242D01*
X8432619Y-21872814D01*
X8432619Y-21901385D01*
X8289762Y-21929956D01*
X8532619Y-22144242D02*
X8546905Y-22129956D01*
X8575476Y-22087099D01*
X8589762Y-22058528D01*
X8604048Y-22015671D01*
X8618334Y-21944242D01*
X8618334Y-21887099D01*
X8604048Y-21815671D01*
X8589762Y-21772814D01*
X8575476Y-21744242D01*
X8546905Y-21701385D01*
X8532619Y-21687099D01*
X2179828Y-22235632D02*
X2289048Y-22344852D01*
X2289048Y-22235632D02*
X2179828Y-22344852D01*
X2234438Y-22235632D02*
X2234438Y-22344852D01*
X2179828Y-22290242D02*
X2289048Y-22290242D01*
X2732619Y-22425956D02*
X2561191Y-22425956D01*
X2646905Y-22425956D02*
X2646905Y-22125956D01*
X2618334Y-22168814D01*
X2589762Y-22197385D01*
X2561191Y-22211671D01*
X2861191Y-22397385D02*
X2875476Y-22411671D01*
X2861191Y-22425956D01*
X2846905Y-22411671D01*
X2861191Y-22397385D01*
X2861191Y-22425956D01*
X3061191Y-22125956D02*
X3089762Y-22125956D01*
X3118334Y-22140242D01*
X3132619Y-22154528D01*
X3146905Y-22183099D01*
X3161191Y-22240242D01*
X3161191Y-22311671D01*
X3146905Y-22368814D01*
X3132619Y-22397385D01*
X3118334Y-22411671D01*
X3089762Y-22425956D01*
X3061191Y-22425956D01*
X3032619Y-22411671D01*
X3018334Y-22397385D01*
X3004048Y-22368814D01*
X2989762Y-22311671D01*
X2989762Y-22240242D01*
X3004048Y-22183099D01*
X3018334Y-22154528D01*
X3032619Y-22140242D01*
X3061191Y-22125956D01*
X3304048Y-22425956D02*
X3361191Y-22425956D01*
X3389762Y-22411671D01*
X3404048Y-22397385D01*
X3432619Y-22354528D01*
X3446905Y-22297385D01*
X3446905Y-22183099D01*
X3432619Y-22154528D01*
X3418334Y-22140242D01*
X3389762Y-22125956D01*
X3332619Y-22125956D01*
X3304048Y-22140242D01*
X3289762Y-22154528D01*
X3275476Y-22183099D01*
X3275476Y-22254528D01*
X3289762Y-22283099D01*
X3304048Y-22297385D01*
X3332619Y-22311671D01*
X3389762Y-22311671D01*
X3418334Y-22297385D01*
X3432619Y-22283099D01*
X3446905Y-22254528D01*
X3575476Y-22425956D02*
X3575476Y-22225956D01*
X3575476Y-22254528D02*
X3589762Y-22240242D01*
X3618334Y-22225956D01*
X3661191Y-22225956D01*
X3689762Y-22240242D01*
X3704048Y-22268814D01*
X3704048Y-22425956D01*
X3704048Y-22268814D02*
X3718334Y-22240242D01*
X3746905Y-22225956D01*
X3789762Y-22225956D01*
X3818334Y-22240242D01*
X3832619Y-22268814D01*
X3832619Y-22425956D01*
X3975476Y-22425956D02*
X3975476Y-22225956D01*
X3975476Y-22254528D02*
X3989762Y-22240242D01*
X4018334Y-22225956D01*
X4061191Y-22225956D01*
X4089762Y-22240242D01*
X4104048Y-22268814D01*
X4104048Y-22425956D01*
X4104048Y-22268814D02*
X4118334Y-22240242D01*
X4146905Y-22225956D01*
X4189762Y-22225956D01*
X4218334Y-22240242D01*
X4232619Y-22268814D01*
X4232619Y-22425956D01*
X4818334Y-22111671D02*
X4561191Y-22497385D01*
X5204048Y-22125956D02*
X5232619Y-22125956D01*
X5261191Y-22140242D01*
X5275476Y-22154528D01*
X5289762Y-22183099D01*
X5304048Y-22240242D01*
X5304048Y-22311671D01*
X5289762Y-22368814D01*
X5275476Y-22397385D01*
X5261191Y-22411671D01*
X5232619Y-22425956D01*
X5204048Y-22425956D01*
X5175476Y-22411671D01*
X5161191Y-22397385D01*
X5146905Y-22368814D01*
X5132619Y-22311671D01*
X5132619Y-22240242D01*
X5146905Y-22183099D01*
X5161191Y-22154528D01*
X5175476Y-22140242D01*
X5204048Y-22125956D01*
X5432619Y-22397385D02*
X5446905Y-22411671D01*
X5432619Y-22425956D01*
X5418334Y-22411671D01*
X5432619Y-22397385D01*
X5432619Y-22425956D01*
X5632619Y-22125956D02*
X5661191Y-22125956D01*
X5689762Y-22140242D01*
X5704048Y-22154528D01*
X5718334Y-22183099D01*
X5732619Y-22240242D01*
X5732619Y-22311671D01*
X5718334Y-22368814D01*
X5704048Y-22397385D01*
X5689762Y-22411671D01*
X5661191Y-22425956D01*
X5632619Y-22425956D01*
X5604048Y-22411671D01*
X5589762Y-22397385D01*
X5575476Y-22368814D01*
X5561191Y-22311671D01*
X5561191Y-22240242D01*
X5575476Y-22183099D01*
X5589762Y-22154528D01*
X5604048Y-22140242D01*
X5632619Y-22125956D01*
X5989762Y-22225956D02*
X5989762Y-22425956D01*
X5918334Y-22111671D02*
X5846905Y-22325956D01*
X6032619Y-22325956D01*
X6118334Y-22125956D02*
X6304048Y-22125956D01*
X6204048Y-22240242D01*
X6246905Y-22240242D01*
X6275476Y-22254528D01*
X6289762Y-22268814D01*
X6304048Y-22297385D01*
X6304048Y-22368814D01*
X6289762Y-22397385D01*
X6275476Y-22411671D01*
X6246905Y-22425956D01*
X6161191Y-22425956D01*
X6132619Y-22411671D01*
X6118334Y-22397385D01*
X6418334Y-22125956D02*
X6418334Y-22183099D01*
X6532619Y-22125956D02*
X6532619Y-22183099D01*
X6975476Y-22540242D02*
X6961191Y-22525956D01*
X6932619Y-22483099D01*
X6918334Y-22454528D01*
X6904048Y-22411671D01*
X6889762Y-22340242D01*
X6889762Y-22283099D01*
X6904048Y-22211671D01*
X6918334Y-22168814D01*
X6932619Y-22140242D01*
X6961191Y-22097385D01*
X6975476Y-22083099D01*
X7232619Y-22125956D02*
X7089762Y-22125956D01*
X7075476Y-22268814D01*
X7089762Y-22254528D01*
X7118334Y-22240242D01*
X7189762Y-22240242D01*
X7218334Y-22254528D01*
X7232619Y-22268814D01*
X7246905Y-22297385D01*
X7246905Y-22368814D01*
X7232619Y-22397385D01*
X7218334Y-22411671D01*
X7189762Y-22425956D01*
X7118334Y-22425956D01*
X7089762Y-22411671D01*
X7075476Y-22397385D01*
X7346905Y-22125956D02*
X7532619Y-22125956D01*
X7432619Y-22240242D01*
X7475476Y-22240242D01*
X7504048Y-22254528D01*
X7518334Y-22268814D01*
X7532619Y-22297385D01*
X7532619Y-22368814D01*
X7518334Y-22397385D01*
X7504048Y-22411671D01*
X7475476Y-22425956D01*
X7389762Y-22425956D01*
X7361191Y-22411671D01*
X7346905Y-22397385D01*
X7889762Y-22425956D02*
X7889762Y-22125956D01*
X8018334Y-22425956D02*
X8018334Y-22268814D01*
X8004048Y-22240242D01*
X7975476Y-22225956D01*
X7932619Y-22225956D01*
X7904048Y-22240242D01*
X7889762Y-22254528D01*
X8204048Y-22425956D02*
X8175476Y-22411671D01*
X8161191Y-22397385D01*
X8146905Y-22368814D01*
X8146905Y-22283099D01*
X8161191Y-22254528D01*
X8175476Y-22240242D01*
X8204048Y-22225956D01*
X8246905Y-22225956D01*
X8275476Y-22240242D01*
X8289762Y-22254528D01*
X8304048Y-22283099D01*
X8304048Y-22368814D01*
X8289762Y-22397385D01*
X8275476Y-22411671D01*
X8246905Y-22425956D01*
X8204048Y-22425956D01*
X8475476Y-22425956D02*
X8446905Y-22411671D01*
X8432619Y-22383099D01*
X8432619Y-22125956D01*
X8704048Y-22411671D02*
X8675476Y-22425956D01*
X8618334Y-22425956D01*
X8589762Y-22411671D01*
X8575476Y-22383099D01*
X8575476Y-22268814D01*
X8589762Y-22240242D01*
X8618334Y-22225956D01*
X8675476Y-22225956D01*
X8704048Y-22240242D01*
X8718334Y-22268814D01*
X8718334Y-22297385D01*
X8575476Y-22325956D01*
X8832619Y-22411671D02*
X8861191Y-22425956D01*
X8918334Y-22425956D01*
X8946905Y-22411671D01*
X8961191Y-22383099D01*
X8961191Y-22368814D01*
X8946905Y-22340242D01*
X8918334Y-22325956D01*
X8875476Y-22325956D01*
X8846905Y-22311671D01*
X8832619Y-22283099D01*
X8832619Y-22268814D01*
X8846905Y-22240242D01*
X8875476Y-22225956D01*
X8918334Y-22225956D01*
X8946905Y-22240242D01*
X9318334Y-22311671D02*
X9546905Y-22311671D01*
X9432619Y-22425956D02*
X9432619Y-22197385D01*
X9904048Y-22154528D02*
X9918334Y-22140242D01*
X9946905Y-22125956D01*
X10018334Y-22125956D01*
X10046905Y-22140242D01*
X10061191Y-22154528D01*
X10075476Y-22183099D01*
X10075476Y-22211671D01*
X10061191Y-22254528D01*
X9889762Y-22425956D01*
X10075476Y-22425956D01*
X10418334Y-22411671D02*
X10446905Y-22425956D01*
X10504048Y-22425956D01*
X10532619Y-22411671D01*
X10546905Y-22383099D01*
X10546905Y-22368814D01*
X10532619Y-22340242D01*
X10504048Y-22325956D01*
X10461191Y-22325956D01*
X10432619Y-22311671D01*
X10418334Y-22283099D01*
X10418334Y-22268814D01*
X10432619Y-22240242D01*
X10461191Y-22225956D01*
X10504048Y-22225956D01*
X10532619Y-22240242D01*
X10718334Y-22425956D02*
X10689762Y-22411671D01*
X10675476Y-22383099D01*
X10675476Y-22125956D01*
X10875476Y-22425956D02*
X10846905Y-22411671D01*
X10832619Y-22397385D01*
X10818334Y-22368814D01*
X10818334Y-22283099D01*
X10832619Y-22254528D01*
X10846905Y-22240242D01*
X10875476Y-22225956D01*
X10918334Y-22225956D01*
X10946905Y-22240242D01*
X10961191Y-22254528D01*
X10975476Y-22283099D01*
X10975476Y-22368814D01*
X10961191Y-22397385D01*
X10946905Y-22411671D01*
X10918334Y-22425956D01*
X10875476Y-22425956D01*
X11061191Y-22225956D02*
X11175476Y-22225956D01*
X11104048Y-22125956D02*
X11104048Y-22383099D01*
X11118334Y-22411671D01*
X11146905Y-22425956D01*
X11175476Y-22425956D01*
X11261191Y-22411671D02*
X11289762Y-22425956D01*
X11346905Y-22425956D01*
X11375476Y-22411671D01*
X11389762Y-22383099D01*
X11389762Y-22368814D01*
X11375476Y-22340242D01*
X11346905Y-22325956D01*
X11304048Y-22325956D01*
X11275476Y-22311671D01*
X11261191Y-22283099D01*
X11261191Y-22268814D01*
X11275476Y-22240242D01*
X11304048Y-22225956D01*
X11346905Y-22225956D01*
X11375476Y-22240242D01*
X11489762Y-22540242D02*
X11504048Y-22525956D01*
X11532619Y-22483099D01*
X11546905Y-22454528D01*
X11561191Y-22411671D01*
X11575476Y-22340242D01*
X11575476Y-22283099D01*
X11561191Y-22211671D01*
X11546905Y-22168814D01*
X11532619Y-22140242D01*
X11504048Y-22097385D01*
X11489762Y-22083099D01*
X2139188Y-22611312D02*
X2289048Y-22761172D01*
X2289048Y-22611312D02*
X2139188Y-22761172D01*
X2267102Y-22739226D02*
X2267102Y-22633258D01*
X2161134Y-22633258D01*
X2161134Y-22739226D01*
X2267102Y-22739226D01*
X2732619Y-22821956D02*
X2561191Y-22821956D01*
X2646905Y-22821956D02*
X2646905Y-22521956D01*
X2618334Y-22564813D01*
X2589762Y-22593385D01*
X2561191Y-22607671D01*
X2861191Y-22793385D02*
X2875476Y-22807671D01*
X2861191Y-22821956D01*
X2846905Y-22807671D01*
X2861191Y-22793385D01*
X2861191Y-22821956D01*
X3146905Y-22521956D02*
X3004048Y-22521956D01*
X2989762Y-22664813D01*
X3004048Y-22650528D01*
X3032619Y-22636242D01*
X3104048Y-22636242D01*
X3132619Y-22650528D01*
X3146905Y-22664813D01*
X3161191Y-22693385D01*
X3161191Y-22764813D01*
X3146905Y-22793385D01*
X3132619Y-22807671D01*
X3104048Y-22821956D01*
X3032619Y-22821956D01*
X3004048Y-22807671D01*
X2989762Y-22793385D01*
X3346905Y-22521956D02*
X3375476Y-22521956D01*
X3404048Y-22536242D01*
X3418334Y-22550528D01*
X3432619Y-22579099D01*
X3446905Y-22636242D01*
X3446905Y-22707671D01*
X3432619Y-22764813D01*
X3418334Y-22793385D01*
X3404048Y-22807671D01*
X3375476Y-22821956D01*
X3346905Y-22821956D01*
X3318334Y-22807671D01*
X3304048Y-22793385D01*
X3289762Y-22764813D01*
X3275476Y-22707671D01*
X3275476Y-22636242D01*
X3289762Y-22579099D01*
X3304048Y-22550528D01*
X3318334Y-22536242D01*
X3346905Y-22521956D01*
X3575476Y-22821956D02*
X3575476Y-22621956D01*
X3575476Y-22650528D02*
X3589762Y-22636242D01*
X3618334Y-22621956D01*
X3661191Y-22621956D01*
X3689762Y-22636242D01*
X3704048Y-22664813D01*
X3704048Y-22821956D01*
X3704048Y-22664813D02*
X3718334Y-22636242D01*
X3746905Y-22621956D01*
X3789762Y-22621956D01*
X3818334Y-22636242D01*
X3832619Y-22664813D01*
X3832619Y-22821956D01*
X3975476Y-22821956D02*
X3975476Y-22621956D01*
X3975476Y-22650528D02*
X3989762Y-22636242D01*
X4018334Y-22621956D01*
X4061191Y-22621956D01*
X4089762Y-22636242D01*
X4104048Y-22664813D01*
X4104048Y-22821956D01*
X4104048Y-22664813D02*
X4118334Y-22636242D01*
X4146905Y-22621956D01*
X4189762Y-22621956D01*
X4218334Y-22636242D01*
X4232619Y-22664813D01*
X4232619Y-22821956D01*
X4818334Y-22507671D02*
X4561191Y-22893385D01*
X5204048Y-22521956D02*
X5232619Y-22521956D01*
X5261191Y-22536242D01*
X5275476Y-22550528D01*
X5289762Y-22579099D01*
X5304048Y-22636242D01*
X5304048Y-22707671D01*
X5289762Y-22764813D01*
X5275476Y-22793385D01*
X5261191Y-22807671D01*
X5232619Y-22821956D01*
X5204048Y-22821956D01*
X5175476Y-22807671D01*
X5161191Y-22793385D01*
X5146905Y-22764813D01*
X5132619Y-22707671D01*
X5132619Y-22636242D01*
X5146905Y-22579099D01*
X5161191Y-22550528D01*
X5175476Y-22536242D01*
X5204048Y-22521956D01*
X5432619Y-22793385D02*
X5446905Y-22807671D01*
X5432619Y-22821956D01*
X5418334Y-22807671D01*
X5432619Y-22793385D01*
X5432619Y-22821956D01*
X5632619Y-22521956D02*
X5661191Y-22521956D01*
X5689762Y-22536242D01*
X5704048Y-22550528D01*
X5718334Y-22579099D01*
X5732619Y-22636242D01*
X5732619Y-22707671D01*
X5718334Y-22764813D01*
X5704048Y-22793385D01*
X5689762Y-22807671D01*
X5661191Y-22821956D01*
X5632619Y-22821956D01*
X5604048Y-22807671D01*
X5589762Y-22793385D01*
X5575476Y-22764813D01*
X5561191Y-22707671D01*
X5561191Y-22636242D01*
X5575476Y-22579099D01*
X5589762Y-22550528D01*
X5604048Y-22536242D01*
X5632619Y-22521956D01*
X6004048Y-22521956D02*
X5861191Y-22521956D01*
X5846905Y-22664813D01*
X5861191Y-22650528D01*
X5889762Y-22636242D01*
X5961191Y-22636242D01*
X5989762Y-22650528D01*
X6004048Y-22664813D01*
X6018334Y-22693385D01*
X6018334Y-22764813D01*
X6004048Y-22793385D01*
X5989762Y-22807671D01*
X5961191Y-22821956D01*
X5889762Y-22821956D01*
X5861191Y-22807671D01*
X5846905Y-22793385D01*
X6161191Y-22821956D02*
X6218334Y-22821956D01*
X6246905Y-22807671D01*
X6261191Y-22793385D01*
X6289762Y-22750528D01*
X6304048Y-22693385D01*
X6304048Y-22579099D01*
X6289762Y-22550528D01*
X6275476Y-22536242D01*
X6246905Y-22521956D01*
X6189762Y-22521956D01*
X6161191Y-22536242D01*
X6146905Y-22550528D01*
X6132619Y-22579099D01*
X6132619Y-22650528D01*
X6146905Y-22679099D01*
X6161191Y-22693385D01*
X6189762Y-22707671D01*
X6246905Y-22707671D01*
X6275476Y-22693385D01*
X6289762Y-22679099D01*
X6304048Y-22650528D01*
X6418334Y-22521956D02*
X6418334Y-22579099D01*
X6532619Y-22521956D02*
X6532619Y-22579099D01*
X6975476Y-22936242D02*
X6961191Y-22921956D01*
X6932619Y-22879099D01*
X6918334Y-22850528D01*
X6904048Y-22807671D01*
X6889762Y-22736242D01*
X6889762Y-22679099D01*
X6904048Y-22607671D01*
X6918334Y-22564813D01*
X6932619Y-22536242D01*
X6961191Y-22493385D01*
X6975476Y-22479099D01*
X7246905Y-22821956D02*
X7075476Y-22821956D01*
X7161191Y-22821956D02*
X7161191Y-22521956D01*
X7132619Y-22564813D01*
X7104048Y-22593385D01*
X7075476Y-22607671D01*
X7346905Y-22521956D02*
X7546905Y-22521956D01*
X7418334Y-22821956D01*
X7646905Y-22550528D02*
X7661191Y-22536242D01*
X7689762Y-22521956D01*
X7761191Y-22521956D01*
X7789762Y-22536242D01*
X7804048Y-22550528D01*
X7818334Y-22579099D01*
X7818334Y-22607671D01*
X7804048Y-22650528D01*
X7632619Y-22821956D01*
X7818334Y-22821956D01*
X8175476Y-22821956D02*
X8175476Y-22521956D01*
X8304048Y-22821956D02*
X8304048Y-22664813D01*
X8289762Y-22636242D01*
X8261191Y-22621956D01*
X8218334Y-22621956D01*
X8189762Y-22636242D01*
X8175476Y-22650528D01*
X8489762Y-22821956D02*
X8461191Y-22807671D01*
X8446905Y-22793385D01*
X8432619Y-22764813D01*
X8432619Y-22679099D01*
X8446905Y-22650528D01*
X8461191Y-22636242D01*
X8489762Y-22621956D01*
X8532619Y-22621956D01*
X8561191Y-22636242D01*
X8575476Y-22650528D01*
X8589762Y-22679099D01*
X8589762Y-22764813D01*
X8575476Y-22793385D01*
X8561191Y-22807671D01*
X8532619Y-22821956D01*
X8489762Y-22821956D01*
X8761191Y-22821956D02*
X8732619Y-22807671D01*
X8718334Y-22779099D01*
X8718334Y-22521956D01*
X8989762Y-22807671D02*
X8961191Y-22821956D01*
X8904048Y-22821956D01*
X8875476Y-22807671D01*
X8861191Y-22779099D01*
X8861191Y-22664813D01*
X8875476Y-22636242D01*
X8904048Y-22621956D01*
X8961191Y-22621956D01*
X8989762Y-22636242D01*
X9004048Y-22664813D01*
X9004048Y-22693385D01*
X8861191Y-22721956D01*
X9118334Y-22807671D02*
X9146905Y-22821956D01*
X9204048Y-22821956D01*
X9232619Y-22807671D01*
X9246905Y-22779099D01*
X9246905Y-22764813D01*
X9232619Y-22736242D01*
X9204048Y-22721956D01*
X9161191Y-22721956D01*
X9132619Y-22707671D01*
X9118334Y-22679099D01*
X9118334Y-22664813D01*
X9132619Y-22636242D01*
X9161191Y-22621956D01*
X9204048Y-22621956D01*
X9232619Y-22636242D01*
X9346905Y-22936242D02*
X9361191Y-22921956D01*
X9389762Y-22879099D01*
X9404048Y-22850528D01*
X9418334Y-22807671D01*
X9432619Y-22736242D01*
X9432619Y-22679099D01*
X9418334Y-22607671D01*
X9404048Y-22564813D01*
X9389762Y-22536242D01*
X9361191Y-22493385D01*
X9346905Y-22479099D01*
X2118868Y-22997152D02*
X2289048Y-23167332D01*
X2289048Y-22997152D02*
X2118868Y-23167332D01*
X2203958Y-23167332D02*
X2289048Y-23082242D01*
X2203958Y-22997152D01*
X2118868Y-23082242D01*
X2203958Y-23167332D01*
X2732619Y-23217956D02*
X2561191Y-23217956D01*
X2646905Y-23217956D02*
X2646905Y-22917956D01*
X2618334Y-22960813D01*
X2589762Y-22989385D01*
X2561191Y-23003671D01*
X2861191Y-23189385D02*
X2875476Y-23203671D01*
X2861191Y-23217956D01*
X2846905Y-23203671D01*
X2861191Y-23189385D01*
X2861191Y-23217956D01*
X2975476Y-22917956D02*
X3175476Y-22917956D01*
X3046905Y-23217956D01*
X3346905Y-22917956D02*
X3375476Y-22917956D01*
X3404048Y-22932242D01*
X3418334Y-22946528D01*
X3432619Y-22975099D01*
X3446905Y-23032242D01*
X3446905Y-23103671D01*
X3432619Y-23160813D01*
X3418334Y-23189385D01*
X3404048Y-23203671D01*
X3375476Y-23217956D01*
X3346905Y-23217956D01*
X3318334Y-23203671D01*
X3304048Y-23189385D01*
X3289762Y-23160813D01*
X3275476Y-23103671D01*
X3275476Y-23032242D01*
X3289762Y-22975099D01*
X3304048Y-22946528D01*
X3318334Y-22932242D01*
X3346905Y-22917956D01*
X3575476Y-23217956D02*
X3575476Y-23017956D01*
X3575476Y-23046528D02*
X3589762Y-23032242D01*
X3618334Y-23017956D01*
X3661191Y-23017956D01*
X3689762Y-23032242D01*
X3704048Y-23060813D01*
X3704048Y-23217956D01*
X3704048Y-23060813D02*
X3718334Y-23032242D01*
X3746905Y-23017956D01*
X3789762Y-23017956D01*
X3818334Y-23032242D01*
X3832619Y-23060813D01*
X3832619Y-23217956D01*
X3975476Y-23217956D02*
X3975476Y-23017956D01*
X3975476Y-23046528D02*
X3989762Y-23032242D01*
X4018334Y-23017956D01*
X4061191Y-23017956D01*
X4089762Y-23032242D01*
X4104048Y-23060813D01*
X4104048Y-23217956D01*
X4104048Y-23060813D02*
X4118334Y-23032242D01*
X4146905Y-23017956D01*
X4189762Y-23017956D01*
X4218334Y-23032242D01*
X4232619Y-23060813D01*
X4232619Y-23217956D01*
X4818334Y-22903671D02*
X4561191Y-23289385D01*
X5204048Y-22917956D02*
X5232619Y-22917956D01*
X5261191Y-22932242D01*
X5275476Y-22946528D01*
X5289762Y-22975099D01*
X5304048Y-23032242D01*
X5304048Y-23103671D01*
X5289762Y-23160813D01*
X5275476Y-23189385D01*
X5261191Y-23203671D01*
X5232619Y-23217956D01*
X5204048Y-23217956D01*
X5175476Y-23203671D01*
X5161191Y-23189385D01*
X5146905Y-23160813D01*
X5132619Y-23103671D01*
X5132619Y-23032242D01*
X5146905Y-22975099D01*
X5161191Y-22946528D01*
X5175476Y-22932242D01*
X5204048Y-22917956D01*
X5432619Y-23189385D02*
X5446905Y-23203671D01*
X5432619Y-23217956D01*
X5418334Y-23203671D01*
X5432619Y-23189385D01*
X5432619Y-23217956D01*
X5632619Y-22917956D02*
X5661191Y-22917956D01*
X5689762Y-22932242D01*
X5704048Y-22946528D01*
X5718334Y-22975099D01*
X5732619Y-23032242D01*
X5732619Y-23103671D01*
X5718334Y-23160813D01*
X5704048Y-23189385D01*
X5689762Y-23203671D01*
X5661191Y-23217956D01*
X5632619Y-23217956D01*
X5604048Y-23203671D01*
X5589762Y-23189385D01*
X5575476Y-23160813D01*
X5561191Y-23103671D01*
X5561191Y-23032242D01*
X5575476Y-22975099D01*
X5589762Y-22946528D01*
X5604048Y-22932242D01*
X5632619Y-22917956D01*
X5989762Y-22917956D02*
X5932619Y-22917956D01*
X5904048Y-22932242D01*
X5889762Y-22946528D01*
X5861191Y-22989385D01*
X5846905Y-23046528D01*
X5846905Y-23160813D01*
X5861191Y-23189385D01*
X5875476Y-23203671D01*
X5904048Y-23217956D01*
X5961191Y-23217956D01*
X5989762Y-23203671D01*
X6004048Y-23189385D01*
X6018334Y-23160813D01*
X6018334Y-23089385D01*
X6004048Y-23060813D01*
X5989762Y-23046528D01*
X5961191Y-23032242D01*
X5904048Y-23032242D01*
X5875476Y-23046528D01*
X5861191Y-23060813D01*
X5846905Y-23089385D01*
X6118334Y-22917956D02*
X6318334Y-22917956D01*
X6189762Y-23217956D01*
X6418334Y-22917956D02*
X6418334Y-22975099D01*
X6532619Y-22917956D02*
X6532619Y-22975099D01*
X6975476Y-23332242D02*
X6961191Y-23317956D01*
X6932619Y-23275099D01*
X6918334Y-23246528D01*
X6904048Y-23203671D01*
X6889762Y-23132242D01*
X6889762Y-23075099D01*
X6904048Y-23003671D01*
X6918334Y-22960813D01*
X6932619Y-22932242D01*
X6961191Y-22889385D01*
X6975476Y-22875099D01*
X7132619Y-23046528D02*
X7104048Y-23032242D01*
X7089762Y-23017956D01*
X7075476Y-22989385D01*
X7075476Y-22975099D01*
X7089762Y-22946528D01*
X7104048Y-22932242D01*
X7132619Y-22917956D01*
X7189762Y-22917956D01*
X7218334Y-22932242D01*
X7232619Y-22946528D01*
X7246905Y-22975099D01*
X7246905Y-22989385D01*
X7232619Y-23017956D01*
X7218334Y-23032242D01*
X7189762Y-23046528D01*
X7132619Y-23046528D01*
X7104048Y-23060813D01*
X7089762Y-23075099D01*
X7075476Y-23103671D01*
X7075476Y-23160813D01*
X7089762Y-23189385D01*
X7104048Y-23203671D01*
X7132619Y-23217956D01*
X7189762Y-23217956D01*
X7218334Y-23203671D01*
X7232619Y-23189385D01*
X7246905Y-23160813D01*
X7246905Y-23103671D01*
X7232619Y-23075099D01*
X7218334Y-23060813D01*
X7189762Y-23046528D01*
X7504048Y-22917956D02*
X7446905Y-22917956D01*
X7418334Y-22932242D01*
X7404048Y-22946528D01*
X7375476Y-22989385D01*
X7361191Y-23046528D01*
X7361191Y-23160813D01*
X7375476Y-23189385D01*
X7389762Y-23203671D01*
X7418334Y-23217956D01*
X7475476Y-23217956D01*
X7504048Y-23203671D01*
X7518334Y-23189385D01*
X7532619Y-23160813D01*
X7532619Y-23089385D01*
X7518334Y-23060813D01*
X7504048Y-23046528D01*
X7475476Y-23032242D01*
X7418334Y-23032242D01*
X7389762Y-23046528D01*
X7375476Y-23060813D01*
X7361191Y-23089385D01*
X7889762Y-23217956D02*
X7889762Y-22917956D01*
X8018334Y-23217956D02*
X8018334Y-23060813D01*
X8004048Y-23032242D01*
X7975476Y-23017956D01*
X7932619Y-23017956D01*
X7904048Y-23032242D01*
X7889762Y-23046528D01*
X8204048Y-23217956D02*
X8175476Y-23203671D01*
X8161191Y-23189385D01*
X8146905Y-23160813D01*
X8146905Y-23075099D01*
X8161191Y-23046528D01*
X8175476Y-23032242D01*
X8204048Y-23017956D01*
X8246905Y-23017956D01*
X8275476Y-23032242D01*
X8289762Y-23046528D01*
X8304048Y-23075099D01*
X8304048Y-23160813D01*
X8289762Y-23189385D01*
X8275476Y-23203671D01*
X8246905Y-23217956D01*
X8204048Y-23217956D01*
X8475476Y-23217956D02*
X8446905Y-23203671D01*
X8432619Y-23175099D01*
X8432619Y-22917956D01*
X8704048Y-23203671D02*
X8675476Y-23217956D01*
X8618334Y-23217956D01*
X8589762Y-23203671D01*
X8575476Y-23175099D01*
X8575476Y-23060813D01*
X8589762Y-23032242D01*
X8618334Y-23017956D01*
X8675476Y-23017956D01*
X8704048Y-23032242D01*
X8718334Y-23060813D01*
X8718334Y-23089385D01*
X8575476Y-23117956D01*
X8832619Y-23203671D02*
X8861191Y-23217956D01*
X8918334Y-23217956D01*
X8946905Y-23203671D01*
X8961191Y-23175099D01*
X8961191Y-23160813D01*
X8946905Y-23132242D01*
X8918334Y-23117956D01*
X8875476Y-23117956D01*
X8846905Y-23103671D01*
X8832619Y-23075099D01*
X8832619Y-23060813D01*
X8846905Y-23032242D01*
X8875476Y-23017956D01*
X8918334Y-23017956D01*
X8946905Y-23032242D01*
X9061191Y-23332242D02*
X9075476Y-23317956D01*
X9104048Y-23275099D01*
X9118334Y-23246528D01*
X9132619Y-23203671D01*
X9146905Y-23132242D01*
X9146905Y-23075099D01*
X9132619Y-23003671D01*
X9118334Y-22960813D01*
X9104048Y-22932242D01*
X9075476Y-22889385D01*
X9061191Y-22875099D01*
M02*
