  0
SECTION
  2
HEADER
  9
$ANGBASE
  50
0.0
  9
$ANGDIR
  70
  1
  9
$MEASUREMENT
  70
0
  0
ENDSEC
  0
SECTION
  2
TABLES
  0
TABLE
  2
LTYPE
  70
4
  0
LTYPE
  5
40F
  2
CONTINUOUS
  70
0
  3
Solid line
  72
65
  73
0
  40
0.0
  0
LTYPE
  5
410
  2
DASHDOT
 70
0
  3
Dash Dot ____ _ ____ _
 72
65
 73
4
 40
2.0
 49
1.25
 49
-0.25
 49
0.25
 49
-0.25
  0
LTYPE
  5
411
  2
DASHED
 70
0
  3
Dashed __ __ __ __ __
 72
65
 73
2
 40
0.75
 49
0.5
 49
-0.25
  0
LTYPE
  5
43B
  2
DOTTED
 70
0
  3
Dotted .  .  .  .
 72
65
 73
2
 40
0.2
 49
0.0
 49
-0.2
  0
ENDTAB
  0
TABLE
  2
STYLE
  70
4
  0
STYLE
  2
KICAD
  70
0
  40
0
  41
1
  42
1
  50
0
  71
0
  3
isocp.shx
  0
STYLE
  2
KICADB
  70
0
  40
0
  41
1
  42
1
  50
0
  71
0
  3
isocp.shx
  0
STYLE
  2
KICADI
  70
0
  40
0
  41
1
  42
1
  50
15
  71
0
  3
isocp.shx
  0
STYLE
  2
KICADBI
  70
0
  40
0
  41
1
  42
1
  50
15
  71
0
  3
isocp.shx
  0
ENDTAB
  0
TABLE
  2
LAYER
  70
30
  0
LAYER
  2
BLACK
  70
0
  62
7
  6
CONTINUOUS
  0
LAYER
  2
GRAY1
  70
0
  62
251
  6
CONTINUOUS
  0
LAYER
  2
GRAY2
  70
0
  62
8
  6
CONTINUOUS
  0
LAYER
  2
GRAY3
  70
0
  62
9
  6
CONTINUOUS
  0
LAYER
  2
WHITE
  70
0
  62
7
  6
CONTINUOUS
  0
LAYER
  2
LYELLOW
  70
0
  62
51
  6
CONTINUOUS
  0
LAYER
  2
BLUE1
  70
0
  62
178
  6
CONTINUOUS
  0
LAYER
  2
GREEN1
  70
0
  62
98
  6
CONTINUOUS
  0
LAYER
  2
CYAN1
  70
0
  62
138
  6
CONTINUOUS
  0
LAYER
  2
RED1
  70
0
  62
18
  6
CONTINUOUS
  0
LAYER
  2
MAGENTA1
  70
0
  62
228
  6
CONTINUOUS
  0
LAYER
  2
BROWN1
  70
0
  62
58
  6
CONTINUOUS
  0
LAYER
  2
BLUE2
  70
0
  62
5
  6
CONTINUOUS
  0
LAYER
  2
GREEN2
  70
0
  62
3
  6
CONTINUOUS
  0
LAYER
  2
CYAN2
  70
0
  62
4
  6
CONTINUOUS
  0
LAYER
  2
RED2
  70
0
  62
1
  6
CONTINUOUS
  0
LAYER
  2
MAGENTA2
  70
0
  62
6
  6
CONTINUOUS
  0
LAYER
  2
BROWN2
  70
0
  62
54
  6
CONTINUOUS
  0
LAYER
  2
BLUE3
  70
0
  62
171
  6
CONTINUOUS
  0
LAYER
  2
GREEN3
  70
0
  62
91
  6
CONTINUOUS
  0
LAYER
  2
CYAN3
  70
0
  62
131
  6
CONTINUOUS
  0
LAYER
  2
RED3
  70
0
  62
11
  6
CONTINUOUS
  0
LAYER
  2
MAGENTA3
  70
0
  62
221
  6
CONTINUOUS
  0
LAYER
  2
YELLOW3
  70
0
  62
2
  6
CONTINUOUS
  0
LAYER
  2
BLUE4
  70
0
  62
5
  6
CONTINUOUS
  0
LAYER
  2
GREEN4
  70
0
  62
3
  6
CONTINUOUS
  0
LAYER
  2
CYAN4
  70
0
  62
4
  6
CONTINUOUS
  0
LAYER
  2
RED4
  70
0
  62
1
  6
CONTINUOUS
  0
LAYER
  2
MAGENTA4
  70
0
  62
6
  6
CONTINUOUS
  0
LAYER
  2
YELLOW4
  70
0
  62
2
  6
CONTINUOUS
  0
ENDTAB
  0
ENDSEC
  0
SECTION
  2
ENTITIES
0
LINE
8
BLACK
6
CONTINUOUS
10
84.2304
20
-30.2895
11
84.2473
21
-30.2895
0
LINE
8
BLACK
6
CONTINUOUS
10
84.2473
20
-30.2895
11
84.2632
21
-30.2953
0
LINE
8
BLACK
6
CONTINUOUS
10
84.2632
20
-30.2953
11
84.2799
21
-30.2982
0
LINE
8
BLACK
6
CONTINUOUS
10
84.2799
20
-30.2982
11
84.2945
21
-30.3067
0
LINE
8
BLACK
6
CONTINUOUS
10
84.2945
20
-30.3067
11
84.3104
21
-30.3125
0
LINE
8
BLACK
6
CONTINUOUS
10
84.3104
20
-30.3125
11
84.3234
21
-30.3234
0
LINE
8
BLACK
6
CONTINUOUS
10
84.3234
20
-30.3234
11
84.338
21
-30.3318
0
LINE
8
BLACK
6
CONTINUOUS
10
84.338
20
-30.3318
11
84.3489
21
-30.3448
0
LINE
8
BLACK
6
CONTINUOUS
10
84.3489
20
-30.3448
11
84.3619
21
-30.3557
0
LINE
8
BLACK
6
CONTINUOUS
10
84.3619
20
-30.3557
11
84.3703
21
-30.3703
0
LINE
8
BLACK
6
CONTINUOUS
10
84.3703
20
-30.3703
11
84.3812
21
-30.3833
0
LINE
8
BLACK
6
CONTINUOUS
10
84.3812
20
-30.3833
11
84.387
21
-30.3992
0
LINE
8
BLACK
6
CONTINUOUS
10
84.387
20
-30.3992
11
84.3955
21
-30.4138
0
LINE
8
BLACK
6
CONTINUOUS
10
84.3955
20
-30.4138
11
84.3984
21
-30.4305
0
LINE
8
BLACK
6
CONTINUOUS
10
84.3984
20
-30.4305
11
84.4042
21
-30.4464
0
LINE
8
BLACK
6
CONTINUOUS
10
84.4042
20
-30.4464
11
84.4042
21
-30.4633
0
LINE
8
BLACK
6
CONTINUOUS
10
84.4042
20
-30.4633
11
84.4042
21
-30.4633
0
LINE
8
BLACK
6
CONTINUOUS
10
84.4042
20
-30.4633
11
84.4042
21
-31.5595
0
LINE
8
BLACK
6
CONTINUOUS
10
84.4042
20
-31.5595
11
88.519
21
-31.5595
0
LINE
8
BLACK
6
CONTINUOUS
10
88.519
20
-31.5595
11
88.519
21
-30.4633
0
LINE
8
BLACK
6
CONTINUOUS
10
88.519
20
-30.4633
11
88.519
21
-30.4633
0
LINE
8
BLACK
6
CONTINUOUS
10
88.519
20
-30.4633
11
88.519
21
-30.4464
0
LINE
8
BLACK
6
CONTINUOUS
10
88.519
20
-30.4464
11
88.5248
21
-30.4305
0
LINE
8
BLACK
6
CONTINUOUS
10
88.5248
20
-30.4305
11
88.5277
21
-30.4138
0
LINE
8
BLACK
6
CONTINUOUS
10
88.5277
20
-30.4138
11
88.5362
21
-30.3992
0
LINE
8
BLACK
6
CONTINUOUS
10
88.5362
20
-30.3992
11
88.542
21
-30.3833
0
LINE
8
BLACK
6
CONTINUOUS
10
88.542
20
-30.3833
11
88.5529
21
-30.3703
0
LINE
8
BLACK
6
CONTINUOUS
10
88.5529
20
-30.3703
11
88.5613
21
-30.3557
0
LINE
8
BLACK
6
CONTINUOUS
10
88.5613
20
-30.3557
11
88.5743
21
-30.3448
0
LINE
8
BLACK
6
CONTINUOUS
10
88.5743
20
-30.3448
11
88.5852
21
-30.3318
0
LINE
8
BLACK
6
CONTINUOUS
10
88.5852
20
-30.3318
11
88.5998
21
-30.3234
0
LINE
8
BLACK
6
CONTINUOUS
10
88.5998
20
-30.3234
11
88.6128
21
-30.3125
0
LINE
8
BLACK
6
CONTINUOUS
10
88.6128
20
-30.3125
11
88.6287
21
-30.3067
0
LINE
8
BLACK
6
CONTINUOUS
10
88.6287
20
-30.3067
11
88.6433
21
-30.2982
0
LINE
8
BLACK
6
CONTINUOUS
10
88.6433
20
-30.2982
11
88.66
21
-30.2953
0
LINE
8
BLACK
6
CONTINUOUS
10
88.66
20
-30.2953
11
88.6759
21
-30.2895
0
LINE
8
BLACK
6
CONTINUOUS
10
88.6759
20
-30.2895
11
88.6928
21
-30.2895
0
LINE
8
BLACK
6
CONTINUOUS
10
88.6928
20
-30.2895
11
88.6928
21
-30.2895
0
LINE
8
BLACK
6
CONTINUOUS
10
88.6928
20
-30.2895
11
95.0635
21
-30.2895
0
LINE
8
BLACK
6
CONTINUOUS
10
95.0635
20
-30.2895
11
95.0635
21
-30.2895
0
LINE
8
BLACK
6
CONTINUOUS
10
95.0635
20
-30.2895
11
95.0804
21
-30.2895
0
LINE
8
BLACK
6
CONTINUOUS
10
95.0804
20
-30.2895
11
95.0963
21
-30.2953
0
LINE
8
BLACK
6
CONTINUOUS
10
95.0963
20
-30.2953
11
95.113
21
-30.2982
0
LINE
8
BLACK
6
CONTINUOUS
10
95.113
20
-30.2982
11
95.1276
21
-30.3067
0
LINE
8
BLACK
6
CONTINUOUS
10
95.1276
20
-30.3067
11
95.1435
21
-30.3125
0
LINE
8
BLACK
6
CONTINUOUS
10
95.1435
20
-30.3125
11
95.1565
21
-30.3234
0
LINE
8
BLACK
6
CONTINUOUS
10
95.1565
20
-30.3234
11
95.1711
21
-30.3318
0
LINE
8
BLACK
6
CONTINUOUS
10
95.1711
20
-30.3318
11
95.182
21
-30.3448
0
LINE
8
BLACK
6
CONTINUOUS
10
95.182
20
-30.3448
11
95.195
21
-30.3557
0
LINE
8
BLACK
6
CONTINUOUS
10
95.195
20
-30.3557
11
95.2034
21
-30.3703
0
LINE
8
BLACK
6
CONTINUOUS
10
95.2034
20
-30.3703
11
95.2143
21
-30.3833
0
LINE
8
BLACK
6
CONTINUOUS
10
95.2143
20
-30.3833
11
95.2201
21
-30.3992
0
LINE
8
BLACK
6
CONTINUOUS
10
95.2201
20
-30.3992
11
95.2286
21
-30.4138
0
LINE
8
BLACK
6
CONTINUOUS
10
95.2286
20
-30.4138
11
95.2315
21
-30.4305
0
LINE
8
BLACK
6
CONTINUOUS
10
95.2315
20
-30.4305
11
95.2373
21
-30.4464
0
LINE
8
BLACK
6
CONTINUOUS
10
95.2373
20
-30.4464
11
95.2373
21
-30.4633
0
LINE
8
BLACK
6
CONTINUOUS
10
95.2373
20
-30.4633
11
95.2373
21
-30.4633
0
LINE
8
BLACK
6
CONTINUOUS
10
95.2373
20
-30.4633
11
95.2373
21
-32.0675
0
LINE
8
BLACK
6
CONTINUOUS
10
95.2373
20
-32.0675
11
131.712
21
-32.0675
0
LINE
8
BLACK
6
CONTINUOUS
10
131.712
20
-32.0675
11
131.712
21
-30.4633
0
LINE
8
BLACK
6
CONTINUOUS
10
131.712
20
-30.4633
11
131.712
21
-30.4633
0
LINE
8
BLACK
6
CONTINUOUS
10
131.712
20
-30.4633
11
131.712
21
-30.4464
0
LINE
8
BLACK
6
CONTINUOUS
10
131.712
20
-30.4464
11
131.717
21
-30.4305
0
LINE
8
BLACK
6
CONTINUOUS
10
131.717
20
-30.4305
11
131.72
21
-30.4138
0
LINE
8
BLACK
6
CONTINUOUS
10
131.72
20
-30.4138
11
131.729
21
-30.3992
0
LINE
8
BLACK
6
CONTINUOUS
10
131.729
20
-30.3992
11
131.735
21
-30.3833
0
LINE
8
BLACK
6
CONTINUOUS
10
131.735
20
-30.3833
11
131.746
21
-30.3703
0
LINE
8
BLACK
6
CONTINUOUS
10
131.746
20
-30.3703
11
131.754
21
-30.3557
0
LINE
8
BLACK
6
CONTINUOUS
10
131.754
20
-30.3557
11
131.767
21
-30.3448
0
LINE
8
BLACK
6
CONTINUOUS
10
131.767
20
-30.3448
11
131.778
21
-30.3318
0
LINE
8
BLACK
6
CONTINUOUS
10
131.778
20
-30.3318
11
131.793
21
-30.3234
0
LINE
8
BLACK
6
CONTINUOUS
10
131.793
20
-30.3234
11
131.805
21
-30.3125
0
LINE
8
BLACK
6
CONTINUOUS
10
131.805
20
-30.3125
11
131.821
21
-30.3067
0
LINE
8
BLACK
6
CONTINUOUS
10
131.821
20
-30.3067
11
131.836
21
-30.2982
0
LINE
8
BLACK
6
CONTINUOUS
10
131.836
20
-30.2982
11
131.853
21
-30.2953
0
LINE
8
BLACK
6
CONTINUOUS
10
131.853
20
-30.2953
11
131.869
21
-30.2895
0
LINE
8
BLACK
6
CONTINUOUS
10
131.869
20
-30.2895
11
131.886
21
-30.2895
0
LINE
8
BLACK
6
CONTINUOUS
10
131.886
20
-30.2895
11
131.886
21
-30.2895
0
LINE
8
BLACK
6
CONTINUOUS
10
131.886
20
-30.2895
11
143.425
21
-30.2895
0
LINE
8
BLACK
6
CONTINUOUS
10
143.425
20
-30.2895
11
143.425
21
-30.2895
0
LINE
8
BLACK
6
CONTINUOUS
10
143.425
20
-30.2895
11
143.442
21
-30.2895
0
LINE
8
BLACK
6
CONTINUOUS
10
143.442
20
-30.2895
11
143.458
21
-30.2953
0
LINE
8
BLACK
6
CONTINUOUS
10
143.458
20
-30.2953
11
143.475
21
-30.2982
0
LINE
8
BLACK
6
CONTINUOUS
10
143.475
20
-30.2982
11
143.489
21
-30.3067
0
LINE
8
BLACK
6
CONTINUOUS
10
143.489
20
-30.3067
11
143.505
21
-30.3125
0
LINE
8
BLACK
6
CONTINUOUS
10
143.505
20
-30.3125
11
143.518
21
-30.3234
0
LINE
8
BLACK
6
CONTINUOUS
10
143.518
20
-30.3234
11
143.533
21
-30.3318
0
LINE
8
BLACK
6
CONTINUOUS
10
143.533
20
-30.3318
11
143.544
21
-30.3448
0
LINE
8
BLACK
6
CONTINUOUS
10
143.544
20
-30.3448
11
143.557
21
-30.3557
0
LINE
8
BLACK
6
CONTINUOUS
10
143.557
20
-30.3557
11
143.565
21
-30.3703
0
LINE
8
BLACK
6
CONTINUOUS
10
143.565
20
-30.3703
11
143.576
21
-30.3833
0
LINE
8
BLACK
6
CONTINUOUS
10
143.576
20
-30.3833
11
143.582
21
-30.3992
0
LINE
8
BLACK
6
CONTINUOUS
10
143.582
20
-30.3992
11
143.59
21
-30.4138
0
LINE
8
BLACK
6
CONTINUOUS
10
143.59
20
-30.4138
11
143.593
21
-30.4305
0
LINE
8
BLACK
6
CONTINUOUS
10
143.593
20
-30.4305
11
143.599
21
-30.4464
0
LINE
8
BLACK
6
CONTINUOUS
10
143.599
20
-30.4464
11
143.599
21
-30.4633
0
LINE
8
BLACK
6
CONTINUOUS
10
143.599
20
-30.4633
11
143.599
21
-30.4633
0
LINE
8
BLACK
6
CONTINUOUS
10
143.599
20
-30.4633
11
143.599
21
-32.0675
0
LINE
8
BLACK
6
CONTINUOUS
10
143.599
20
-32.0675
11
193.921
21
-32.0675
0
LINE
8
BLACK
6
CONTINUOUS
10
193.921
20
-32.0675
11
193.946
21
-32.0653
0
LINE
8
BLACK
6
CONTINUOUS
10
193.946
20
-32.0653
11
193.97
21
-32.0718
0
LINE
8
BLACK
6
CONTINUOUS
10
193.97
20
-32.0718
11
193.995
21
-32.0762
0
LINE
8
BLACK
6
CONTINUOUS
10
193.995
20
-32.0762
11
194.003
21
-32.0805
0
LINE
8
BLACK
6
CONTINUOUS
10
194.003
20
-32.0805
11
194.011
21
-32.0827
0
LINE
8
BLACK
6
CONTINUOUS
10
194.011
20
-32.0827
11
194.031
21
-32.0972
0
LINE
8
BLACK
6
CONTINUOUS
10
194.031
20
-32.0972
11
194.053
21
-32.1098
0
LINE
8
BLACK
6
CONTINUOUS
10
194.053
20
-32.1098
11
194.07
21
-32.1292
0
LINE
8
BLACK
6
CONTINUOUS
10
194.07
20
-32.1292
11
196.471
21
-34.5304
0
LINE
8
BLACK
6
CONTINUOUS
10
196.471
20
-34.5304
11
196.49
21
-34.5467
0
LINE
8
BLACK
6
CONTINUOUS
10
196.49
20
-34.5467
11
196.503
21
-34.5685
0
LINE
8
BLACK
6
CONTINUOUS
10
196.503
20
-34.5685
11
196.517
21
-34.5892
0
LINE
8
BLACK
6
CONTINUOUS
10
196.517
20
-34.5892
11
196.52
21
-34.5975
0
LINE
8
BLACK
6
CONTINUOUS
10
196.52
20
-34.5975
11
196.524
21
-34.6048
0
LINE
8
BLACK
6
CONTINUOUS
10
196.524
20
-34.6048
11
196.528
21
-34.6297
0
LINE
8
BLACK
6
CONTINUOUS
10
196.528
20
-34.6297
11
196.535
21
-34.6541
0
LINE
8
BLACK
6
CONTINUOUS
10
196.535
20
-34.6541
11
196.532
21
-34.6793
0
LINE
8
BLACK
6
CONTINUOUS
10
196.532
20
-34.6793
11
196.532
21
-151.118
0
LINE
8
BLACK
6
CONTINUOUS
10
196.532
20
-151.118
11
196.535
21
-151.14
0
LINE
8
BLACK
6
CONTINUOUS
10
196.535
20
-151.14
11
196.529
21
-151.168
0
LINE
8
BLACK
6
CONTINUOUS
10
196.529
20
-151.168
11
196.524
21
-151.196
0
LINE
8
BLACK
6
CONTINUOUS
10
196.524
20
-151.196
11
196.521
21
-151.2
0
LINE
8
BLACK
6
CONTINUOUS
10
196.521
20
-151.2
11
196.52
21
-151.205
0
LINE
8
BLACK
6
CONTINUOUS
10
196.52
20
-151.205
11
196.505
21
-151.229
0
LINE
8
BLACK
6
CONTINUOUS
10
196.505
20
-151.229
11
196.49
21
-151.254
0
LINE
8
BLACK
6
CONTINUOUS
10
196.49
20
-151.254
11
196.474
21
-151.268
0
LINE
8
BLACK
6
CONTINUOUS
10
196.474
20
-151.268
11
194.834
21
-153.034
0
LINE
8
BLACK
6
CONTINUOUS
10
194.834
20
-153.034
11
194.815
21
-153.056
0
LINE
8
BLACK
6
CONTINUOUS
10
194.815
20
-153.056
11
194.797
21
-153.067
0
LINE
8
BLACK
6
CONTINUOUS
10
194.797
20
-153.067
11
194.779
21
-153.08
0
LINE
8
BLACK
6
CONTINUOUS
10
194.779
20
-153.08
11
194.768
21
-153.084
0
LINE
8
BLACK
6
CONTINUOUS
10
194.768
20
-153.084
11
194.757
21
-153.09
0
LINE
8
BLACK
6
CONTINUOUS
10
194.757
20
-153.09
11
194.736
21
-153.094
0
LINE
8
BLACK
6
CONTINUOUS
10
194.736
20
-153.094
11
194.715
21
-153.1
0
LINE
8
BLACK
6
CONTINUOUS
10
194.715
20
-153.1
11
194.686
21
-153.099
0
LINE
8
BLACK
6
CONTINUOUS
10
194.686
20
-153.099
11
127.267
21
-153.099
0
LINE
8
BLACK
6
CONTINUOUS
10
127.267
20
-153.099
11
49.0874
21
-189.537
0
LINE
8
BLACK
6
CONTINUOUS
10
49.0874
20
-189.537
11
49.0388
21
-189.55
0
LINE
8
BLACK
6
CONTINUOUS
10
49.0388
20
-189.55
11
48.9857
21
-189.545
0
LINE
8
BLACK
6
CONTINUOUS
10
48.9857
20
-189.545
11
48.984
21
-189.545
0
LINE
8
BLACK
6
CONTINUOUS
10
48.984
20
-189.545
11
48.9787
21
-189.544
0
LINE
8
BLACK
6
CONTINUOUS
10
48.9787
20
-189.544
11
48.9719
21
-189.544
0
LINE
8
BLACK
6
CONTINUOUS
10
48.9719
20
-189.544
11
48.9698
21
-189.543
0
LINE
8
BLACK
6
CONTINUOUS
10
48.9698
20
-189.543
11
48.9345
21
-189.537
0
LINE
8
BLACK
6
CONTINUOUS
10
48.9345
20
-189.537
11
44.7076
21
-188
0
LINE
8
BLACK
6
CONTINUOUS
10
44.7076
20
-188
11
44.6832
21
-187.993
0
LINE
8
BLACK
6
CONTINUOUS
10
44.6832
20
-187.993
11
44.6625
21
-187.979
0
LINE
8
BLACK
6
CONTINUOUS
10
44.6625
20
-187.979
11
44.6407
21
-187.966
0
LINE
8
BLACK
6
CONTINUOUS
10
44.6407
20
-187.966
11
44.6352
21
-187.959
0
LINE
8
BLACK
6
CONTINUOUS
10
44.6352
20
-187.959
11
44.6282
21
-187.955
0
LINE
8
BLACK
6
CONTINUOUS
10
44.6282
20
-187.955
11
44.6137
21
-187.934
0
LINE
8
BLACK
6
CONTINUOUS
10
44.6137
20
-187.934
11
44.5975
21
-187.915
0
LINE
8
BLACK
6
CONTINUOUS
10
44.5975
20
-187.915
11
44.5888
21
-187.891
0
LINE
8
BLACK
6
CONTINUOUS
10
44.5888
20
-187.891
11
22.9118
21
-141.403
0
LINE
8
BLACK
6
CONTINUOUS
10
22.9118
20
-141.403
11
22.8992
21
-141.382
0
LINE
8
BLACK
6
CONTINUOUS
10
22.8992
20
-141.382
11
22.8948
21
-141.357
0
LINE
8
BLACK
6
CONTINUOUS
10
22.8948
20
-141.357
11
22.8883
21
-141.332
0
LINE
8
BLACK
6
CONTINUOUS
10
22.8883
20
-141.332
11
22.889
21
-141.324
0
LINE
8
BLACK
6
CONTINUOUS
10
22.889
20
-141.324
11
22.8875
21
-141.315
0
LINE
8
BLACK
6
CONTINUOUS
10
22.8875
20
-141.315
11
22.8919
21
-141.291
0
LINE
8
BLACK
6
CONTINUOUS
10
22.8919
20
-141.291
11
22.8941
21
-141.265
0
LINE
8
BLACK
6
CONTINUOUS
10
22.8941
20
-141.265
11
22.9048
21
-141.242
0
LINE
8
BLACK
6
CONTINUOUS
10
22.9048
20
-141.242
11
24.4358
21
-137.039
0
LINE
8
BLACK
6
CONTINUOUS
10
24.4358
20
-137.039
11
24.4424
21
-137.015
0
LINE
8
BLACK
6
CONTINUOUS
10
24.4424
20
-137.015
11
24.4569
21
-136.994
0
LINE
8
BLACK
6
CONTINUOUS
10
24.4569
20
-136.994
11
24.4695
21
-136.972
0
LINE
8
BLACK
6
CONTINUOUS
10
24.4695
20
-136.972
11
24.476
21
-136.967
0
LINE
8
BLACK
6
CONTINUOUS
10
24.476
20
-136.967
11
24.4809
21
-136.96
0
LINE
8
BLACK
6
CONTINUOUS
10
24.4809
20
-136.96
11
24.5016
21
-136.945
0
LINE
8
BLACK
6
CONTINUOUS
10
24.5016
20
-136.945
11
24.521
21
-136.929
0
LINE
8
BLACK
6
CONTINUOUS
10
24.521
20
-136.929
11
24.5447
21
-136.92
0
LINE
8
BLACK
6
CONTINUOUS
10
24.5447
20
-136.92
11
62.4205
21
-119.259
0
LINE
8
BLACK
6
CONTINUOUS
10
62.4205
20
-119.259
11
62.4205
21
-35.4409
0
LINE
8
BLACK
6
CONTINUOUS
10
62.4205
20
-35.4409
11
62.4184
21
-35.4154
0
LINE
8
BLACK
6
CONTINUOUS
10
62.4184
20
-35.4154
11
62.4249
21
-35.3914
0
LINE
8
BLACK
6
CONTINUOUS
10
62.4249
20
-35.3914
11
62.4292
21
-35.3668
0
LINE
8
BLACK
6
CONTINUOUS
10
62.4292
20
-35.3668
11
62.4337
21
-35.3591
0
LINE
8
BLACK
6
CONTINUOUS
10
62.4337
20
-35.3591
11
62.436
21
-35.3506
0
LINE
8
BLACK
6
CONTINUOUS
10
62.436
20
-35.3506
11
62.4504
21
-35.3302
0
LINE
8
BLACK
6
CONTINUOUS
10
62.4504
20
-35.3302
11
62.4628
21
-35.3087
0
LINE
8
BLACK
6
CONTINUOUS
10
62.4628
20
-35.3087
11
62.4825
21
-35.2922
0
LINE
8
BLACK
6
CONTINUOUS
10
62.4825
20
-35.2922
11
65.6711
21
-32.1289
0
LINE
8
BLACK
6
CONTINUOUS
10
65.6711
20
-32.1289
11
65.6871
21
-32.1098
0
LINE
8
BLACK
6
CONTINUOUS
10
65.6871
20
-32.1098
11
65.7093
21
-32.097
0
LINE
8
BLACK
6
CONTINUOUS
10
65.7093
20
-32.097
11
65.7303
21
-32.0824
0
LINE
8
BLACK
6
CONTINUOUS
10
65.7303
20
-32.0824
11
65.7382
21
-32.0803
0
LINE
8
BLACK
6
CONTINUOUS
10
65.7382
20
-32.0803
11
65.7452
21
-32.0762
0
LINE
8
BLACK
6
CONTINUOUS
10
65.7452
20
-32.0762
11
65.7705
21
-32.0718
0
LINE
8
BLACK
6
CONTINUOUS
10
65.7705
20
-32.0718
11
65.7953
21
-32.0652
0
LINE
8
BLACK
6
CONTINUOUS
10
65.7953
20
-32.0652
11
65.8201
21
-32.0675
0
LINE
8
BLACK
6
CONTINUOUS
10
65.8201
20
-32.0675
11
77.6859
21
-32.0675
0
LINE
8
BLACK
6
CONTINUOUS
10
77.6859
20
-32.0675
11
77.6859
21
-30.4633
0
LINE
8
BLACK
6
CONTINUOUS
10
77.6859
20
-30.4633
11
77.6859
21
-30.4633
0
LINE
8
BLACK
6
CONTINUOUS
10
77.6859
20
-30.4633
11
77.6859
21
-30.4464
0
LINE
8
BLACK
6
CONTINUOUS
10
77.6859
20
-30.4464
11
77.6917
21
-30.4305
0
LINE
8
BLACK
6
CONTINUOUS
10
77.6917
20
-30.4305
11
77.6946
21
-30.4138
0
LINE
8
BLACK
6
CONTINUOUS
10
77.6946
20
-30.4138
11
77.7031
21
-30.3992
0
LINE
8
BLACK
6
CONTINUOUS
10
77.7031
20
-30.3992
11
77.7089
21
-30.3833
0
LINE
8
BLACK
6
CONTINUOUS
10
77.7089
20
-30.3833
11
77.7198
21
-30.3703
0
LINE
8
BLACK
6
CONTINUOUS
10
77.7198
20
-30.3703
11
77.7282
21
-30.3557
0
LINE
8
BLACK
6
CONTINUOUS
10
77.7282
20
-30.3557
11
77.7412
21
-30.3448
0
LINE
8
BLACK
6
CONTINUOUS
10
77.7412
20
-30.3448
11
77.7521
21
-30.3318
0
LINE
8
BLACK
6
CONTINUOUS
10
77.7521
20
-30.3318
11
77.7667
21
-30.3234
0
LINE
8
BLACK
6
CONTINUOUS
10
77.7667
20
-30.3234
11
77.7797
21
-30.3125
0
LINE
8
BLACK
6
CONTINUOUS
10
77.7797
20
-30.3125
11
77.7956
21
-30.3067
0
LINE
8
BLACK
6
CONTINUOUS
10
77.7956
20
-30.3067
11
77.8102
21
-30.2982
0
LINE
8
BLACK
6
CONTINUOUS
10
77.8102
20
-30.2982
11
77.8269
21
-30.2953
0
LINE
8
BLACK
6
CONTINUOUS
10
77.8269
20
-30.2953
11
77.8428
21
-30.2895
0
LINE
8
BLACK
6
CONTINUOUS
10
77.8428
20
-30.2895
11
77.8597
21
-30.2895
0
LINE
8
BLACK
6
CONTINUOUS
10
77.8597
20
-30.2895
11
77.8597
21
-30.2895
0
LINE
8
BLACK
6
CONTINUOUS
10
77.8597
20
-30.2895
11
84.2304
21
-30.2895
0
LINE
8
BLACK
6
CONTINUOUS
10
84.2304
20
-30.2895
11
84.2304
21
-30.2895
0
LINE
8
BLACK
6
CONTINUOUS
10
78.0669
20
-30.6705
11
78.0669
21
-32.2747
0
LINE
8
BLACK
6
CONTINUOUS
10
78.0669
20
-32.2747
11
78.0669
21
-32.2747
0
LINE
8
BLACK
6
CONTINUOUS
10
78.0669
20
-32.2747
11
78.0669
21
-32.2916
0
LINE
8
BLACK
6
CONTINUOUS
10
78.0669
20
-32.2916
11
78.0611
21
-32.3075
0
LINE
8
BLACK
6
CONTINUOUS
10
78.0611
20
-32.3075
11
78.0582
21
-32.3242
0
LINE
8
BLACK
6
CONTINUOUS
10
78.0582
20
-32.3242
11
78.0497
21
-32.3388
0
LINE
8
BLACK
6
CONTINUOUS
10
78.0497
20
-32.3388
11
78.0439
21
-32.3547
0
LINE
8
BLACK
6
CONTINUOUS
10
78.0439
20
-32.3547
11
78.033
21
-32.3677
0
LINE
8
BLACK
6
CONTINUOUS
10
78.033
20
-32.3677
11
78.0246
21
-32.3823
0
LINE
8
BLACK
6
CONTINUOUS
10
78.0246
20
-32.3823
11
78.0116
21
-32.3932
0
LINE
8
BLACK
6
CONTINUOUS
10
78.0116
20
-32.3932
11
78.0007
21
-32.4062
0
LINE
8
BLACK
6
CONTINUOUS
10
78.0007
20
-32.4062
11
77.9861
21
-32.4146
0
LINE
8
BLACK
6
CONTINUOUS
10
77.9861
20
-32.4146
11
77.9731
21
-32.4255
0
LINE
8
BLACK
6
CONTINUOUS
10
77.9731
20
-32.4255
11
77.9572
21
-32.4313
0
LINE
8
BLACK
6
CONTINUOUS
10
77.9572
20
-32.4313
11
77.9426
21
-32.4398
0
LINE
8
BLACK
6
CONTINUOUS
10
77.9426
20
-32.4398
11
77.9259
21
-32.4427
0
LINE
8
BLACK
6
CONTINUOUS
10
77.9259
20
-32.4427
11
77.91
21
-32.4485
0
LINE
8
BLACK
6
CONTINUOUS
10
77.91
20
-32.4485
11
77.8931
21
-32.4485
0
LINE
8
BLACK
6
CONTINUOUS
10
77.8931
20
-32.4485
11
77.8931
21
-32.4485
0
LINE
8
BLACK
6
CONTINUOUS
10
77.8931
20
-32.4485
11
65.8899
21
-32.4485
0
LINE
8
BLACK
6
CONTINUOUS
10
65.8899
20
-32.4485
11
62.8015
21
-35.5124
0
LINE
8
BLACK
6
CONTINUOUS
10
62.8015
20
-35.5124
11
62.8015
21
-119.372
0
LINE
8
BLACK
6
CONTINUOUS
10
62.8015
20
-119.372
11
62.8037
21
-119.397
0
LINE
8
BLACK
6
CONTINUOUS
10
62.8037
20
-119.397
11
62.7972
21
-119.421
0
LINE
8
BLACK
6
CONTINUOUS
10
62.7972
20
-119.421
11
62.7928
21
-119.446
0
LINE
8
BLACK
6
CONTINUOUS
10
62.7928
20
-119.446
11
62.7885
21
-119.454
0
LINE
8
BLACK
6
CONTINUOUS
10
62.7885
20
-119.454
11
62.7863
21
-119.462
0
LINE
8
BLACK
6
CONTINUOUS
10
62.7863
20
-119.462
11
62.7718
21
-119.482
0
LINE
8
BLACK
6
CONTINUOUS
10
62.7718
20
-119.482
11
62.7592
21
-119.504
0
LINE
8
BLACK
6
CONTINUOUS
10
62.7592
20
-119.504
11
62.7527
21
-119.51
0
LINE
8
BLACK
6
CONTINUOUS
10
62.7527
20
-119.51
11
62.7478
21
-119.517
0
LINE
8
BLACK
6
CONTINUOUS
10
62.7478
20
-119.517
11
62.7271
21
-119.531
0
LINE
8
BLACK
6
CONTINUOUS
10
62.7271
20
-119.531
11
62.7077
21
-119.548
0
LINE
8
BLACK
6
CONTINUOUS
10
62.7077
20
-119.548
11
62.684
21
-119.556
0
LINE
8
BLACK
6
CONTINUOUS
10
62.684
20
-119.556
11
24.7697
21
-137.236
0
LINE
8
BLACK
6
CONTINUOUS
10
24.7697
20
-137.236
11
23.287
21
-141.306
0
LINE
8
BLACK
6
CONTINUOUS
10
23.287
20
-141.306
11
44.9042
21
-187.666
0
LINE
8
BLACK
6
CONTINUOUS
10
44.9042
20
-187.666
11
49.0024
21
-189.156
0
LINE
8
BLACK
6
CONTINUOUS
10
49.0024
20
-189.156
11
127.114
21
-152.749
0
LINE
8
BLACK
6
CONTINUOUS
10
127.114
20
-152.749
11
127.154
21
-152.726
0
LINE
8
BLACK
6
CONTINUOUS
10
127.154
20
-152.726
11
127.201
21
-152.718
0
LINE
8
BLACK
6
CONTINUOUS
10
127.201
20
-152.718
11
127.203
21
-152.717
0
LINE
8
BLACK
6
CONTINUOUS
10
127.203
20
-152.717
11
127.206
21
-152.718
0
LINE
8
BLACK
6
CONTINUOUS
10
127.206
20
-152.718
11
194.608
21
-152.718
0
LINE
8
BLACK
6
CONTINUOUS
10
194.608
20
-152.718
11
196.151
21
-151.055
0
LINE
8
BLACK
6
CONTINUOUS
10
196.151
20
-151.055
11
196.152
21
-34.7499
0
LINE
8
BLACK
6
CONTINUOUS
10
196.152
20
-34.7499
11
193.85
21
-32.4485
0
LINE
8
BLACK
6
CONTINUOUS
10
193.85
20
-32.4485
11
143.392
21
-32.4485
0
LINE
8
BLACK
6
CONTINUOUS
10
143.392
20
-32.4485
11
143.392
21
-32.4485
0
LINE
8
BLACK
6
CONTINUOUS
10
143.392
20
-32.4485
11
143.375
21
-32.4485
0
LINE
8
BLACK
6
CONTINUOUS
10
143.375
20
-32.4485
11
143.359
21
-32.4427
0
LINE
8
BLACK
6
CONTINUOUS
10
143.359
20
-32.4427
11
143.342
21
-32.4398
0
LINE
8
BLACK
6
CONTINUOUS
10
143.342
20
-32.4398
11
143.328
21
-32.4313
0
LINE
8
BLACK
6
CONTINUOUS
10
143.328
20
-32.4313
11
143.312
21
-32.4255
0
LINE
8
BLACK
6
CONTINUOUS
10
143.312
20
-32.4255
11
143.299
21
-32.4146
0
LINE
8
BLACK
6
CONTINUOUS
10
143.299
20
-32.4146
11
143.284
21
-32.4062
0
LINE
8
BLACK
6
CONTINUOUS
10
143.284
20
-32.4062
11
143.273
21
-32.3932
0
LINE
8
BLACK
6
CONTINUOUS
10
143.273
20
-32.3932
11
143.26
21
-32.3823
0
LINE
8
BLACK
6
CONTINUOUS
10
143.26
20
-32.3823
11
143.252
21
-32.3677
0
LINE
8
BLACK
6
CONTINUOUS
10
143.252
20
-32.3677
11
143.241
21
-32.3547
0
LINE
8
BLACK
6
CONTINUOUS
10
143.241
20
-32.3547
11
143.235
21
-32.3388
0
LINE
8
BLACK
6
CONTINUOUS
10
143.235
20
-32.3388
11
143.227
21
-32.3242
0
LINE
8
BLACK
6
CONTINUOUS
10
143.227
20
-32.3242
11
143.224
21
-32.3075
0
LINE
8
BLACK
6
CONTINUOUS
10
143.224
20
-32.3075
11
143.218
21
-32.2916
0
LINE
8
BLACK
6
CONTINUOUS
10
143.218
20
-32.2916
11
143.218
21
-32.2747
0
LINE
8
BLACK
6
CONTINUOUS
10
143.218
20
-32.2747
11
143.218
21
-32.2747
0
LINE
8
BLACK
6
CONTINUOUS
10
143.218
20
-32.2747
11
143.218
21
-30.6705
0
LINE
8
BLACK
6
CONTINUOUS
10
143.218
20
-30.6705
11
132.093
21
-30.6705
0
LINE
8
BLACK
6
CONTINUOUS
10
132.093
20
-30.6705
11
132.093
21
-32.2747
0
LINE
8
BLACK
6
CONTINUOUS
10
132.093
20
-32.2747
11
132.093
21
-32.2747
0
LINE
8
BLACK
6
CONTINUOUS
10
132.093
20
-32.2747
11
132.093
21
-32.2916
0
LINE
8
BLACK
6
CONTINUOUS
10
132.093
20
-32.2916
11
132.087
21
-32.3075
0
LINE
8
BLACK
6
CONTINUOUS
10
132.087
20
-32.3075
11
132.084
21
-32.3242
0
LINE
8
BLACK
6
CONTINUOUS
10
132.084
20
-32.3242
11
132.076
21
-32.3388
0
LINE
8
BLACK
6
CONTINUOUS
10
132.076
20
-32.3388
11
132.07
21
-32.3547
0
LINE
8
BLACK
6
CONTINUOUS
10
132.07
20
-32.3547
11
132.059
21
-32.3677
0
LINE
8
BLACK
6
CONTINUOUS
10
132.059
20
-32.3677
11
132.05
21
-32.3823
0
LINE
8
BLACK
6
CONTINUOUS
10
132.05
20
-32.3823
11
132.037
21
-32.3932
0
LINE
8
BLACK
6
CONTINUOUS
10
132.037
20
-32.3932
11
132.027
21
-32.4062
0
LINE
8
BLACK
6
CONTINUOUS
10
132.027
20
-32.4062
11
132.012
21
-32.4146
0
LINE
8
BLACK
6
CONTINUOUS
10
132.012
20
-32.4146
11
131.999
21
-32.4255
0
LINE
8
BLACK
6
CONTINUOUS
10
131.999
20
-32.4255
11
131.983
21
-32.4313
0
LINE
8
BLACK
6
CONTINUOUS
10
131.983
20
-32.4313
11
131.968
21
-32.4398
0
LINE
8
BLACK
6
CONTINUOUS
10
131.968
20
-32.4398
11
131.952
21
-32.4427
0
LINE
8
BLACK
6
CONTINUOUS
10
131.952
20
-32.4427
11
131.936
21
-32.4485
0
LINE
8
BLACK
6
CONTINUOUS
10
131.936
20
-32.4485
11
131.919
21
-32.4485
0
LINE
8
BLACK
6
CONTINUOUS
10
131.919
20
-32.4485
11
131.919
21
-32.4485
0
LINE
8
BLACK
6
CONTINUOUS
10
131.919
20
-32.4485
11
95.0301
21
-32.4485
0
LINE
8
BLACK
6
CONTINUOUS
10
95.0301
20
-32.4485
11
95.0301
21
-32.4485
0
LINE
8
BLACK
6
CONTINUOUS
10
95.0301
20
-32.4485
11
95.0132
21
-32.4485
0
LINE
8
BLACK
6
CONTINUOUS
10
95.0132
20
-32.4485
11
94.9973
21
-32.4427
0
LINE
8
BLACK
6
CONTINUOUS
10
94.9973
20
-32.4427
11
94.9806
21
-32.4398
0
LINE
8
BLACK
6
CONTINUOUS
10
94.9806
20
-32.4398
11
94.966
21
-32.4313
0
LINE
8
BLACK
6
CONTINUOUS
10
94.966
20
-32.4313
11
94.9501
21
-32.4255
0
LINE
8
BLACK
6
CONTINUOUS
10
94.9501
20
-32.4255
11
94.9371
21
-32.4146
0
LINE
8
BLACK
6
CONTINUOUS
10
94.9371
20
-32.4146
11
94.9225
21
-32.4062
0
LINE
8
BLACK
6
CONTINUOUS
10
94.9225
20
-32.4062
11
94.9116
21
-32.3932
0
LINE
8
BLACK
6
CONTINUOUS
10
94.9116
20
-32.3932
11
94.8986
21
-32.3823
0
LINE
8
BLACK
6
CONTINUOUS
10
94.8986
20
-32.3823
11
94.8902
21
-32.3677
0
LINE
8
BLACK
6
CONTINUOUS
10
94.8902
20
-32.3677
11
94.8793
21
-32.3547
0
LINE
8
BLACK
6
CONTINUOUS
10
94.8793
20
-32.3547
11
94.8735
21
-32.3388
0
LINE
8
BLACK
6
CONTINUOUS
10
94.8735
20
-32.3388
11
94.865
21
-32.3242
0
LINE
8
BLACK
6
CONTINUOUS
10
94.865
20
-32.3242
11
94.8621
21
-32.3075
0
LINE
8
BLACK
6
CONTINUOUS
10
94.8621
20
-32.3075
11
94.8563
21
-32.2916
0
LINE
8
BLACK
6
CONTINUOUS
10
94.8563
20
-32.2916
11
94.8563
21
-32.2747
0
LINE
8
BLACK
6
CONTINUOUS
10
94.8563
20
-32.2747
11
94.8563
21
-32.2747
0
LINE
8
BLACK
6
CONTINUOUS
10
94.8563
20
-32.2747
11
94.8563
21
-30.6705
0
LINE
8
BLACK
6
CONTINUOUS
10
94.8563
20
-30.6705
11
88.9
21
-30.6705
0
LINE
8
BLACK
6
CONTINUOUS
10
88.9
20
-30.6705
11
88.9
21
-31.7667
0
LINE
8
BLACK
6
CONTINUOUS
10
88.9
20
-31.7667
11
88.9
21
-31.7667
0
LINE
8
BLACK
6
CONTINUOUS
10
88.9
20
-31.7667
11
88.9
21
-31.7836
0
LINE
8
BLACK
6
CONTINUOUS
10
88.9
20
-31.7836
11
88.8942
21
-31.7995
0
LINE
8
BLACK
6
CONTINUOUS
10
88.8942
20
-31.7995
11
88.8913
21
-31.8162
0
LINE
8
BLACK
6
CONTINUOUS
10
88.8913
20
-31.8162
11
88.8828
21
-31.8308
0
LINE
8
BLACK
6
CONTINUOUS
10
88.8828
20
-31.8308
11
88.877
21
-31.8467
0
LINE
8
BLACK
6
CONTINUOUS
10
88.877
20
-31.8467
11
88.8661
21
-31.8597
0
LINE
8
BLACK
6
CONTINUOUS
10
88.8661
20
-31.8597
11
88.8577
21
-31.8743
0
LINE
8
BLACK
6
CONTINUOUS
10
88.8577
20
-31.8743
11
88.8447
21
-31.8852
0
LINE
8
BLACK
6
CONTINUOUS
10
88.8447
20
-31.8852
11
88.8338
21
-31.8982
0
LINE
8
BLACK
6
CONTINUOUS
10
88.8338
20
-31.8982
11
88.8192
21
-31.9066
0
LINE
8
BLACK
6
CONTINUOUS
10
88.8192
20
-31.9066
11
88.8062
21
-31.9175
0
LINE
8
BLACK
6
CONTINUOUS
10
88.8062
20
-31.9175
11
88.7903
21
-31.9233
0
LINE
8
BLACK
6
CONTINUOUS
10
88.7903
20
-31.9233
11
88.7757
21
-31.9318
0
LINE
8
BLACK
6
CONTINUOUS
10
88.7757
20
-31.9318
11
88.759
21
-31.9347
0
LINE
8
BLACK
6
CONTINUOUS
10
88.759
20
-31.9347
11
88.7431
21
-31.9405
0
LINE
8
BLACK
6
CONTINUOUS
10
88.7431
20
-31.9405
11
88.7262
21
-31.9405
0
LINE
8
BLACK
6
CONTINUOUS
10
88.7262
20
-31.9405
11
88.7262
21
-31.9405
0
LINE
8
BLACK
6
CONTINUOUS
10
88.7262
20
-31.9405
11
84.197
21
-31.9405
0
LINE
8
BLACK
6
CONTINUOUS
10
84.197
20
-31.9405
11
84.197
21
-31.9405
0
LINE
8
BLACK
6
CONTINUOUS
10
84.197
20
-31.9405
11
84.1801
21
-31.9405
0
LINE
8
BLACK
6
CONTINUOUS
10
84.1801
20
-31.9405
11
84.1642
21
-31.9347
0
LINE
8
BLACK
6
CONTINUOUS
10
84.1642
20
-31.9347
11
84.1475
21
-31.9318
0
LINE
8
BLACK
6
CONTINUOUS
10
84.1475
20
-31.9318
11
84.1329
21
-31.9233
0
LINE
8
BLACK
6
CONTINUOUS
10
84.1329
20
-31.9233
11
84.117
21
-31.9175
0
LINE
8
BLACK
6
CONTINUOUS
10
84.117
20
-31.9175
11
84.104
21
-31.9066
0
LINE
8
BLACK
6
CONTINUOUS
10
84.104
20
-31.9066
11
84.0894
21
-31.8982
0
LINE
8
BLACK
6
CONTINUOUS
10
84.0894
20
-31.8982
11
84.0785
21
-31.8852
0
LINE
8
BLACK
6
CONTINUOUS
10
84.0785
20
-31.8852
11
84.0655
21
-31.8743
0
LINE
8
BLACK
6
CONTINUOUS
10
84.0655
20
-31.8743
11
84.0571
21
-31.8597
0
LINE
8
BLACK
6
CONTINUOUS
10
84.0571
20
-31.8597
11
84.0462
21
-31.8467
0
LINE
8
BLACK
6
CONTINUOUS
10
84.0462
20
-31.8467
11
84.0404
21
-31.8308
0
LINE
8
BLACK
6
CONTINUOUS
10
84.0404
20
-31.8308
11
84.0319
21
-31.8162
0
LINE
8
BLACK
6
CONTINUOUS
10
84.0319
20
-31.8162
11
84.029
21
-31.7995
0
LINE
8
BLACK
6
CONTINUOUS
10
84.029
20
-31.7995
11
84.0232
21
-31.7836
0
LINE
8
BLACK
6
CONTINUOUS
10
84.0232
20
-31.7836
11
84.0232
21
-31.7667
0
LINE
8
BLACK
6
CONTINUOUS
10
84.0232
20
-31.7667
11
84.0232
21
-31.7667
0
LINE
8
BLACK
6
CONTINUOUS
10
84.0232
20
-31.7667
11
84.0232
21
-30.6705
0
LINE
8
BLACK
6
CONTINUOUS
10
84.0232
20
-30.6705
11
78.0669
21
-30.6705
  0
ENDSEC
  0
EOF
