G04 #@! TF.GenerationSoftware,KiCad,Pcbnew,(5.0.1)-rc2*
G04 #@! TF.CreationDate,2018-10-18T10:44:41+02:00*
G04 #@! TF.ProjectId,ErgoDone,4572676F446F6E652E6B696361645F70,rev?*
G04 #@! TF.SameCoordinates,Original*
G04 #@! TF.FileFunction,Paste,Top*
G04 #@! TF.FilePolarity,Positive*
%FSLAX46Y46*%
G04 Gerber Fmt 4.6, Leading zero omitted, Abs format (unit mm)*
G04 Created by KiCad (PCBNEW (5.0.1)-rc2) date 2018-10-18 10:44:41*
%MOMM*%
%LPD*%
G01*
G04 APERTURE LIST*
%ADD10R,1.000000X1.600000*%
%ADD11C,1.000000*%
%ADD12C,0.150000*%
G04 APERTURE END LIST*
D10*
G04 #@! TO.C,D1*
X70864600Y-72669400D03*
X73864600Y-72669400D03*
G04 #@! TD*
G04 #@! TO.C,D3*
X70928100Y-91808300D03*
X73928100Y-91808300D03*
G04 #@! TD*
G04 #@! TO.C,D5*
X70765855Y-129926046D03*
X73765855Y-129926046D03*
G04 #@! TD*
D11*
G04 #@! TO.C,D7*
X55307938Y-145998127D03*
D12*
G36*
X55192879Y-146934482D02*
X54516689Y-145484390D01*
X55422997Y-145061772D01*
X56099187Y-146511864D01*
X55192879Y-146934482D01*
X55192879Y-146934482D01*
G37*
D11*
X58026862Y-144730273D03*
D12*
G36*
X57911803Y-145666628D02*
X57235613Y-144216536D01*
X58141921Y-143793918D01*
X58818111Y-145244010D01*
X57911803Y-145666628D01*
X57911803Y-145666628D01*
G37*
G04 #@! TD*
D11*
G04 #@! TO.C,D9*
X36613538Y-150874927D03*
D12*
G36*
X36498479Y-151811282D02*
X35822289Y-150361190D01*
X36728597Y-149938572D01*
X37404787Y-151388664D01*
X36498479Y-151811282D01*
X36498479Y-151811282D01*
G37*
D11*
X39332462Y-149607073D03*
D12*
G36*
X39217403Y-150543428D02*
X38541213Y-149093336D01*
X39447521Y-148670718D01*
X40123711Y-150120810D01*
X39217403Y-150543428D01*
X39217403Y-150543428D01*
G37*
G04 #@! TD*
D10*
G04 #@! TO.C,D11*
X89914600Y-72669400D03*
X92914600Y-72669400D03*
G04 #@! TD*
G04 #@! TO.C,D13*
X89914600Y-91770200D03*
X92914600Y-91770200D03*
G04 #@! TD*
G04 #@! TO.C,D15*
X89914600Y-110871000D03*
X92914600Y-110871000D03*
G04 #@! TD*
G04 #@! TO.C,D17*
X89863800Y-129870200D03*
X92863800Y-129870200D03*
G04 #@! TD*
D11*
G04 #@! TO.C,D19*
X72579938Y-138022527D03*
D12*
G36*
X72464879Y-138958882D02*
X71788689Y-137508790D01*
X72694997Y-137086172D01*
X73371187Y-138536264D01*
X72464879Y-138958882D01*
X72464879Y-138958882D01*
G37*
D11*
X75298862Y-136754673D03*
D12*
G36*
X75183803Y-137691028D02*
X74507613Y-136240936D01*
X75413921Y-135818318D01*
X76090111Y-137268410D01*
X75183803Y-137691028D01*
X75183803Y-137691028D01*
G37*
G04 #@! TD*
D11*
G04 #@! TO.C,D21*
X53783938Y-142746927D03*
D12*
G36*
X53668879Y-143683282D02*
X52992689Y-142233190D01*
X53898997Y-141810572D01*
X54575187Y-143260664D01*
X53668879Y-143683282D01*
X53668879Y-143683282D01*
G37*
D11*
X56502862Y-141479073D03*
D12*
G36*
X56387803Y-142415428D02*
X55711613Y-140965336D01*
X56617921Y-140542718D01*
X57294111Y-141992810D01*
X56387803Y-142415428D01*
X56387803Y-142415428D01*
G37*
G04 #@! TD*
D10*
G04 #@! TO.C,D23*
X108964600Y-71450200D03*
X111964600Y-71450200D03*
G04 #@! TD*
G04 #@! TO.C,D25*
X108964600Y-90449400D03*
X111964600Y-90449400D03*
G04 #@! TD*
G04 #@! TO.C,D27*
X108964600Y-109550200D03*
X111964600Y-109550200D03*
G04 #@! TD*
G04 #@! TO.C,D29*
X108913800Y-128600200D03*
X111913800Y-128600200D03*
G04 #@! TD*
G04 #@! TO.C,D31*
X108913800Y-147650200D03*
X111913800Y-147650200D03*
G04 #@! TD*
D11*
G04 #@! TO.C,D33*
X44589138Y-168146927D03*
D12*
G36*
X44474079Y-169083282D02*
X43797889Y-167633190D01*
X44704197Y-167210572D01*
X45380387Y-168660664D01*
X44474079Y-169083282D01*
X44474079Y-169083282D01*
G37*
D11*
X47308062Y-166879073D03*
D12*
G36*
X47193003Y-167815428D02*
X46516813Y-166365336D01*
X47423121Y-165942718D01*
X48099311Y-167392810D01*
X47193003Y-167815428D01*
X47193003Y-167815428D01*
G37*
G04 #@! TD*
D10*
G04 #@! TO.C,D35*
X127963800Y-69824600D03*
X130963800Y-69824600D03*
G04 #@! TD*
G04 #@! TO.C,D37*
X128014600Y-88925400D03*
X131014600Y-88925400D03*
G04 #@! TD*
G04 #@! TO.C,D39*
X127963800Y-107975400D03*
X130963800Y-107975400D03*
G04 #@! TD*
G04 #@! TO.C,D41*
X128065400Y-126974600D03*
X131065400Y-126974600D03*
G04 #@! TD*
G04 #@! TO.C,D43*
X127963800Y-146075400D03*
X130963800Y-146075400D03*
G04 #@! TD*
D11*
G04 #@! TO.C,D45*
X88848127Y-151295662D03*
D12*
G36*
X89784482Y-151410721D02*
X88334390Y-152086911D01*
X87911772Y-151180603D01*
X89361864Y-150504413D01*
X89784482Y-151410721D01*
X89784482Y-151410721D01*
G37*
D11*
X87580273Y-148576738D03*
D12*
G36*
X88516628Y-148691797D02*
X87066536Y-149367987D01*
X86643918Y-148461679D01*
X88094010Y-147785489D01*
X88516628Y-148691797D01*
X88516628Y-148691797D01*
G37*
G04 #@! TD*
D10*
G04 #@! TO.C,D47*
X147013800Y-71450200D03*
X150013800Y-71450200D03*
G04 #@! TD*
G04 #@! TO.C,D49*
X146963000Y-90500200D03*
X149963000Y-90500200D03*
G04 #@! TD*
G04 #@! TO.C,D51*
X147064600Y-109550200D03*
X150064600Y-109550200D03*
G04 #@! TD*
G04 #@! TO.C,D53*
X147064600Y-128600200D03*
X150064600Y-128600200D03*
G04 #@! TD*
G04 #@! TO.C,D55*
X147064600Y-147650200D03*
X150064600Y-147650200D03*
G04 #@! TD*
D11*
G04 #@! TO.C,D57*
X71576127Y-159322062D03*
D12*
G36*
X72512482Y-159437121D02*
X71062390Y-160113311D01*
X70639772Y-159207003D01*
X72089864Y-158530813D01*
X72512482Y-159437121D01*
X72512482Y-159437121D01*
G37*
D11*
X70308273Y-156603138D03*
D12*
G36*
X71244628Y-156718197D02*
X69794536Y-157394387D01*
X69371918Y-156488079D01*
X70822010Y-155811889D01*
X71244628Y-156718197D01*
X71244628Y-156718197D01*
G37*
G04 #@! TD*
D10*
G04 #@! TO.C,D59*
X166063800Y-74650600D03*
X169063800Y-74650600D03*
G04 #@! TD*
G04 #@! TO.C,D61*
X166114600Y-93649800D03*
X169114600Y-93649800D03*
G04 #@! TD*
G04 #@! TO.C,D63*
X166063800Y-112750600D03*
X169063800Y-112750600D03*
G04 #@! TD*
G04 #@! TO.C,D65*
X166114600Y-131800600D03*
X169114600Y-131800600D03*
G04 #@! TD*
G04 #@! TO.C,D67*
X166114600Y-150799800D03*
X169114600Y-150799800D03*
G04 #@! TD*
D11*
G04 #@! TO.C,D69*
X52615538Y-185368127D03*
D12*
G36*
X52500479Y-186304482D02*
X51824289Y-184854390D01*
X52730597Y-184431772D01*
X53406787Y-185881864D01*
X52500479Y-186304482D01*
X52500479Y-186304482D01*
G37*
D11*
X55334462Y-184100273D03*
D12*
G36*
X55219403Y-185036628D02*
X54543213Y-183586536D01*
X55449521Y-183163918D01*
X56125711Y-184614010D01*
X55219403Y-185036628D01*
X55219403Y-185036628D01*
G37*
G04 #@! TD*
D10*
G04 #@! TO.C,D79*
X185164600Y-150799800D03*
X188164600Y-150799800D03*
G04 #@! TD*
G04 #@! TO.C,D71*
X185190000Y-74676000D03*
X188190000Y-74676000D03*
G04 #@! TD*
G04 #@! TO.C,D73*
X185190000Y-93726000D03*
X188190000Y-93726000D03*
G04 #@! TD*
G04 #@! TO.C,D76*
X185190000Y-112776000D03*
X188190000Y-112776000D03*
G04 #@! TD*
G04 #@! TO.C,D78*
X185190000Y-131826000D03*
X188190000Y-131826000D03*
G04 #@! TD*
G04 #@! TO.C,D802*
X70950960Y-110744000D03*
X73950960Y-110744000D03*
G04 #@! TD*
M02*
